<svg height='100px' width='100px'  fill="#ffffff" xmlns="http://www.w3.org/2000/svg" xmlns:xlink="http://www.w3.org/1999/xlink" version="1.1" x="0px" y="0px" viewBox="0 0 87.5 99" style="enable-background:new 0 0 87.5 99;" xml:space="preserve"><path d="M49.2,67.2l-3.7-0.9c-2.7-0.7-5.1-2.2-6.7-4.4l-0.7-1c-0.8-1.1-1.2-2.5-0.9-3.9c0.3-1.6,0.7-2.9,1.3-3.7  c0.8-1.1,3.3-0.4,3.9-0.2c1.1,0.4,2.3-0.1,2.7-1.2c0.4-1.1-0.1-2.3-1.2-2.7c-2.2-0.9-6.6-1.5-8.8,1.7c-0.9,1.3-1.5,3.1-1.9,5.3  c-0.4,2.5,0.2,5.1,1.7,7.1l0.7,1c2.2,2.9,5.4,5.1,9,6l3.7,0.9c0.2,0,0.3,0.1,0.5,0.1c0.9,0,1.8-0.6,2-1.6  C51,68.6,50.3,67.5,49.2,67.2z"></path><path d="M87.2,57.8L80,46.6c0.5-2.6,1.6-10.3-0.2-16.4c-1.1-3.8-5.9-9-14.1-15.6c-0.7-0.8-2-0.9-2.8-0.2c-1.8,1.5-3.9,3-6.2,4.6  l-1-1.6c4.4-3.2,8.1-6.5,10.7-9.6l0.8,5.2c0.1,1,1,1.8,2,1.8c0.1,0,0.2,0,0.3,0c1.1-0.2,1.9-1.2,1.8-2.3L69.8,1.8c0,0,0,0,0,0  c0-0.2-0.1-0.3-0.1-0.5c0,0,0-0.1-0.1-0.1c-0.1-0.1-0.1-0.2-0.2-0.3c0,0,0-0.1,0-0.1c0,0,0,0,0,0c-0.1-0.1-0.2-0.2-0.3-0.3  c0,0,0,0-0.1,0c-0.1-0.1-0.2-0.1-0.4-0.2c-0.1,0-0.1,0-0.2-0.1c-0.1,0-0.2-0.1-0.3-0.1C68,0,68,0,67.9,0c-0.2,0-0.3,0-0.5,0  c0,0,0,0,0,0c0,0,0,0,0,0L57.1,1.6c-1.1,0.2-1.9,1.2-1.7,2.4c0.2,1.1,1.2,1.9,2.4,1.7l6.1-0.9c-2.3,2.9-5.8,6-10.2,9.2l-1.2-2  c0.3-0.3,0.7-0.6,1-0.9c0,0,0.1-0.1,0.1-0.1c0-0.1,0.1-0.1,0.1-0.2c0-0.1,0.1-0.1,0.1-0.2c0-0.1,0.1-0.1,0.1-0.2  c0-0.1,0.1-0.1,0.1-0.2c0-0.1,0-0.1,0.1-0.2c0,0,0,0,0,0c0,0,0,0,0,0c0.3-1.1-0.4-2.2-1.5-2.5c-5.3-1.4-13.2-2.5-21.4-0.1  C16.2,11.9,6.6,22.1,5,34.9c-0.3,0.5-0.3,1.2-0.1,1.7c0.3,0.8,1.1,1.3,1.9,1.3c0.3,0,0.6-0.1,0.8-0.2c0.1-0.1,0.6-0.3,1.3-0.6  l0.6,1.1c-3.2,1.5-6.1,2.7-8.4,3.7c-1.1,0.4-1.6,1.7-1.1,2.7c0.3,0.8,1.1,1.3,1.9,1.3c0.3,0,0.5-0.1,0.8-0.2  c0.5-0.2,3.8-1.6,8.7-3.8l1.5,2.7c-2.9,1.5-4.6,2.4-4.7,2.4c0,0-0.1,0.1-0.1,0.1c-0.1,0-0.1,0.1-0.2,0.1c0,0-0.1,0.1-0.1,0.1  c-0.1,0-0.1,0.1-0.2,0.2c0,0-0.1,0.1-0.1,0.1c0,0.1-0.1,0.1-0.1,0.2c0,0,0,0.1-0.1,0.1c0,0.1-0.1,0.1-0.1,0.2c0,0,0,0.1,0,0.1  c0,0.1,0,0.2-0.1,0.2c0,0.1,0,0.1,0,0.2c0,0.1,0,0.2,0,0.2c0,0.1,0,0.1,0,0.2c0,0.1,0,0.1,0,0.2c2.6,10.1,7.6,19.1,16.9,29.9  l-6.7,16.8c-0.3,0.6-0.2,1.4,0.2,1.9c0.4,0.6,1,0.9,1.7,0.9h36.1c0.7,0,1.3-0.3,1.7-0.9l5.1-7.1c0.3-0.4,0.7-0.6,1.1-0.6h10.3  c0.6,0,1.2-0.1,1.8-0.3l2.6-0.9c2-0.7,3.4-2.5,3.7-4.6l0.2-2.3c0.1-0.5,0.4-0.9,0.9-1.1c2-0.8,3.4-2.7,3.5-4.9l0.1-1.5  c0.1-1.6-0.5-3-1.6-4.1c1-0.9,1.5-2.2,1.4-3.6c-0.1-1.4-0.8-2.6-1.9-3.5l-0.5-0.4l3.1-2.8C87.6,59.8,87.8,58.7,87.2,57.8z M11.7,50  c2.2-1.1,6.6-3.4,12-6.4c1,1.9,2.2,3.7,3.4,5.3c-6.4,3.2-11.4,5.5-13.6,6.5C12.9,53.7,12.2,51.9,11.7,50z M22.1,16.8  c2.4,0,7.2,0.3,12.7,2.4c-4.1,2.5-8.3,4.8-12.2,6.8C22.1,22.1,22.1,18.7,22.1,16.8z M40.4,20.6l0.7,1.4c-4.7,2.8-9.7,5.5-14.6,8  L25.9,29C30.6,26.5,35.6,23.7,40.4,20.6z M43.1,25.7l0.8,1.6c-4.8,2.9-9.8,5.8-14.4,8.4l-1-2C33.2,31.3,38.2,28.6,43.1,25.7z   M30.9,47c-1.3-1.6-2.5-3.4-3.5-5.4c6.8-3.7,14.7-8.2,22-12.8c1.5,1.5,2.9,3.1,4.3,5C46.1,38.8,38,43.4,30.9,47z M57,31.6  c-1.4-1.9-2.7-3.5-4.1-5c4.2-2.7,8-5.4,11.3-7.9c1.6,1.3,3,2.5,4.3,3.7C65.3,25.5,61.3,28.6,57,31.6z M53.3,21.4  c-1.9,1.2-3.8,2.5-5.8,3.8l-0.8-1.6c2-1.2,3.9-2.5,5.7-3.7L53.3,21.4z M50.2,16.3c-1.7,1.2-3.6,2.4-5.5,3.5l-0.8-1.5  c1.8-1.2,3.6-2.5,5.2-3.7L50.2,16.3z M32.3,11.5C37.7,9.9,43,10,47.4,10.7c-2.5,2-5.3,3.9-8.2,5.8c-4.2-2-8.1-3-11.3-3.4  C29.6,12.3,31.2,11.8,32.3,11.5z M17.9,19.1c0,2.3,0.2,5.4,0.8,8.8c-3.6,1.8-6.7,3.3-9,4.3C11.1,26.6,14.3,22.3,17.9,19.1z   M12.8,35.4c2.5-1.2,5.8-2.7,9.4-4.6l0.6,1.1c-3.3,1.6-6.5,3.2-9.4,4.6L12.8,35.4z M15.3,40.2c2.8-1.3,6-2.9,9.4-4.5l1.1,2.1  c-0.7,0.4-1.4,0.8-2,1.1c0,0-0.1,0-0.1,0c-0.1,0.1-0.3,0.1-0.4,0.2c-2.4,1.3-4.7,2.5-6.7,3.6L15.3,40.2z M79.1,61.9  c-0.5,0.4-0.7,1-0.7,1.6c0,0.6,0.3,1.2,0.8,1.6l2.5,1.9c0.2,0.1,0.2,0.3,0.2,0.4c0,0.1,0,0.3-0.2,0.4L80,69.5  c-0.5,0.4-0.7,1.1-0.6,1.7c0.1,0.7,0.5,1.2,1,1.6l1.1,0.7c0.4,0.3,0.7,0.7,0.7,1.2l-0.1,1.5c0,0.5-0.4,1-0.9,1.2  c-1.9,0.8-3.3,2.5-3.5,4.6l-0.2,2.3c-0.1,0.5-0.4,1-0.9,1.1l-2.6,0.9c-0.1,0-0.3,0.1-0.4,0.1H63.4c-1.8,0-3.4,0.9-4.5,2.3l-4.5,6.3  H22.5l6-15.1c0.3-0.7,0.1-1.5-0.4-2.1c-5.8-6.6-9.9-12.5-12.8-18.3c6.7-3,39.9-18.2,56.2-34c2.4,2.5,3.9,4.6,4.4,6.1  c1.8,6.3,0,15.1,0,15.2c-0.1,0.5,0,1.1,0.3,1.6l6.7,10.5L79.1,61.9z"></path></svg>