<svg height='100px' width='100px'  fill="#ffffff" xmlns="http://www.w3.org/2000/svg" xmlns:xlink="http://www.w3.org/1999/xlink" version="1.1" x="0px" y="0px" viewBox="0 0 538.23 197.543" style="enable-background:new 0 0 538.23 197.543;" xml:space="preserve"><g><ellipse transform="matrix(0.9921 -0.1251 0.1251 0.9921 0.3613 50.7426)" cx="404.06" cy="22.495" rx="22.495" ry="22.494"></ellipse><path d="M365.277,123.247c0-2.043,0.332-4.008,0.931-5.854c-3.902,1.339-7.005,4.567-8.068,8.729l-13.886,54.333   c-1.711,6.688,2.325,13.496,9.015,15.207c1.037,0.265,2.08,0.392,3.103,0.392c5.576,0.001,10.658-3.756,12.103-9.406l0.111-0.438   c-2.091-3.07-3.31-6.76-3.31-10.697V123.247z"></path><path d="M384.311,107.211c-8.857,0-16.035,7.18-16.035,16.035v52.264c0,7.848,5.644,14.369,13.094,15.752v6.281h25.656v-6h58.793v6   h25.657v-6.281c7.449-1.382,13.095-7.902,13.095-15.752v-42.049l32.265-78.111c3.381-8.186,0.405-17.184-6.65-20.096l-17.877-7.387   c-7.053-2.912-15.512,1.361-18.893,9.547l-28.83,69.797h-66.614c0.445-1.013,0.902-2.014,1.371-3.002   c1.056-2.223,2.164-4.391,3.337-6.485c-0.011-1.815,0.036-3.63,0.109-5.442c-1.401,0.167-2.819,0.252-4.245,0.252h-0.002h-0.074   c-1.486-0.003-2.982-0.09-4.492-0.258c-0.348,1.675-0.637,3.245-0.848,4.655c0.85,2.479,1.779,4.9,2.77,7.278   c0.42,1.01,0.852,2.011,1.297,3.002H384.311z"></path><polygon points="333.468,196.176 333.468,129.176 343.134,129.176 343.134,116.176 205.766,116.176 205.766,129.176    215.433,129.176 215.433,196.176 224.1,196.176 224.1,165.512 324.801,165.512 324.801,196.176  "></polygon><path d="M405.938,69.633c0.037,0.145,0.062,0.291,0.101,0.435c0.504-0.31,1.005-0.644,1.508-1.03   c2.658-2.08,4.38-4.901,4.996-6.017c0.609-1.092,0.887-1.801,0.899-1.83c1.478-3.966,5.317-6.634,9.555-6.634   c1.189,0,2.36,0.207,3.487,0.616c2.559,0.93,4.604,2.8,5.758,5.268c1.151,2.47,1.275,5.239,0.343,7.801   c-0.438,1.168-1.68,4.164-4.101,7.771c-3.725,5.514-8.364,9.755-13.798,12.609c-1.051,0.553-2.141,1.038-3.253,1.477   c1.104,4.564,2.106,9.318,2.841,14.11h36.742c-0.412-14.802-3.216-26.1-9.552-41.433c-5.997-14.275-18.652-18.079-27.029-15.388   c-2.492,0.8-4.492,2.45-5.996,4.611c-0.068,0.015-0.132,0.048-0.188,0.117c-2.556,3.151-5.859,11.153-8.764,19.973   c2.381-0.146,4.379-0.739,6.306-1.873C405.838,70.022,405.891,69.829,405.938,69.633z"></path><ellipse transform="matrix(0.1251 -0.9921 0.9921 0.1251 95.0645 152.7965)" cx="134.17" cy="22.495" rx="22.494" ry="22.495"></ellipse><path d="M123.957,104.209c0.361-2.363,0.786-4.715,1.262-7.042c-3.684-2.761-7.003-6.032-9.912-9.788   c-6.707-8.701-9.225-17.069-9.997-20.262l-0.024-0.104c-0.602-2.739-0.112-5.469,1.357-7.761c1.471-2.295,3.748-3.877,6.409-4.458   c0.721-0.157,1.456-0.238,2.188-0.238c4.75,0,8.938,3.373,9.956,8.02l0.079,0.294c0.086,0.313,0.246,0.859,0.49,1.559   c0.457,1.327,1.275,3.394,2.58,5.752c0.806,1.456,1.683,2.821,2.627,4.099c0.214-0.79,0.425-1.571,0.626-2.327   c3.524-9.74,0.571-21.875-7.804-24.564c-8.377-2.691-21.032,1.112-27.029,15.388c-6.336,15.333-9.14,26.631-9.551,41.433H123.957z"></path><path d="M172.953,175.512c0,3.938-1.219,7.628-3.311,10.697l0.111,0.437c1.445,5.65,6.527,9.406,12.103,9.406   c1.024,0,2.065-0.127,3.105-0.392c6.689-1.709,10.726-8.517,9.018-15.205l-13.889-54.335c-1.064-4.161-4.165-7.391-8.068-8.73   c0.6,1.848,0.932,3.813,0.932,5.856V175.512z"></path><path d="M73.645,107.211l-28.83-69.797c-3.381-8.186-11.84-12.459-18.893-9.547L8.045,35.254C0.99,38.167-1.986,47.165,1.395,55.35   l32.265,78.111v42.049c0,7.85,5.646,14.37,13.095,15.752v6.281h25.657v-6h58.793v6h25.656v-6.281   c7.45-1.383,13.094-7.904,13.094-15.752v-52.264c0-7.564-5.243-13.889-12.291-15.578c-2.329-0.037-4.608-0.186-6.831-0.457H73.645z   "></path><path d="M356.098,71.24v-7.522h2.213c0.184-0.304,0.384-0.602,0.603-0.891c0.589-0.776,1.279-1.439,2.033-2.006   c-0.567-0.253-1.192-0.401-1.853-0.401h-2.995v-3.916h-24.182v19.889c0,1.82,1.477,3.298,3.298,3.298H352.8   c1.82,0,3.298-1.478,3.298-3.298v-1.855h2.405c-0.661-1.019-1.133-2.134-1.396-3.297H356.098z"></path><path d="M347.512,47.186c3.691,1.648,9.207-1.647,10.581-4.123c-7.076,3.23-9.351,0.551-12.673-1.305   c-3.691-2.063-10.891-1.236-11.444,4.74c-0.184,3.092,1.384,5.05,6.275,7.625C337.667,45.056,345.298,46.362,347.512,47.186z"></path><path d="M181.526,94.529c0.385,2.159,0.063,4.331-0.889,6.265v1.113h-0.634c-0.054,0.081-0.099,0.165-0.153,0.244   c-0.85,1.221-1.937,2.21-3.181,2.943c0.314,0.068,0.638,0.109,0.973,0.109h2.995v1.855c0,1.82,1.478,3.298,3.298,3.298h17.586   c1.82,0,3.298-1.478,3.298-3.298V87.17h-24.182v3.916h-0.396C180.859,92.123,181.303,93.281,181.526,94.529z"></path><path d="M202.759,77.166c-0.554-5.977-7.753-6.803-11.444-4.74c-3.322,1.855-5.597,4.534-12.673,1.305   c1.374,2.476,6.89,5.771,10.581,4.123c2.214-0.824,9.845-2.13,7.261,6.938C201.375,82.215,202.944,80.257,202.759,77.166z"></path><path d="M398.532,90.334c5.806,0.001,10.957-1.463,15.132-3.658c6.313-3.32,10.412-8.068,12.993-11.89   c2.581-3.847,3.699-6.869,3.86-7.297c1.51-4.152-0.634-8.742-4.785-10.251c-4.135-1.502-8.698,0.613-10.23,4.727l-0.001-0.001   c-0.001,0.003-0.004,0.01-0.009,0.022c-0.054,0.14-0.379,0.943-1.023,2.097c-1.06,1.918-2.974,4.657-5.579,6.695   c-2.65,2.042-5.743,3.522-10.42,3.555c-5.665,0.017-14.372-2.467-26.593-11.727c-3.521-2.668-8.541-1.976-11.209,1.546   c-2.667,3.522-1.976,8.54,1.547,11.209c13.94,10.561,25.874,14.954,36.255,14.973C398.491,90.334,398.511,90.334,398.532,90.334z"></path><path d="M227.87,54.203c-0.357-1.047-1.498-1.607-2.545-1.248l-2.846,0.971c-1.047,0.359-1.605,1.497-1.248,2.545l16.87,49.359   h-2.461c-1.107,0-2.004,0.896-2.004,2.004v3.007c0,1.107,0.897,2.006,2.004,2.006h54.119c1.106,0,2.004-0.898,2.004-2.006v-3.007   c0-1.108-0.898-2.004-2.004-2.004h-44.295c-0.016-0.139-0.045-0.278-0.093-0.416L227.87,54.203z"></path><path d="M123.69,65.157c-0.265-0.759-0.438-1.351-0.541-1.719c-0.051-0.186-0.084-0.314-0.1-0.383l-0.002-0.006   c-0.945-4.316-5.209-7.051-9.525-6.105c-4.316,0.942-7.049,5.206-6.106,9.522c0.174,0.679,2.17,9.886,9.631,19.565   c3.733,4.819,8.909,9.742,15.866,13.422c6.928,3.68,15.584,6.044,25.854,6.045c0.031,0,0.063,0,0.094-0.001   c4.379,0,9.049-0.417,14.03-1.305c4.348-0.775,7.245-4.932,6.47-9.279c-0.775-4.35-4.929-7.248-9.279-6.472   c-4.135,0.736-7.861,1.057-11.221,1.057c-7.924-0.01-13.811-1.737-18.463-4.187c-6.939-3.667-11.305-9.235-13.977-14.065   C125.092,68.847,124.213,66.671,123.69,65.157z"></path></g></svg>