<svg height='100px' width='100px'  fill="#ffffff" xmlns="http://www.w3.org/2000/svg" xmlns:xlink="http://www.w3.org/1999/xlink" xml:space="preserve" version="1.1" style="shape-rendering:geometricPrecision;text-rendering:geometricPrecision;image-rendering:optimizeQuality;" viewBox="0 0 280 280" x="0px" y="0px" fill-rule="evenodd" clip-rule="evenodd"><defs><style type="text/css">
   
    .fil0 {fill:#ffffff;fill-rule:nonzero}
   
  </style></defs><g><path class="fil0" d="M140 9c36.174,0 68.925,14.663 92.631,38.369 23.706,23.706 38.369,56.457 38.369,92.631 0,36.174 -14.663,68.925 -38.369,92.631 -23.706,23.706 -56.457,38.369 -92.631,38.369 -36.174,0 -68.925,-14.663 -92.631,-38.369 -23.706,-23.706 -38.369,-56.457 -38.369,-92.631 0,-36.174 14.663,-68.925 38.369,-92.631 23.706,-23.706 56.457,-38.369 92.631,-38.369zm1.499 18.25c30.7,0.402 58.438,13.064 78.537,33.315 20.234,20.386 32.734,48.454 32.734,79.435 0,31.037 -12.545,59.15 -32.842,79.544 -20.092,20.188 -47.787,32.807 -78.429,33.207l0 11.483c0,0.277 -0.075,0.536 -0.205,0.758 34.004,-0.345 64.757,-14.266 87.095,-36.603 22.62,-22.621 36.611,-53.871 36.611,-88.389 0,-34.518 -13.991,-65.768 -36.611,-88.389 -22.338,-22.337 -53.091,-36.258 -87.095,-36.603 0.13,0.222 0.205,0.481 0.205,0.758l0 11.484zm-4.3 237.718c-23.985,-13.506 -41.958,-32.635 -53.912,-54.555 -1.959,-3.591 -3.754,-7.257 -5.389,-10.985l-0.679 0.116c-15.812,2.739 -29.689,6.6 -40.027,11.579 4.286,6.184 9.116,11.962 14.419,17.266 22.007,22.007 52.183,35.844 85.588,36.579zm-102.247 -57.194c10.698,-5.244 25.042,-9.285 41.353,-12.125 -6.972,-17.217 -10.569,-35.648 -10.788,-54.104l-50.508 0c0.296,24.394 7.581,47.106 19.943,66.229zm-19.943 -69.229l50.502 0c0.16,-20.053 4.303,-40.06 12.431,-58.498 -15.802,-2.869 -29.68,-6.948 -39.999,-12.239 -14.188,20.022 -22.634,44.401 -22.934,70.737zm25.324 -73.995c10.045,5.038 23.6,8.94 39.067,11.699l0.262 0.046c1.203,-2.527 2.482,-5.023 3.839,-7.481 11.948,-21.659 29.844,-40.511 53.69,-53.782 -33.402,0.737 -63.575,14.575 -85.58,36.579 -4.046,4.047 -7.815,8.37 -11.278,12.939zm98.143 164.937c0,-0.091 0.007,-0.18 0.023,-0.266l0 -34.652c-19.537,0.077 -39.047,1.476 -56.536,4.196 1.477,3.303 3.085,6.553 4.824,9.742 11.497,21.082 28.736,39.507 51.712,52.607l0 -21.501c-0.016,-0.086 -0.023,-0.175 -0.023,-0.266l0 -9.86zm3.023 -0.272c0.016,0.088 0.025,0.179 0.025,0.272l0 9.86c0,0.093 -0.009,0.184 -0.025,0.272l0 9.147c29.534,-0.399 56.228,-12.569 75.601,-32.035 19.572,-19.666 31.67,-46.784 31.67,-76.731 0,-29.893 -12.053,-56.967 -31.562,-76.623 -19.383,-19.53 -46.122,-31.745 -75.709,-32.143l0 91.245c4.428,0.375 8.387,2.387 11.266,5.426 2.991,3.157 4.825,7.415 4.825,12.095 0,4.668 -1.824,8.914 -4.798,12.066l39.616 25.065c0.698,0.44 0.908,1.363 0.468,2.062 -0.44,0.699 -1.363,0.909 -2.062,0.469l-40.349 -25.529c-2.546,1.888 -5.623,3.105 -8.966,3.388l0 71.694zm-61.163 -34.237c17.914,-2.85 38.013,-4.315 58.163,-4.393l0 -49.04 -68.997 0c0.222,18.245 3.835,36.461 10.834,53.433zm58.163 -109.795c-19.587,-0.081 -39.117,-1.559 -56.5,-4.432 -8.174,18.184 -12.342,37.968 -12.503,57.794l69.003 0 0 -53.362zm-54.739 -8.195c16.932,2.728 35.822,4.132 54.739,4.211l0 -62.33c-22.834,12.864 -40.001,31.026 -51.498,51.867 -1.136,2.058 -2.216,4.144 -3.241,6.252zm57.739 49.498l0 27.028c3.272,-0.358 6.197,-1.88 8.35,-4.143 2.318,-2.435 3.741,-5.735 3.741,-9.371 0,-3.625 -1.413,-6.914 -3.716,-9.345 -2.158,-2.277 -5.092,-3.809 -8.375,-4.169zm62.854 -48.686c-0.588,0.589 -1.548,0.584 -2.142,-0.01 -0.595,-0.595 -0.6,-1.554 -0.011,-2.143l6.973 -6.973c0.588,-0.588 1.548,-0.583 2.142,0.011 0.594,0.594 0.599,1.554 0.011,2.142l-6.973 6.973zm25.133 63.729c-0.835,0 -1.513,-0.685 -1.513,-1.529 0,-0.844 0.678,-1.528 1.513,-1.528l9.861 0c0.836,0 1.513,0.684 1.513,1.528 0,0.844 -0.677,1.529 -1.513,1.529l-9.861 0zm-27.286 62.824c-0.589,-0.588 -0.584,-1.548 0.01,-2.142 0.595,-0.595 1.554,-0.6 2.143,-0.011l6.972 6.973c0.589,0.588 0.584,1.548 -0.01,2.142 -0.595,0.595 -1.554,0.6 -2.143,0.011l-6.972 -6.973z"></path></g></svg>