<svg height='100px' width='100px'  fill="#ffffff" xmlns="http://www.w3.org/2000/svg" xmlns:xlink="http://www.w3.org/1999/xlink" version="1.1" x="0px" y="0px" viewBox="0 0 512 512" style="enable-background:new 0 0 512 512;" xml:space="preserve"><g><g><g><path d="M255.996,0c-47.372,0-93.252,20.134-129.188,56.692c-34.023,34.615-53.647,78.525-53.827,120.47     c-0.179,41.271,32.988,114.046,95.913,210.454C204.625,442.36,240.76,490.47,257.308,512     c16.387-21.654,52.166-70.018,87.48-124.908c62.18-96.648,94.762-169.207,94.225-209.826C437.905,93.589,359.4,0,255.996,0z      M255.996,323.479c-81.188,0-147.242-66.056-147.242-147.245c0-81.191,66.054-147.246,147.242-147.246     c81.194,0,147.245,66.624,147.245,147.246C403.241,257.423,337.188,323.479,255.996,323.479z"></path></g><g><path d="M334.915,262.369H175.827c-5.824,0-10.565,3.625-10.565,8.077s4.741,8.077,10.565,8.077h159.088     c5.825,0,10.565-3.625,10.565-8.077S340.74,262.369,334.915,262.369z"></path><path d="M322.678,149.293h-89.484c2.323-7.775,9.536-13.46,18.057-13.46h43.076c7.422,0,13.462-6.04,13.462-13.464     c0-7.422-6.04-13.46-13.462-13.46h-75.384c-4.454,0-8.076-3.625-8.076-8.077c0-4.453,3.622-8.077,8.076-8.077h32.308     c7.424,0,13.462-6.038,13.462-13.46c0-1.487-1.206-2.693-2.693-2.693c-1.486,0-2.691,1.207-2.691,2.693     c0,4.453-3.622,8.077-8.077,8.077h-32.308c-7.422,0-13.462,6.038-13.462,13.46c0,7.422,6.04,13.46,13.462,13.46h75.384     c4.454,0,8.076,3.625,8.076,8.077c0,4.455-3.622,8.077-8.076,8.077H251.25c-11.51,0-21.164,8.071-23.621,18.847h-39.563v21.537     h134.612V149.293z"></path><path d="M340.547,209.724c5.388-8.083,7.391-14.205,5.496-16.802c-2.733-3.745-13.758-2.057-18.668-0.655     c-0.323,0.093-0.65,0.112-0.967,0.085c-2.09,11.73-6.126,22.807-11.914,32.65C320.153,225.006,331.597,223.148,340.547,209.724z"></path><path d="M255.371,256.986c36.388,0,66.121-35.991,67.273-80.768H188.101C189.25,220.995,218.986,256.986,255.371,256.986z"></path></g></g></g></svg>