<?xml version="1.0" encoding="UTF-8" standalone="no"?>
<svg
   xmlns:dc="http://purl.org/dc/elements/1.1/"
   xmlns:cc="http://creativecommons.org/ns#"
   xmlns:rdf="http://www.w3.org/1999/02/22-rdf-syntax-ns#"
   xmlns:svg="http://www.w3.org/2000/svg"
   xmlns="http://www.w3.org/2000/svg"
   xmlns:sodipodi="http://sodipodi.sourceforge.net/DTD/sodipodi-0.dtd"
   xmlns:inkscape="http://www.inkscape.org/namespaces/inkscape"
   height="100px"
   width="100px"
   viewBox="0 0 24 24"
   fill="none"
   x="0px"
   y="0px"
   version="1.1"
   id="svg8"
   sodipodi:docname="icon-3509608.svg"
   inkscape:version="0.92.5 (2060ec1f9f, 2020-04-08)">
  <metadata
     id="metadata14">
    <rdf:RDF>
      <cc:Work
         rdf:about="">
        <dc:format>image/svg+xml</dc:format>
        <dc:type
           rdf:resource="http://purl.org/dc/dcmitype/StillImage" />
        <dc:title></dc:title>
      </cc:Work>
    </rdf:RDF>
  </metadata>
  <defs
     id="defs12" />
  <sodipodi:namedview
     pagecolor="#ffffff"
     bordercolor="#666666"
     borderopacity="1"
     objecttolerance="10"
     gridtolerance="10"
     guidetolerance="10"
     inkscape:pageopacity="0"
     inkscape:pageshadow="2"
     inkscape:window-width="1280"
     inkscape:window-height="1002"
     id="namedview10"
     showgrid="false"
     inkscape:zoom="2.36"
     inkscape:cx="61.228814"
     inkscape:cy="50"
     inkscape:window-x="0"
     inkscape:window-y="0"
     inkscape:window-maximized="1"
     inkscape:current-layer="svg8" />
  <path
     d="M7.6 6C7.8 6.1 8.1 6 8.3 5.8C9 4.2 10.2 3.5 12 3.5C15.1 3.5 16.5 5.7 16.5 10.5C16.5 13.6 17.9 15.1 18.7 15.9C18.8 16 18.9 16.2 19 16.3H18.9C18.7 16.4 18.5 16.7 18.6 17C18.7 17.2 18.9 17.3 19.1 17.3C19.2 17.3 19.2 17.3 19.3 17.3C19.6 17.2 19.8 17.1 19.9 16.9C20.4 16.3 19.8 15.7 19.4 15.3C18.7 14.5 17.5 13.3 17.5 10.6C17.5 8.6 17.5 2.6 12 2.6C9.8 2.6 8.3 3.5 7.4 5.4C7.3 5.5 7.4 5.8 7.6 6Z"
     fill="black"
     id="path2"
     style="fill:#ffffff" />
  <path
     d="M12 20C10.9 20 10 19.3 10 18.5H9C9 19.9 10.3 21 12 21C13.7 21 15 19.9 15 18.5H14C14 19.3 13.1 20 12 20Z"
     fill="black"
     id="path4"
     style="fill:#ffffff" />
  <path
     d="M21.3 20.7L3.8 3.2C3.7 3 3.3 3 3.2 3.2C3 3.3 3 3.7 3.2 3.8L6.8 7.4C6.6 8.3 6.6 9.3 6.6 10.5C6.6 13.2 5.4 14.4 4.7 15.2C4.3 15.7 3.7 16.2 4.2 16.8C4.8 17.7 8.6 18 12 18C13.9 18 15.7 17.9 17 17.7L20.6 21.3C20.8 21.5 21.1 21.5 21.3 21.3C21.5 21.2 21.5 20.8 21.3 20.7ZM12 17C7.6 17 5.5 16.5 5 16.2C5 16.2 5.2 16 5.3 15.9C6.1 15.1 7.5 13.6 7.5 10.5C7.5 9.7 7.5 9 7.6 8.3L16.1 16.8C14.9 16.9 13.5 17 12 17Z"
     fill="black"
     id="path6"
     style="fill:#ffffff" />
</svg>
