<svg height='100px' width='100px'  fill="#ffffff" xmlns="http://www.w3.org/2000/svg" xmlns:xlink="http://www.w3.org/1999/xlink" version="1.1" x="0px" y="0px" viewBox="0 0 100 100" enable-background="new 0 0 100 100" xml:space="preserve"><g><path d="M71.813,67.732L63.35,59.27c2.502-1.783,4.143-4.701,4.143-8V46.12c0-0.354-0.248-0.66-0.596-0.733   c-0.35-0.076-0.695,0.104-0.842,0.429l-2.039,4.587l1.37,0.609l0.604-1.359v1.621c0,2.886-1.479,5.432-3.715,6.924l-6.666-6.665   c-0.281-0.281-0.779-0.281-1.063,0l-4.005,4.005c-0.773-1.287-1.201-2.738-1.201-4.264V26.054c1.423-0.34,2.483-1.613,2.483-3.137   s-1.063-2.797-2.483-3.137V4.625h-1.5V19.78c-1.421,0.34-2.483,1.613-2.483,3.137s1.063,2.797,2.483,3.137v25.217   c0,1.931,0.553,3.771,1.599,5.364L28.187,77.891c-0.141,0.143-0.22,0.332-0.22,0.53c0,0.199,0.079,0.39,0.22,0.53l16.204,16.204   c0.146,0.146,0.338,0.22,0.53,0.22s0.384-0.073,0.53-0.22l26.361-26.361C72.105,68.501,72.105,68.025,71.813,67.732z M46.86,22.917   c0-0.956,0.777-1.733,1.733-1.733c0.956,0,1.733,0.777,1.733,1.733s-0.777,1.733-1.733,1.733   C47.637,24.65,46.86,23.873,46.86,22.917z M30.66,77.539l23.538-23.537l-1.483,22.055L30.66,77.539z M45.284,78.059l-1,14.868   L30.415,79.059L45.284,78.059z M46.793,77.957l6.675-0.449c0.375-0.025,0.673-0.322,0.698-0.697l0.449-6.676l14.725-0.99   L45.803,92.682L46.793,77.957z M62.021,60.063l7.563,7.564l-14.868,1l1-14.869l5.183,5.184c-0.994,0.42-2.086,0.653-3.232,0.653   v1.5C59.232,61.094,60.707,60.716,62.021,60.063z"></path></g></svg>