<svg height='100px' width='100px'  fill="#ffffff" xmlns="http://www.w3.org/2000/svg" viewBox="0 0 64 64" x="0px" y="0px"><g data-name="achievement"><path d="M61.32,27.54a5.72,5.72,0,0,0-1.8-.22,5.27,5.27,0,0,0-3.33,1.33l0,0a9.07,9.07,0,0,0-.85,1c-.06-.65-.14-1.3-.25-1.94L55,27.45l.59-.1a4.68,4.68,0,0,0,3-2,6.6,6.6,0,0,0,.82-4.13,14.59,14.59,0,0,0-.24-1.55,4.14,4.14,0,0,0-.23-.78,1,1,0,0,0-1-.59,5.47,5.47,0,0,0-1.67.52,5.3,5.3,0,0,0-2.46,2.45,5.61,5.61,0,0,0-.43,1.18,21.48,21.48,0,0,0-1.16-2.1A6.35,6.35,0,0,0,53,19.9,4.54,4.54,0,0,0,54.84,17a6.76,6.76,0,0,0-.79-3.94,12.39,12.39,0,0,0-1.15-1.73,1,1,0,0,0-1.27-.24,4.91,4.91,0,0,0-1.23,1.08,5.23,5.23,0,0,0-1.23,3.07v0a8.47,8.47,0,0,0,.08,1.25c-.35-.36-.73-.71-1.12-1.05a6.31,6.31,0,0,0-.24-1.16,5.1,5.1,0,0,0-2.08-2.81l-.12-.06A5.11,5.11,0,0,0,42.26,11a6.22,6.22,0,0,0-1.58.56,1,1,0,0,0-.46,1.22,10.31,10.31,0,0,0,.69,1.42l.15.23a5,5,0,0,0,1.84,1.93,5.13,5.13,0,0,0,2.69.66H46c.32,0,.61,0,.84,0A19.27,19.27,0,0,1,53.17,34.6q-.08.34-.12.69a7.43,7.43,0,0,1-.21,1l-.47,1.63-.63,1.59a8.73,8.73,0,0,1-.43.87c-.11.2-.22.41-.29.57a19.45,19.45,0,0,1-9.73,8.65c-1.18.47-2.55,1.17-4,1.91-1.66.84-3.5,1.78-5.28,2.48-1.78-.7-3.62-1.64-5.28-2.48-1.46-.74-2.83-1.44-4-1.91A19.39,19.39,0,0,1,13,41l-.32-.61a7.89,7.89,0,0,1-.43-.88l-.63-1.58-.48-1.67a7,7,0,0,1-.2-.92c0-.23-.07-.46-.11-.63A19.27,19.27,0,0,1,17.17,17c.23,0,.52,0,.86,0h.38a5.13,5.13,0,0,0,2.69-.66,5,5,0,0,0,1.84-1.93l.17-.26a10.28,10.28,0,0,0,.67-1.39,1,1,0,0,0-.46-1.22A6,6,0,0,0,21.77,11a5,5,0,0,0-3.46.43l-.12.06a5.08,5.08,0,0,0-2.07,2.78,6.2,6.2,0,0,0-.25,1.19c-.39.34-.77.69-1.12,1.05a8.47,8.47,0,0,0,.08-1.25v0a5.23,5.23,0,0,0-1.23-3.07,4.91,4.91,0,0,0-1.23-1.08,1,1,0,0,0-1.27.24,12.28,12.28,0,0,0-1.17,1.78,6.69,6.69,0,0,0-.77,3.91A4.53,4.53,0,0,0,11,19.9a5.23,5.23,0,0,0,.75.47,19.57,19.57,0,0,0-1.16,2.1,5.61,5.61,0,0,0-.43-1.18,5.33,5.33,0,0,0-2.45-2.45,5.57,5.57,0,0,0-1.68-.52,1,1,0,0,0-1,.59,4.14,4.14,0,0,0-.23.78,12.92,12.92,0,0,0-.23,1.51,6.62,6.62,0,0,0,.82,4.19,4.69,4.69,0,0,0,3,2l.59.1-.06.24c-.11.65-.19,1.3-.25,1.95a9.07,9.07,0,0,0-.85-1l0,0a5.27,5.27,0,0,0-3.33-1.33,5.79,5.79,0,0,0-1.8.22,1,1,0,0,0-.68,1s0,.26.06.64a7.46,7.46,0,0,0,.39,1.69,10,10,0,0,0,.87,1.93,5.64,5.64,0,0,0,1.56,1.62,4.33,4.33,0,0,0,2.44.7A5.78,5.78,0,0,0,8.46,35a4,4,0,0,0,.4-.09.31.31,0,0,1,0,.1A5.72,5.72,0,0,1,9,35.6a7.14,7.14,0,0,0,.26,1.2l.07.25a7.18,7.18,0,0,0-1-.57h0a5.84,5.84,0,0,0-5.38.33A1,1,0,0,0,2.57,38a13.54,13.54,0,0,0,1.14,2.07A7.6,7.6,0,0,0,5.22,41.8a5.72,5.72,0,0,0,2,1.18,4.58,4.58,0,0,0,1.27.18A5.36,5.36,0,0,0,11,42.5l.45-.26c.34.59.71,1.16,1.11,1.72a8.3,8.3,0,0,0-1.34-.19h0a5,5,0,0,0-3.35,1.16,5.54,5.54,0,0,0-1.21,1.34,1,1,0,0,0,.11,1.17,8.14,8.14,0,0,0,1.88,1.48,8.81,8.81,0,0,0,1.89.89,6.13,6.13,0,0,0,1.63.24,3.48,3.48,0,0,0,.57,0,4.63,4.63,0,0,0,3.08-1.86l.24-.33a22.53,22.53,0,0,0,1.82,1.4,5.26,5.26,0,0,0-1.08.17,5.8,5.8,0,0,0-3.95,3.53,1,1,0,0,0,.48,1.21,14.09,14.09,0,0,0,2.17.88,8.7,8.7,0,0,0,2.17.35H18A5,5,0,0,0,20,55a4.9,4.9,0,0,0,2.61-2.66,6,6,0,0,0,.22-.57c.91.41,1.94.94,3,1.48s2.18,1.1,3.3,1.62a6.47,6.47,0,0,1-3.3,0,1,1,0,1,0-.61,1.9,6.74,6.74,0,0,0,2.07.31,14.17,14.17,0,0,0,4.73-1,14.17,14.17,0,0,0,4.73,1,6.74,6.74,0,0,0,2.07-.31,1,1,0,0,0,.65-1.26,1,1,0,0,0-1.26-.64,6.47,6.47,0,0,1-3.3,0c1.12-.52,2.22-1.07,3.3-1.62s2.1-1.07,3-1.48a6.12,6.12,0,0,0,.22.58A4.87,4.87,0,0,0,44,55a4.94,4.94,0,0,0,2,.38h.34A8.69,8.69,0,0,0,48.51,55a14.09,14.09,0,0,0,2.17-.88,1,1,0,0,0,.48-1.21,5.67,5.67,0,0,0-.9-1.55,5.76,5.76,0,0,0-3-2,5.26,5.26,0,0,0-1.08-.17A22.53,22.53,0,0,0,48,47.82l.24.33A4.68,4.68,0,0,0,51.27,50a5.12,5.12,0,0,0,.56,0,6.15,6.15,0,0,0,1.67-.25,8.91,8.91,0,0,0,1.85-.87,8.25,8.25,0,0,0,1.89-1.49,1,1,0,0,0,.11-1.17,5.48,5.48,0,0,0-1.2-1.33,5.1,5.1,0,0,0-3.36-1.17h0a8.15,8.15,0,0,0-1.34.19c.39-.56.76-1.13,1.1-1.72l.46.26a5.31,5.31,0,0,0,2.48.65A4.78,4.78,0,0,0,56.77,43a5.75,5.75,0,0,0,2-1.17,7.72,7.72,0,0,0,1.48-1.66A13.72,13.72,0,0,0,61.43,38a1,1,0,0,0-.37-1.23,5.82,5.82,0,0,0-1.71-.69,5.88,5.88,0,0,0-3.67.36h0a6.64,6.64,0,0,0-1,.57l.06-.21A7.49,7.49,0,0,0,55,35.6c0-.19.06-.38.12-.63v0c.13,0,.26.07.4.09a5.82,5.82,0,0,0,1.14.12,4.27,4.27,0,0,0,2.44-.72,5.53,5.53,0,0,0,1.59-1.66,9.49,9.49,0,0,0,.83-1.87,6.81,6.81,0,0,0,.39-1.66c.06-.42.07-.68.07-.68A1,1,0,0,0,61.32,27.54Z"></path><path d="M40.19,27H22a1,1,0,0,0-1,1V42.12a5,5,0,0,0,5,5H36.19a5,5,0,0,0,5-5V40.66h.33a5.46,5.46,0,0,0,0-10.92h-.33V28A1,1,0,0,0,40.19,27Zm1.07,4.79h.26a3.46,3.46,0,0,1,0,6.92h-.26Z"></path><path d="M33.17,21.16l.35.24a.61.61,0,0,1,.15.84l-1.11,1.6a1,1,0,0,0,.26,1.39,1,1,0,0,0,.56.18,1,1,0,0,0,.83-.43l1.1-1.6a2.61,2.61,0,0,0-.64-3.61l-.35-.25a.61.61,0,0,1-.25-.39.6.6,0,0,1,.1-.45l1.58-2.23a1,1,0,0,0-.23-1.39,1,1,0,0,0-1.4.24l-1.58,2.23a2.6,2.6,0,0,0,.63,3.63Z"></path><path d="M27.17,21.16l.35.24a.61.61,0,0,1,.15.84l-1.11,1.6a1,1,0,0,0,.26,1.39,1,1,0,0,0,.56.18,1,1,0,0,0,.83-.43l1.1-1.6a2.61,2.61,0,0,0-.64-3.61l-.35-.25a.61.61,0,0,1-.25-.39.6.6,0,0,1,.1-.45l1.58-2.23a1,1,0,0,0-.23-1.39,1,1,0,0,0-1.4.24l-1.58,2.23a2.6,2.6,0,0,0,.63,3.63Z"></path></g></svg>