<svg height='100px' width='100px'  fill="#ffffff" xmlns="http://www.w3.org/2000/svg" xmlns:xlink="http://www.w3.org/1999/xlink" version="1.1" x="0px" y="0px" viewBox="0 0 100 100" enable-background="new 0 0 100 100" xml:space="preserve"><path d="M78.604,22.664c-0.207-1.263-1.418-1.604-1.418-1.604c-0.242-0.069-0.479-0.125-0.72-0.188  c-0.005-0.002-0.007-0.007-0.012-0.009l-0.19-0.044c-0.66-0.168-1.307-0.32-1.879-0.438c0,0,0,0.001-0.001,0.002l-1.12-0.26  c-1.891-0.426-2.449-1.234-2.583-1.84c0.865-0.741,1.592-2.107,1.857-4.531c0.166-1.515,0.188-2.745-0.174-3.642  c-0.056-0.182-0.118-0.371-0.189-0.598c0.153-0.402,0.266-0.907,0.266-1.57c0,0-0.94-0.489-3.563-0.489  c-2.373,0-3.426,1.256-3.791,1.844c-0.032,0.032-0.069,0.061-0.099,0.094c-0.802,0.895-0.822,2.39-0.607,4.36  c0.266,2.424,0.993,3.79,1.858,4.531c-0.135,0.606-0.692,1.414-2.585,1.84l-1.582,0.368c-0.164,0.036-0.341,0.079-0.512,0.119  c0.038,0.123,0.082,0.241,0.105,0.379c0.24-0.056,0.475-0.113,0.728-0.166c0.595,1.026,2.194,2.833,6.067,2.833  c3.865,0,5.504-1.8,6.122-2.823l1.711,0.398c0.266,0.069,0.537,0.137,0.784,0.208c0.04,0.012,0.977,0.299,1.139,1.29  c0.955,5.83,0.793,11.873,0.637,17.717c-0.053,1.993-0.108,4.047-0.118,6.064c-0.364-0.129-0.847-0.265-1.266-0.265  c-0.433,0-0.976,0.15-1.356,0.277c-0.033-0.495-0.068-0.99-0.104-1.485c-0.147-2.069-0.3-4.209-0.3-6.314  c0-0.582,0.006-1.213,0.011-1.845c0.011-1.246,0.022-2.533-0.011-3.402c-0.089-2.376-0.199-5.669-0.199-5.669l-0.393,0.013  c0,0,0.084,2.513,0.165,4.734c-0.002,0.005-0.008,0.005-0.01,0.01l-0.629,1.681c-0.388,1.557,0.081,3.025,0.645,4.378  c0.006,0.015,0.02,0.022,0.029,0.034c0,0.021,0,0.044,0,0.065c0,2.119,0.153,4.266,0.301,6.342c0.015,0.211,0.029,0.422,0.044,0.633  c-0.007,0-0.014-0.006-0.021-0.006c-0.044,0-0.087,0.007-0.13,0.022c-0.028,0.01-2.816,0.965-7.027,0.965  c-2.876,0-5.086-0.445-6.209-0.731l-0.058,2.708l-0.445-0.206l0.017,0.381c0.026,0.695,0.052,1.352,0.175,1.978  c0.027,0.142,0.067,0.341,0.033,0.571c-0.031,0.216-0.118,0.384-0.175,0.496c-0.268,0.526-0.546,1.032-0.851,1.543  c-0.068,0.113-0.154,0.196-0.236,0.286c0.064,0.368,0.132,0.703,0.201,0.97c0.432,1.663,1.182,8.956,1.369,11.466  c0.054,0.709,0.087,1.563,0.123,2.468c0.088,2.262,0.198,5.076,0.693,7.371c0.663,3.071,0.382,4.145,0.379,4.153  c-0.022,0.075,0.003,0.157,0.063,0.207c0.016,0.013,0.123,0.099,0.315,0.199c0.246,1.112,0.489,2.325,0.499,3.496  c0.002,0.246-0.009,0.473-0.027,0.696c-0.079,0.126-0.125,0.285-0.152,0.416c-0.029,0.152-0.093,0.507-0.17,0.941  c-0.137,0.765-0.324,1.812-0.44,2.413c-0.014,0.069-0.027,0.139-0.042,0.209c-0.099,0.486-0.2,0.989-0.091,1.486  c0.07,0.317,0.22,0.547,0.471,0.724c0.363,0.254,0.745,0.437,1.138,0.615c0.096,0.044,0.205,0.087,0.325,0.087  c0.051,0,0.103-0.008,0.157-0.025c0.269-0.091,0.563-0.205,0.928-0.362c0.347-0.148,0.6-0.308,0.797-0.499  c0.495-0.482,0.465-1.272,0.441-1.907l-0.002-0.05c-0.013-0.348-0.027-0.695-0.041-1.044c-0.036-0.894-0.074-1.817-0.091-2.726  c-0.003-0.172-0.036-0.76-0.338-1.106c-0.013-0.015-0.027-0.018-0.041-0.029c-0.004-0.034-0.016-0.07-0.019-0.104  c-0.099-1.027-0.184-2.084-0.234-3.148c0.245-0.084,0.499-0.186,0.767-0.32c0.065-0.032,0.106-0.099,0.108-0.171  c0.124-5.195-0.061-12.252-0.062-12.313c0.002-0.089,0.188-8.949,0.312-10.488c0.073-0.907,0.275-2.53,0.43-3.718  c0.154,1.188,0.356,2.811,0.429,3.718c0.124,1.539,0.311,10.399,0.312,10.479c-0.002,0.07-0.187,7.127-0.062,12.322  c0.002,0.072,0.043,0.139,0.108,0.171c0.239,0.119,0.467,0.215,0.687,0.294c-0.05,1.074-0.136,2.139-0.237,3.174  c-0.003,0.034-0.014,0.07-0.019,0.104c-0.014,0.011-0.028,0.014-0.041,0.029c-0.301,0.347-0.334,0.935-0.337,1.106  c-0.017,0.883-0.053,1.78-0.088,2.648c-0.016,0.374-0.03,0.748-0.044,1.121l-0.002,0.05c-0.023,0.635-0.054,1.425,0.441,1.907  c0.195,0.19,0.448,0.35,0.796,0.499c0.372,0.16,0.658,0.271,0.929,0.362c0.055,0.018,0.106,0.025,0.157,0.025  c0.12,0,0.229-0.043,0.326-0.087c0.394-0.181,0.776-0.363,1.137-0.615c0.248-0.175,0.401-0.411,0.47-0.724  c0.11-0.499,0.008-1.003-0.092-1.491c-0.014-0.068-0.027-0.137-0.041-0.204c-0.111-0.579-0.285-1.547-0.424-2.324  c-0.085-0.475-0.155-0.867-0.187-1.03c-0.026-0.132-0.072-0.292-0.152-0.418c-0.017-0.221-0.029-0.447-0.027-0.694  c0.011-1.153,0.248-2.35,0.49-3.452c0.246-0.118,0.389-0.228,0.407-0.243c0.06-0.05,0.085-0.131,0.063-0.205  c-0.003-0.011-0.284-1.084,0.379-4.155c0.495-2.295,0.605-5.109,0.693-7.371c0.036-0.904,0.069-1.759,0.123-2.468  c0.188-2.51,0.938-9.803,1.369-11.466c0.098-0.38,0.181-0.892,0.252-1.454c0.334-0.066,0.635-0.139,0.641-0.141  c0.396-0.119,0.939-0.282,1.226-0.761c0.276-0.465,0.529-0.923,0.772-1.402c0.044-0.087,0.094-0.185,0.111-0.303  c0.018-0.124-0.005-0.239-0.027-0.354c-0.122-0.621-0.147-1.28-0.172-1.917c-0.007-0.197-0.015-0.393-0.024-0.587  c-0.015-0.284-0.02-0.539-0.024-0.794c0.184,0.073,0.306,0.13,0.306,0.13C79.128,39.03,79.926,30.729,78.604,22.664z M64.773,13.709  c-0.052-0.477-0.083-0.894-0.099-1.277c0.256-0.608,0.705-1.448,1.308-1.703c1.214,0.678,1.882,0.866,3.174,0.866  c1.576,0,2.268-0.565,2.268-0.565s0.519,0.599,0.829,1.281c-0.014,0.413-0.048,0.873-0.105,1.399  c-0.355,3.255-1.631,4.976-3.688,4.976S65.129,16.964,64.773,13.709z M68.461,23.262c-3.555,0-5.068-1.567-5.666-2.536l0.948-0.22  c1.933-0.435,2.613-1.276,2.831-1.968c0.617,0.406,1.281,0.541,1.886,0.541s1.269-0.135,1.886-0.541  c0.219,0.692,0.898,1.534,2.829,1.968l1.002,0.233C73.553,21.708,72.001,23.262,68.461,23.262z M75.328,36.874  c-0.002,0.247-0.004,0.493-0.006,0.737c-0.364-1.042-0.58-2.137-0.304-3.251l0.3-0.802C75.348,34.418,75.339,35.663,75.328,36.874z   M66.958,84.624c0.06,0.267,0.115,0.519,0.14,0.77c0.034,0.348-0.003,0.652-0.038,0.948c-0.028,0.232-0.055,0.451-0.048,0.682  c0.007,0.205,0.058,0.421,0.106,0.63c0.104,0.442,0.202,0.859-0.062,1.209c-0.063,0.083-0.463,0.226-1.154,0.28  c-0.788,0.062-1.273-0.036-1.367-0.125c-0.134-0.13-0.229-0.317-0.314-0.628c-0.127-0.455,0.024-1.053,0.158-1.58  c0.053-0.208,0.104-0.407,0.137-0.59c0.143-0.781,0.243-1.396,0.235-2.189c-0.01-1.116-0.223-2.256-0.452-3.316  c0.513,0.174,1.284,0.285,2.281,0.019c0.052,1.039,0.133,2.07,0.23,3.071C66.837,84.08,66.899,84.356,66.958,84.624z M72.17,84.03  c-0.007,0.79,0.094,1.406,0.235,2.189c0.033,0.183,0.084,0.381,0.137,0.587c0.134,0.528,0.286,1.127,0.159,1.583  c-0.086,0.311-0.181,0.498-0.314,0.627c-0.108,0.104-0.668,0.183-1.371,0.125c-0.689-0.055-1.088-0.196-1.15-0.279  c-0.264-0.35-0.166-0.767-0.062-1.207c0.049-0.21,0.1-0.427,0.106-0.632c0.007-0.231-0.02-0.452-0.047-0.686  c-0.036-0.294-0.072-0.599-0.039-0.944c0.024-0.249,0.08-0.499,0.139-0.764c0.061-0.27,0.122-0.548,0.148-0.825  c0.098-1.009,0.181-2.049,0.232-3.097c0.456,0.13,0.871,0.19,1.232,0.19c0.414,0,0.761-0.067,1.042-0.154  C72.389,81.797,72.181,82.927,72.17,84.03z M78.625,50.749c-0.238,0.47-0.487,0.921-0.76,1.378  c-0.195,0.328-0.574,0.464-1.013,0.595c-0.071,0.021-0.668,0.139-1.032,0.204c0.018-0.023,0.039-0.047,0.062-0.068  c0.098-0.093,0.226-0.16,0.373-0.238l0.799-0.419c0.04-0.021,0.07-0.056,0.087-0.098c0.156-0.405,0.319-1.003,0.212-1.554  c-0.044-0.225-0.106-0.448-0.187-0.666c-0.03-0.079-0.251-0.606-0.251-0.606c-0.026-0.062-0.084-0.105-0.152-0.113  c-0.057-0.012-0.133,0.022-0.172,0.078l-0.179,0.256c-0.211,0.358-0.223,0.763-0.233,1.155c-0.003,0.09-0.005,0.18-0.01,0.269  c-0.014,0.224-0.079,0.74-0.42,0.95c-0.007-1.116-0.006-2.267,0.322-3.337c0.096-0.308,0.22-0.616,0.341-0.914  c0.109-0.272,0.22-0.544,0.312-0.823c0.006-0.017,0.009-0.033,0.014-0.05c0.249-0.063,0.51-0.111,0.732-0.111  c0.311,0,0.671,0.091,0.977,0.19c0.003,0.302,0.008,0.607,0.025,0.947c0.011,0.193,0.018,0.387,0.025,0.582  c0.025,0.651,0.051,1.325,0.181,1.986c0.016,0.081,0.03,0.156,0.021,0.218C78.692,50.617,78.66,50.68,78.625,50.749z M76.438,52.103  c0.032-0.351,0.06-0.699,0.085-1.039c0.004-0.042,0.016-0.077,0.018-0.12c0.006-0.092,0.009-0.186,0.011-0.28  c0.004-0.148,0.012-0.29,0.026-0.428c0.001-0.022,0.003-0.046,0.004-0.068c0.021-0.156,0.056-0.302,0.123-0.43  c0.051,0.123,0.1,0.242,0.112,0.275c0.073,0.198,0.131,0.403,0.171,0.607c0.067,0.346,0.007,0.8-0.17,1.283L76.438,52.103z   M37.341,85.817h0.628l1.024-17.55l0.43-14.386c-0.147-0.127-0.283-0.276-0.395-0.464c-0.304-0.509-0.583-1.015-0.852-1.544  c-0.056-0.11-0.143-0.278-0.174-0.498c-0.034-0.226,0.005-0.424,0.031-0.555c0.125-0.638,0.15-1.295,0.177-1.99l0.017-0.381  l-0.444,0.206l-0.102-4.724c-1.296,0.147-3.605,0.36-6.142,0.36c-3.33,0-6.281-0.368-7.041-0.47c0.259-2.897,0.453-5.74,0.114-8.626  c-0.036-0.31-0.075-0.619-0.114-0.929c-0.087-0.683-0.176-1.39-0.231-2.053l0.329-4.243c0.005-0.06-0.02-0.113-0.059-0.153  l-0.347-0.483c-0.063-0.088-0.188-0.108-0.273-0.045c-0.089,0.063-0.108,0.186-0.045,0.274L24.187,28l-0.324,4.211c0,0,0,0,0,0  l-0.515,2.965l-0.695,10.471c-1.655-0.094-2.549,0.396-2.948,0.724l-0.051-10.441c0.409-3.828,1.219-11.215,1.352-11.774  c0.342-1.445,0.917-2.265,1.758-2.507c0.854-0.246,2.088-0.542,3.177-0.804c0.7-0.168,1.349-0.325,1.836-0.452l0.54,1.022  l1.166,1.67c0.035,0.05,0.091,0.082,0.151,0.086c0.005,0,0.01,0,0.015,0c0.056,0,0.109-0.023,0.147-0.064l0.753-0.8  c0.036,0.071,0.067,0.142,0.086,0.211c0.119,0.438,0.166,0.848,0.167,0.852c0.008,0.069,0.051,0.129,0.113,0.16  c0.02,0.009,0.04,0.011,0.061,0.014l-1.058,16.669c-0.003,0.047,0.011,0.093,0.038,0.131l1.419,1.967  c0.038,0.053,0.099,0.084,0.164,0.084s0.126-0.031,0.164-0.084l1.419-1.967c0.027-0.038,0.041-0.084,0.038-0.131L32.1,23.527  c0.022-0.003,0.042,0.013,0.063,0.003c0.062-0.03,0.105-0.09,0.113-0.159c0.001-0.004,0.048-0.414,0.167-0.852  c0.018-0.067,0.062-0.133,0.096-0.2l0.743,0.79c0.038,0.041,0.092,0.064,0.147,0.064c0.005,0,0.01,0,0.015,0  c0.061-0.004,0.116-0.036,0.151-0.086l1.18-1.692l0.527-1c0.489,0.128,1.141,0.285,1.841,0.453c0.382,0.092,0.78,0.188,1.175,0.285  l0.005-0.071c0.019-0.114,0.056-0.207,0.084-0.311c-0.395-0.097-0.792-0.193-1.173-0.284c-0.589-0.142-1.592-0.389-1.592-0.389  l-0.466-0.214l-0.817-0.822c-0.042-0.043-0.104-0.063-0.16-0.059c-0.022,0.002-0.035,0.022-0.054,0.031  c-0.122-0.216-0.206-0.434-0.249-0.628c0.919-0.786,1.692-2.236,1.973-4.811c0.061-0.558,0.102-1.077,0.116-1.561  c0.016-0.288,0.022-0.54,0.018-0.762c0.185-1.361-0.076-3.841-4.469-3.841c-5.347,0-4.664,3.677-4.433,4.532  c0.012,0.504,0.053,1.045,0.117,1.631c0.28,2.568,1.049,4.016,1.965,4.804l0,0.001c-0.042,0.194-0.128,0.414-0.251,0.634  c-0.02-0.008-0.032-0.029-0.054-0.031c-0.061-0.003-0.118,0.017-0.16,0.059L27.9,19.861l-0.466,0.214  c-0.451,0.114-1,0.247-1.587,0.388c-1.093,0.263-2.331,0.561-3.194,0.808c-0.988,0.285-1.653,1.198-2.031,2.794  c-0.172,0.723-1.311,11.371-1.36,11.845l0.056,10.984l0.425,2.302c0.013,0.066,0.058,0.121,0.12,0.146  c0.023,0.009,0.049,0.014,0.073,0.014c0.04,0,0.08-0.012,0.114-0.037c0.003-0.002,0.082-0.056,0.213-0.13  c-0.045,0.534-0.102,1.263-0.102,1.58c0,0.156-0.017,0.28-0.031,0.396c-0.033,0.266-0.065,0.517,0.08,0.951  c0.067,0.201,0.129,0.397,0.188,0.584c0.111,0.353,0.217,0.685,0.321,0.945l0.027,0.067c0.144,0.366,0.269,0.682,0.883,1.01  c0.295,0.157,0.374,0.196,0.413,0.216c0.037,0.019,0.037,0.019,0.165,0.092c0.295,0.169,0.522,0.261,0.879,0.261  c0.23,0,0.446-0.156,0.536-0.389c0.106-0.277,0.016-0.584-0.244-0.819c-0.249-0.227-0.435-0.353-0.584-0.453  c-0.107-0.072-0.192-0.13-0.265-0.203c-0.164-0.164-0.331-0.501-0.331-0.829c0-0.284,0.017-0.464,0.028-0.598l0.005-0.106  c0.021-0.032,0.155-0.076,0.327-0.066c0.005,0.056,0.02,0.104,0.015,0.169c-0.047,0.512,0.117,0.84,0.503,1.382  c0.164,0.229,0.372,0.346,0.574,0.383l0.433,14.503l1.024,17.55h0.628c-0.095,0.442-0.181,0.874-0.34,1.091  c-0.283,0.388-2.501,3.182-2.509,3.61c-0.008,0.428,0.083,0.504,0.3,0.552c1.573,0.348,3.751-0.067,4.851-0.989l0.008-0.404  c-0.148-0.241,0.028-0.372,0.028-0.372l0.563,0.05l1.298-0.734c0,0,0.103-1.256-0.277-2.803h0.003l1.877-30.664l1.877,30.664h0.003  c-0.38,1.547-0.277,2.803-0.277,2.803l1.298,0.734l0.563-0.05c0,0,0.177,0.131,0.028,0.372l0.008,0.404  c1.1,0.922,3.278,1.337,4.851,0.989c0.218-0.048,0.308-0.124,0.3-0.552c-0.008-0.428-2.227-3.222-2.509-3.61  C37.523,86.691,37.436,86.259,37.341,85.817z M31.808,21.192h-0.537c-0.05-0.036-0.791-0.577-1.385-1.17  c-0.319-0.319-0.534-0.561-0.672-0.724c0.132-0.196,0.235-0.417,0.31-0.662c0.66,0.441,1.372,0.588,2.021,0.588  c0.646,0,1.355-0.146,2.013-0.583c0.075,0.243,0.177,0.462,0.308,0.656c-0.138,0.163-0.353,0.405-0.673,0.725  C32.599,20.615,31.858,21.156,31.808,21.192z M31.544,17.336c-0.238,0-0.432,0.193-0.432,0.432v0.462h-0.583  c-0.418,0-0.756-0.338-0.756-0.756s0.338-0.756,0.756-0.756h1.927c0.418,0,0.756,0.338,0.756,0.756s-0.338,0.756-0.756,0.756h-0.48  v-0.462C31.976,17.529,31.782,17.336,31.544,17.336z M34.234,19.487l0.712,0.716l-0.516,0.981l-1.024,1.466l-1.186-1.26  c0.273-0.208,0.803-0.625,1.259-1.082C33.854,19.934,34.096,19.656,34.234,19.487z M28.979,16.216  c-0.028,0.011-0.524,0.177-1.016-0.875c-0.146-0.548-0.268-1.14-0.341-1.813c-0.069-0.632-0.107-1.176-0.116-1.656  c0.248-0.552,0.641-1.253,1.187-1.69l-0.076-0.394v0l-0.03-0.156c0.039,0.08,0.089,0.153,0.144,0.218  c0.042,0.051,0.087,0.094,0.132,0.137c0.01,0.01,0.021,0.023,0.031,0.032c0.001,0.001,0.002,0.001,0.003,0.002  c0.006,0.006,0.013,0.014,0.019,0.02c0.001-0.001,0.003-0.002,0.004-0.003c0.96,0.755,3.102,2.019,6.658,2.073  c-0.016,0.422-0.05,0.886-0.108,1.417c-0.074,0.673-0.195,1.266-0.342,1.814c-0.492,1.052-0.988,0.885-1.016,0.874  c-0.844-0.399-2.565-0.432-2.565-0.432s-0.023,0.001-0.056,0.002c-0.012,0-0.015,0-0.031,0.001  c-0.095,0.003-0.263,0.011-0.477,0.027c-0.014,0.001-0.027,0.002-0.042,0.003c-0.221,0.017-0.48,0.044-0.749,0.083  c-0.016,0.002-0.031,0.005-0.046,0.007c-0.268,0.041-0.538,0.096-0.781,0.168c-0.016,0.005-0.032,0.01-0.048,0.014  C29.193,16.128,29.079,16.169,28.979,16.216z M28.844,19.487c0.139,0.169,0.381,0.447,0.755,0.821  c0.456,0.456,0.985,0.874,1.259,1.082l-1.187,1.26l-1.011-1.444l-0.528-1.003L28.844,19.487z M20.076,48.844l-0.364-1.955  c0.011-0.01,0.028-0.006,0.037-0.019c0.007-0.01,0.744-0.963,2.899-0.83l0.132,2.256C21.531,48.138,20.528,48.591,20.076,48.844z   M23.81,53.373c-0.076-0.001-0.245-0.008-0.402-0.229c-0.374-0.525-0.463-0.753-0.43-1.109c0.032-0.359-0.074-0.604-0.178-0.842  c-0.036-0.083-0.073-0.168-0.104-0.261c-0.036-0.106-0.149-0.165-0.257-0.127c-0.105,0.035-0.163,0.15-0.128,0.256  c0.035,0.105,0.077,0.201,0.118,0.295c0.01,0.024,0.016,0.045,0.026,0.068c-0.17,0.008-0.331,0.044-0.447,0.131  c-0.104,0.078-0.166,0.182-0.174,0.293l-0.01,0.118c-0.013,0.143-0.029,0.333-0.029,0.634c0,0.461,0.226,0.893,0.448,1.115  c0.101,0.101,0.204,0.171,0.325,0.253c0.139,0.094,0.311,0.209,0.538,0.417c0.133,0.12,0.184,0.257,0.139,0.374  c-0.029,0.075-0.096,0.13-0.158,0.13c-0.271,0-0.428-0.064-0.678-0.208c-0.145-0.082-0.145-0.082-0.186-0.103  c-0.038-0.02-0.115-0.058-0.403-0.211c-0.482-0.258-0.563-0.462-0.696-0.801l-0.028-0.069c-0.099-0.248-0.202-0.572-0.312-0.917  c-0.06-0.188-0.122-0.387-0.189-0.59c-0.117-0.348-0.095-0.525-0.063-0.771c0.017-0.132,0.034-0.272,0.034-0.448  c0-0.344,0.075-1.25,0.12-1.78c0.492-0.207,1.229-0.403,2.079-0.291c0.23,0.567,0.548,1.34,0.646,1.539  c0.129,0.258,0.133,0.759,0.099,0.966c-0.051,0.307,0.339,1.898,0.442,2.111C23.945,53.329,23.897,53.367,23.81,53.373z   M24.252,41.846l-0.008-0.002l-0.666,7.768c-0.129-0.305-0.288-0.694-0.422-1.023c0.01-0.026,0.033-0.047,0.031-0.075l-0.156-2.654  l0.706-10.638l0.28-1.613c0.028,0.234,0.049,0.474,0.078,0.704c0.039,0.308,0.078,0.617,0.114,0.925  C24.469,37.446,24.411,39.635,24.252,41.846z M32.74,47.019c0,0.055-0.044,0.1-0.1,0.1h-2.257c-0.056,0-0.1-0.045-0.1-0.1  s0.044-0.1,0.1-0.1h2.157v-0.792h-0.679c-0.056,0-0.1-0.045-0.1-0.1s0.044-0.1,0.1-0.1h0.679v-0.792h-2.157  c-0.056,0-0.1-0.045-0.1-0.1s0.044-0.1,0.1-0.1h2.257c0.056,0,0.1,0.045,0.1,0.1V47.019z M61.811,32.641l-0.884-11.524  c-0.224-1.363-1.531-1.732-1.531-1.732c-2.64-0.756-6.211-1.822-6.211-1.822s0,0.009,0,0.011c-1.003-0.473-1.005-1.644-1.004-1.701  c0-0.002-0.002-0.003-0.002-0.004c0.077-0.082,0.157-0.151,0.231-0.24c1.204-0.262,2.078-0.905,2.594-2.002  c1.257-2.667,0.574-6.252-1.987-7.985c-1.427-0.966-3.484-1.063-5.033-0.311c-0.111,0.054-0.328,0.244-0.447,0.232  c-2.955-0.333-3.246,4.098-3,5.999c0.187,1.447,0.571,2.916,1.875,3.815c0.246,0.17,0.558,0.236,0.86,0.271  c0.088,0.01,0.232-0.003,0.341,0.009c0.066,0.079,0.139,0.139,0.207,0.213c0,0.001-0.001,0.002-0.001,0.004  c0.001,0.057-0.001,1.228-1.004,1.701c0-0.001,0-0.011,0-0.011s-3.572,1.066-6.211,1.822c0,0-1.307,0.369-1.531,1.732l-0.884,11.524  l0.319,14.851c0,0,0.13-0.061,0.325-0.138c-0.006,0.273-0.016,0.556-0.031,0.856c-0.011,0.212-0.019,0.426-0.027,0.641  c-0.026,0.687-0.054,1.396-0.188,2.077c-0.021,0.11-0.046,0.234-0.026,0.366c0.019,0.127,0.074,0.236,0.119,0.323  c0.264,0.521,0.536,1.015,0.833,1.513c0.305,0.511,0.889,0.686,1.314,0.814c0.009,0.002,0.673,0.162,1.156,0.233  c0.309,4.659,0.942,10.972,0.951,11.056c0.009,0.092,0.081,0.165,0.173,0.176c0.007,0.001,0.121,0.014,0.304,0.034  c-0.028,0.56-0.059,1.122-0.092,1.676c-0.135,2.269-0.273,4.615-0.095,6.819c0.162,1.998,0.49,4.178,1.034,6.86  c0.15,0.743,0.352,1.511,0.546,2.253c0.376,1.437,0.765,2.923,0.83,4.361c0.012,0.257,0.008,0.496-0.001,0.731  c-0.105,0.166-0.145,0.386-0.16,0.478c-0.027,0.18-0.09,0.621-0.166,1.152c-0.118,0.833-0.266,1.87-0.363,2.49  c-0.011,0.073-0.023,0.146-0.036,0.222c-0.088,0.53-0.179,1.078-0.041,1.612c0.087,0.337,0.257,0.578,0.533,0.76  c0.4,0.259,0.82,0.441,1.251,0.619c0.118,0.05,0.226,0.083,0.334,0.083c0.062,0,0.123-0.011,0.188-0.035  c0.291-0.109,0.604-0.245,0.986-0.426c0.369-0.175,0.636-0.355,0.839-0.568c0.515-0.54,0.452-1.391,0.402-2.074l-0.004-0.052  c-0.027-0.365-0.055-0.73-0.083-1.096c-0.074-0.973-0.151-1.979-0.205-2.968c-0.011-0.185-0.07-0.817-0.406-1.178  c-0.02-0.022-0.042-0.027-0.063-0.042c-0.005-0.033-0.014-0.067-0.019-0.1c-0.345-2.601-0.662-5.367-0.418-8.079  c0.051-0.569,0.128-1.147,0.202-1.706c0.067-0.51,0.135-1.02,0.186-1.531c0.141-1.448,0.142-2.915,0.001-4.357  c-0.016-0.163-0.033-0.326-0.051-0.489c-0.065-0.606-0.134-1.233-0.101-1.845c0.042-0.815,0.264-1.639,0.479-2.437  c0.061-0.228,0.121-0.459,0.178-0.69c0.315,0.01,0.621,0.017,0.904,0.017s0.588-0.007,0.904-0.017  c0.058,0.231,0.117,0.462,0.178,0.69c0.215,0.798,0.437,1.621,0.479,2.437c0.033,0.611-0.035,1.238-0.101,1.845  c-0.018,0.163-0.035,0.326-0.051,0.489c-0.141,1.442-0.14,2.909,0.001,4.358c0.051,0.518,0.119,1.033,0.188,1.549  c0.073,0.553,0.149,1.124,0.2,1.688c0.244,2.712-0.073,5.479-0.418,8.079c-0.004,0.033-0.013,0.067-0.019,0.1  c-0.021,0.014-0.043,0.02-0.063,0.042c-0.338,0.362-0.396,0.993-0.406,1.178c-0.053,0.966-0.128,1.948-0.2,2.898  c-0.03,0.389-0.06,0.776-0.088,1.165L50.6,92.457c-0.05,0.684-0.112,1.534,0.402,2.074c0.204,0.214,0.471,0.395,0.839,0.568  c0.382,0.181,0.695,0.316,0.986,0.426c0.065,0.024,0.128,0.034,0.188,0.034c0.122,0,0.233-0.04,0.334-0.081  c0.431-0.179,0.851-0.361,1.25-0.621c0.277-0.18,0.447-0.421,0.534-0.759c0.137-0.531,0.047-1.076-0.04-1.604  c-0.013-0.077-0.025-0.153-0.037-0.229c-0.103-0.649-0.264-1.78-0.381-2.605c-0.067-0.479-0.123-0.87-0.149-1.038  c-0.015-0.091-0.054-0.311-0.159-0.477c-0.009-0.235-0.013-0.474-0.001-0.731c0.064-1.439,0.453-2.925,0.83-4.361  c0.194-0.742,0.396-1.51,0.546-2.253c0.544-2.684,0.872-4.863,1.033-6.86c0.179-2.205,0.04-4.553-0.094-6.822  c-0.032-0.553-0.063-1.114-0.092-1.673c0.183-0.02,0.298-0.033,0.304-0.034c0.092-0.011,0.164-0.084,0.173-0.176  c0.009-0.084,0.642-6.397,0.951-11.056c0.483-0.071,1.146-0.23,1.156-0.233c0.426-0.129,1.01-0.304,1.314-0.814  c0.297-0.498,0.569-0.992,0.833-1.512c0.045-0.088,0.101-0.197,0.119-0.323c0.02-0.133-0.005-0.257-0.029-0.378  c-0.131-0.669-0.158-1.379-0.185-2.065c-0.009-0.214-0.017-0.428-0.027-0.641c-0.016-0.3-0.025-0.583-0.031-0.856  c0.195,0.077,0.325,0.138,0.325,0.138L61.811,32.641z M46.876,21.336c0.853,0.637,1.941,1.017,3.125,1.017  c1.183,0,2.271-0.38,3.124-1.017c-0.016,1.18-0.03,2.374-0.03,3.151C53.095,26.519,50,31.5,50,31.5s-3.095-4.981-3.095-7.013  C46.905,23.71,46.892,22.515,46.876,21.336z M46.517,11.738c0-0.318,0.004-0.622,0.013-0.916c0.663-0.745,1.558-1.877,1.899-2.914  c0,0,0.464,1.34,1.701,1.778c1.094,0.387,2.674,0.763,3.347,1.343c0.005,0.23,0.007,0.465,0.007,0.709  c0,2.834-2.321,4.993-3.483,4.993S46.517,14.573,46.517,11.738z M48.17,16.229c0.623,0.56,1.284,0.895,1.83,0.895  s1.208-0.333,1.831-0.893c0.088,0.498,0.375,1.375,1.347,1.749c-0.01,0.569-0.029,1.658-0.046,2.841  C52.31,21.529,51.193,21.96,50,21.96c-1.193,0-2.31-0.432-3.132-1.139c-0.017-1.183-0.036-2.272-0.046-2.841  C47.796,17.606,48.083,16.726,48.17,16.229z M58.484,47.244c-0.081,0.227-0.166,0.452-0.256,0.676  c-0.032,0.08-0.059,0.166-0.092,0.247c-0.011-0.273-0.023-0.537-0.036-0.79C58.202,47.339,58.332,47.293,58.484,47.244z   M57.616,32.798v6.374l-0.993-2.384L57.616,32.798z M43.378,36.789l-0.993,2.384v-6.374L43.378,36.789z M41.901,47.377  c-0.014,0.253-0.025,0.517-0.036,0.789c-0.033-0.082-0.06-0.169-0.093-0.25c-0.09-0.222-0.174-0.446-0.255-0.672  C41.669,47.293,41.799,47.339,41.901,47.377z M42.143,52.685c-0.391-0.209-0.467-0.801-0.481-1.054  c-0.005-0.096-0.008-0.192-0.011-0.29c-0.012-0.422-0.023-0.858-0.258-1.254l-0.184-0.263c-0.038-0.056-0.11-0.091-0.172-0.079  c-0.067,0.007-0.126,0.05-0.152,0.113c0,0-0.24,0.57-0.271,0.656c-0.087,0.234-0.154,0.475-0.2,0.715  c-0.115,0.592,0.06,1.234,0.228,1.67c0.017,0.042,0.048,0.077,0.088,0.098l0.862,0.453c0.137,0.071,0.291,0.151,0.405,0.259  c0.035,0.033,0.066,0.069,0.091,0.105c-0.39-0.068-1.071-0.202-1.152-0.227c-0.477-0.143-0.889-0.291-1.102-0.648  c-0.293-0.49-0.562-0.978-0.821-1.49c-0.036-0.069-0.073-0.142-0.082-0.208c-0.011-0.068,0.006-0.151,0.025-0.252  c0.137-0.697,0.165-1.422,0.191-2.123c0.009-0.212,0.017-0.425,0.028-0.635c0.019-0.358,0.028-0.69,0.032-1.011  c0.338-0.112,0.742-0.217,1.09-0.217c0.237,0,0.514,0.051,0.779,0.117c0.006,0.018,0.008,0.034,0.014,0.052  c0.099,0.299,0.217,0.591,0.335,0.883c0.131,0.323,0.266,0.657,0.369,0.992C42.152,50.21,42.152,51.451,42.143,52.685z   M41.922,53.206c-0.053-0.03-0.108-0.061-0.158-0.087l-0.8-0.42c-0.193-0.526-0.259-1.021-0.186-1.399  c0.043-0.221,0.104-0.441,0.185-0.657c0.015-0.039,0.074-0.184,0.134-0.325c0.161,0.295,0.171,0.654,0.182,1.034  c0.003,0.101,0.006,0.201,0.012,0.301c0.035,0.62,0.262,1.075,0.617,1.306C41.912,53.04,41.917,53.123,41.922,53.206z   M48.558,66.481c-0.219,0.816-0.446,1.659-0.491,2.514c-0.033,0.641,0.036,1.283,0.103,1.904c0.018,0.161,0.035,0.323,0.051,0.484  c0.138,1.42,0.138,2.861-0.001,4.286c-0.05,0.508-0.117,1.013-0.184,1.518c-0.075,0.563-0.152,1.146-0.204,1.723  c-0.247,2.75,0.072,5.54,0.42,8.161c0.039,0.294,0.116,0.59,0.19,0.875c0.074,0.286,0.145,0.557,0.181,0.827  c0.05,0.375,0.022,0.706-0.005,1.027c-0.021,0.251-0.041,0.489-0.023,0.736c0.015,0.22,0.077,0.451,0.139,0.675  c0.129,0.475,0.252,0.924-0.023,1.317c-0.066,0.094-0.494,0.266-1.239,0.353c-0.775,0.089-1.37,0.027-1.498-0.086  c-0.189-0.171-0.293-0.436-0.368-0.672c-0.156-0.49-0.014-1.146,0.111-1.723c0.049-0.225,0.095-0.439,0.124-0.637  c0.123-0.85,0.207-1.517,0.169-2.369c-0.067-1.478-0.462-2.982-0.843-4.438c-0.192-0.736-0.393-1.499-0.541-2.232  c-0.541-2.667-0.867-4.833-1.028-6.815c-0.177-2.18-0.038-4.512,0.096-6.769c0.032-0.547,0.063-1.103,0.091-1.658  c1.047,0.11,3.13,0.313,4.934,0.391C48.665,66.075,48.613,66.276,48.558,66.481z M56.403,73.909c-0.16,1.98-0.486,4.146-1.027,6.815  c-0.148,0.733-0.349,1.495-0.541,2.232c-0.382,1.456-0.775,2.961-0.843,4.438c-0.038,0.853,0.046,1.52,0.169,2.369  c0.029,0.198,0.075,0.414,0.124,0.639c0.125,0.577,0.266,1.231,0.11,1.721c-0.07,0.222-0.176,0.499-0.367,0.672  c-0.127,0.112-0.72,0.175-1.493,0.086c-0.749-0.086-1.179-0.259-1.245-0.353c-0.274-0.394-0.152-0.842-0.022-1.317  c0.062-0.224,0.124-0.455,0.139-0.675c0.018-0.248-0.003-0.485-0.024-0.737c-0.026-0.32-0.055-0.651-0.005-1.025  c0.036-0.271,0.106-0.54,0.181-0.825c0.075-0.286,0.152-0.582,0.191-0.878c0.348-2.621,0.667-5.411,0.42-8.161  c-0.052-0.571-0.128-1.146-0.202-1.704c-0.067-0.511-0.136-1.022-0.186-1.535c-0.139-1.426-0.139-2.867-0.001-4.287  c0.016-0.161,0.033-0.323,0.051-0.484c0.066-0.621,0.136-1.264,0.103-1.904c-0.045-0.854-0.272-1.697-0.491-2.514  c-0.055-0.205-0.107-0.406-0.158-0.608c1.803-0.077,3.886-0.28,4.934-0.391c0.028,0.554,0.059,1.109,0.091,1.655  C56.442,69.396,56.58,71.729,56.403,73.909z M57.582,53.018c0.022,0.021,0.063,0.043,0.111,0.058  c-0.009,0.155-0.018,0.313-0.028,0.474c-0.121,0.15-0.203,0.316-0.203,0.488c0,0.06,0.028,0.116,0.076,0.151  c0.014,0.01,0.052,0.011,0.085,0.014c-0.283,4.237-0.831,9.827-0.931,10.833c-0.793,0.089-4.406,0.477-6.691,0.477  s-5.898-0.388-6.691-0.477c-0.1-1.006-0.648-6.596-0.931-10.833c0.032-0.003,0.071-0.004,0.085-0.014  c0.048-0.035,0.076-0.092,0.076-0.151c-0.001-0.171-0.082-0.336-0.203-0.488c-0.01-0.162-0.019-0.32-0.028-0.476  c0.048-0.015,0.089-0.037,0.114-0.058c0.092-0.087,0.094-0.205,0.096-0.265c0.008-1.155,0.001-2.344-0.292-3.494  c0.045-2.123,0.198-3.832,0.287-4.674c0.792,0.454,3.559,1.86,7.488,1.86c3.929,0,6.696-1.406,7.488-1.86  c0.09,0.841,0.242,2.549,0.287,4.671c-0.293,1.149-0.3,2.34-0.292,3.497C57.484,52.803,57.484,52.925,57.582,53.018z M60.988,51.449  c-0.26,0.512-0.528,0.999-0.821,1.489c-0.213,0.357-0.625,0.506-1.102,0.648c-0.081,0.024-0.764,0.158-1.153,0.227  c0.025-0.036,0.056-0.072,0.092-0.105c0.113-0.106,0.262-0.184,0.405-0.259l0.862-0.453c0.041-0.021,0.071-0.056,0.088-0.099  c0.167-0.437,0.343-1.08,0.228-1.668c-0.046-0.241-0.113-0.481-0.2-0.716c-0.031-0.085-0.271-0.656-0.271-0.656  c-0.026-0.062-0.085-0.106-0.152-0.113c-0.064-0.012-0.133,0.022-0.172,0.078l-0.193,0.276c-0.225,0.383-0.236,0.819-0.248,1.241  c-0.003,0.098-0.006,0.195-0.011,0.291c-0.015,0.249-0.089,0.825-0.483,1.05c-0.008-1.214-0.01-2.465,0.349-3.633  c0.104-0.333,0.238-0.666,0.368-0.988c0.116-0.288,0.237-0.585,0.337-0.887c0.006-0.018,0.009-0.034,0.014-0.052  c0.266-0.066,0.542-0.117,0.779-0.117c0.348,0,0.753,0.105,1.091,0.217c0.005,0.321,0.013,0.653,0.032,1.011  c0.012,0.21,0.02,0.423,0.028,0.635c0.026,0.701,0.055,1.425,0.193,2.135c0.018,0.088,0.034,0.171,0.023,0.24  C61.062,51.307,61.025,51.379,60.988,51.449z M58.078,53.207c0.005-0.084,0.01-0.167,0.014-0.249  c0.355-0.231,0.582-0.685,0.617-1.305c0.006-0.1,0.009-0.2,0.012-0.302c0.011-0.385,0.021-0.75,0.181-1.035  c0.06,0.142,0.12,0.288,0.135,0.327c0.08,0.216,0.142,0.437,0.185,0.658c0.073,0.376,0.008,0.87-0.186,1.398l-0.8,0.42  C58.186,53.145,58.132,53.177,58.078,53.207z"></path></svg>