<svg height='100px' width='100px'  fill="#ffffff" xmlns="http://www.w3.org/2000/svg" xmlns:xlink="http://www.w3.org/1999/xlink" version="1.0" x="0px" y="0px" viewBox="0 0 100 100" style="enable-background:new 0 0 100 100;" xml:space="preserve"><g><path d="M88.3,91.1l0-2.5c0,0,0.2-1.2-0.7-2c-0.1,0-0.1-0.1-0.2-0.1c0-0.2-0.1-0.3-0.2-0.4c-0.4-0.3-6.5-3.6-9.1-4.9   c0,0-2.2-1.3-3.5-2.5c-1.4-1.4-1.8-2.7-1.8-2.7c-0.1-0.2-0.2-0.3-0.4-0.4c0.2-0.8,0.5-2.8,0.1-4.9c0,0,0,0,0,0   c0.1-0.1,2.5-3.7,4.2-12.1l3.6,0c0,0,0,0,0,0c0.1,0,0.1,0,0.2,0c0,0,0.1,0,0.1,0c0.1,0,0.1,0,0.2,0c0.8,0,1.7-0.4,2.6-1.2   c2.5-2.2,4.1-6.7,4.3-12c0.3-7.4-0.8-12.5-3.1-14.5c-0.1-0.1-0.7-0.7-1.1-0.8l-6-0.4c-1.9-10.3-7.5-16.9-16.5-19.5l0-0.3   c0-0.2,0-0.3-0.1-0.5c0-0.6-0.2-1.3-0.6-1.8c-1.7-2-6.4-3.1-12.6-2.8C40.5,5,36.4,6.5,35.3,9.1c-0.3,0.7-0.3,1.5-0.2,2.1   c0,0.1,0,0.1,0,0.2v1.2c-9.9,4.9-16.3,13.3-17.8,23.5c-0.6,0.1-1.2,0.3-1.8,0.7c-1.1,0.8-2.4,2.6-2.4,6.5c0,0.1,0.4,11.9,3.9,13.9   c0.8,0.5,1.5,0.7,2.1,0.7c0.2,0,0.3,0,0.5-0.1c2.9,8.8,7.4,13.2,8.9,14.5l-3.9,5.4c0,0,0,0,0,0c-1.5,0.9-7,7.1-7.6,7.8c0,0,0,0,0,0   c0,0,0,0.1,0,0.1c0,0,0,0.1,0,0.1c0,0,0,0,0,0c0,0.1-0.9,2.1-1.1,2.2c-1.9,1.7-5.4,4.8-6.8,7c-1.2,1.7-2.1,3.4-2.8,5h2.2   c0.6-1.2,1.3-2.5,2.2-3.8c1.1-1.7,3.7-4.1,5.4-5.6c0,2.4,0.4,5.9,1,9.5h1c0-0.3-0.1-0.5-0.1-0.8c0,0.1,0.1,0.2,0.1,0.3l0.2,0.4   c0,0,0,0.1,0,0.1h1.1c-0.1-0.2-0.1-0.3-0.2-0.5l-0.2-0.4c-1.6-4-1.7-7.7-1.5-10.1c0-0.1,0-0.2,0-0.3c0.1-1.3,0.3-2.3,0.4-2.5   c0-0.1,0.1-0.1,0.1-0.2c0.2,0.5,0.4,0.9,0.8,1.1c0.2,0.1,0.4,0.2,0.6,0.2c0.3,0,0.6-0.1,0.8-0.3c0.9-0.6,1.7-2.2,1.4-5c0,0,0,0,0,0   c1.1-1.2,2.2-2.3,2.9-2.9c0.1,0.1,0.1,0.2,0.2,0.2c0,0,0,0,0,0c-1.1,1.2-3.3,4.7-1.8,12.8c0.6,3.3,1.6,5.9,2.8,7.9H27   c-1.4-2-2.4-4.6-3-8.1c-1.8-9.5,2.2-12.8,2.2-12.8l0.8-1.1c0.4,0.2,0.9,0.5,1.7,0.8c-1,1.1-2.1,2.4-2.5,3.2c-0.1,0.2,0,0.5,0.2,0.7   c0.1,0,0.2,0.1,0.2,0.1c0.2,0,0.4-0.1,0.4-0.3c0.4-0.8,1.6-2.3,2.6-3.3c0.4,0.2,0.8,0.3,1.2,0.5c-1.3,0.5-2.1,2.1-2.1,2.3   c-0.1,0.3,0,0.5,0.2,0.7c0.1,0,0.1,0,0.2,0c0.2,0,0.4-0.1,0.5-0.3c0.2-0.4,0.8-1.5,1.6-1.8c0.3-0.1,0.4-0.4,0.3-0.6c0,0,0,0,0,0   c3.9,1.5,9.8,3,17.2,3c0.4,0,0.8,0,1.2,0c6.9-0.2,11.9-1.4,15.4-2.8l0.8,1.4c0.1,0.2,0.3,0.3,0.4,0.3c0.1,0,0.2,0,0.2-0.1   c0.2-0.1,0.3-0.4,0.2-0.7l-0.7-1.3c1.2-0.5,2.3-1,3.1-1.5c0.4,1,0.8,1.9,0.8,2c0.1,0.2,0.3,0.3,0.5,0.3c0.1,0,0.1,0,0.2,0   c0.3-0.1,0.4-0.4,0.3-0.7c0,0-0.5-1-0.9-2c0.4-0.2,0.8-0.5,1.1-0.6c0,0,0.1,0,0.1-0.1c0.4,0.7,1.3,1.8,2.9,2.9   c0.5,0.3,0.9,0.6,1.2,0.8c-2.4,0.9-5.4,3.6-10.5,9c-1,1.1-2,2.2-2.9,3.1c-2.5,2.7-4.6,5-6.6,6.8H57c1.7-1.7,3.6-3.8,5.9-6.2   c0.9-1,1.9-2,2.9-3.1c5.8-6.2,8.9-8.7,11.2-9.1c0.5,0.3,1.1,0.6,1.7,0.9c-0.9,0.2-2,0.6-2.1,1.4c-0.1,0.8,0.9,1.3,1.6,1.5   c0.7,0.3,1.4,0.4,2,0.4c1.7,0,2.9-0.8,2.9-0.9c0,0,0,0,0,0c0.6,0.3,1.2,0.7,1.7,0.9c-0.9,0.1-2,0.3-3.3,0.8   c-4.8,1.6-11,9-14.5,13.4h1.3c3.4-4.4,9.2-10.9,13.5-12.4c0.5-0.2,0.9-0.3,1.3-0.4c0,0.3,0.1,0.6,0.3,0.8c1.1,1.1,5.9,7.8,7.9,12   h2.2C92.5,97.5,90.3,93.9,88.3,91.1z M19.7,86.2c-0.2,0.1-0.3,0.1-0.4,0.1c-0.2-0.1-0.4-0.5-0.4-1.2c0.6-0.6,1.2-1.3,1.9-2   C20.7,84.9,20.1,85.9,19.7,86.2z M81.8,32.2c0.9-0.4,1.3-0.2,1.7,0.1c0.7,0.6,2.8,3.1,2.4,12.9c-0.2,5.6-2.1,9.1-3.7,10.6   c-0.4,0.4-0.7,0.5-1,0.6c0,0,0,0,0,0c-2.5-1-3.9-5-4.3-11.9C76.6,39.1,79.3,33.4,81.8,32.2z M77.4,31.6l1.8,0.1   c-2.5,2.6-4.6,7.6-4.3,12.8c0.3,5.8,1.3,9.7,3.1,11.9l-1.9,0c0,0,0,0,0,0c0,0,0,0,0,0c-0.9-0.5-4.7-3.2-4.5-11.6   C71.9,36.3,76.3,32.5,77.4,31.6z M37.2,9.8c0.3-0.8,2-2.7,10.7-3.1c7-0.3,10.2,1.2,11,2.1c0.2,0.3,0.2,0.4,0.2,0.5   c0,0.2,0,0.3,0,0.4c-0.7,1.2-3.4,4.8-10.5,4.9c-7.5,0.1-10.4-2.3-11.3-3.3C37.1,10.9,37,10.3,37.2,9.8z M59.1,12.9l0,0.6   c-0.2,0.6-1.9,4.7-11.3,4.7c-9.4,0-10.5-3.4-10.6-3.7v-0.7c1.9,1.4,5.3,2.9,11.5,2.8C54,16.5,57.3,14.6,59.1,12.9z M18.1,55.4   c-1.6-0.9-2.8-8-2.9-12.2c-0.1-3.2,0.9-4.4,1.5-4.8c0.1-0.1,0.3-0.2,0.4-0.2C17,39.5,17,40.9,17,42.2c0.2,5.3,1,9.8,2,13.6   C18.9,55.8,18.6,55.7,18.1,55.4z M21.1,55.8C21.1,55.7,21.1,55.7,21.1,55.8C20,52,19.2,47.5,19,42.2c-0.1-1.5,0-2.9,0.1-4.4   c1-9.8,6.8-18.1,16-23c0.2,0.8,1.6,5.4,12.6,5.4c11.7,0,13.3-6.1,13.3-6.4c0-0.1,0-0.1,0-0.2l0.1-1.5c8,2.5,12.9,8.6,14.6,18.2   c-0.4,0.3-0.9,0.8-1.4,1.4c-0.1-1.2-0.3-2.9-0.7-3.8c-0.1-0.3-0.4-0.4-0.7-0.3c-0.3,0.1-0.4,0.4-0.3,0.7c0.5,1.2,0.6,4,0.7,4.6   c-1.8,2.4-3.7,6.2-3.8,11.9c-0.2,8.8,3.6,12.2,5.2,13.2c-1.4,7.1-3.3,10.5-3.8,11.2c-2.6,1.7-12.6,5.5-20.4,6   c-11.2,0.8-19.9-3.7-20-3.8c-0.1,0-0.2-0.1-0.2-0.1c-0.1-0.1-0.1-0.2-0.2-0.3C29.5,70.5,24.2,66.2,21.1,55.8z M71.6,75.1   c-0.2,0-0.4,0-0.5,0.1c-0.2,0.1-0.5,0.3-0.8,0.5c-2.3,1.4-8.4,5.1-20.4,5.4c-11,0.3-19-3.3-21.6-4.6c0.5-0.8,1.3-2,2.1-3   c2,0.9,8.7,3.8,17.5,3.8c1,0,2,0,3-0.1c7.6-0.6,17.3-4.1,20.9-6.1c0,0.2,0.1,0.5,0.1,0.7c0,0,0,0,0,0c-0.1,0.1-0.2,0.3-0.3,0.4   c-0.3,0.3-0.3,0.3-1.4,0.8l-0.3,0.1c-0.3,0.1-0.4,0.4-0.3,0.7c0.1,0.2,0.3,0.3,0.5,0.3c0.1,0,0.1,0,0.2,0l0.3-0.1   c0.8-0.3,1.1-0.5,1.3-0.7C71.7,74,71.6,74.7,71.6,75.1z M78.5,84.5c-0.7-0.3-0.9-0.5-1-0.5c0.1-0.2,0.8-0.5,2-0.6   c0.2,0,0.3-0.1,0.4-0.2c0.7,0.4,1.5,0.8,2.2,1.2C81.5,84.7,80.2,85.1,78.5,84.5z M87.3,89.7c-0.9-1.2-1.7-2.2-2.2-2.8   c1,0,1.5,0.2,1.8,0.4c0.5,0.4,0.4,1.1,0.4,1.2L87.3,89.7z"></path><path d="M72.2,91.4c0.7-0.2,1.3-0.6,1.8-1.2c1-1.3,1-3-0.1-3.8c-0.5-0.4-1.2-0.5-1.9-0.4c-0.7,0.2-1.3,0.6-1.8,1.2   c-1,1.3-1,3,0.1,3.8c0.4,0.3,0.8,0.4,1.3,0.4C71.8,91.5,72,91.5,72.2,91.4z M71,87.9c0.3-0.4,0.8-0.7,1.2-0.8c0.1,0,0.3,0,0.4,0   c0.3,0,0.5,0.1,0.7,0.2c0.6,0.5,0.6,1.5-0.1,2.4c-0.3,0.4-0.8,0.7-1.2,0.8c-0.4,0.1-0.8,0-1.1-0.2C70.3,89.8,70.3,88.7,71,87.9z"></path><path d="M65.2,96.7c-0.5-0.4-1.1-0.5-1.7-0.4c-0.7,0.1-1.5,0.5-2,1.2c-0.6,0.8-0.8,1.7-0.6,2.5h1c-0.3-0.5-0.2-1.3,0.3-1.9   c0.3-0.4,0.8-0.7,1.3-0.8c0.1,0,0.1,0,0.2,0c0.2,0,0.5,0.1,0.7,0.3c0.6,0.5,0.7,1.6,0,2.4c0,0-0.1,0.1-0.1,0.1h1.2   C66.3,98.8,66.1,97.5,65.2,96.7z"></path><path d="M22.8,98.3c-0.6-0.3-1.2-0.3-1.7,0c-0.5,0.3-0.8,0.8-0.9,1.5c0,0.1,0,0.1,0,0.2h1c0,0,0-0.1,0-0.1c0-0.2,0.1-0.6,0.4-0.7   c0.1-0.1,0.2-0.1,0.3-0.1c0.2,0,0.4,0.1,0.5,0.1c0.3,0.2,0.6,0.4,0.8,0.8h1.1c0-0.1-0.1-0.2-0.1-0.3C23.9,99.1,23.4,98.6,22.8,98.3   z"></path><path d="M22.1,91.9c0-1.5-0.9-2.7-1.9-2.7c-1.1,0-1.9,1.2-1.9,2.7s0.9,2.7,1.9,2.7C21.2,94.6,22.1,93.4,22.1,91.9z M20.2,93.6   c-0.4,0-0.9-0.7-0.9-1.7c0-1,0.5-1.7,0.9-1.7s0.9,0.7,0.9,1.7C21.1,92.9,20.6,93.6,20.2,93.6z"></path><path d="M42.8,12.8c6.4,1.4,13,0.1,13.5-2.6c0.4-2-5.8-2.3-8.4-2.2C41,8.4,36.3,11.4,42.8,12.8z"></path><path d="M38.8,65c0,0,0.1,0,0.1,0c0,0,0,0,0.1,0c0,0,0.1,0,0.1,0c15.1-0.5,17.3-11.5,17.6-13.6c0.1,0,0.3,0.1,0.4,0.1   c0.2,0,0.3,0,0.5,0c1.2,0,2.7-0.5,2.8-0.6c0.2-0.1,0.3-0.2,0.3-0.5c0-0.2,0.1-3.9,0-5.4c0-0.3,0-0.6-0.1-0.9c0,0,0-0.1,0-0.1   c0-0.1,0-0.1,0-0.2c-0.1-1.9-0.2-3-0.9-3.2c-0.5-0.2-2.1-0.1-2.8,0c-0.2-0.1-0.4-0.2-0.7-0.2c-0.4-3.2-2.8-14.1-16.4-14.1   c-7.9,0-12.1,4.6-14.2,9.3c-0.3,0.6-0.6,1.2-0.7,1.6c0,0,0,0.1,0,0.1c-1,2.7-1.4,5.2-1.6,6.6c0,0,0,0,0,0.1c-0.6,0-1.1,0-1.6-0.1   c-0.1,0-0.3,0-0.4,0.1c-0.1,0.1-0.2,0.2-0.2,0.4v7.2c0,0,0,0,0,0c0,0,0,0.1,0,0.1c0,0,0,0.1,0,0.1c0,0,0,0.1,0.1,0.1c0,0,0,0,0,0.1   c0,0,0,0,0,0c0,0,0,0,0,0l2.4,2c0.1,0.1,0.2,0.1,0.3,0.1c2.3,7.6,8.4,11,14,11C38.2,65,38.5,65,38.8,65z M59.6,50.1   c-0.6,0.2-1.7,0.5-2.5,0.4c-0.4-0.1-0.5-0.2-0.5-0.2c0,0,0,0,0,0c0-0.1,0-0.1,0-0.2c0,0,0-0.7-0.1-1.7c1.1-0.1,2.3-0.2,3.1-0.3   C59.7,48.9,59.6,49.7,59.6,50.1z M59.6,45.1c0,0.5,0,1.2,0.1,2c-0.5,0.1-1.8,0.2-3.1,0.3c0-0.8-0.1-1.8-0.1-2.6   c1.3-0.1,2.5-0.2,3.2-0.2C59.6,44.7,59.6,44.9,59.6,45.1z M56.3,41.4c0,0,0.1,0,0.1,0.1c0.1,0.1,0.2,0.1,0.3,0.1   c1-0.1,2.1-0.1,2.5,0c0.1,0.3,0.2,1.2,0.3,2c-0.7,0.1-2,0.2-3.1,0.2C56.3,42.7,56.3,41.8,56.3,41.4C56.3,41.4,56.3,41.4,56.3,41.4z    M55.7,50.1c0,0.1,0,0.4,0.1,0.6c0,0.1-0.1,0.2-0.1,0.3c0,0-0.2,3.3-2.5,6.5c-2.2,3.1-5.4,5-9.5,5.9c2.4-1.3,4.6-3.5,6.6-6.4   c1.7-2.5,2.8-5.4,3.3-8.6c0.1,0.1,0.2,0.1,0.3,0.1c0,0,0,0,0,0c0,0,0.8,0,1.8-0.1C55.6,49.2,55.7,49.8,55.7,50.1z M55.5,47.4   c-0.6,0-1.2,0-1.7,0.1c-0.1,0-0.1,0-0.2,0c0.1-0.9,0.1-1.7,0.1-2.6c0.5,0,1.1-0.1,1.6-0.1C55.5,45.7,55.5,46.6,55.5,47.4z    M39.7,27.3c14.9,0,15.5,13.4,15.5,14c0,0.1,0,0.1,0.1,0.2c0,0.4,0,1.2,0.1,2.3c-0.7,0.1-1.2,0.1-1.6,0.1c-0.3-5-2.3-9.9-6.5-12.8   c-3.9-2.7-7.6-3.9-11.1-3.4C37.5,27.4,38.8,27.3,39.7,27.3z M22.8,51.9l0.6-0.1c0,0.2,0.1,0.4,0.1,0.6L22.8,51.9z M22.1,51v-6.1   c1.4,0.1,3.1,0,3.9,0v5.7L22.1,51z M24.4,51.8l2.1-0.2c0.2,0,0.3-0.1,0.4-0.3c0.6,2.3,1.5,4.1,2.9,5.4c2.7,2.7,6.3,3,8.9,3   c0,0,0.1,0,0.1,0c2.5,0,5.5-1.5,7.6-3.8c1.8-2,3.8-5.5,3.2-11c-0.9-8.3-4.9-13.1-10.8-12.7c-5.4,0.3-11.4,5.2-12.3,11.7   c0,0-1.1,0.1-2.3,0.1c0.3-2.4,0.8-4.5,1.4-6.3c0.1-0.1,0.1-0.1,0.1-0.2c0.7-2,3.5-6.7,8.3-8.3c3.9-1.3,8.1-0.4,12.6,2.8   c7.6,5.3,7.7,17.3,2.8,24.4c-3.1,4.5-6.5,6.9-10.4,7.6c-0.4,0-0.7,0-1.1,0C30.2,64,25.6,57.9,24.4,51.8z M37.7,33.4   c-4.1,2.1-7.2,7.3-7.2,12c0,8.9,3.5,12.2,7.2,13.4c0.7,0.2,1.4,0.4,2,0.5l0,0c-0.1,0-0.2,0-0.3,0c-3.6,0-9.8-0.5-11.6-8.7   c0-0.1,0-0.1,0-0.2c-0.1-0.3-0.1-0.7-0.2-1c0-0.3-0.1-0.6-0.1-1c0-0.2,0-0.3,0-0.5c0-0.3,0-0.6-0.1-1c0,0,0-0.1,0-0.1   c0-0.4,0-0.7,0-1.1c0-0.7,0.1-1.5,0.2-2.2c0-0.1,0-0.2,0-0.3c0-0.1,0-0.1,0.1-0.2c1.2-5.3,6-9.6,10.7-10.2l0.9-0.1   C38.7,32.9,38.2,33.1,37.7,33.4z"></path><path d="M81.4,53.9c0,0,1.6,0.7,2.7-8.8c1.1-9.5-4.2-15.7-4.8-2C78.8,52.4,81.4,53.9,81.4,53.9z"></path><path d="M68.5,68.5c-0.3,0.1-0.4,0.4-0.3,0.6c0.1,0.2,0.3,0.3,0.5,0.3c0.1,0,0.1,0,0.2,0c0.9-0.4,3.3-5.4,3.5-6   c0.1-0.3,0-0.5-0.3-0.6c-0.3-0.1-0.5,0-0.6,0.3C70.9,64.6,68.9,68.2,68.5,68.5z"></path><path d="M68,64.2c-0.3-0.1-0.5,0.1-0.6,0.3c-0.7,2.4-1.9,5.2-2.3,5.5c-0.2,0.1-0.3,0.4-0.2,0.7c0.1,0.2,0.3,0.3,0.4,0.3   c0.1,0,0.2,0,0.2-0.1c1.1-0.6,2.7-5.5,2.8-6.1C68.4,64.5,68.2,64.2,68,64.2z"></path><path d="M61.4,72.1c0.1,0,0.1,0.1,0.2,0.1c0.2,0,0.4-0.1,0.4-0.3c0.1-0.1,1.6-3.2,1.9-4.2c0.1-0.3-0.1-0.5-0.3-0.6   c-0.3-0.1-0.5,0.1-0.6,0.3c-0.2,0.7-1.4,3.2-1.8,4C61.1,71.7,61.2,72,61.4,72.1z"></path><path d="M62.1,89.9c0.1-0.3,0-0.5-0.3-0.6c-0.3-0.1-0.5,0-0.6,0.3c-0.8,2.3-5,6.8-6.6,8.2c-1.5,1.2-3.8,1.8-3.8,1.8   c-0.2,0.1-0.4,0.3-0.4,0.5h2c0.9-0.3,1.9-0.8,2.8-1.6C56.8,97.1,61.2,92.4,62.1,89.9z"></path><path d="M53.1,97.3c1.3,0,5.2-5.4,5.3-5.5c0.2-0.2,0.1-0.5-0.1-0.7c-0.2-0.2-0.5-0.1-0.7,0.1c-1.4,1.9-3.9,4.9-4.5,5.1   c-0.3,0-0.5,0.2-0.5,0.5C52.6,97.1,52.8,97.3,53.1,97.3C53.1,97.3,53.1,97.3,53.1,97.3z"></path><path d="M26.1,93.1c-0.1-0.3-0.4-0.4-0.6-0.3c-0.3,0.1-0.4,0.4-0.3,0.6c0.4,1.2,1.9,4.9,3.4,6.6h1.1c0-0.1,0-0.3-0.1-0.4   C28.1,98.2,26.5,94.3,26.1,93.1z"></path><path d="M29.1,95.2c-0.3-0.6-0.6-1.3-1-2c-0.2-0.2-0.5-0.3-0.7-0.1c-0.2,0.2-0.3,0.5-0.1,0.7c0.4,0.6,0.7,1.2,1,1.9   c0.4,0.9,0.7,1.6,1.3,2.1c0.1,0.1,0.2,0.1,0.3,0.1c0.1,0,0.3-0.1,0.4-0.2c0.2-0.2,0.1-0.5-0.1-0.7C29.7,96.7,29.4,96,29.1,95.2z"></path><path d="M63.5,15.4c2.2,0,4.2,3.2,4.7,4.1c0.1,0.2,0.3,0.2,0.4,0.2c0.1,0,0.2,0,0.3-0.1c0.2-0.1,0.3-0.4,0.2-0.7   c-0.8-1.4-3-4.6-5.6-4.6c-0.3,0-0.5,0.2-0.5,0.5S63.2,15.4,63.5,15.4z"></path><path d="M61.5,16.8c1.1,0.3,2.8,2.1,3.3,2.8c0.1,0.1,0.2,0.2,0.4,0.2c0.1,0,0.2,0,0.3-0.1c0.2-0.2,0.2-0.5,0.1-0.7   c-0.2-0.3-2.3-2.6-3.8-3.1c-0.3-0.1-0.5,0.1-0.6,0.3C61.1,16.5,61.2,16.7,61.5,16.8z"></path><path d="M50.3,78.5c0-0.3-0.3-0.5-0.5-0.5L49,78c-1.5,0.1-3.5,0.2-4.8,0c-0.3,0-0.5,0.2-0.6,0.4c0,0.3,0.2,0.5,0.4,0.6   c0.6,0.1,1.4,0.1,2.2,0.1c0.9,0,1.9,0,2.8-0.1l0.7,0C50,79,50.3,78.8,50.3,78.5z"></path><path d="M56.2,78.6c-2,0.4-4.3,0.6-5.8,0.5c-0.3,0-0.5,0.2-0.5,0.5s0.2,0.5,0.5,0.5c0.2,0,0.4,0,0.7,0c1.5,0,3.5-0.2,5.4-0.6   c0.3-0.1,0.4-0.3,0.4-0.6C56.7,78.8,56.5,78.6,56.2,78.6z"></path><path d="M33.1,76.3c0,0-1.1-0.2-2.6-0.9c-0.3-0.1-0.5,0-0.7,0.2c-0.1,0.3,0,0.5,0.2,0.7c1.6,0.7,2.8,0.9,2.9,0.9c0,0,0.1,0,0.1,0   c0.2,0,0.5-0.2,0.5-0.4C33.6,76.6,33.4,76.3,33.1,76.3z"></path></g></svg>