<svg height='100px' width='100px'  fill="#ffffff" xmlns="http://www.w3.org/2000/svg" data-name="Ebene 1" viewBox="0 0 100 100" x="0px" y="0px"><title>Zeichenfläche 4</title><path d="M12.51,87.87c2.35.47,11.92,0,12.3-.32s-.46-4.24-.5-5.09,2.07-2.41,2.68-3.9c.23.08,3.17,9.9,3.44,10.17s1.49-.08,1.53-.54-3.63-11.78-3.63-11.78a38.83,38.83,0,0,0,1.76-4.28c.34-1.3,6.54-7.84,7.84-13.23a28.09,28.09,0,0,0,6.88,10.82c3.67,3.33,8.68,4.74,9.14,5.39S53,80.4,52.42,81.89A12.25,12.25,0,0,1,47.8,86a5.82,5.82,0,0,1-3,.34,1.21,1.21,0,0,0,0,1.34,22.16,22.16,0,0,0,6-.07,15.09,15.09,0,0,0,4.9-1.35c.31-.46-.19-1.49-.23-2.37s1.26-3.79,2.41-5.47a6.8,6.8,0,0,1,2.54,4c.67,3.81-.66,4.92-.7,5.23a.88.88,0,0,0,.64.82c.32,0,1.67-1,2.82-3.36s2.07-6.07,1.92-6.78c-.17-.87-1.57-1-3-1.33C61.38,76.83,60,74.4,60,74.4s1.38-2.1,2-3.06,1-3.56.65-6c2.18.5,9.83.23,12.93-1a13.74,13.74,0,0,0,1.61,3.9C78.42,70.42,82.9,74.4,83.43,80c.15,2.33-1.45,3.86-2.29,4.93s-2.56,1.49-2.75,1.8-.27,1.53.5,1.41c3.52-.31,8.88-4.15,8.88-5S86.61,80.67,86,77.84c-.38-1.8-.69-7.46-1-9.25S81.18,62,80.83,61s-.69-3.14-.46-3.21,2.29,1.57,2.56,1.57a8.75,8.75,0,0,0,1.41-3.56c-.08-.65-1.19-.84-1.19-1.41s1.8-4.93,1.45-5.43-1.76-.84-3.37-1.22c-.38-4.36-3.56-12.25-4.82-14.81s-4.36-6.22-5.16-9.28c4.11.11,8.12-3.1,8.33-5.33a.08.08,0,0,0-.14-.06,3.3,3.3,0,0,1-2.86.91.08.08,0,0,1,0-.13,25.8,25.8,0,0,0,2.34-1.76A4.05,4.05,0,0,0,80,15c-.05-.12-.58.38-1.23.64s-1.06.46-1.63.3a.08.08,0,0,1,0-.13c.4-.44,3-1.95,2.9-2.93a.08.08,0,0,0-.06-.07c-.29,0-1.31.8-2.1.88-.09-.17.49-1.45.58-2.31a.08.08,0,0,0-.11-.08,12.83,12.83,0,0,1-3.11,1.29,25.58,25.58,0,0,1-5.71.25A6.65,6.65,0,0,0,64,14.74c-1.11,1.11-1.2,3.52-1.26,5.33-.05,1.49-.17,2.5-.11,2.63s1,0,1.19.34-.61,1.91.27,2.37S66,25,66.26,25.14s.26.81.56,1.34,1,1.49,1.12,1.68A9.46,9.46,0,0,1,66,30.82c-1.6,1.64-3.78,3.35-3.81,4a4,4,0,0,0,2.14,2.41c0,1.26.22,3.86.34,6.92-2,3-6.78,15.72-7.72,18.55S55.56,69,55.17,69.1s-2.1-1.92-3-3.19-2-4.93-2.39-6.12-2-3.62-2.06-4.09,1.59-1.49,2.43-3.26,0-5,.41-5.13c1.08-.47,4.06-.58,4.36-1s-.79-4.6-1.78-6.55c-.21-.41,1.74-1.33,1.78-1.91a28.07,28.07,0,0,0-2.24-5.64c-.33-.33-2.74-.25-3.24-.54a36.15,36.15,0,0,1-4.27-5.1c-.21-.58.91-3,.83-4.69,0-.53,3.44.21,3.61-.17s-2-2-2.32-2.57-.25-5.52-1.2-6.39c-.43-.4-1.53-.08-2.61-.5s-2.61-1.16-3.19-1-2.61,3.53-3,4-2.86,2.16-2.74,2.49,2.12.54,2.45.83-1.2,3.15-1,3.36.87.12,1.08.29-.46,2.94,0,3.32,1.53-.41,2-.25.91,1.82.87,2.24-1.41,1.24-2,2.32-1.12,6.06-2.2,10.12C34.28,41,23.46,44.82,21.51,45.24s-4.19.17-4.89.75A5.75,5.75,0,0,0,15,49c.12.5,2.94,1.78,3.15,2s5.52,16.55,5.52,16.84-1,2.53-1.82,4.77S20.68,82,18.89,84.22c-2.22,2.74-6.1,2.36-6.38,2.57S12.07,87.78,12.51,87.87ZM74.45,39c.28,0,1.2,1.48,1.69,3.13.56,1.87.67,3.91.38,4s-.82-1.14-1.57-2-1.68-1.27-1.7-1.46C73.19,41.85,73.85,39.11,74.45,39ZM20.52,50.43c.08-.37.54-.47.9-1.06s.62-1.67.82-1.84,2.07,1.07,4.37,1c2.91,0,6.34-1.29,6.45-1s-2.26,4.4-4.25,8.75-3.56,8.79-3.86,8.79C24.35,65.07,20.34,51.26,20.52,50.43Z"></path></svg>