<svg height='100px' width='100px'  fill="#ffffff" xmlns="http://www.w3.org/2000/svg" xmlns:xlink="http://www.w3.org/1999/xlink" version="1.1" x="0px" y="0px" viewBox="0 0 64 64" style="enable-background:new 0 0 64 64;" xml:space="preserve"><g><path d="M9,22v4c-1.4,0.4-2.5,1.8-2.5,3.3v1H5v7.8h4V42h50V22H9z M8.5,29.3c0-0.8,0.7-1.5,1.5-1.5s1.5,0.7,1.5,1.5v1h-3V29.3z    M7,32.3h6v3.8H7V32.3z M57,40H11v-1.8h4v-7.8h-1.5v-1c0-1.6-1.1-2.9-2.5-3.3v-2h46V40z"></path><path d="M20.1,31.7c0.2-0.2,0.3-0.3,0.5-0.4c0.2-0.1,0.4-0.1,0.6-0.1c0.3,0,0.5,0.1,0.7,0.3c0.1,0.2,0.2,0.4,0.2,0.7v3.3h1.2v-3.3   c0-0.3,0-0.5-0.1-0.8c-0.1-0.2-0.2-0.4-0.3-0.6s-0.3-0.3-0.5-0.4c-0.2-0.1-0.5-0.1-0.7-0.1c-0.3,0-0.6,0.1-0.8,0.2   c-0.2,0.1-0.5,0.3-0.7,0.5V28h-1.2v7.4h1.2V31.7z"></path><path d="M24.4,31.2h0.5v2.9c0,0.4,0.1,0.8,0.4,1c0.2,0.3,0.6,0.4,1,0.4c0.3,0,0.5,0,0.7-0.1s0.4-0.2,0.6-0.3l-0.4-0.6   c0,0-0.1-0.1-0.1-0.1c0,0-0.1,0-0.1,0c0,0-0.1,0-0.1,0c0,0-0.1,0-0.1,0.1c0,0-0.1,0-0.1,0.1c-0.1,0-0.1,0-0.2,0   c-0.1,0-0.2,0-0.3-0.1c-0.1-0.1-0.1-0.2-0.1-0.4v-2.8h1.4v-0.9h-1.4v-1.6h-0.6c-0.1,0-0.1,0-0.2,0.1s-0.1,0.1-0.1,0.2L25,30.3   l-0.8,0.1v0.5c0,0.1,0,0.2,0.1,0.2S24.3,31.2,24.4,31.2z"></path><path d="M28.2,31.2h0.5v2.9c0,0.4,0.1,0.8,0.4,1c0.2,0.3,0.6,0.4,1,0.4c0.3,0,0.5,0,0.7-0.1s0.4-0.2,0.6-0.3l-0.4-0.6   c0,0-0.1-0.1-0.1-0.1c0,0-0.1,0-0.1,0c0,0-0.1,0-0.1,0c0,0-0.1,0-0.1,0.1c0,0-0.1,0-0.1,0.1c-0.1,0-0.1,0-0.2,0   c-0.1,0-0.2,0-0.3-0.1C30,34.3,30,34.1,30,34v-2.8h1.4v-0.9H30v-1.6h-0.6c-0.1,0-0.1,0-0.2,0.1s-0.1,0.1-0.1,0.2l-0.3,1.4L28,30.4   v0.5c0,0.1,0,0.2,0.1,0.2S28.2,31.2,28.2,31.2z"></path><path d="M33.6,35c0.2,0.2,0.3,0.3,0.5,0.4s0.4,0.1,0.7,0.1c0.3,0,0.6-0.1,0.9-0.2c0.3-0.1,0.5-0.3,0.7-0.6c0.2-0.2,0.3-0.5,0.4-0.9   c0.1-0.3,0.2-0.7,0.2-1.1c0-0.4,0-0.8-0.1-1.1c-0.1-0.3-0.2-0.6-0.4-0.8s-0.4-0.4-0.6-0.5c-0.2-0.1-0.5-0.2-0.8-0.2   c-0.4,0-0.7,0.1-0.9,0.2c-0.3,0.1-0.5,0.3-0.7,0.6l-0.1-0.5c0-0.1-0.1-0.1-0.1-0.2c-0.1,0-0.1-0.1-0.2-0.1h-0.8v6.8h1.2V35z    M33.6,31.8c0.2-0.2,0.3-0.3,0.5-0.5s0.4-0.2,0.7-0.2c0.2,0,0.3,0,0.4,0.1s0.2,0.2,0.3,0.3c0.1,0.1,0.2,0.3,0.2,0.5   c0,0.2,0.1,0.5,0.1,0.8c0,0.3,0,0.6-0.1,0.8s-0.1,0.4-0.2,0.5c-0.1,0.1-0.2,0.3-0.4,0.3c-0.2,0.1-0.3,0.1-0.5,0.1   c-0.2,0-0.4,0-0.5-0.1c-0.2-0.1-0.3-0.2-0.5-0.4V31.8z"></path><path d="M40,34.4c-0.1,0.1-0.2,0.1-0.3,0.1c-0.1,0-0.2,0.1-0.4,0.1c-0.2,0-0.3,0-0.5-0.1c-0.1,0-0.2-0.1-0.3-0.1   c-0.1,0-0.2-0.1-0.2-0.1c-0.1,0-0.1-0.1-0.2-0.1s-0.1,0-0.2,0c0,0-0.1,0.1-0.1,0.1l-0.3,0.5c0.1,0.1,0.2,0.2,0.3,0.3   c0.1,0.1,0.3,0.1,0.4,0.2c0.2,0.1,0.3,0.1,0.5,0.1c0.2,0,0.3,0,0.5,0c0.3,0,0.6,0,0.9-0.1c0.3-0.1,0.5-0.2,0.6-0.4   c0.2-0.2,0.3-0.3,0.4-0.5c0.1-0.2,0.1-0.4,0.1-0.7c0-0.2,0-0.4-0.1-0.5c-0.1-0.1-0.2-0.3-0.3-0.4s-0.3-0.2-0.4-0.3   s-0.3-0.1-0.5-0.2c-0.2-0.1-0.3-0.1-0.5-0.1c-0.2,0-0.3-0.1-0.4-0.2C39.1,32.1,39,32,39,31.9c-0.1-0.1-0.1-0.2-0.1-0.3   c0-0.2,0.1-0.3,0.2-0.4c0.1-0.1,0.3-0.2,0.6-0.2c0.2,0,0.3,0,0.4,0.1c0.1,0,0.2,0.1,0.3,0.1c0.1,0,0.2,0.1,0.2,0.1   c0.1,0,0.1,0.1,0.2,0.1c0.1,0,0.1,0,0.1,0c0,0,0.1-0.1,0.1-0.1l0.3-0.4c-0.2-0.2-0.4-0.3-0.7-0.5c-0.3-0.1-0.6-0.2-1-0.2   c-0.3,0-0.6,0-0.8,0.1s-0.4,0.2-0.6,0.3c-0.2,0.1-0.3,0.3-0.4,0.5c-0.1,0.2-0.1,0.4-0.1,0.6c0,0.2,0,0.4,0.1,0.6   c0.1,0.2,0.2,0.3,0.3,0.4c0.1,0.1,0.3,0.2,0.4,0.3c0.2,0.1,0.3,0.1,0.5,0.2c0.2,0.1,0.3,0.1,0.5,0.1c0.2,0,0.3,0.1,0.4,0.2   c0.1,0.1,0.2,0.1,0.3,0.2c0.1,0.1,0.1,0.2,0.1,0.3c0,0.1,0,0.2,0,0.2C40.1,34.3,40.1,34.4,40,34.4z"></path><path d="M42.5,31.7c0.1,0.1,0.1,0.1,0.2,0.2c0.1,0,0.2,0.1,0.3,0.1c0.1,0,0.2,0,0.3-0.1c0.1,0,0.2-0.1,0.2-0.2   c0.1-0.1,0.1-0.1,0.2-0.2c0-0.1,0.1-0.2,0.1-0.3c0-0.1,0-0.2-0.1-0.3s-0.1-0.2-0.2-0.2c-0.1-0.1-0.1-0.1-0.2-0.2s-0.2-0.1-0.3-0.1   c-0.1,0-0.2,0-0.3,0.1s-0.2,0.1-0.2,0.2c-0.1,0.1-0.1,0.1-0.2,0.2c0,0.1-0.1,0.2-0.1,0.3c0,0.1,0,0.2,0.1,0.3   C42.4,31.5,42.4,31.6,42.5,31.7z"></path><path d="M42.5,35.3c0.1,0.1,0.1,0.1,0.2,0.2c0.1,0,0.2,0.1,0.3,0.1c0.1,0,0.2,0,0.3-0.1c0.1,0,0.2-0.1,0.2-0.2   c0.1-0.1,0.1-0.1,0.2-0.2c0-0.1,0.1-0.2,0.1-0.3c0-0.1,0-0.2-0.1-0.3s-0.1-0.2-0.2-0.2c-0.1-0.1-0.1-0.1-0.2-0.2S43.1,34,43,34   c-0.1,0-0.2,0-0.3,0.1s-0.2,0.1-0.2,0.2c-0.1,0.1-0.1,0.1-0.2,0.2c0,0.1-0.1,0.2-0.1,0.3c0,0.1,0,0.2,0.1,0.3   C42.4,35.1,42.4,35.2,42.5,35.3z"></path><path d="M45,35.8c0.1,0,0.1,0,0.2-0.1c0.1,0,0.1-0.1,0.2-0.1c0-0.1,0.1-0.1,0.1-0.2l2.9-7.4h-0.5c-0.1,0-0.3,0-0.4,0.1   c-0.1,0.1-0.2,0.2-0.2,0.3l-2.9,7.5h0.5C44.8,35.9,44.9,35.9,45,35.8z"></path><path d="M47.8,35.9c0.1,0,0.1,0,0.2,0c0.1,0,0.1,0,0.2-0.1c0.1,0,0.1-0.1,0.2-0.1c0-0.1,0.1-0.1,0.1-0.2l2.9-7.4h-0.5   c-0.1,0-0.3,0-0.4,0.1c-0.1,0.1-0.2,0.2-0.2,0.3l-2.9,7.5H47.8z"></path></g></svg>