<svg height='100px' width='100px'  fill="#ffffff" xmlns="http://www.w3.org/2000/svg" xmlns:xlink="http://www.w3.org/1999/xlink" version="1.1" x="0px" y="0px" viewBox="0 0 94.8 99" style="enable-background:new 0 0 94.8 99;" xml:space="preserve"><path d="M39.4,69l-3.2-0.8c-2.4-0.6-4.5-2-6-3.9l-0.7-0.9c-0.7-1-1-2.2-0.8-3.4c0.3-1.5,0.6-2.6,1.1-3.3c0.7-1,2.9-0.4,3.5-0.2  c0.9,0.4,2-0.1,2.4-1c0.4-0.9-0.1-2-1-2.4c-2-0.8-5.9-1.3-7.8,1.5c-0.8,1.1-1.4,2.7-1.7,4.7c-0.4,2.2,0.2,4.5,1.5,6.3l0.7,0.9  c2,2.6,4.8,4.5,8,5.3l3.2,0.8c0.1,0,0.3,0.1,0.4,0.1c0.8,0,1.6-0.6,1.8-1.4C41,70.2,40.4,69.2,39.4,69z"></path><path d="M66.7,52.4c0.4-2.3,1.4-9.1-0.2-14.5c-0.7-2.4-2.9-5.3-6.8-8.9c-4.9-4.6-10.6-8.6-10.8-8.7c-0.1-0.1-0.2-0.1-0.2-0.1  C48.2,19.8,36,14,23.3,17.8C11.9,21.1,3.8,28.5,1,37.9c-2.5,8.5-1.6,22.9,16.1,43.7l-5.9,14.9c-0.2,0.6-0.2,1.2,0.2,1.7  c0.3,0.5,0.9,0.8,1.5,0.8h32c0.6,0,1.1-0.3,1.5-0.8l4.6-6.3c0.2-0.3,0.6-0.5,1-0.5h9.1c0.5,0,1.1-0.1,1.6-0.3l2.3-0.8  c1.8-0.6,3.1-2.2,3.3-4.1l0.2-2c0-0.5,0.3-0.8,0.8-1c1.8-0.7,3-2.4,3.1-4.4l0.1-1.4c0.1-1.4-0.5-2.7-1.4-3.6c0.9-0.8,1.3-2,1.2-3.2  c-0.1-1.2-0.7-2.3-1.6-3.1l-0.4-0.3l2.7-2.5c0.7-0.6,0.8-1.6,0.3-2.4L66.7,52.4z M66,66.1c-0.4,0.4-0.6,0.9-0.6,1.4  c0,0.5,0.3,1.1,0.7,1.4l2.2,1.7c0.1,0.1,0.2,0.2,0.2,0.3c0,0.1,0,0.2-0.1,0.3l-1.6,1.5c-0.4,0.4-0.6,1-0.6,1.6  c0.1,0.6,0.4,1.1,0.9,1.4l1,0.6c0.4,0.2,0.6,0.6,0.6,1.1l-0.1,1.4c0,0.5-0.3,0.9-0.8,1.1c-1.7,0.7-2.9,2.2-3.1,4l-0.2,2  c0,0.5-0.4,0.9-0.8,1l-2.3,0.8c-0.1,0-0.3,0.1-0.4,0.1H52c-1.6,0-3,0.8-4,2l-4,5.6H15.7L21,81.9c0.3-0.6,0.1-1.4-0.3-1.9  C6.9,64.2,1.3,50,4.6,38.9c3.4-11.6,15-16.2,19.8-17.6c10.7-3.2,21.3,1.5,22.6,2c0.9,0.6,6,4.3,10.3,8.3c4.4,4.1,5.5,6.3,5.8,7.3  c1.6,5.6,0,13.4,0,13.5c-0.1,0.5,0,1,0.2,1.4l5.9,9.3L66,66.1z"></path><path d="M77.1,35.2C77.1,35.2,77.1,35.2,77.1,35.2v6.8c0,1,0.8,1.8,1.8,1.8h11.5c1,0,1.8-0.8,1.8-1.8v-9.3l1.8-1.4  c0.8-0.6,0.9-1.8,0.3-2.6c-0.6-0.8-1.8-0.9-2.6-0.3l-0.5,0.4c-0.2-0.1-0.5-0.2-0.8-0.2H79c-1,0-1.8,0.8-1.8,1.8v0l-2.7-6.7  c0-0.1-0.1-0.2-0.2-0.2c-0.1-0.1-0.1-0.3-0.2-0.4L51.4,0.5c-0.7-0.7-1.9-0.7-2.6,0L44.4,5c-0.7,0.7-0.7,1.9,0,2.6L67,30.2  c0.1,0.1,0.3,0.2,0.5,0.3c0,0,0.1,0.1,0.1,0.1l7.4,3c0.2,0.1,0.5,0.1,0.7,0.1c0.5,0,0.9-0.2,1.3-0.5c0,0,0.1-0.1,0.1-0.1V35.2z   M50.1,4.4l20,20l-1.8,1.8l-20-20L50.1,4.4z M71.5,28.2l0.5-0.5l0.3,0.8L71.5,28.2z M88.7,40.1h-7.9v-2.2l2.4,1  c0.2,0.1,0.5,0.1,0.7,0.1c0.4,0,0.8-0.1,1.2-0.4l3.6-2.9V40.1z M87,32.2L83.5,35l-2.8-1.1v-1.7H87z"></path><path d="M90.5,62.5H79c-1,0-1.8,0.8-1.8,1.8v11.5c0,1,0.8,1.8,1.8,1.8h11.5c1,0,1.8-0.8,1.8-1.8V64.3C92.3,63.3,91.5,62.5,90.5,62.5  z M88.7,74h-7.9v-7.9h7.9V74z"></path><path d="M90.5,79.4H79c-1,0-1.8,0.8-1.8,1.8v11.5c0,1,0.8,1.8,1.8,1.8h11.5c1,0,1.8-0.8,1.8-1.8V81.2C92.3,80.2,91.5,79.4,90.5,79.4  z M88.7,90.9h-7.9v-7.9h7.9V90.9z"></path><path d="M92.2,46.6c-0.3-0.6-0.9-1.1-1.7-1.1H79c-1,0-1.8,0.8-1.8,1.8v6.3c0,0,0,0,0,0v5.3c0,1,0.8,1.8,1.8,1.8h11.5  c1,0,1.8-0.8,1.8-1.8v-7.8l1.8-1.4c0.8-0.6,0.9-1.8,0.3-2.6C93.8,46.4,92.9,46.2,92.2,46.6z M88.7,49.2v0.1l-5.1,4.1l-2.8-1.1v-3.2  H88.7z M80.8,56.3l1.8,0.7h-1.8V56.3z M88.7,57h-3.7c0,0,0,0,0.1,0l3.6-2.9V57z"></path></svg>