<svg height='100px' width='100px'  fill="#ffffff" xmlns="http://www.w3.org/2000/svg" viewBox="0 0 48.1 90.36" x="0px" y="0px"><title>Apps</title><g data-name="Camada 2"><g data-name="Layer 1"><path d="M44.54,0h-41A3.57,3.57,0,0,0,0,3.56V86.8a3.57,3.57,0,0,0,3.56,3.56h41A3.57,3.57,0,0,0,48.1,86.8V3.56A3.57,3.57,0,0,0,44.54,0ZM12.81,5.56a1.59,1.59,0,0,1,1.09-.45H34.19a1.54,1.54,0,0,1,1.54,1.55,1.5,1.5,0,0,1-.45,1.08,1.53,1.53,0,0,1-1.09.45H13.9a1.54,1.54,0,0,1-1.09-2.63Zm8,50.29A.76.76,0,0,1,20,55.1V48.56a.76.76,0,0,1,.75-.75h6.54a.76.76,0,0,1,.75.75V55.1a.76.76,0,0,1-.75.75Zm4.89,13.22a1.63,1.63,0,1,1-1.62-1.63A1.62,1.62,0,0,1,25.67,69.07Zm1.65-26.45H20.78a.75.75,0,0,1-.75-.75V35.33a.75.75,0,0,1,.75-.74h6.54a.75.75,0,0,1,.75.74v6.54A.75.75,0,0,1,27.32,42.62Zm0-13.15H20.78a.75.75,0,0,1-.75-.74V22.19a.75.75,0,0,1,.75-.75h6.54a.75.75,0,0,1,.75.75v6.54A.75.75,0,0,1,27.32,29.47ZM14.42,55.1a.76.76,0,0,1-.75.75H7.13a.76.76,0,0,1-.75-.75V48.56a.76.76,0,0,1,.75-.75h6.54a.76.76,0,0,1,.75.75Zm0-13.23a.75.75,0,0,1-.75.75H7.13a.75.75,0,0,1-.75-.75V35.33a.75.75,0,0,1,.75-.74h6.54a.75.75,0,0,1,.75.74Zm0-13.14a.75.75,0,0,1-.75.74H7.13a.75.75,0,0,1-.75-.74V22.19a.75.75,0,0,1,.75-.75h6.54a.75.75,0,0,1,.75.75Zm1.79,42a1.63,1.63,0,1,1,1.63-1.62A1.63,1.63,0,0,1,16.21,70.69ZM24,84.57a4.45,4.45,0,1,1,4.46-4.44A4.44,4.44,0,0,1,24,84.57Zm7.85-13.88a1.63,1.63,0,1,1,1.63-1.62A1.62,1.62,0,0,1,31.89,70.69ZM41.71,55a.74.74,0,0,1-.74.74H34.42a.74.74,0,0,1-.74-.74V48.48a.74.74,0,0,1,.74-.75H41a.74.74,0,0,1,.74.75Zm0-13.23a.75.75,0,0,1-.74.75H34.42a.75.75,0,0,1-.74-.75V35.25a.75.75,0,0,1,.74-.75H41a.75.75,0,0,1,.74.75Zm0-13.15a.74.74,0,0,1-.74.75H34.42a.74.74,0,0,1-.74-.75V22.1a.74.74,0,0,1,.74-.74H41a.74.74,0,0,1,.74.74Z"></path></g></g></svg>