<svg height='100px' width='100px'  fill="#ffffff" xmlns="http://www.w3.org/2000/svg" xmlns:xlink="http://www.w3.org/1999/xlink" version="1.0" x="0px" y="0px" viewBox="0 0 100 100" enable-background="new 0 0 100 100" xml:space="preserve"><path d="M97.1575317,87.9151001c-0.0028687-0.0491943-0.0161743-0.0956421-0.0291138-0.144104  c-0.0130615-0.0484619-0.0247192-0.0952759-0.046814-0.1392822c-0.0067749-0.0136719-0.0064697-0.0288696-0.0142212-0.0422974  l-2.3213501-4.020752l-2.3213501-4.020752l-4.6428223-8.041626l-2.3214111-4.020813l-4.6427612-8.0413818l-2.3213501-4.020813  l-2.3214111-4.020752l-2.3214111-4.020813l-2.3213501-4.0205688l-2.3214111-4.020813l-2.3213501-4.020752l-2.3214111-4.020874  l-2.3213501-4.020752l-2.3214111-4.020813l-2.3214111-4.0205688l-2.3213501-4.020813l-2.3214111-4.020813l-2.3213501-4.020752  c-0.0078125-0.0134888-0.0211182-0.020813-0.0296021-0.0335693c-0.0269165-0.0409546-0.0615234-0.0743408-0.0967407-0.1097412  c-0.0357056-0.0357056-0.069458-0.0706177-0.1108398-0.0977783c-0.0126953-0.0083618-0.0198975-0.0216064-0.0332642-0.0292969  c-0.0273438-0.0158081-0.0577393-0.0169678-0.0861206-0.0289307c-0.0476074-0.0201416-0.0934448-0.0387573-0.144165-0.048584  c-0.0466919-0.0089722-0.0915527-0.0097656-0.1384888-0.0096436C49.953125,6.8164673,49.907959,6.8171997,49.8607788,6.826355  c-0.050293,0.0097656-0.0958862,0.0282593-0.1431885,0.0482178c-0.0286865,0.0120239-0.0593262,0.0133057-0.0869141,0.0292358  c-0.0134277,0.0077515-0.0206909,0.0210571-0.0334473,0.02948c-0.0411377,0.0270386-0.074646,0.0618286-0.1101685,0.09729  c-0.0354614,0.0354614-0.0702515,0.0690918-0.09729,0.1101685c-0.0084229,0.0127563-0.0217285,0.0200195-0.02948,0.0334473  l-2.3213501,4.020752l-2.3214111,4.020813l-2.3214111,4.020813l-2.3214111,4.0205688l-2.3213501,4.020813l-2.3213501,4.020752  l-2.3214111,4.020874l-2.3213501,4.020752l-2.3214722,4.020813l-2.3213501,4.0205688  c-0.131897,0.2285767-0.131897,0.5100708,0,0.7386475l2.3213501,4.020752c0.0107422,0.0186157,0.03125,0.0256958,0.043335,0.0429688  c0.0516357,0.0745239,0.1137695,0.1361084,0.1886597,0.1872559c0.0267334,0.0181274,0.0490112,0.0379639,0.0776367,0.0523682  c0.1002808,0.0510864,0.2091675,0.0864258,0.3292847,0.0865479c0.0005493,0,0.0009766,0.0004272,0.0015259,0.0004272  c0.0003052,0,0.0005493-0.0002441,0.0008545-0.0002441h3.3618774l-1.6817017,2.9128418l-1.6817017,2.9128418l-1.6817017-2.9128418  c-0.2040405-0.3533936-0.6554565-0.4743652-1.0090332-0.2703247c-0.3532104,0.2039795-0.4743042,0.6557617-0.2703857,1.0090332  l2.3213501,4.020752c0.0063477,0.0110474,0.0188599,0.0148315,0.0256958,0.0253906  c0.0616455,0.0964355,0.1387939,0.1837769,0.244751,0.2449341c0.0008545,0.0005493,0.0019531,0.0002441,0.0028076,0.0007935  c0.0925903,0.0528564,0.197937,0.0722046,0.303772,0.0817871c0.0211182,0.00177,0.0409546,0.0166016,0.0619507,0.0166016  c0.0002441,0,0.0005493-0.0001831,0.0007935-0.0001831c0.0001831,0,0.0004272,0.0001831,0.0006714,0.0001831  c0.0211792,0,0.0411377-0.0148926,0.0623779-0.0167236c0.1056519-0.0095825,0.2109375-0.0289307,0.3033447-0.081665  c0.0009155-0.0005493,0.0019531-0.0002441,0.0028687-0.0007935c0.1060181-0.0611572,0.1831665-0.1484985,0.244812-0.2449341  c0.0068359-0.0105591,0.0192261-0.0144043,0.0255737-0.0253906l2.3214111-4.020752l2.3214111-4.020874  c0.0077515-0.0134277,0.0073853-0.0286255,0.0142212-0.0423584c0.0220337-0.0438232,0.0336304-0.0906372,0.0466919-0.138855  c0.0130005-0.048645,0.0263672-0.0953369,0.0291748-0.1445923c0.0009155-0.0151978,0.0087891-0.0280762,0.0087891-0.043457  c0-0.0317383-0.0141602-0.0587158-0.0180054-0.0893555c-0.0064087-0.0512085-0.0132446-0.1000366-0.0300903-0.1488037  c-0.015625-0.045105-0.0374146-0.0844116-0.0610962-0.1251831c-0.0234985-0.0408936-0.0466919-0.0795898-0.078064-0.1157227  c-0.0336304-0.0387573-0.0723267-0.0689087-0.1132202-0.0999756c-0.0247192-0.0187988-0.0411987-0.0447388-0.0688477-0.06073  c-0.0133667-0.0077515-0.0285645-0.0073853-0.0422363-0.0142212c-0.0439453-0.0220337-0.0908203-0.0336914-0.1392212-0.0467529  c-0.0485229-0.0128784-0.0950317-0.0263062-0.144165-0.0290527c-0.0152588-0.0009155-0.0281982-0.0088501-0.0437012-0.0088501  h-4.2162476l-1.8949585-3.2821655l2.1081543-3.6512451l2.1082153-3.6515503h4.2162476  c0.407959,0,0.7386475-0.3307495,0.7386475-0.7385864c0-0.4078979-0.3306885-0.7386475-0.7386475-0.7386475H32.708313  l1.6817017-2.9128418l1.6817017-2.9127808l1.6816406,2.9127808c0.0106812,0.0184937,0.0310059,0.0255737,0.0430298,0.0427856  c0.0517578,0.074646,0.1140747,0.1364746,0.189209,0.1876221c0.0265503,0.0180054,0.0487671,0.0377197,0.0772095,0.052063  c0.1004639,0.0512085,0.2097168,0.086853,0.3302612,0.086853h0.000061c0.0002441,0,0.0004272,0.0001831,0.0006714,0.0001831  c0.0001831,0,0.0003662-0.0001831,0.0006104-0.0001831h4.2149048l2.1082153,3.6514282l2.3214111,4.020874  c0.1367798,0.2369385,0.3850708,0.3694458,0.6403809,0.3694458c0.1253052,0,0.2522583-0.0318604,0.3685913-0.0991211  c0.3532104-0.2039795,0.4743042-0.6557617,0.2703857-1.0089722l-2.3213501-4.020813l-2.3214111-4.020752  c-0.0159302-0.0275879-0.0418091-0.0440063-0.0606079-0.0686646c-0.0310059-0.0410156-0.0612793-0.0797119-0.1000366-0.1134033  c-0.0361938-0.0313721-0.0747681-0.0546265-0.1157227-0.078064c-0.0406494-0.0236206-0.0800781-0.0455322-0.1252441-0.0610962  c-0.0487061-0.0169067-0.0975952-0.0236816-0.1488647-0.0300903c-0.0305786-0.0038452-0.0575562-0.0180054-0.0892334-0.0180054  h-4.2162476l-1.8950195-3.2822266l2.1082153-3.6514282l2.3213501-4.020874l1.6817017-2.9125977l1.4685059,2.543335  l-2.1082153,3.6514893l-2.3214111,4.020752c-0.0076904,0.0134888-0.0073853,0.0286865-0.0141602,0.0424194  c-0.0220947,0.0437622-0.0336914,0.0905762-0.0467529,0.138855c-0.0130005,0.048645-0.0263672,0.0952148-0.0291748,0.1445312  c-0.0009155,0.0151978-0.0087891,0.0280762-0.0087891,0.0435181c0,0.0317993,0.0142212,0.0588989,0.0181274,0.0896606  c0.0063477,0.0510864,0.0131836,0.0997314,0.0299072,0.1483765c0.015625,0.045166,0.0375366,0.0845947,0.0611572,0.1253052  c0.0234985,0.0409546,0.0466919,0.0795288,0.078064,0.1157227c0.0336304,0.0387573,0.0723267,0.0689087,0.1132202,0.0999146  c0.0247803,0.0188599,0.0411987,0.0447998,0.0688477,0.060791c0.0111694,0.0064087,0.0239258,0.0036621,0.0352783,0.0094604  c0.0995483,0.0515137,0.2079468,0.0869751,0.3275757,0.0880737c0.0019531,0,0.0037231,0.0015259,0.0056763,0.0015259  c0.0003052,0,0.0006104-0.0001831,0.0009155-0.0001831h4.2161255l2.1082153,3.6514893l2.3213501,4.020752  c0.1368408,0.2370605,0.3850708,0.3695679,0.6404419,0.3695679c0.1253052,0,0.2521973-0.0319824,0.3685303-0.0991211  c0.3532715-0.2041016,0.4743042-0.6558228,0.2704468-1.0090332l-2.3214111-4.020752l-2.1082153-3.6515503l1.8950195-3.2821655  h4.2162476c0.407959,0,0.7386475-0.3307495,0.7386475-0.7385864s-0.3306885-0.7386475-0.7386475-0.7386475h-4.6427612  c-0.0318604,0-0.059082,0.0142212-0.0898438,0.0181885c-0.0509644,0.0064087-0.0994873,0.0131226-0.1479492,0.0297852  c-0.0454102,0.0157471-0.085083,0.0377197-0.1260376,0.0615845c-0.0405273,0.0233154-0.0790405,0.0463257-0.1149292,0.0775146  c-0.0389404,0.0337524-0.0693359,0.0726929-0.1005249,0.1138306c-0.0187378,0.0245972-0.0444946,0.0409546-0.0603638,0.0684204  l-2.1082153,3.6514893h-2.9369507l1.6817627-2.9128418l2.1082153-3.6515503h4.2146606  c0.0003052,0,0.0005493,0.0002441,0.0008545,0.0002441s0.0006104-0.0002441,0.0008545-0.0002441h4.6426392  c0.407959,0,0.7386475-0.3307495,0.7386475-0.7385864c0-0.4078979-0.3306885-0.7386475-0.7386475-0.7386475h-3.3634033  l1.6817017-2.9125977c0.0159912-0.0276489,0.0172119-0.0583496,0.0292358-0.0870361  c0.0199585-0.0473633,0.0383911-0.0927734,0.0481567-0.1431274c0.0090942-0.046936,0.0098267-0.0921021,0.0097046-0.1392212  c0.0001221-0.0470581-0.0006104-0.0921631-0.0097046-0.1391602c-0.0097656-0.050354-0.0281982-0.0957642-0.0481567-0.1430664  c-0.0120239-0.0286865-0.0132446-0.0594482-0.0292358-0.0870361l-2.3213501-4.020813  c-0.0077515-0.0134277-0.0211182-0.020752-0.0296021-0.0335083c-0.0269165-0.0408936-0.0615234-0.0743408-0.0966797-0.1097412  c-0.0357666-0.0357666-0.0696411-0.0707397-0.111084-0.0979614c-0.0126343-0.0083618-0.0197754-0.0214844-0.0330811-0.0291748  c-0.0272217-0.0157471-0.0574951-0.0169678-0.0857544-0.0288696c-0.0478516-0.0202637-0.0939331-0.0388184-0.1448975-0.048645  c-0.0464478-0.0089722-0.0909424-0.0096436-0.1375732-0.0095825c-0.0476074-0.0001831-0.0930786,0.0005493-0.1405029,0.0098267  c-0.0500488,0.0097656-0.0952759,0.0280762-0.142334,0.0478516c-0.0288696,0.012085-0.0597534,0.0133057-0.0875244,0.0294189  c-0.0135498,0.0078125-0.020874,0.0211792-0.0336914,0.0296631c-0.0409546,0.0269165-0.0742798,0.0615234-0.1096191,0.0967407  c-0.0355835,0.0356445-0.0705566,0.0693359-0.0976562,0.1106567c-0.0084229,0.0126953-0.0216675,0.0199585-0.0294189,0.0333252  l-2.3213501,4.020813c-0.2039795,0.3532104-0.0828857,0.8049927,0.2703247,1.0090332  c0.116333,0.0671387,0.2433472,0.0991211,0.3686523,0.0991211c0.255188,0,0.50354-0.1325684,0.6403809-0.3695068L50,17.062439  l1.4683838,2.543396l-1.8948975,3.2819824h-3.7897339l-1.8949585-3.2819824l2.1081543-3.6514282l2.3213501-4.020813L50,9.020813  l1.6817017,2.9127808l2.3213501,4.020813l2.3213501,4.020813l2.3214111,4.0205078l1.6817627,2.9129028h-3.3634033  c-0.0318604,0-0.059082,0.0142212-0.0899048,0.0181885c-0.0509033,0.0064087-0.0994873,0.0131226-0.1479492,0.0297852  c-0.0454102,0.015686-0.085083,0.0377808-0.1259766,0.0615234c-0.0406494,0.0233154-0.0791016,0.0464478-0.1150513,0.0776367  c-0.0388184,0.0336914-0.0692139,0.0724487-0.1002197,0.1134644c-0.0187988,0.0247192-0.0446777,0.0411987-0.0606689,0.0687256  l-2.1081543,3.6514893H49.999939c-0.4078979,0-0.7385864,0.3307495-0.7385864,0.7385864  c0,0.4078979,0.3306885,0.7386475,0.7385864,0.7386475h3.3634644l-1.6817017,2.9129028  c-0.131897,0.2285156-0.131897,0.5100098,0,0.7385864l2.1081543,3.6514893l-2.1081543,3.6514893  c-0.2039185,0.3532104-0.0828857,0.8049927,0.2703247,1.0089722c0.116333,0.0672607,0.2433472,0.0991211,0.3686523,0.0991211  c0.255188,0,0.50354-0.1325073,0.6403809-0.3694458l2.3214111-4.020874c0.0159302-0.0275269,0.0171509-0.0581665,0.0291748-0.086792  c0.0199585-0.0473022,0.0384521-0.0928955,0.0482178-0.1433105c0.0090332-0.0469971,0.0098267-0.0921021,0.0097046-0.1391602  c0.0001221-0.0471191-0.0006714-0.0922241-0.0097046-0.1391602c-0.0097656-0.050415-0.0282593-0.0959473-0.0482178-0.1433105  c-0.0120239-0.0286865-0.0132446-0.0592041-0.0291748-0.086853l-2.1082153-3.6514893l2.1082153-3.6514893l2.1081543-3.6514893  h3.7897949l2.1082153,3.6514893l2.3213501,4.020813l2.3214111,4.020752l2.1081543,3.6515503l-2.1081543,3.6512451  l-2.3214111,4.020813l-2.3213501,4.020752c-0.0159912,0.0276489-0.0172119,0.0582275-0.0291748,0.086853  c-0.0200195,0.0474243-0.0384521,0.0928955-0.0482178,0.1433105c-0.0090942,0.0469971-0.0098267,0.092041-0.0097046,0.1391602  c-0.0001221,0.0471191,0.0006104,0.0922241,0.0097046,0.1392212c0.0097656,0.050415,0.0281982,0.0958862,0.0482178,0.1432495  c0.0119629,0.0286865,0.0131836,0.0592651,0.0291748,0.0869141l2.1081543,3.6514282l-2.1081543,3.6514893  c-0.131897,0.2285767-0.131897,0.5100708,0,0.7385864l2.1081543,3.6513062l-1.8949585,3.2822266h-3.789856l-2.1081543-3.6515503  c-0.0158691-0.0275879-0.0418091-0.0440063-0.0605469-0.0686646c-0.0310669-0.0409546-0.0612183-0.0797119-0.0999756-0.1134033  c-0.0361938-0.0314331-0.0750122-0.0546265-0.1159668-0.078125c-0.0406494-0.0235596-0.079895-0.0454102-0.125-0.0610352  c-0.0487671-0.0168457-0.0975342-0.0236816-0.1488037-0.0300293c-0.0306396-0.0039062-0.0576782-0.0180664-0.0893555-0.0180664  h-17.291748l1.6817017-2.9126587l2.3214111-4.020752l2.3214111-4.020752l2.3213501-4.020874L50,49.2283325l1.6817017,2.9127808  l2.3213501,4.020874l2.3213501,4.020752l2.3214111,4.020752l2.3214111,4.0206299  c0.1368408,0.2369995,0.3850708,0.3695068,0.6404419,0.3695068c0.1253052,0,0.2521973-0.0319824,0.3685303-0.0991211  c0.3532715-0.2039795,0.4743652-0.6557617,0.2704468-1.0090332l-2.1082153-3.6513062l2.1082153-3.6514282  c0.0159302-0.0276489,0.0172119-0.0584106,0.0292358-0.0870361c0.0199585-0.0473022,0.0383911-0.0927734,0.0481567-0.1431274  c0.0090942-0.0469971,0.0098267-0.092041,0.0097046-0.1391602c0.0001221-0.0471191-0.0006104-0.0921631-0.0097046-0.1391602  c-0.0097656-0.050415-0.0281372-0.0958252-0.0481567-0.1431885c-0.0120239-0.0286255-0.0133057-0.0593262-0.0292358-0.0869751  l-2.1081543-3.6514893l2.1081543-3.6514893l2.3213501-4.020752l2.3214111-4.0205688  c0.0159302-0.0276489,0.0172119-0.0584106,0.0292358-0.0870361c0.0199585-0.0473022,0.0383911-0.0927734,0.0481567-0.1431274  c0.0090332-0.0469971,0.0098267-0.0921021,0.0097046-0.1392212c0.0001221-0.0471191-0.0006714-0.0922241-0.0097046-0.1391602  c-0.0097656-0.050354-0.0281982-0.0958862-0.0482178-0.1432495c-0.0120239-0.0286255-0.0132446-0.0592041-0.0291748-0.086853  l-2.3214111-4.020813l-2.3213501-4.020752l-2.3214111-4.020874c-0.0077515-0.0133667-0.0210571-0.0206909-0.02948-0.0334473  c-0.0269775-0.0409546-0.0616455-0.0744019-0.0969238-0.1098633c-0.0357666-0.0356445-0.069458-0.0705566-0.1107788-0.0976562  c-0.0126343-0.0083618-0.0198364-0.0216675-0.0332031-0.0293579c-0.0274048-0.0158691-0.0579224-0.0170288-0.0863647-0.0290527  c-0.0476074-0.0200806-0.0933228-0.0385742-0.1439819-0.0484009c-0.0467529-0.0090332-0.0915527-0.0097046-0.1384888-0.0096436  c-0.0473633-0.0001831-0.0925903,0.0005493-0.1397705,0.0097046c-0.0501709,0.0097656-0.0955811,0.0281372-0.1428223,0.0480347  c-0.0287476,0.0120239-0.0594482,0.0133667-0.0872192,0.0293579c-0.0134277,0.0078125-0.0206909,0.0210571-0.0335083,0.0296021  c-0.0410767,0.0269165-0.074585,0.0617065-0.1100464,0.0970459c-0.0354004,0.0355835-0.0701904,0.0690308-0.097229,0.1101685  c-0.0084839,0.0128174-0.0217896,0.0200806-0.0296021,0.0335083l-2.3214111,4.020874  c-0.2038574,0.3532104-0.0827637,0.8049316,0.2704468,1.0089722c0.116333,0.0671997,0.2432861,0.0991211,0.3685303,0.0991211  c0.2553101,0,0.5036621-0.1325073,0.6404419-0.3695068l1.6817017-2.9128418l1.6817017,2.9128418l1.6817017,2.9128418h-3.3634033  c-0.0319214,0-0.059082,0.0142212-0.0898438,0.0181885c-0.0509033,0.0064087-0.0994873,0.0131226-0.1478882,0.0297852  c-0.0455322,0.0157471-0.085144,0.0377197-0.1261597,0.0615845c-0.0405884,0.0233154-0.0790405,0.0463867-0.1149902,0.0775146  c-0.0387573,0.0336914-0.0691528,0.0725098-0.1002197,0.1135254c-0.0187988,0.0246582-0.0446777,0.0411377-0.0606079,0.0687256  l-2.3214111,4.020813c-0.0159302,0.02771-0.0172729,0.0584106-0.0292969,0.0871582  c-0.0198364,0.0472412-0.038208,0.0925293-0.0480347,0.1427612c-0.0090332,0.0469971-0.0097656,0.0921631-0.0097046,0.1393433  c-0.000061,0.0471802,0.0006714,0.0923462,0.0097046,0.1394043c0.0097656,0.0501709,0.0281372,0.09552,0.0479736,0.1427002  c0.0120239,0.0287476,0.0133667,0.0595093,0.0293579,0.0872803l2.3214111,4.0205688  c0.1368408,0.2369385,0.3850708,0.3695068,0.6404419,0.3695068c0.1252441,0,0.2522583-0.0319214,0.3685913-0.0991211  c0.3532104-0.2040405,0.4743042-0.6558228,0.2703857-1.0090332l-2.1082153-3.6512451l1.8949585-3.2822266h3.789856  l1.8949585,3.2822266l-1.4684448,2.5432739l-1.6817017-2.9125977c-0.2039795-0.3532104-0.6555786-0.4746704-1.0090332-0.2703857  c-0.3532715,0.2039795-0.4743042,0.6557617-0.2703857,1.0090332l2.1082153,3.6512451l-2.1082153,3.6514893l-1.6817017,2.9127808  l-1.6817017-2.9127808c-0.2039185-0.3532715-0.6557007-0.4744263-1.0089722-0.2704468  c-0.3532104,0.2041016-0.4743042,0.6558228-0.2704468,1.0090332l2.3214111,4.020874l2.1082153,3.6514282l-1.4685059,2.543457  l-1.6817017-2.9127808l-2.3213501-4.020813l-2.3214111-4.020752l-1.6817017-2.9128418h3.3634033  c0.407959,0,0.7386475-0.3308105,0.7386475-0.7386475s-0.3306885-0.7386475-0.7386475-0.7386475h-9.2855225  c-0.40802,0-0.7386475,0.3308105-0.7386475,0.7386475s0.3306274,0.7386475,0.7386475,0.7386475h3.3634033l-1.4685059,2.5435181  h-3.789856l-1.8949585-3.2821655l2.1082153-3.6512451c0.0159302-0.0276489,0.0171509-0.0582275,0.0291748-0.0869141  c0.0199585-0.0473022,0.0383911-0.0928345,0.0481567-0.1432495c0.0090942-0.0469971,0.0098267-0.0921021,0.0097656-0.1392212  c0.000061-0.0471191-0.0006714-0.0922241-0.0097656-0.1391602c-0.0097656-0.050415-0.0281982-0.0959473-0.0481567-0.1433716  c-0.0120239-0.0285645-0.0133057-0.0591431-0.0291748-0.086731l-2.3214111-4.020813  c-0.0077515-0.0134277-0.0210571-0.0206909-0.02948-0.0334473c-0.0269775-0.0410767-0.0617065-0.074585-0.0971069-0.1100464  c-0.0355835-0.0355835-0.0692749-0.0704346-0.1104736-0.0975342c-0.0126953-0.0083618-0.0199585-0.0216064-0.0333252-0.0293579  c-0.0272827-0.0157471-0.0576782-0.0169678-0.0860596-0.0289307c-0.0477905-0.0202026-0.093689-0.0387573-0.1445312-0.0485229  c-0.0464478-0.0089722-0.0911865-0.0097656-0.1378174-0.0097046c-0.0474243-0.0001221-0.0929565,0.0006104-0.1402588,0.0097656  c-0.050293,0.0097656-0.0956421,0.0282593-0.1429443,0.0481567c-0.0286865,0.0120239-0.0593262,0.0133057-0.0869751,0.0292358  c-0.0134277,0.0077515-0.0206909,0.0211182-0.0334473,0.029541c-0.0411987,0.0270386-0.0747681,0.0618286-0.1102905,0.09729  c-0.0353394,0.0354614-0.0701294,0.0689697-0.0971069,0.1100464c-0.0084839,0.0127563-0.0217896,0.0200195-0.0296021,0.0335083  l-2.1080933,3.6514282h-4.2163696c-0.4078979,0-0.7385864,0.3308716-0.7385864,0.7387085s0.3306885,0.7385864,0.7385864,0.7385864  h4.6414795c0.0001831,0,0.0003662,0.0001831,0.0006104,0.0001831s0.0004272-0.0001831,0.0006104-0.0001831h0.0001221  c0.1206055,0,0.2297363-0.0356445,0.3302612-0.086853c0.0284424-0.0143433,0.0505981-0.0340576,0.0772095-0.052063  c0.0751343-0.0511475,0.1374512-0.112915,0.1891479-0.1876221c0.0120239-0.0172119,0.0323486-0.024231,0.0430908-0.0427246  l1.6817017-2.9127808l1.4684448,2.543457l-2.1082153,3.6512451c-0.1318359,0.2285767-0.1318359,0.5100708,0,0.7386475  l2.3214111,4.020752c0.0107422,0.0186157,0.031189,0.0256958,0.0432739,0.0429688  c0.0516968,0.0745239,0.1138306,0.1361084,0.1887207,0.1872559c0.0266724,0.0181274,0.0490112,0.0379639,0.0775757,0.0523682  c0.1002808,0.0510864,0.2091675,0.0864258,0.3293457,0.0865479c0.0004883,0,0.0009766,0.0004272,0.0015259,0.0004272  c0.0002441,0,0.0005493-0.0002441,0.0008545-0.0002441h3.3618164l-1.6817017,2.9128418l-1.6817017,2.9128418l-1.6817017-2.9128418  l-2.3213501-4.020752l-2.3214111-4.020813c-0.0159302-0.0275879-0.0418091-0.0440063-0.0606079-0.0687256  c-0.0310059-0.0409546-0.0612183-0.0797119-0.0999146-0.1133423c-0.0363159-0.0314941-0.0751953-0.0548706-0.116272-0.0783691  c-0.0404663-0.0234375-0.0794067-0.0452271-0.1242676-0.0606689c-0.0490723-0.0170288-0.0982666-0.0238647-0.1499023-0.0303345  c-0.0304565-0.0037842-0.057251-0.0178833-0.0887451-0.0178833H31.428894c-0.407959,0-0.7385864,0.3308105-0.7385864,0.7386475  s0.3306274,0.7386475,0.7385864,0.7386475h4.2163086l1.8949585,3.2821655l-2.1081543,3.6514282  c-0.0159912,0.0276489-0.0172119,0.0582275-0.0292358,0.086853c-0.0199585,0.0474243-0.0383911,0.0928955-0.0481567,0.1433105  c-0.0090942,0.0469971-0.0098267,0.092041-0.0097046,0.1391602c-0.0001221,0.0471191,0.0006104,0.0922241,0.0097046,0.1392212  c0.0097656,0.050415,0.0281982,0.0958862,0.0481567,0.1432495c0.0120239,0.0286865,0.0132446,0.0592651,0.0292358,0.0869141  l2.3213501,4.020752c0.1368408,0.2369995,0.3850708,0.3695068,0.6404419,0.3695068  c0.1253052,0,0.2522583-0.0319214,0.3685913-0.0991821c0.3532715-0.2039795,0.4743042-0.6557007,0.2703857-1.0089722  l-2.1082153-3.6514893l1.4685059-2.543457l1.6816406,2.9128418l2.1082153,3.6514282l-2.1082153,3.6514893l-2.3213501,4.0205688  l-2.3213501,4.020813l-2.3214111,4.020813l-2.3213501,4.020813c-0.131958,0.2285156-0.131958,0.5100098,0,0.7385864  l2.3213501,4.020752c0.0062866,0.0109863,0.0186768,0.0148315,0.0255127,0.0253296  c0.0616455,0.0965576,0.138855,0.1838379,0.244873,0.2451172c0.0009155,0.0005493,0.0019531,0.0002441,0.0028687,0.0007324  c0.092041,0.0526123,0.1969604,0.0715942,0.3021851,0.0812988c0.0216064,0.0018921,0.0419312,0.0170898,0.0635376,0.0170898  c0.0002441,0,0.0004883-0.0001831,0.0006714-0.0001831c0.0002441,0,0.0005493,0.0001831,0.0007935,0.0001831  c0.0216064,0,0.0419312-0.0151978,0.0635376-0.0170898c0.1052246-0.0097046,0.210022-0.0286865,0.302124-0.0812988  c0.0009155-0.0004883,0.0019531-0.0001831,0.0028687-0.0007324c0.1060181-0.0612183,0.1831665-0.1485596,0.244812-0.2450562  c0.0068359-0.010498,0.0192871-0.0144043,0.0256348-0.0253906l2.3213501-4.020752  c0.2039185-0.3532104,0.0828247-0.8049927-0.2703857-1.0090332c-0.3530273-0.2038574-0.8049927-0.0828247-1.0089722,0.2704468  l-1.6817627,2.9127808l-1.4684448-2.5435181l2.1082153-3.6514893l2.3213501-4.020752l2.1082153-3.6515503h2.9368896  l-1.6817627,2.9129028c-0.0159302,0.02771-0.0172729,0.0584106-0.0292969,0.0870972  c-0.0198975,0.0472412-0.038208,0.0925903-0.0480347,0.1428833c-0.0090332,0.0469971-0.0097656,0.0921631-0.0097046,0.1393433  c-0.000061,0.0471802,0.0006714,0.0923462,0.0097046,0.1393433c0.0097656,0.0502319,0.0281372,0.09552,0.0479736,0.1427002  c0.0120239,0.0287476,0.0133667,0.0595093,0.0293579,0.0872803l2.3214111,4.020752  c0.1368408,0.2369995,0.3850708,0.3695679,0.6404419,0.3695679c0.1252441,0,0.2522583-0.0319824,0.3685913-0.0991211  c0.3532104-0.2041016,0.4743042-0.6558228,0.2703857-1.0090332l-2.1082153-3.6514893l1.8949585-3.2822266h2.9369507  l-1.6817017,2.9129028c-0.2039185,0.3532715-0.0828857,0.8049927,0.2703857,1.0089722  c0.116333,0.0672607,0.2432251,0.0991211,0.3685913,0.0991211c0.255249,0,0.5036011-0.1324463,0.6404419-0.3694458  l2.1081543-3.6515503h8.4325562l2.1081543,3.6515503c0.0107422,0.0186157,0.0311279,0.0256348,0.0432129,0.0429077  c0.0517578,0.074646,0.1139526,0.1362305,0.1889648,0.1873779c0.0264893,0.0181274,0.0487671,0.0377808,0.0772705,0.052124  c0.1004639,0.0512085,0.2097168,0.086853,0.3302612,0.086853h0.000061c0.0002441,0,0.0004272,0.0001831,0.0006714,0.0001831  c0.0001831,0,0.0003662-0.0001831,0.0006104-0.0001831h4.6400757c0.0002441,0,0.0004272,0.0001831,0.0006714,0.0001831  c0.0001831,0,0.0003662-0.0001831,0.0006104-0.0001831h0.000061c0.1205444,0,0.2297974-0.0356445,0.3303223-0.086853  c0.0284424-0.0143433,0.0505981-0.0339966,0.0772705-0.052124c0.0750122-0.0511475,0.137207-0.1127319,0.1889038-0.1873779  c0.012085-0.0172729,0.0324707-0.024292,0.0432129-0.0429077l2.1082153-3.6515503h2.9368896l-1.6817017,2.9129028  c-0.2039185,0.3532715-0.0828247,0.8049927,0.2703247,1.0089722c0.116333,0.0672607,0.2433472,0.0991211,0.3686523,0.0991211  c0.255188,0,0.50354-0.1324463,0.6403809-0.3694458l2.1082153-3.6515503h4.2147217  c0.0002441,0,0.0005493,0.0002441,0.0008545,0.0002441s0.0005493-0.0002441,0.0008545-0.0002441h4.6425781  c0.407959,0,0.7386475-0.3307495,0.7386475-0.7385864c0-0.4078979-0.3306885-0.7386475-0.7386475-0.7386475h-3.3633423  l1.6817017-2.9126587c0.131897-0.2285156,0.131897-0.5100098,0-0.7385864l-2.3214111-4.020813l-2.3214111-4.020813  l-2.3213501-4.020752c-0.2040405-0.3532715-0.6557007-0.4744263-1.0089722-0.2704468  c-0.3532715,0.2041016-0.4743652,0.6558228-0.2704468,1.0090332l2.1081543,3.6514893l-2.1081543,3.6514893  c-0.2039185,0.3532715-0.0828247,0.8049927,0.2704468,1.0089722c0.116333,0.0672607,0.2432251,0.0991821,0.3685303,0.0991821  c0.255249,0,0.50354-0.1325073,0.6404419-0.3695068l1.6817017-2.9127808l1.6817017,2.9127808l2.1081543,3.6514282  l-1.8949585,3.2819824h-8.4325562L64.78125,63.8341675l1.4683838-2.543457l1.6817627,2.9127808  c0.0106812,0.0184937,0.0310669,0.0255737,0.0430908,0.0427856c0.0516968,0.074585,0.1138916,0.1363525,0.1889038,0.1875  c0.0267334,0.0181274,0.0490112,0.0379028,0.0775757,0.0523071c0.1002808,0.0510864,0.2091675,0.0864258,0.3293457,0.0865479  c0.0004883,0,0.0009766,0.0004272,0.0014648,0.0004272c0.0003052,0,0.0006104-0.0002441,0.0008545-0.0002441h4.6412354  c0.407959,0,0.7385864-0.3307495,0.7385864-0.7386475c0-0.4078369-0.3306274-0.7385864-0.7385864-0.7385864h-4.2163086  l-2.1081543-3.6514893L64.78125,55.7926025l1.4684448-2.543457l1.6817017,2.9128418  c0.1368408,0.2369385,0.3850708,0.3694458,0.6403809,0.3694458c0.1253052,0,0.2522583-0.0319824,0.3686523-0.0991211  c0.3532104-0.2039795,0.4743042-0.6557617,0.2703247-1.0090332l-2.1081543-3.6514282l2.1081543-3.6514893l1.6817017-2.9125977  l1.6816406,2.9125977l2.3214722,4.020752l2.3213501,4.020874l2.3214111,4.020752l4.6427612,8.0413818l2.3213501,4.020813  l1.6817627,2.9128418h-2.9369507l-2.1081543-3.6514893c-0.0159912-0.0275879-0.0419312-0.0440674-0.0606689-0.0688477  c-0.0309448-0.0408325-0.0610962-0.0794678-0.0997314-0.1130981c-0.036377-0.0316772-0.0754395-0.0550537-0.1166992-0.0786743  c-0.0403442-0.0233765-0.0792847-0.045105-0.1240234-0.0605469c-0.0491333-0.0169678-0.0983276-0.0238647-0.1499634-0.0302124  c-0.0303955-0.0037842-0.0571899-0.0178833-0.088623-0.0178833h-9.2855225c-0.0316772,0-0.0586548,0.0141602-0.0892944,0.0180054  c-0.0511475,0.0063477-0.0999146,0.0132446-0.1486816,0.0299683c-0.0452881,0.015625-0.0847778,0.0375977-0.1255493,0.0612793  c-0.0408325,0.0234375-0.0794067,0.0466309-0.1154785,0.0779419c-0.0388184,0.0336304-0.0690308,0.0723267-0.1000366,0.1132812  c-0.0188599,0.0247803-0.0447388,0.0411987-0.06073,0.0687866l-2.1081543,3.6514893H57.390625l-2.1081543-3.6514893  c-0.0159912-0.0275879-0.0418701-0.0439453-0.0606689-0.0687256c-0.0310059-0.0408936-0.0611572-0.0795898-0.0998535-0.1132812  c-0.0363159-0.0316162-0.0753174-0.0549316-0.1164551-0.0784912c-0.0404053-0.0234375-0.0794678-0.045166-0.1242676-0.0606689  c-0.0490112-0.0169067-0.0982056-0.0238037-0.1497803-0.0302124c-0.0303955-0.0037842-0.057251-0.0178833-0.0886841-0.0178833  H49.999939c-0.0316162,0-0.0585938,0.0141602-0.0892334,0.0180054c-0.0511475,0.0063477-0.1000366,0.0132446-0.1487427,0.0299683  c-0.0452271,0.015625-0.0846558,0.0375366-0.1254272,0.0612183c-0.0408325,0.0234985-0.0794678,0.0466309-0.1155396,0.0780029  c-0.0388184,0.0336914-0.0691528,0.0724487-0.1001587,0.1134644c-0.0187378,0.0247192-0.0446167,0.0411377-0.0605469,0.0686035  l-2.3213501,4.020813c-0.2039795,0.3532104-0.0828857,0.8049316,0.2703247,1.0090332  c0.116333,0.0671387,0.2433472,0.0991211,0.3686523,0.0991211c0.255188,0,0.50354-0.1325684,0.6403809-0.3695679  l2.1082153-3.6514893h3.7897339l1.8949585,3.2821655l-1.8948975,3.2821655h-2.9369507l1.6817017-2.9128418  c0.2039185-0.3532715,0.0828247-0.8049927-0.2703247-1.0089722c-0.3533936-0.2036133-0.8048096-0.0828857-1.0090332,0.2703857  l-2.3214111,4.020813l-2.1081543,3.6514282h-4.2163086c-0.407959,0-0.7385864,0.3307495-0.7385864,0.7386475  c0,0.4078369,0.3306274,0.7385864,0.7385864,0.7385864h4.6411743c0.0003052,0,0.0006104,0.0002441,0.0009155,0.0002441  c0.0004883,0,0.0009766-0.0004272,0.0014648-0.0004272c0.1201782-0.0001221,0.2290649-0.0354614,0.3293457-0.0865479  c0.0286255-0.0144043,0.0509644-0.0342407,0.0775757-0.0523682c0.0749512-0.0511475,0.137085-0.1126709,0.1887207-0.1872559  c0.012085-0.0172729,0.0325317-0.024353,0.0432739-0.0429688l2.1082153-3.6514282h3.7897339l2.1081543,3.6514282  c0.0108032,0.0186157,0.03125,0.0256958,0.043335,0.0429688c0.0516357,0.074585,0.1137695,0.1361084,0.1886597,0.1872559  c0.0267334,0.0181274,0.0490112,0.0379639,0.0776367,0.0523682c0.1002808,0.0510864,0.2091675,0.0864258,0.3292847,0.0865479  c0.0005493,0,0.0010376,0.0004272,0.0015259,0.0004272c0.0003052,0,0.0006104-0.0002441,0.0008545-0.0002441h9.2824097  c0.0003052,0,0.0005493,0.0002441,0.0008545,0.0002441c0.0005493,0,0.0009766-0.0004272,0.0015259-0.0004272  c0.1201172-0.0001221,0.2290039-0.0354614,0.3292847-0.0865479c0.0285645-0.0144043,0.0509033-0.0341797,0.0775757-0.0523071  c0.0750122-0.0511475,0.137207-0.112854,0.1889038-0.1875c0.0120239-0.0172119,0.0324707-0.024292,0.0431519-0.0427856  l2.3213501-4.020752c0.2039795-0.3532104,0.0828857-0.8049927-0.2703247-1.0090332  c-0.3532715-0.2038574-0.8050537-0.0828247-1.0090332,0.2704468l-2.1082153,3.6514282H57.390625l-1.8949585-3.2821655  l1.8949585-3.2821655h7.5797119l-1.4684448,2.5435181h-4.2163696c-0.407959,0-0.7385864,0.3308105-0.7385864,0.7386475  c0,0.4078979,0.3306274,0.7386475,0.7385864,0.7386475h4.6414185c0.0002441,0,0.0004272,0.0001831,0.0006714,0.0001831  c0.0001831,0,0.0003662-0.0001831,0.0006104-0.0001831h0.000061c0.1205444,0,0.2297974-0.0356445,0.3303223-0.086853  c0.0284424-0.0143433,0.0505981-0.0340576,0.0772705-0.052124c0.0750122-0.0511475,0.137207-0.112793,0.1889038-0.1873779  c0.012085-0.0172729,0.0324707-0.024353,0.0432129-0.0429688l2.1082153-3.6514893h3.7897339l2.1081543,3.6514893  c0.1369019,0.2369995,0.3851318,0.3695068,0.6404419,0.3695068c0.1253052,0,0.2522583-0.0319214,0.3685913-0.0991211  c0.3532715-0.2040405,0.4743652-0.6558228,0.2703857-1.0089722l-2.1081543-3.6515503l1.8949585-3.2821655h3.7897949  l2.1082153,3.6514893c0.1368408,0.2369995,0.3850708,0.3695679,0.6403809,0.3695679  c0.1253052,0,0.2522583-0.0319824,0.3685913-0.0991211c0.3532104-0.2041016,0.4743042-0.6558228,0.2703857-1.0090332  l-1.6817017-2.9129028h2.9368896l1.8949585,3.2821655l-1.8948975,3.2821655h-3.789856l-2.1081543-3.6514282  c-0.2039185-0.3532715-0.6555786-0.4746094-1.0090332-0.2703857c-0.3532104,0.2039795-0.4743042,0.6557007-0.2703247,1.0089722  l2.3213501,4.020813c0.0106812,0.0184937,0.0311279,0.0255737,0.0431519,0.0427856  c0.0516968,0.074585,0.1138916,0.1363525,0.1889648,0.187561c0.0266113,0.0180664,0.0487671,0.0377808,0.0772705,0.052124  c0.1005249,0.0512085,0.2097168,0.086853,0.3303223,0.086853h0.0001221c0.0001831,0,0.0003662,0.0001831,0.0006104,0.0001831  s0.0004272-0.0001831,0.0006104-0.0001831h4.6400757c0.0002441,0,0.0003662,0.0001831,0.0006104,0.0001831  s0.0004272-0.0001831,0.0006714-0.0001831h0.000061c0.1205444,0,0.2297363-0.0356445,0.3302612-0.086853  c0.0284424-0.0143433,0.0506592-0.0340576,0.0772095-0.052063c0.0751343-0.0511475,0.1374512-0.1129761,0.1891479-0.1876221  c0.0120239-0.0172119,0.0324097-0.024292,0.0430908-0.0427856l2.1081543-3.6514893h3.789856l1.8949585,3.2821655  l-2.1082764,3.6514893c-0.2038574,0.3532715-0.0827637,0.8049927,0.2704468,1.0090332  c0.116333,0.0671387,0.2432861,0.0991211,0.3685303,0.0991211c0.2553101,0,0.5036621-0.1325073,0.6404419-0.3695679  l1.6817017-2.9127808l1.6817017,2.9127808l1.6817017,2.9129028H69.8504639l1.4685059-2.5435791h13.5001831  c0.0003052,0,0.0006104,0.0002441,0.0009155,0.0002441c0.0004272,0,0.0008545-0.0003662,0.0012817-0.0003662  c0.1203613-0.0001221,0.229187-0.0354614,0.3295288-0.0866089c0.0285034-0.0144043,0.0508423-0.0341797,0.0775146-0.0523071  c0.0750732-0.0511475,0.137207-0.112854,0.1889648-0.1875c0.0120239-0.0172119,0.0324097-0.024292,0.0430908-0.0427856  l2.3214111-4.020752c0.2039185-0.3532104,0.0828857-0.8049927-0.2703857-1.0090332  c-0.3531494-0.2038574-0.8049316-0.0828247-1.0090332,0.2704468l-2.1081543,3.6514282H70.8924561  c-0.0317993,0-0.059021,0.0142212-0.0898438,0.0181885c-0.0509033,0.0063477-0.0995483,0.0131836-0.1480103,0.0298462  c-0.0453491,0.015686-0.0848999,0.0375977-0.1258545,0.0614014c-0.0407104,0.0233765-0.0792236,0.0465088-0.1152954,0.0777588  c-0.0386963,0.0336304-0.0689697,0.0723877-0.1000366,0.1133423c-0.0187988,0.0247192-0.0447388,0.0411377-0.0606689,0.0687866  l-2.1081543,3.6514893H55.0692749l-2.1082153-3.6514893c-0.2039795-0.3533936-0.6554565-0.4744263-1.0090332-0.2703857  c-0.3532104,0.2040405-0.4742432,0.6557617-0.2703247,1.0089722l1.6817017,2.9129028H37.3510742l1.6817017-2.9129028  l2.1081543-3.6514282h4.2163086c0.407959,0,0.7385864-0.3307495,0.7385864-0.7386475  c0-0.4078369-0.3306274-0.7386475-0.7385864-0.7386475h-4.2163696l-2.1080933-3.6514282  c-0.2040405-0.3532715-0.6554565-0.4746094-1.0089722-0.2703857c-0.3532715,0.2039795-0.4743652,0.6557007-0.2704468,1.0089722  l2.1081543,3.6514893l-2.1081543,3.6514893l-2.1081543,3.6514893h-3.7897949l-2.1082153-3.6514893  c-0.2040405-0.3533936-0.6557617-0.4744263-1.0089722-0.2703857c-0.3532715,0.2040405-0.4743042,0.6557617-0.2704468,1.0089722  l1.6817627,2.9129028h-6.7268066l1.6817017-2.9129028c0.2039795-0.3532104,0.0828857-0.8049316-0.2703857-1.0089722  c-0.3533325-0.2037964-0.8047485-0.0828247-1.0090332,0.2703857l-2.1081543,3.6514893H4.8516235l1.4685669-2.5435791h4.2146606  c0.0002441,0,0.0005493,0.0002441,0.0008545,0.0002441c0.0004272,0,0.0008545-0.0003662,0.0013428-0.0003662  c0.1203003-0.0001221,0.229126-0.0354614,0.3294678-0.0866089c0.0285645-0.0144043,0.0508423-0.0341797,0.0775757-0.0523071  c0.0750122-0.0511475,0.137207-0.112854,0.1889038-0.1875c0.0120239-0.0172119,0.0324097-0.024292,0.0431519-0.0427856  l1.6817017-2.9127808l1.6817017,2.9127808c0.1367798,0.2370605,0.3850098,0.3695679,0.6403809,0.3695679  c0.1253052,0,0.2522583-0.0319824,0.3685913-0.0991211c0.3532104-0.2040405,0.4743042-0.6557617,0.2703857-1.0090332  l-2.1082153-3.6514893l1.4685059-2.5435181l1.6817017,2.9128418c0.1367798,0.2369995,0.3850708,0.3695068,0.6404419,0.3695068  c0.1253052,0,0.2521973-0.0319214,0.3685303-0.0991211c0.3532715-0.2040405,0.4743042-0.6558228,0.2704468-1.0089722  l-2.3214111-4.020813c-0.0077515-0.0134888-0.0210571-0.020752-0.029541-0.0335693  c-0.0270386-0.0409546-0.0617065-0.0744019-0.0969238-0.1098633c-0.0357056-0.0355835-0.0693359-0.0704956-0.1106567-0.0975952  c-0.0126953-0.0084229-0.0198975-0.0216064-0.0332642-0.0293579c-0.0273438-0.0158081-0.0577393-0.0169678-0.0861206-0.0289307  c-0.0478516-0.0202026-0.0938721-0.0388184-0.1448364-0.048645c-0.0461426-0.0088501-0.0903931-0.0095215-0.1366577-0.0095215  c-0.0479126-0.0002441-0.093811,0.0005493-0.1416016,0.0098877c-0.0498657,0.0097046-0.0947876,0.0280151-0.1416626,0.0476685  c-0.0289917,0.012085-0.0598755,0.0134277-0.0877686,0.029541c-0.0134277,0.0078125-0.020752,0.0211182-0.0335693,0.0296631  c-0.0409546,0.0269165-0.0744629,0.0615845-0.1099243,0.0969238c-0.0354614,0.0355225-0.0702515,0.0691528-0.0973511,0.1103516  c-0.0084839,0.0127563-0.0217285,0.0200195-0.02948,0.0334473l-2.3214722,4.020813l-2.1081543,3.6514282H7.1730347  l6.1112671-10.585144h8.4325562l2.1081543,3.6514893c0.0064087,0.0109863,0.0187988,0.0148315,0.0256348,0.0254517  c0.0616455,0.0964355,0.1387939,0.1837769,0.244812,0.2449951c0.0009155,0.0004883,0.0019531,0.0001831,0.0028687,0.0007324  c0.092041,0.0526123,0.1968994,0.0715332,0.302124,0.0812378c0.0216064,0.0018921,0.0419312,0.0171509,0.0635376,0.0171509  c0.0002441,0,0.0005493-0.0001831,0.0007935-0.0001831s0.0004272,0.0001831,0.0006714,0.0001831  c0.0217285,0,0.0422363-0.0152588,0.0640259-0.0172729c0.1050415-0.0097656,0.2096558-0.0285645,0.3015747-0.0810547  c0.0009155-0.0005493,0.0020752-0.0003052,0.0029907-0.0007935c0.1060181-0.0612793,0.1832275-0.1486206,0.2449341-0.2451172  c0.0067749-0.0105591,0.019165-0.0143433,0.0254517-0.0253296l2.3214111-4.020752l2.3213501-4.020813  c0.2039795-0.3532715,0.0828857-0.8049927-0.2703857-1.0090332c-0.3532104-0.2037964-0.8048706-0.0828247-1.0090332,0.2703857  l-2.3213501,4.020813l-1.6816406,2.9127808l-1.6817017-2.9127808l-2.3214111-4.020813  c-0.2039795-0.3532104-0.6556396-0.4743652-1.0090332-0.2703857c-0.3532104,0.2040405-0.4743042,0.6557617-0.2703247,1.0090332  l1.6817017,2.9129028H14.137146l1.6817627-2.9129028l2.3214111-4.0206299l2.3213501-4.020752l1.6817017-2.9127808  l1.4684448,2.543457l-2.1081543,3.6514893c-0.131897,0.2285767-0.131897,0.5100708,0,0.7385864l2.3213501,4.0206299  c0.1369019,0.2369995,0.3851318,0.3695068,0.6404419,0.3695068c0.1253052,0,0.2522583-0.0319824,0.3685913-0.0991211  c0.3532715-0.2039795,0.4743652-0.6557617,0.2703857-1.0090332l-2.1081543-3.6513062l1.4684448-2.543457l1.6817017,2.9127808  c0.0107422,0.0186157,0.031189,0.0256958,0.0432739,0.0429688c0.0516968,0.0745239,0.1138306,0.1361084,0.1887207,0.1872559  c0.0266724,0.0181274,0.0490112,0.0379639,0.0775757,0.0523682c0.1002808,0.0510864,0.2091675,0.0864258,0.3293457,0.0865479  c0.0004883,0,0.0009766,0.0004272,0.0015259,0.0004272c0.0002441,0,0.0005493-0.0002441,0.0008545-0.0002441h4.2147217  l1.8949585,3.2819824l-2.1081543,3.6514893l-2.3214722,4.020813l-2.1080933,3.6514282h-3.789856l-2.1081543-3.6514282  c-0.2039795-0.3532715-0.6556396-0.4746094-1.0090332-0.2703857c-0.3532104,0.2039795-0.4743042,0.6557007-0.2703247,1.0089722  l2.1081543,3.6514893l-2.1081543,3.6514893c-0.2039795,0.3532715-0.0828857,0.8049927,0.2703247,1.0090332  c0.116333,0.0671387,0.2433472,0.0991211,0.3686523,0.0991211c0.255188,0,0.50354-0.1325073,0.6403809-0.3695679  l2.1082153-3.6514282h4.2148438c0.0002441,0,0.0004272,0.0001831,0.0006714,0.0001831s0.0003662-0.0001831,0.0006104-0.0001831  h0.0001221c0.1205444,0,0.2297363-0.0356445,0.3302612-0.086853c0.0284424-0.0143433,0.0505981-0.0340576,0.0772095-0.052063  c0.0751343-0.0511475,0.1374512-0.1129761,0.1891479-0.1876221c0.0120239-0.0172119,0.0323486-0.024292,0.0430908-0.0427856  l2.3213501-4.020813l2.3214111-4.020752l2.3214111-4.020813c0.131897-0.2285767,0.131897-0.5100708,0-0.7386475  l-2.1082153-3.6513062l1.4684448-2.543457l1.6817627,2.9127808c0.1368408,0.2369995,0.3850708,0.3695679,0.6403809,0.3695679  c0.1253052,0,0.2522583-0.0319824,0.3685913-0.0991211c0.3532104-0.2040405,0.4743042-0.6558228,0.2703857-1.0090332  l-2.3213501-4.020813c-0.0077515-0.0134277-0.0211182-0.020752-0.029541-0.0335083  c-0.0269775-0.0410156-0.0616455-0.0744629-0.0970459-0.1099854c-0.0355225-0.0355225-0.0692749-0.0704346-0.1104736-0.0974731  c-0.0127563-0.0084229-0.0199585-0.0216675-0.0333862-0.0294189c-0.0274658-0.0159302-0.0579834-0.0171509-0.0864258-0.0291138  c-0.0475464-0.0200195-0.0932007-0.0385132-0.1437378-0.0483398c-0.046814-0.0090332-0.0916138-0.0098267-0.1386108-0.0097046  c-0.0473633-0.0001831-0.0926514,0.0005493-0.1398926,0.0097656c-0.0500488,0.0097656-0.0953979,0.0281372-0.1425781,0.0479736  c-0.0287476,0.012085-0.0596313,0.0133667-0.0873413,0.0294189c-0.0134888,0.0078125-0.020752,0.0211182-0.0335693,0.0296631  c-0.0409546,0.0269165-0.0742798,0.0614624-0.1096802,0.0967407c-0.0355835,0.0356445-0.0705566,0.0693359-0.0977173,0.1106567  c-0.0084229,0.0126953-0.0216675,0.0199585-0.0294189,0.0333252l-2.1081543,3.6514893h-3.789856l-2.1081543-3.6514893  l-2.1081543-3.6514893l2.1081543-3.6514893c0.2039795-0.3532104,0.0828857-0.8049316-0.2703857-1.0090332  c-0.3533325-0.2037964-0.8047485-0.0828247-1.0090332,0.2704468l-2.3213501,4.020752l-2.3213501,4.020813l-2.3214111,4.020813  l-2.3213501,4.0205688l-2.3214722,4.020813L5.2539673,83.5686646l-2.3213501,4.020752  c-0.131897,0.2285767-0.131897,0.5101318,0,0.7387085c0.131958,0.2285156,0.3757324,0.3692627,0.6396484,0.3692627h18.5697632  c0.0001831,0,0.0003662,0.0001831,0.0006104,0.0001831s0.0004272-0.0001831,0.0006104-0.0001831h9.2857666  c0.0002441,0,0.0004272,0.0001831,0.0006104,0.0001831c0.0002441,0,0.0004272-0.0001831,0.0006714-0.0001831h4.6400146  c0.0002441,0,0.0004272,0.0001831,0.0006714,0.0001831c0.0001831,0,0.0003662-0.0001831,0.0006104-0.0001831h18.571228  c0.0002441,0,0.0004272,0.0001831,0.0006714,0.0001831c0.0001831,0,0.0003662-0.0001831,0.0006104-0.0001831h13.9255981  c0.0002441,0,0.0004272,0.0001831,0.0006714,0.0001831c0.0001831,0,0.0003662-0.0001831,0.0006104-0.0001831h27.8566895h0.000061  c0.0002441,0,0.0004883,0.0001831,0.0006714,0.0001831c0.001709,0,0.0031738-0.0013428,0.0048828-0.0013428  c0.1200562-0.0009766,0.2286377-0.0366211,0.3284912-0.0882568c0.0112915-0.0057983,0.0241089-0.0031128,0.0352173-0.0095215  c0.0275269-0.0158691,0.0438843-0.041687,0.0685425-0.0604248c0.0410767-0.031189,0.0800171-0.0615234,0.1137695-0.1004028  c0.03125-0.0359497,0.0542603-0.0744629,0.0776367-0.1151123c0.0237427-0.0409546,0.0457153-0.0804443,0.0614014-0.1258545  c0.0166626-0.0484619,0.0234375-0.0971069,0.0298462-0.1480713c0.0039673-0.0307617,0.0181274-0.0579224,0.0181274-0.0897827  C97.1663208,87.9432983,97.1584473,87.9303589,97.1575317,87.9151001z"></path></svg>