<svg height='100px' width='100px'  fill="#ffffff" xmlns="http://www.w3.org/2000/svg" xmlns:xlink="http://www.w3.org/1999/xlink" version="1.1" x="0px" y="0px" viewBox="0 0 100 100" style="enable-background:new 0 0 100 100;" xml:space="preserve"><g><path d="M39.38,7.27c0-0.482,0.393-0.875,0.875-0.875h19.489c0.482,0,0.875,0.393,0.875,0.875s-0.393,0.874-0.875,0.874H40.255   C39.773,8.144,39.38,7.752,39.38,7.27z M75.781,36.568H59.244V17.642h16.537V36.568z M72.638,35.201c0,0-0.177-5.099-2.791-6.549   l-2.34,1.676l-2.337-1.676c-2.512,1.219-2.788,6.549-2.788,6.549h1.138c0.16-0.657,0.781-1.65,0.818-1.845   c-0.889-0.727-0.914-1.876-0.779-2.448l1.521,0.36c-0.008,0.028-0.199,0.872,0.828,1.19c0.119,1.488-0.223,1.77-0.754,2.742h4.711   c-0.079-0.193-0.92-0.924-0.754-2.742c1.092-0.354,0.845-1.12,0.828-1.191l1.521-0.359c0.146,0.615,0.109,1.733-0.778,2.45   c0.037,0.192,0.657,1.186,0.817,1.843H72.638z M74.414,19.01H60.611v16.191h0.199c0,0,0.273-7.418,4.637-8.273l2.061,1.478   l2.064-1.478c4.391,0.867,4.637,8.273,4.637,8.273h0.205V19.01z M81.039,4.436v91.129c0,2.445-1.99,4.436-4.438,4.436H23.396   c-2.445,0-4.435-1.99-4.435-4.436V4.436C18.961,1.99,20.951,0,23.396,0h53.206C79.049,0,81.039,1.99,81.039,4.436z M37.818,7.27   c0,1.344,1.093,2.437,2.438,2.437h19.489c1.345,0,2.438-1.093,2.438-2.437c0-1.345-1.093-2.438-2.438-2.438H40.255   C38.911,4.832,37.818,5.925,37.818,7.27z M32.467,82.686c0.727-4.129,3.222-4.937,3.019-8.097   c-0.658-0.388-1.171-0.843-1.573-1.331l-2.026,4.008l-0.518,5.42H32.467z M55.535,91.474c0-3.052-2.484-5.536-5.536-5.536   c-3.052,0-5.536,2.484-5.536,5.536s2.483,5.534,5.536,5.534C53.051,97.008,55.535,94.525,55.535,91.474z M57.225,82.686   l-0.518-5.42l-2.025-4.008c-0.402,0.488-0.915,0.943-1.573,1.331c-0.29,2.638,2.49,4.538,3.019,8.097H57.225z M63.664,82.65   c0,0-0.844-18.852-9.725-24.258c0.722,1.667,1.256,4.849,1.256,4.849l-5.651-2.913l-5.253,4.904l-5.253-4.904l-5.651,2.913   c0,0,0.536-3.192,1.264-4.866c-9.468,6.405-9.72,24.275-9.72,24.275h4.873l0.557-5.827l2.624-5.187   c-0.729-1.956-0.296-3.881-0.266-4.008l1.52,0.361c-0.037,0.154-0.901,4.033,2.792,5.643c0.394,4.496-2.505,5.922-2.957,9.018   h20.448c-0.49-3.049-3.556-4.877-2.957-9.018c3.701-1.563,2.829-5.488,2.793-5.643l1.52-0.361c0.031,0.127,0.463,2.052-0.266,4.008   l2.623,5.187l0.557,5.827H63.664z M41.172,53.161l0.116,1.954l3.002,3.01l2.944-2.937l0.119-2.004   C45.387,53.881,43.21,53.901,41.172,53.161z M44.297,52.146c4.201,0,8.698-3.937,7.404-9.418c-0.769-0.527-2.83-2.186-3.698-5.249   c-2.751,3.303-7.574,6.043-11.325,6.879C36.426,48.34,40.096,52.146,44.297,52.146z M79.477,13.782H20.523v68.903h2.831   c0,0,0.789-22.465,12.743-26.75c0.872-1.066,2.029-1.903,3.55-2.092l-0.052-0.875c-6.099,2.077-9.657-1.105-9.657-1.105   s3.302-3.619,3.564-6.9c-0.194,0.025-1.482,0.165-1.482,0.165c-0.835-14.821,9.023-15.985,11.772-15.985   c2.728,0,5.301,0.864,6.166,2.02c4.264,0.294,7.293,5.943,5.893,12.34c-1.049,4.796,2.18,8.303,2.18,8.303s-3.018,3.404-9.098,1.14   l-0.053,0.892c1.543,0.176,2.715,1.018,3.598,2.094C64.552,60.277,65.24,82.686,65.24,82.686h14.236V13.782z M62.902,26.783   c0,0,0.805-1.27,0.818-1.811l-0.408,0.043c-0.3-4.617,2.111-5.879,4.048-5.879c0.759,0,1.61,0.198,2.087,0.63   c1.686,0.302,2.366,2.378,2.041,4.104l0.586,2.8h-2.42c-0.574,0.504-1.323,0.813-2.145,0.813c-0.759,0-1.455-0.263-2.01-0.699   H62.902z M65.852,24.576c0.162,0.767,0.844,1.344,1.658,1.344c0.919,0,1.668-0.737,1.692-1.651c-0.247-0.21-0.614-0.58-0.87-1.067   C67.636,23.807,66.793,24.275,65.852,24.576z"></path></g></svg>