<svg height='100px' width='100px'  fill="#ffffff" xmlns="http://www.w3.org/2000/svg" xmlns:xlink="http://www.w3.org/1999/xlink" version="1.1" x="0px" y="0px" viewBox="0 0 89.3 99" style="enable-background:new 0 0 89.3 99;" xml:space="preserve"><g><path d="M37.3,47.3c0.6-0.8,2.4-0.3,2.9-0.1c0.8,0.3,1.7-0.1,2-0.9c0.3-0.8-0.1-1.7-0.9-2c-1.7-0.6-4.9-1.1-6.5,1.2   c-0.7,1-1.1,2.3-1.4,3.9c-0.3,1.8,0.1,3.7,1.3,5.2l0.5,0.7c1.6,2.2,4,3.7,6.6,4.4l2.7,0.7c0.1,0,0.2,0,0.4,0c0.7,0,1.3-0.5,1.5-1.2   c0.2-0.8-0.3-1.6-1.1-1.9l-2.7-0.7c-2-0.5-3.7-1.7-4.9-3.3l-0.5-0.7C36.4,52,36.2,51,36.4,50C36.6,48.8,36.9,47.8,37.3,47.3z"></path><path d="M69.6,25.3C69.6,25.3,69.7,25.3,69.6,25.3c0.2-0.1,0.4-0.2,0.5-0.3L88.8,6.2c0.6-0.6,0.6-1.6,0-2.2l-3.7-3.7   c-0.6-0.6-1.6-0.6-2.2,0L64.3,19.2c0,0-0.1,0.1-0.1,0.1c-0.1,0.1-0.2,0.2-0.2,0.4c0,0,0,0,0,0l-1.9,4.7c-0.2-0.2-0.5-0.3-0.8-0.4   c-0.1-0.3-0.2-0.5-0.4-0.8c-0.4-0.3-0.8-0.7-1.2-1c-0.6-0.5-1.6-0.5-2.1,0.2C57,23.1,57,24,57.7,24.6c0.4,0.3,0.8,0.6,1.1,1   c0.2,0.2,0.5,0.3,0.8,0.3c0.1,0.3,0.2,0.5,0.4,0.7c0.9,0.8,1.6,1.5,2.1,2.1c0.2,0.2,0.4,0.4,0.6,0.6c1.5,1.7,2,2.7,2.1,3.3   c0,0.2,0.1,0.3,0.1,0.5c0.1,0.4,0.2,0.8,0.2,1.2c0.2,1.5,0.3,3.1,0.2,4.5c0,0.4,0,0.7-0.1,1.1c-0.2,2.2-0.5,3.8-0.5,3.9   c-0.1,0.4,0,0.8,0.2,1.1l1.1,1.7l0.1,0.1l0,0l2.5,3.9c0,0,0,0,0,0l0.7,1l0.7,1l-1.5,1.4L68,54.5l0,0l-0.7,0.7   c-0.3,0.3-0.5,0.7-0.5,1.2c0,0.5,0.2,0.9,0.6,1.1l1.8,1.4c0.1,0.1,0.1,0.2,0.1,0.3c0,0,0,0,0,0c0,0,0,0,0,0c0,0,0,0.1,0,0.1   c0,0,0,0.1-0.1,0.1l-1.3,1.3c-0.3,0.3-0.5,0.8-0.5,1.3c0.1,0.5,0.3,0.9,0.8,1.1l0.8,0.5c0.2,0.1,0.3,0.2,0.4,0.4   c0.1,0.1,0.1,0.3,0.1,0.4c0,0,0,0.1,0,0.1l0,0.1h0l0,1.1c0,0.4-0.3,0.7-0.6,0.9c-0.2,0.1-0.4,0.2-0.7,0.4c-0.1,0-0.1,0-0.2,0.1   c0,0,0,0-0.1,0.1c-0.3,0.2-0.5,0.4-0.7,0.7c0,0-0.1,0.1-0.1,0.1c-0.2,0.3-0.4,0.7-0.6,1c0,0,0,0,0,0c0,0,0,0.1,0,0.1   c-0.1,0.3-0.2,0.6-0.2,0.9l-0.2,1.7c0,0.4-0.3,0.7-0.7,0.8L65,72.5l-0.7-1.7c-0.3-0.9-0.5-1.5-0.8-1.9l-0.9-2.3   c0.6-0.3,1.1-0.7,1.6-1.2c2.4-2.4,3-5.3,1.7-7.9c-0.6-1.3-2-2.1-3.4-2.2c-2.2-0.1-4.1,1.5-4.4,3.6l-0.3,2.3c-0.1,0.7,0,1.4,0.3,2.1   l0.6,1.4c-1,0-2-0.2-2.7-0.6c-0.1-0.1-0.2-0.2-0.3-0.3c-0.1-0.6-0.4-2.1-1.6-3.1c-0.6-0.5-1.7-1.1-3.3-0.9l-0.7,0.1   c-2.4,0.3-4.9,0.6-6.1,2.3c-0.4,0.6-0.8,1.5-0.6,2.9c0.7,3.6,2.4,4.7,5,5.9c1.1,0.5,1.8,0.6,2.4,0.7c0.5,0.1,0.7,0.1,1.7,1.3   c0.5,0.6,0.6,1,0.6,1.2c-0.2,0.2-0.4,0.4-0.6,0.7l-2.9,4c0,0,0,0,0,0L49,79.4c-0.8,0.1-1.3,0.7-1.3,1.5c0,0.5,0.2,0.9,0.6,1.2   c-0.2,3.6-1.1,10.6-4.5,13c-1.5,1-3.2,1.2-5.5,0.4c-2.1-0.7-4.7-2-5.6-3.9l4.9-0.4c2.9-0.2,5.4-2.1,6.5-4.8   c0.5-1.3,0.7-2.6,0.5-3.9h0.2c0.8,0,1.5-0.7,1.5-1.5s-0.7-1.5-1.5-1.5h-1.3c-0.1-0.2-0.3-0.4-0.5-0.6c0.1,0,0.3,0,0.4-0.1   c4.6-0.8,4.6-3.8,4.5-4.7c-0.3-2.5-2.8-4.9-4.9-4.7c-1.5,0.1-4.2,1-5.1,3.5c-0.5,1.4-0.4,2.9,0.4,4.6c-1.7,1-3.1,2.3-4.2,3.5   c-0.1-0.8-0.7-1.4-1.5-1.4h-1.5c-0.8,0-1.5,0.7-1.5,1.5s0.7,1.5,1.5,1.5h1.5c0.1,0,0.1,0,0.2,0c-0.4,0.6-0.7,1-0.9,1.2   c-0.4,0.5-2,2.6-2.4,5.1l-4.5,0.4c-1.9,0.2-3.9-0.7-5.1-2.3c-1.6-2.2-1.4-5.2,0.4-7.2l3.6-3.9c-0.1,0.1-0.2,0.2-0.2,0.4L23,77.5   c-0.3,0.8,0.1,1.7,0.9,2c0.1,0,0.2,0.1,0.2,0.1c-0.5,0.3-0.8,0.8-0.8,1.3c0,0.8,0.7,1.5,1.5,1.5h1.5c0.8,0,1.5-0.7,1.5-1.5   s-0.7-1.5-1.5-1.5h-1.1c0.3-0.2,0.5-0.4,0.6-0.8l0.6-1.4c0.3-0.8-0.1-1.7-0.9-2C25,75,24.4,75.1,24,75.5l1.4-1.5   c0.1-0.1,0.2-0.3,0.3-0.4c0.1,0.1,0.2,0.2,0.4,0.2c0.2,0.1,0.4,0.1,0.6,0.1c0.6,0,1.2-0.4,1.4-1l0.6-1.4c0.3-0.7,0-1.4-0.6-1.8   c0.2-0.5,0.3-1,0.5-1.5c0.1-0.1,0.2-0.1,0.3-0.2c0.6-0.5,0.7-1.5,0.2-2.2c0,0,0-0.1-0.1-0.1c0-0.2,0-0.3,0-0.5   c0.3-5.7-3.1-11-8.3-13.2l-1.7-0.7c0-0.1,0-0.2-0.1-0.2c-0.2-0.5-0.4-0.9-0.6-1.3c-0.3-0.8-1.2-1.1-2-0.8c-0.4,0.2-0.7,0.5-0.8,0.8   l-6.7-2.9c-0.9-0.7-5.5-4.8-5.8-9.2c-0.1-1.9,0.6-3.7,2.2-5.3c6.8-6.8,9.7-6.5,10.2-6.3c0.1,0,0.3,0.1,0.4,0.2   c-0.3,0.4-0.5,0.9-0.8,1.3c-0.4,0.7-0.1,1.7,0.6,2.1c0.2,0.1,0.5,0.2,0.7,0.2c0.3,0,0.5-0.1,0.8-0.2c0.8,2,1.6,4,2,4.8   c-0.3,1.3-0.7,4.6,1.1,6.4c0.8,0.8,2.3,1.7,5.1,1c4.5-1.1,7.6-5.5,9.3-8.8l0.9,2.2c0.2,0.4,0.5,0.7,0.9,0.9   c0.4,0.1,0.9,0.1,1.3-0.1l4.3-2.6l1.3,4.5c0.2,0.8,1.1,1.3,1.9,1c0.8-0.2,1.3-1.1,1-1.9l-1.9-6.4c-0.1-0.5-0.5-0.8-0.9-1   c-0.4-0.2-0.9-0.1-1.3,0.1l-4.4,2.6l-1.6-3.9c-0.2-0.6-0.8-0.9-1.5-1c-0.6,0-1.2,0.4-1.4,1c0,0.1-3.2,8.9-8.6,10.2   c-0.8,0.2-1.8,0.3-2.2-0.2c-0.7-0.7-0.5-2.8-0.2-4c0.1-0.3,0.1-0.7-0.1-1c0,0-2.1-4.7-3.1-7.8c-0.5-1.5-1.5-2.5-2.9-2.8   c-3.1-0.8-7.6,1.7-13.1,7.1c-2.2,2.2-3.3,4.8-3.1,7.6c0.4,6.3,6.8,11.3,7.1,11.6c0.1,0.1,0.2,0.1,0.3,0.2l11.5,5   c-0.6,0.5-0.8,1.3-0.4,2c0.3,0.4,0.5,0.9,0.8,1.3c0.3,0.5,0.8,0.7,1.3,0.7c0.3,0,0.6-0.1,0.8-0.2c0.7-0.4,0.9-1.4,0.5-2.1   c2.5,2,4,5,4,8.2c0,0,0,0,0,0c-0.6,0.5-0.7,1.5-0.2,2.1c0,0,0,0,0,0c-0.4,1.9-1.3,3.7-2.6,5.2L18,77.6c-2.8,3.1-3,7.7-0.6,11.1   c1.8,2.4,4.8,3.8,7.8,3.5l4.3-0.4c0.8,2.9,3.4,5.1,7.8,6.6c1.3,0.4,2.5,0.7,3.6,0.7c1.7,0,3.3-0.5,4.6-1.5   c5.2-3.8,5.8-13.7,5.8-16.1l0.5-0.8l0.1-0.1l0,0l2.7-3.8c0.2-0.2,0.4-0.4,0.6-0.6c0.5-0.3,0.7-0.9,0.7-1.5c0.2-1.2-0.2-2.4-1.2-3.7   c-1.4-1.9-2.2-2.3-3.6-2.5c-0.4-0.1-0.8-0.1-1.5-0.5c-2.3-1.1-2.9-1.5-3.3-3.7c0-0.2,0-0.4,0-0.5c0.4-0.6,2.6-0.9,4-1l0.7-0.1   c0.7-0.1,0.9,0.1,1,0.2c0.4,0.3,0.5,1,0.5,1.2c0,0.2,0,0.3,0.1,0.5c0.3,0.9,0.9,1.5,1.6,2c1.5,0.9,3.5,1.4,5.5,1l1.7,4.2   c0.1,0.3,0.2,0.5,0.2,0.7c0.7,2.1,0.9,2.8,1.4,3.2c0.4,0.5,1.1,0.7,1.7,0.4c0.3-0.1,0.5-0.3,0.7-0.5l0.1,0c0,0,0,0,0,0l0.9-0.3   c0.3-0.1,0.6-0.3,0.9-0.4c0,0,0,0,0.1-0.1c1-0.7,1.6-1.7,1.8-2.9l0.2-1.7c0-0.1,0.1-0.2,0.1-0.3c0.1-0.1,0.1-0.2,0.2-0.3   c0.1-0.1,0.2-0.2,0.3-0.2c1.5-0.6,2.5-2,2.6-3.6l0-1.1h0c0,0,0-0.1,0-0.2c0-0.1,0-0.1,0-0.2c0-0.3,0-0.5-0.1-0.8   c0-0.1,0-0.2-0.1-0.3c-0.1-0.3-0.2-0.5-0.3-0.7c0,0,0-0.1-0.1-0.1c0,0,0,0,0,0c-0.2-0.3-0.4-0.5-0.6-0.7c0.2-0.2,0.4-0.4,0.5-0.6   c0,0,0,0,0,0c0,0,0-0.1,0.1-0.1c0.1-0.2,0.2-0.4,0.3-0.6c0-0.1,0-0.2,0.1-0.3c0-0.2,0.1-0.4,0.1-0.6c0-0.1,0-0.1,0-0.2   c0,0,0-0.1,0-0.1c0,0,0-0.1,0-0.1c0-0.2,0-0.3-0.1-0.5c0-0.1,0-0.1,0-0.2c0,0,0,0,0,0c-0.2-0.7-0.6-1.4-1.2-1.8l-0.4-0.3l2.3-2.1   c0.5-0.5,0.7-1.3,0.3-1.9l-4.5-7c0,0,0,0,0,0l-0.8-1.3c0,0,0,0,0,0l0,0c0.3-1.6,0.9-5.9,0.3-9.9c0,0,0,0,0,0c0,0,0-0.1,0-0.1   c-0.1-0.5-0.2-1-0.3-1.5c0,0,0-0.1,0-0.1c0,0,0,0,0,0c0-0.2-0.1-0.3-0.1-0.5c-0.3-1.2-1.2-2.5-2.4-4c0,0,0,0,0,0c0,0,0,0,0-0.1   c-0.1-0.1-0.3-0.3-0.4-0.5L69.6,25.3z M40.5,73.8c0.4-0.9,1.8-1.5,2.5-1.5c0.5,0.1,1.7,1.3,1.7,2.2c0,0.7-1.4,1-2,1.1   c-0.6,0.1-1.2,0.3-1.8,0.4C40.5,75.2,40.3,74.4,40.5,73.8z M34.1,85.5c0.1-0.1,0.1-0.2,0.2-0.3c0,0,0.9-1.4,2.4-2.9   c0.1,0,0.2,0.1,0.3,0.1h1.5c0.8,0,1.5-0.7,1.5-1.5c0-0.4-0.1-0.7-0.4-0.9c0,0,0.1,0,0.1-0.1c0.1,0.2,0.3,0.3,0.4,0.5l0.1,0.2   c1.1,1.3,1.4,3,0.7,4.6c-0.7,1.6-2.1,2.7-3.9,2.9l-4.7,0.4C33,86.8,34.1,85.5,34.1,85.5z M61.1,59.3c0.1-0.6,0.6-1,1.1-1   c0,0,0,0,0.1,0c0.4,0,0.7,0.2,0.9,0.5c0.7,1.4,0.3,3-1.1,4.4c-0.2,0.2-0.4,0.3-0.6,0.5l-0.6-1.6c-0.1-0.2-0.1-0.4-0.1-0.6   L61.1,59.3z M65.9,22.9l0.4,0.4l-0.7,0.3L65.9,22.9z M84.1,3.7l1.5,1.5L69,21.7l-1.5-1.5L84.1,3.7z"></path><path d="M36.4,17.3c0.1,0,0.1,0,0.2,0c0.5-0.1,1-0.1,1.4-0.1c0.8,0,1.5-0.8,1.4-1.6c0-0.8-0.8-1.5-1.6-1.4c-0.5,0-1.1,0.1-1.6,0.1   c-0.8,0.1-1.4,0.8-1.3,1.7C34.9,16.7,35.6,17.3,36.4,17.3z"></path><path d="M30.5,18.7c0.2,0,0.3,0,0.5-0.1c0.5-0.2,0.9-0.3,1.4-0.5c0.8-0.2,1.3-1.1,1-1.9c-0.2-0.8-1.1-1.3-1.9-1   c-0.5,0.2-1,0.3-1.5,0.5c-0.8,0.3-1.2,1.2-0.9,2C29.2,18.3,29.8,18.7,30.5,18.7z"></path><path d="M54.2,21.7c0.3,0.2,0.6,0.3,0.9,0.3c0.5,0,0.9-0.2,1.2-0.6c0.5-0.7,0.4-1.6-0.3-2.1c-0.5-0.3-0.9-0.7-1.2-0.9   c-0.7-0.5-1.6-0.4-2.1,0.3c-0.5,0.7-0.4,1.6,0.3,2.1C53.3,21.1,53.7,21.4,54.2,21.7z"></path><path d="M48,18.4c0.5,0.2,1,0.3,1.4,0.4c0.2,0.1,0.3,0.1,0.5,0.1c0.6,0,1.2-0.4,1.4-1c0.3-0.8-0.1-1.7-0.9-1.9   c-0.5-0.2-1-0.3-1.5-0.5c-0.8-0.2-1.7,0.2-1.9,1C46.7,17.4,47.2,18.2,48,18.4z"></path><path d="M25,21.3c0.3,0,0.5-0.1,0.8-0.2c0.4-0.2,0.8-0.5,1.3-0.7c0.7-0.4,1-1.3,0.6-2.1c-0.4-0.7-1.3-1-2.1-0.6   c-0.5,0.3-0.9,0.5-1.4,0.8c-0.7,0.4-1,1.4-0.5,2.1C23.9,21,24.4,21.3,25,21.3z"></path><path d="M42.3,17.3c0.5,0.1,1,0.1,1.4,0.2c0.1,0,0.2,0,0.2,0c0.7,0,1.4-0.5,1.5-1.3c0.1-0.8-0.4-1.6-1.3-1.7   c-0.5-0.1-1-0.2-1.6-0.2c-0.9-0.1-1.6,0.5-1.7,1.4C40.9,16.4,41.5,17.2,42.3,17.3z"></path><path d="M12.7,40.3c0.1,0.8,0.7,1.4,1.5,1.4c0,0,0.1,0,0.1,0c0.8-0.1,1.5-0.8,1.4-1.7c0-0.5-0.1-1-0.1-1.4c0-0.8-0.7-1.5-1.6-1.5   c-0.8,0-1.5,0.7-1.5,1.6C12.6,39.2,12.6,39.7,12.7,40.3z"></path><path d="M13.9,46.6c0.2,0.7,0.8,1.1,1.5,1.1c0.1,0,0.3,0,0.5-0.1c0.8-0.2,1.3-1.1,1-1.9c-0.1-0.5-0.3-0.9-0.4-1.4   c-0.2-0.8-1-1.3-1.9-1.1c-0.8,0.2-1.3,1-1.1,1.9C13.6,45.5,13.8,46,13.9,46.6z"></path><path d="M14.2,35.6c0.1,0,0.2,0,0.3,0c0.7,0,1.4-0.5,1.5-1.2c0.1-0.5,0.2-0.9,0.3-1.4c0.2-0.8-0.3-1.7-1.1-1.9   c-0.8-0.2-1.6,0.3-1.9,1.1c-0.1,0.5-0.3,1.1-0.4,1.6C12.8,34.6,13.3,35.4,14.2,35.6z"></path><path d="M20.1,25c0.4,0,0.8-0.1,1.1-0.4c0.3-0.3,0.7-0.7,1-1c0.6-0.6,0.7-1.5,0.1-2.2c-0.6-0.6-1.5-0.7-2.2-0.1   c-0.4,0.4-0.8,0.7-1.2,1.1c-0.6,0.6-0.6,1.6,0,2.2C19.4,24.9,19.7,25,20.1,25z"></path><path d="M24.1,63.6c0.3,0,0.6-0.1,0.9-0.3c0.7-0.5,0.8-1.5,0.3-2.1c-0.3-0.4-0.6-0.8-0.9-1.2c-0.5-0.7-1.4-0.8-2.1-0.3   s-0.8,1.4-0.3,2.1c0.3,0.4,0.6,0.8,0.9,1.2C23.1,63.4,23.6,63.6,24.1,63.6z"></path><path d="M60.5,73.1H59c-0.8,0-1.5,0.7-1.5,1.5c0,0.8,0.7,1.5,1.5,1.5h1.5c0.8,0,1.5-0.7,1.5-1.5C62.1,73.8,61.4,73.1,60.5,73.1z"></path></g></svg>