<svg height='100px' width='100px'  fill="#ffffff" xmlns="http://www.w3.org/2000/svg" xmlns:xlink="http://www.w3.org/1999/xlink" version="1.1" x="0px" y="0px" viewBox="0 0 85.9 99" style="enable-background:new 0 0 85.9 99;" xml:space="preserve"><path d="M51.3,72.5c-0.1,0-0.3,0-0.5-0.1l-3.3-0.8c-3.2-0.8-6-2.7-8-5.3l-0.7-0.9c-1.4-1.8-1.9-4.1-1.5-6.3c0.4-2,0.9-3.6,1.7-4.8  c2-2.8,5.9-2.3,7.9-1.5c1,0.4,1.4,1.4,1.1,2.4c-0.4,1-1.4,1.4-2.4,1.1c-0.6-0.2-2.8-0.8-3.5,0.2c-0.5,0.7-0.9,1.8-1.1,3.3  c-0.2,1.2,0.1,2.5,0.8,3.5l0.7,0.9c1.5,2,3.6,3.4,6,4l3.3,0.8c1,0.2,1.6,1.3,1.3,2.2C52.8,71.9,52.1,72.5,51.3,72.5z"></path><path d="M57.3,99H25.1c-0.6,0-1.2-0.3-1.5-0.8c-0.3-0.5-0.4-1.2-0.2-1.7l6-15C17,67.1,11.3,54.1,12.2,42.8c0.1-1,1-1.8,2-1.7  c1,0.1,1.8,1,1.7,2C15,53.6,20.7,66,32.9,79.9c0.5,0.5,0.6,1.3,0.3,1.9l-5.4,13.5h28.5l4-5.6c0.9-1.3,2.4-2,4-2h9.1  c0.1,0,0.3,0,0.4-0.1l2.3-0.8c0.4-0.2,0.8-0.6,0.8-1l0.2-2c0.2-1.8,1.4-3.4,3.1-4.1c0.4-0.2,0.7-0.6,0.8-1.1l0.1-1.4  c0-0.4-0.2-0.9-0.6-1.1l-1-0.6c-0.5-0.3-0.8-0.8-0.9-1.4c-0.1-0.6,0.1-1.2,0.6-1.6l1.6-1.5c0.1-0.1,0.1-0.3,0.1-0.3  c0-0.1,0-0.2-0.2-0.3l-2.2-1.7c-0.4-0.3-0.7-0.8-0.7-1.4c0-0.6,0.2-1.1,0.6-1.5l3.3-3l-6-9.4c-0.3-0.4-0.4-0.9-0.2-1.4  c0-0.1,1.7-8,0-13.5C74.3,34.7,65,27,59.3,23c-0.8-0.4-5.6-2.5-11.7-3c-1-0.1-1.8-1-1.7-2c0.1-1,1-1.8,2-1.7  c7.4,0.7,12.9,3.3,13.1,3.4c0.1,0,0.2,0.1,0.2,0.1C62.9,21,77.1,31.1,79,37.6c1.6,5.5,0.6,12.3,0.2,14.6l6.4,10.1  c0.5,0.8,0.4,1.8-0.3,2.4l-2.8,2.5l0.4,0.3c1,0.7,1.6,1.9,1.7,3.1c0.1,1.2-0.4,2.4-1.2,3.2c1,1,1.5,2.3,1.4,3.7l-0.1,1.4  c-0.1,2-1.3,3.7-3.1,4.4c-0.4,0.2-0.7,0.5-0.8,1l-0.2,2c-0.2,1.9-1.5,3.5-3.3,4.1l-2.3,0.8c-0.5,0.2-1.1,0.3-1.6,0.3h-9.1  c-0.4,0-0.8,0.2-1,0.5l-4.6,6.4C58.4,98.7,57.9,99,57.3,99z"></path><ellipse transform="matrix(0.7578 -0.6525 0.6525 0.7578 -17.6983 12.037)" cx="7.4" cy="29.9" rx="1.8" ry="1.8"></ellipse><path d="M28.1,22.8c-1-0.1-2.1,0.1-2.9,0.8c-1.7,1.3-2,3.8-0.7,5.5c0.6,0.8,1.6,1.4,2.6,1.5c0.2,0,0.4,0,0.5,0  c0.9,0,1.7-0.3,2.4-0.8c1.7-1.3,2-3.8,0.7-5.5C30.1,23.4,29.1,22.9,28.1,22.8z M28.3,27.5c-0.2,0.2-0.5,0.3-0.8,0.2  c-0.3,0-0.6-0.2-0.7-0.4c-0.4-0.5-0.3-1.2,0.2-1.6c0.2-0.2,0.5-0.3,0.8-0.2c0.3,0,0.6,0.2,0.7,0.4C28.9,26.5,28.8,27.2,28.3,27.5z"></path><path d="M39.7,25c-0.1-0.8-0.8-1.3-1.6-1.2l-2,0.3c0,0-0.1,0-0.1,0l-0.4-2.8c-0.1-0.5-0.4-0.9-0.8-1.1l-2.6-1.1c0,0,0-0.1,0.1-0.1  l0.8-1.8c0.3-0.7,0-1.5-0.7-1.8c-0.7-0.3-1.5,0-1.8,0.7L29.8,18c0,0,0,0.1,0,0.1L27,17c-0.5-0.2-1-0.1-1.4,0.2l-2.2,1.7c0,0,0,0,0,0  l-1.2-1.6c-0.5-0.6-1.3-0.7-1.9-0.3c-0.6,0.5-0.7,1.3-0.3,1.9l1.2,1.6c0,0,0,0,0,0l-2.4,1.8c-0.4,0.3-0.6,0.8-0.5,1.3l0.4,2.8  l-1.9,0.2c-0.8,0.1-1.3,0.8-1.2,1.6c0.1,0.7,0.7,1.2,1.4,1.2c0.1,0,0.1,0,0.2,0l1.9-0.2l0.4,2.9c0.1,0.5,0.4,0.9,0.8,1.1l2.7,1.1  l-0.7,1.7c-0.3,0.7,0,1.5,0.7,1.8c0.2,0.1,0.4,0.1,0.5,0.1c0.5,0,1.1-0.3,1.3-0.9l0.7-1.7l2.6,1.1c0.2,0.1,0.4,0.1,0.5,0.1  c0.3,0,0.6-0.1,0.8-0.3l2.4-1.8c0,0,0,0,0,0l1.2,1.6c0.3,0.4,0.7,0.5,1.1,0.5c0.3,0,0.6-0.1,0.8-0.3c0.6-0.5,0.7-1.3,0.3-1.9  l-1.2-1.6c0,0,0,0,0,0l2.2-1.7c0.4-0.3,0.6-0.8,0.5-1.3l-0.4-2.9c0,0,0.1,0,0.1,0l2-0.3C39.2,26.5,39.8,25.8,39.7,25z M28.5,33.5  l-6.3-2.6L21.3,24l5.5-4.2l6.3,2.6l0.9,6.8L28.5,33.5z"></path><path d="M14,30.6l-0.5-0.2l0.4-1.1c0.2-0.5,0.1-1-0.3-1.4l-0.8-0.9l0.5-0.4c0.6-0.5,0.6-1.4,0.1-2c-0.5-0.6-1.4-0.6-2-0.1L10.9,25  l-0.7-0.8c-0.3-0.4-0.8-0.6-1.3-0.5l-1.2,0.2l-0.1-0.7C7.5,22.5,6.8,22,6,22.1c-0.8,0.1-1.2,0.9-1.1,1.6L5,24.4l-1.1,0.2  c-0.5,0.1-0.9,0.4-1.1,0.9l-0.4,1.1l-0.7-0.2c-0.7-0.3-1.5,0.1-1.8,0.9c-0.3,0.7,0.1,1.5,0.9,1.8l0.7,0.2l-0.4,1.1  c-0.2,0.5-0.1,1,0.3,1.4l0.7,0.8l-0.5,0.4c-0.6,0.5-0.6,1.4-0.1,2c0.3,0.3,0.7,0.5,1.1,0.5c0.3,0,0.6-0.1,0.9-0.3L4,34.6l0.8,0.9  C5,35.8,5.4,36,5.8,36c0.1,0,0.2,0,0.3,0l1.1-0.2l0.1,0.6C7.4,37,8,37.5,8.6,37.5c0.1,0,0.2,0,0.3,0c0.8-0.1,1.2-0.9,1.1-1.6  l-0.1-0.6l1.2-0.2c0.5-0.1,0.9-0.4,1.1-0.9l0.4-1.1l0.5,0.2c0.2,0.1,0.3,0.1,0.5,0.1c0.6,0,1.1-0.4,1.3-0.9  C15.1,31.6,14.7,30.8,14,30.6z M9.8,32.5l-3.4,0.6l-2.3-2.6l1.1-3.3l3.4-0.6l2.3,2.6L9.8,32.5z"></path><ellipse transform="matrix(0.4431 -0.8965 0.8965 0.4431 13.1865 36.7186)" cx="36.1" cy="7.7" rx="1.8" ry="1.8"></ellipse><path d="M42.6,9.4l-0.6-0.3l0.5-1c0.2-0.4,0.2-1-0.1-1.4l-0.7-1l0.6-0.4C43,5,43.2,4.1,42.8,3.5c-0.4-0.6-1.3-0.8-1.9-0.4l-0.6,0.4  l-0.6-0.9c-0.3-0.4-0.7-0.6-1.2-0.6L37.3,2l0-0.7c0-0.8-0.8-1.3-1.5-1.3c-0.8,0-1.3,0.7-1.3,1.5l0,0.7l-1.2,0.1  c-0.5,0-0.9,0.3-1.2,0.8l-0.5,1l-0.6-0.3c-0.7-0.3-1.5-0.1-1.9,0.6c-0.3,0.7-0.1,1.5,0.6,1.9l0.6,0.3l-0.5,1.1C29.7,8,29.7,8.5,30,9  l0.6,0.9l-0.5,0.3c-0.6,0.4-0.8,1.3-0.4,1.9c0.3,0.4,0.7,0.6,1.2,0.6c0.3,0,0.5-0.1,0.8-0.2l0.5-0.3l0.7,1c0.3,0.4,0.7,0.6,1.2,0.6  c0,0,0.1,0,0.1,0l1.2-0.1l0,0.6c0,0.7,0.7,1.3,1.4,1.3c0,0,0.1,0,0.1,0c0.8,0,1.3-0.7,1.3-1.5l0-0.6l1.1-0.1c0.5,0,0.9-0.3,1.2-0.8  l0.5-1.1l0.6,0.3C41.6,12,41.8,12,42,12c0.5,0,1-0.3,1.2-0.8C43.6,10.6,43.3,9.7,42.6,9.4z M38.2,10.8L34.7,11l-1.9-2.9L34.3,5  l3.5-0.2l1.9,2.9L38.2,10.8z"></path></svg>