<svg height='100px' width='100px'  fill="#ffffff" xmlns="http://www.w3.org/2000/svg" xmlns:xlink="http://www.w3.org/1999/xlink" version="1.1" x="0px" y="0px" viewBox="0 0 88 99" style="enable-background:new 0 0 88 99;" xml:space="preserve"><path d="M49.2,69.2c-0.2,0-0.3,0-0.5-0.1L45,68.3c-3.6-0.9-6.8-3-9-5.9l-0.7-1c-1.5-2-2.2-4.6-1.7-7.1c0.4-2.3,1-4.1,1.9-5.3  c2.2-3.2,6.6-2.6,8.8-1.7c1.1,0.4,1.6,1.6,1.2,2.7c-0.4,1.1-1.6,1.6-2.7,1.2c-0.6-0.2-3.2-0.9-3.9,0.2c-0.5,0.8-1,2.1-1.3,3.7  c-0.2,1.4,0.1,2.8,0.9,3.9l0.7,1c1.7,2.2,4,3.8,6.7,4.4l3.7,0.9c1.1,0.3,1.8,1.4,1.5,2.5C51,68.6,50.1,69.2,49.2,69.2z"></path><path d="M56,99H19.9c-0.7,0-1.3-0.3-1.7-0.9c-0.4-0.6-0.5-1.3-0.2-1.9l6.7-16.8C10.8,63.2,4.3,48.6,5.4,36c0.1-1.1,1.1-2,2.2-1.9  c1.1,0.1,2,1.1,1.9,2.2C8.6,48.1,15,62,28.6,77.6c0.5,0.6,0.6,1.4,0.4,2.1l-6,15.1h31.9l4.5-6.3c1-1.4,2.7-2.3,4.5-2.3h10.2  c0.2,0,0.3,0,0.4-0.1l2.6-0.9c0.5-0.2,0.8-0.6,0.9-1.1l0.2-2.3c0.2-2.1,1.5-3.8,3.5-4.6c0.5-0.2,0.8-0.7,0.9-1.2l0.1-1.5  c0-0.5-0.2-1-0.7-1.2l-1.1-0.7c-0.6-0.3-0.9-0.9-1-1.6c-0.1-0.7,0.2-1.3,0.6-1.7l1.8-1.7c0.1-0.1,0.2-0.3,0.2-0.4s0-0.3-0.2-0.4  l-2.5-1.9c-0.5-0.4-0.8-0.9-0.8-1.6c0-0.6,0.2-1.2,0.7-1.6l3.6-3.3l-6.7-10.5c-0.3-0.5-0.4-1-0.3-1.6c0-0.1,1.9-8.9,0-15.2  C75,26.9,64.5,18.3,58.2,13.8c-0.9-0.4-6.2-2.7-13.1-3.4c-1.1-0.1-2-1.1-1.9-2.3c0.1-1.1,1.1-2,2.3-1.9c8.3,0.8,14.4,3.7,14.7,3.8  c0.1,0,0.2,0.1,0.3,0.2c1.8,1.3,17.7,12.6,19.9,19.9c1.8,6.1,0.7,13.8,0.2,16.4l7.2,11.3c0.5,0.9,0.4,2-0.4,2.6l-3.1,2.8l0.5,0.4  c1.1,0.8,1.8,2.1,1.9,3.5c0.1,1.3-0.4,2.6-1.4,3.6c1.1,1.1,1.7,2.5,1.6,4.1l-0.1,1.5c-0.1,2.2-1.5,4.1-3.5,4.9  c-0.5,0.2-0.8,0.6-0.9,1.1l-0.2,2.3c-0.2,2.1-1.7,3.9-3.7,4.6l-2.6,0.9c-0.6,0.2-1.2,0.3-1.8,0.3H63.9c-0.4,0-0.8,0.2-1.1,0.6  l-5.1,7.1C57.2,98.7,56.6,99,56,99z"></path><path d="M16.5,28.7c-0.3,0-0.7-0.1-1-0.2C5.8,23.3,2,16.4,0.7,12.6c-1.2-3.2-0.8-6.6,1.1-9C3.6,1.3,6.3,0,9.2,0  c2.9,0,5.6,1.4,7.3,3.5C18.2,1.4,20.8,0,23.8,0c2.9,0,5.6,1.3,7.4,3.6c1.9,2.4,2.3,5.8,1.1,9c-1.4,3.7-5.1,10.7-14.9,15.8  C17.1,28.6,16.8,28.7,16.5,28.7z M9.2,4.1c-1.6,0-3.1,0.7-4.1,2c-1,1.3-1.2,3.2-0.5,5c1.1,3,4.1,8.6,11.9,13  c7.8-4.4,10.8-10,11.9-13c0.7-1.8,0.5-3.8-0.5-5c-1-1.3-2.5-2-4.1-2c-2.9,0-5.2,2.3-5.2,5.2c0,1.1-0.9,2.1-2.1,2.1s-2.1-0.9-2.1-2.1  C14.4,6.5,12.1,4.1,9.2,4.1z"></path></svg>