<svg height='100px' width='100px'  fill="#ffffff" xmlns="http://www.w3.org/2000/svg" xmlns:xlink="http://www.w3.org/1999/xlink" version="1.1" x="0px" y="0px" viewBox="0 0 91.9 99" style="enable-background:new 0 0 91.9 99;" xml:space="preserve"><path d="M30.9,14.1c0.2,0.1,0.5,0.2,0.7,0.2c0.2,0,0.5-0.1,0.7-0.2c4.6-2.4,6.4-5.7,7-7.5c0.6-1.7,0.4-3.4-0.6-4.7  C37.8,0.7,36.4,0,34.9,0c0,0,0,0,0,0c-1.2,0-2.4,0.5-3.3,1.3C30.7,0.5,29.5,0,28.3,0c0,0,0,0,0,0c-1.5,0-2.9,0.7-3.9,1.9  c-1,1.3-1.2,3-0.6,4.7C24.5,8.4,26.3,11.7,30.9,14.1z M26.9,3.8c0.3-0.4,0.9-0.8,1.4-0.7c0.5,0,0.9,0.2,1.2,0.5  C29.8,4,30,4.4,30,4.9c0,0.9,0.7,1.6,1.6,1.6c0,0,0,0,0,0c0.9,0,1.6-0.7,1.6-1.6c0,0,0,0,0,0c0-0.5,0.2-0.9,0.5-1.2  c0.3-0.3,0.8-0.5,1.2-0.5c0,0,0,0,0,0c0.5,0,1.1,0.2,1.4,0.7c0.3,0.4,0.4,1.1,0.1,1.7c-0.5,1.3-1.7,3.6-4.8,5.4  c-3.2-1.9-4.4-4.1-4.9-5.4C26.5,4.9,26.6,4.2,26.9,3.8z"></path><path d="M58,14.1c0.2,0.1,0.5,0.2,0.7,0.2c0.2,0,0.5-0.1,0.7-0.2c4.6-2.4,6.4-5.7,7.1-7.5c0.6-1.7,0.4-3.4-0.6-4.7  C65,0.7,63.6,0,62.1,0c0,0,0,0,0,0c-1.2,0-2.4,0.5-3.3,1.3c-0.9-0.8-2-1.3-3.3-1.3c-1.5,0-2.9,0.7-3.9,1.9c-1,1.3-1.2,3-0.6,4.7  C51.6,8.3,53.4,11.7,58,14.1z M54,3.8c0.3-0.4,0.8-0.7,1.4-0.7c0,0,0,0,0,0c1,0,1.8,0.8,1.8,1.8c0,0,0,0,0,0c0,0.9,0.7,1.6,1.6,1.6  h0c0.9,0,1.6-0.7,1.6-1.6c0-0.5,0.2-0.9,0.5-1.2c0.3-0.3,0.8-0.5,1.2-0.5h0c0.5,0,1.1,0.3,1.4,0.7c0.3,0.4,0.4,1.1,0.1,1.7  c-0.5,1.3-1.7,3.6-4.9,5.4c-3.2-1.9-4.4-4.2-4.8-5.4C53.7,4.9,53.7,4.2,54,3.8z"></path><path d="M43,61.2c-0.7,1-1.2,2.3-1.5,4c-0.3,1.9,0.1,3.8,1.3,5.3l0.6,0.7c1.7,2.2,4.1,3.8,6.8,4.5l2.8,0.7c0.1,0,0.3,0,0.4,0  c0.7,0,1.3-0.5,1.5-1.2c0.2-0.8-0.3-1.7-1.1-1.9l-2.8-0.7c-2-0.5-3.8-1.7-5.1-3.3l-0.6-0.7c-0.6-0.8-0.9-1.9-0.7-2.9  c0.2-1.2,0.5-2.2,1-2.8c0.6-0.8,2.5-0.3,3-0.1c0.8,0.3,1.7-0.1,2-0.9c0.3-0.8-0.1-1.7-0.9-2C48,59.3,44.7,58.8,43,61.2z"></path><path d="M76.9,59.5c0.3-1.9,1.2-7.7-0.2-12.4c-0.4-1.5-0.8-2.9-2.5-4.7c0.2,0.1,0.5,0.2,0.7,0.2c0.2,0,0.4,0,0.5-0.1l1.5-0.5  c0,0,0,0,0,0l0.5-0.2c0.8-0.3,1.2-1.2,0.9-2c-0.3-0.8-1.2-1.2-2-0.9l-1.5,0.6c0,0,0,0,0,0l-0.4,0.1c-0.8,0.3-1.2,1.2-0.9,2  c0,0,0,0.1,0.1,0.1c0,0-0.1-0.1-0.1-0.1c-0.5-0.5-1.3-0.6-1.9-0.2c-0.4-0.3-0.9-0.4-1.4-0.2l-1.5,0.6c0,0,0,0,0,0l-0.1,0  c-0.8,0.3-1.2,1.2-0.9,2c0.2,0.6,0.8,1,1.5,1c0.2,0,0.4,0,0.5-0.1l1.5-0.5c0,0,0,0,0,0l0.1-0.1c0.1,0,0.1-0.1,0.2-0.1  c1.6,1.6,1.9,2.5,2.4,4.1c1.4,4.7,0,11.4,0,11.4c-0.1,0.4,0,0.8,0.2,1.2l5,7.9l-2.7,2.5c-0.3,0.3-0.5,0.8-0.5,1.2  c0,0.5,0.3,0.9,0.6,1.2l1.9,1.4c0.1,0.1,0.1,0.2,0.1,0.3c0,0.1,0,0.2-0.1,0.3l-1.4,1.3c-0.4,0.3-0.5,0.8-0.5,1.3  c0.1,0.5,0.3,0.9,0.8,1.2l0.8,0.5c0.3,0.2,0.5,0.5,0.5,0.9l0,1.2c0,0.4-0.3,0.8-0.6,0.9c-1.5,0.6-2.5,1.9-2.6,3.4l-0.2,1.7  c0,0.4-0.3,0.7-0.7,0.9l-1.9,0.7c-0.1,0-0.2,0.1-0.3,0.1h-7.7c-1.3,0-2.6,0.6-3.4,1.7l-3.4,4.7H33.6l4.5-11.4  c0.2-0.5,0.1-1.2-0.3-1.6c-12.5-14.4-17-27.1-13-36.8c0,0,0,0,0-0.1c0.1,0.1,0.2,0.1,0.3,0.2l0.2,0.1c0,0,0,0,0,0l0.4,0.1l0.9,0.3  c0,0,0,0,0,0l0.3,0.1C27,47,27.2,47,27.4,47c0.6,0,1.2-0.4,1.5-1c0.3-0.8-0.1-1.7-0.9-2l-1.2-0.4l-0.5-0.2c-0.8-0.3-1.7,0.1-2,0.9  c-0.1-0.1-0.1-0.1-0.2-0.2c-0.8-0.3-1.7,0-2,0.8c-3.1,7.5-3.3,20.3,12.9,39.3l-5,12.7c-0.2,0.5-0.1,1,0.2,1.5  c0.3,0.4,0.8,0.7,1.3,0.7h27.2c0.5,0,1-0.2,1.3-0.6l3.9-5.4c0.2-0.3,0.5-0.4,0.8-0.4h7.7c0.5,0,0.9-0.1,1.4-0.2l1.9-0.7  c1.5-0.5,2.6-1.9,2.8-3.5l0.2-1.7c0-0.4,0.3-0.7,0.6-0.8c1.5-0.6,2.6-2,2.6-3.7l0-1.2c0-1.2-0.4-2.3-1.2-3.1c0.7-0.7,1.1-1.7,1-2.7  c-0.1-1-0.6-2-1.4-2.6l-0.4-0.3l2.3-2.1c0.6-0.5,0.7-1.4,0.3-2L76.9,59.5z"></path><path d="M36.8,50.6l1.5,0.5c0,0,0,0,0,0l0.9,0.3c0.2,0.1,0.4,0.1,0.5,0.1c0.6,0,1.2-0.4,1.5-1c0.3-0.8-0.1-1.7-0.9-2L38.8,48  c0,0,0,0,0,0l-0.9-0.3c-0.8-0.3-1.7,0.1-2,0.9C35.6,49.4,36,50.3,36.8,50.6z"></path><path d="M31,48.4l0.5,0.2c0,0,0,0,0,0l1.5,0.6c0.2,0.1,0.4,0.1,0.5,0.1c0.6,0,1.2-0.4,1.5-1c0.3-0.8-0.1-1.7-0.9-2L33.5,46  c0,0,0,0,0,0l-1.5-0.5c-0.8-0.3-1.7,0.1-2,0.9C29.8,47.2,30.2,48.1,31,48.4z"></path><path d="M15.9,39.5l-0.4-0.1c0,0,0,0,0,0L14,38.8c-0.8-0.3-1.7,0.1-2,0.9c-0.3,0.8,0.1,1.7,0.9,2l0.5,0.2c0,0,0,0,0,0l1.5,0.5  c0.2,0.1,0.4,0.1,0.5,0.1c0.6,0,1.2-0.4,1.5-1C17.2,40.7,16.8,39.8,15.9,39.5z"></path><path d="M10.1,37.4l-1.5-0.5c-0.2-0.1-0.4-0.1-0.6-0.1c-0.6,0-1.2,0.4-1.4,1c-0.1,0.2-0.1,0.4-0.1,0.6c0,0.6,0.4,1.2,1,1.4L8.3,40  c0,0,0,0,0,0L9,40.3c0.2,0.1,0.4,0.1,0.5,0.1c0.6,0,1.2-0.4,1.5-1C11.3,38.6,10.9,37.7,10.1,37.4z"></path><path d="M83.6,37.5c-0.3-0.4-0.7-0.7-1.2-0.8c-0.2,0-0.4,0-0.6,0.1L81,37.1c0,0,0,0,0,0l-0.7,0.3c-0.8,0.3-1.2,1.2-0.9,2  c0.2,0.6,0.8,1,1.5,1c0.2,0,0.4,0,0.5-0.1l1.5-0.5c0.8-0.3,1.2-1.2,0.9-2C83.7,37.7,83.6,37.6,83.6,37.5z"></path><path d="M45.2,36.8c0.9,0,1.6-0.7,1.6-1.6v-1.1v-0.5v-1.1c0-0.9-0.7-1.6-1.6-1.6c-0.9,0-1.6,0.7-1.6,1.6v1.1v0.5v1.1  C43.6,36.1,44.3,36.8,45.2,36.8z"></path><path d="M45.2,18.1c0.9,0,1.6-0.7,1.6-1.6v-0.9V15v-0.9c0-0.9-0.7-1.6-1.6-1.6c-0.9,0-1.6,0.7-1.6,1.6V15v0.6v0.9  C43.6,17.4,44.3,18.1,45.2,18.1z"></path><path d="M45.2,11.8c0.9,0,1.6-0.7,1.6-1.6V9.4V8.7V8.6c0-0.9-0.7-1.6-1.6-1.6c-0.9,0-1.6,0.7-1.6,1.6v0.1v0.7v0.9  C43.6,11.1,44.3,11.8,45.2,11.8z"></path><path d="M45.2,43.1c0.9,0,1.6-0.7,1.6-1.6v-1.2V40v-1.2c0-0.9-0.7-1.6-1.6-1.6c-0.9,0-1.6,0.7-1.6,1.6V40v0.4v1.2  C43.6,42.4,44.3,43.1,45.2,43.1z"></path><path d="M45.2,24.3c0.9,0,1.6-0.7,1.6-1.6v-1v-0.6v-1c0-0.9-0.7-1.6-1.6-1.6c-0.9,0-1.6,0.7-1.6,1.6v1v0.6v1  C43.6,23.6,44.3,24.3,45.2,24.3z"></path><path d="M45.2,30.6c0.9,0,1.6-0.7,1.6-1.6v-1v-0.5v-1c0-0.9-0.7-1.6-1.6-1.6c-0.9,0-1.6,0.7-1.6,1.6v1V28v1  C43.6,29.9,44.3,30.6,45.2,30.6z"></path><path d="M20.9,15.7c0.3,0.5,0.8,0.7,1.3,0.7c0.3,0,0.6-0.1,0.8-0.2c0.7-0.5,1-1.4,0.5-2.1l-0.4-0.7c-0.5-0.7-1.4-1-2.1-0.5  c-0.7,0.5-1,1.4-0.5,2.1L20.9,15.7z"></path><path d="M36.4,37.8c0.7-0.5,1-1.4,0.5-2.1l-0.8-1.3c-0.5-0.7-1.4-1-2.2-0.5c-0.7,0.5-1,1.4-0.5,2.1l0.8,1.3c0.3,0.5,0.8,0.7,1.3,0.7  C35.9,38,36.1,38,36.4,37.8z"></path><path d="M40.1,46.7l0.8,1.3c0.3,0.5,0.8,0.7,1.3,0.7c0.3,0,0.6-0.1,0.8-0.2c0.3-0.2,0.4-0.4,0.6-0.7c0.1,0.6,0.5,1.1,1,1.3  c-0.1,0.1-0.3,0.2-0.4,0.4l-0.2,0.3c0,0,0,0,0,0l-0.3-0.1c-0.8-0.3-1.7,0.1-2,0.9c-0.3,0.8,0.1,1.7,0.9,2l1.2,0.4c0,0,0,0,0,0  l0.7,0.3c0,0,0,0,0,0c0,0,0.1,0,0.1,0c0.1,0,0.3,0.1,0.4,0.1c0,0,0,0,0,0c0,0,0,0,0,0c0,0,0,0,0,0c0.1,0,0.3,0,0.4-0.1  c0,0,0,0,0.1,0c0,0,0,0,0,0l0.7-0.3c0,0,0,0,0,0l1.2-0.4c0.8-0.3,1.2-1.2,0.9-2c-0.2-0.7-0.9-1-1.6-1c-0.1-0.2-0.3-0.5-0.5-0.6  c-0.1-0.1-0.2-0.1-0.3-0.1c0.4-0.3,0.6-0.7,0.6-1.2V47c0.1,0.3,0.3,0.5,0.6,0.7c0.3,0.2,0.5,0.2,0.8,0.2c0.5,0,1-0.3,1.3-0.7  l0.8-1.3c0.5-0.7,0.2-1.7-0.5-2.1c-0.7-0.5-1.7-0.2-2.2,0.5l-0.8,1.3c0,0.1,0,0.1-0.1,0.2V45c0-0.9-0.7-1.6-1.6-1.6  c-0.9,0-1.6,0.7-1.6,1.6v1.2v0.3c0,0,0,0,0-0.1l-0.8-1.3c-0.5-0.7-1.4-1-2.2-0.5C39.9,45,39.6,46,40.1,46.7z"></path><path d="M37.3,39.2c-0.7,0.5-1,1.4-0.5,2.2l0.8,1.3c0.3,0.5,0.8,0.7,1.3,0.7c0.3,0,0.6-0.1,0.8-0.2c0.7-0.5,1-1.4,0.5-2.2l-0.8-1.3  C39,39,38,38.7,37.3,39.2z"></path><path d="M26.9,19.5l-0.8-1.3c-0.5-0.7-1.4-1-2.2-0.5c-0.7,0.5-1,1.4-0.5,2.1l0.8,1.3c0.3,0.5,0.8,0.7,1.3,0.7c0.3,0,0.6-0.1,0.8-0.2  C27.1,21.2,27.3,20.2,26.9,19.5z"></path><path d="M30.9,31.9c0.3,0.5,0.8,0.7,1.3,0.7c0.3,0,0.6-0.1,0.8-0.2c0.7-0.5,1-1.4,0.5-2.2l-0.8-1.3c-0.5-0.7-1.4-1-2.2-0.5  c-0.7,0.5-1,1.4-0.5,2.2L30.9,31.9z"></path><path d="M27.6,26.5c0.3,0.5,0.8,0.7,1.3,0.7c0.3,0,0.6-0.1,0.8-0.2c0.7-0.5,1-1.4,0.5-2.1l-0.8-1.3c-0.5-0.7-1.4-1-2.2-0.5  c-0.7,0.5-1,1.4-0.5,2.1L27.6,26.5z"></path><path d="M67.3,15.4c0.3,0.2,0.5,0.2,0.8,0.2c0.5,0,1-0.3,1.3-0.7l0.4-0.7c0.5-0.7,0.2-1.7-0.5-2.1c-0.7-0.5-1.7-0.2-2.2,0.5  l-0.4,0.7C66.4,13.9,66.6,14.9,67.3,15.4z"></path><path d="M63.1,22.1c-0.7-0.5-1.7-0.2-2.2,0.5L60.2,24c-0.5,0.7-0.2,1.7,0.5,2.1c0.3,0.2,0.5,0.2,0.8,0.2c0.5,0,1-0.3,1.3-0.7  l0.8-1.3C64.1,23.6,63.9,22.6,63.1,22.1z"></path><path d="M59.8,27.5c-0.7-0.5-1.7-0.2-2.2,0.5l-0.8,1.3c-0.5,0.7-0.2,1.7,0.5,2.2c0.3,0.2,0.5,0.2,0.8,0.2c0.5,0,1-0.3,1.3-0.7  l0.8-1.3C60.8,29,60.5,28,59.8,27.5z"></path><path d="M56.1,36.4l0.8-1.3c0.5-0.7,0.2-1.7-0.5-2.1c-0.7-0.5-1.7-0.2-2.2,0.5l-0.8,1.3c-0.5,0.7-0.2,1.7,0.5,2.1  c0.3,0.2,0.5,0.2,0.8,0.2C55.3,37.2,55.8,36.9,56.1,36.4z"></path><path d="M50.6,42.3c0.3,0.2,0.5,0.2,0.8,0.2c0.5,0,1-0.3,1.3-0.7l0.8-1.3c0.5-0.7,0.2-1.7-0.5-2.2c-0.7-0.5-1.7-0.2-2.2,0.5  l-0.8,1.3C49.7,40.9,49.9,41.9,50.6,42.3z"></path><path d="M64.8,21c0.5,0,1-0.3,1.3-0.7l0.8-1.3c0.5-0.7,0.2-1.7-0.5-2.1c-0.7-0.5-1.7-0.2-2.2,0.5l-0.8,1.3c-0.5,0.7-0.2,1.7,0.5,2.1  C64.3,20.9,64.5,21,64.8,21z"></path><path d="M20.7,44.6L20.7,44.6c0.2,0.1,0.4,0.1,0.6,0.1c0.6,0,1.2-0.4,1.5-1c0.3-0.8-0.1-1.7-0.9-2l-1.5-0.5c0,0,0,0,0,0l-0.1-0.1  c-0.8-0.3-1.7,0.1-2,0.9c-0.3,0.8,0.1,1.7,0.9,2L20.7,44.6C20.7,44.6,20.7,44.6,20.7,44.6z"></path><path d="M61.5,46c0.2,0.6,0.8,1,1.5,1c0.2,0,0.4,0,0.5-0.1l0.3-0.1c0,0,0,0,0,0l1.5-0.5c0.8-0.3,1.2-1.2,0.9-2  c-0.3-0.8-1.2-1.2-2-0.9L64,43.4c0,0,0,0,0,0L62.4,44C61.6,44.3,61.2,45.2,61.5,46z"></path><path d="M50.5,51.6c0.2,0,0.4,0,0.5-0.1l0.9-0.3c0,0,0,0,0,0l1.5-0.5c0.8-0.3,1.2-1.2,0.9-2c-0.3-0.8-1.2-1.2-2-0.9L51.6,48  c0,0,0,0,0,0L50,48.5c-0.8,0.3-1.2,1.2-0.9,2C49.3,51.2,49.9,51.6,50.5,51.6z"></path><path d="M56.7,49.3c0.2,0,0.4,0,0.5-0.1l0.6-0.2c0,0,0,0,0,0l1.5-0.5c0.8-0.3,1.2-1.2,0.9-2c-0.3-0.8-1.2-1.2-2-0.9l-0.5,0.2  c0,0,0,0,0,0l-1.5,0.6c-0.8,0.3-1.2,1.2-0.9,2C55.5,48.9,56.1,49.3,56.7,49.3z"></path><path d="M8.9,28c-0.9,0-1.6,0.7-1.6,1.6s0.7,1.6,1.6,1.6h5.6c0.2,0,0.4,0,0.5-0.1c0.1,0,0.1,0,0.1-0.1c0.1-0.1,0.2-0.1,0.3-0.2  c0,0,0.1-0.1,0.1-0.1c0.1-0.1,0.2-0.3,0.3-0.4c0,0,0,0,0,0c0,0,0,0,0,0c0.1-0.2,0.1-0.4,0.1-0.5c0,0,0,0,0-0.1v-5.3  c0-0.9-0.7-1.6-1.6-1.6S13,23.4,13,24.2v1.6L2.7,15.5c-0.6-0.6-1.6-0.6-2.2,0s-0.6,1.6,0,2.2L10.8,28H8.9z"></path><path d="M91.5,12.8L87.7,9c-0.6-0.6-1.6-0.6-2.2,0L66.3,28.2c-0.1,0.1-0.1,0.2-0.2,0.3c0,0.1-0.1,0.1-0.1,0.2l-2.6,6.3  c-0.2,0.6-0.1,1.2,0.3,1.7c0.3,0.3,0.7,0.5,1.1,0.5c0.2,0,0.4,0,0.6-0.1l6.3-2.6c0,0,0,0,0,0c0.1-0.1,0.2-0.1,0.4-0.2  c0,0,0.1-0.1,0.2-0.1L91.5,15C92.1,14.4,92.1,13.4,91.5,12.8z M68,32.1l0.4,0.4l-0.7,0.3L68,32.1z M71.2,30.9l-1.5-1.5l17-17  l1.5,1.5L71.2,30.9z"></path></svg>