<svg height='100px' width='100px'  fill="#ffffff" xmlns="http://www.w3.org/2000/svg" xmlns:xlink="http://www.w3.org/1999/xlink" version="1.1" x="0px" y="0px" viewBox="0 0 67 67" style="enable-background:new 0 0 67 67;" xml:space="preserve"><g><path d="M35.9,24.5c-0.1,0.6-0.2,1.2-0.3,1.8c0.2-0.4,0.3-0.9,0.3-1.4C35.9,24.7,35.9,24.6,35.9,24.5z"></path><path d="M60.4,43.6V27.4c0-6.4-5.2-11.4-11.4-11.4c-6.3,0-11.4,5.1-11.4,11.4v16.2c-3.2,1.5-5.3,4.8-5.3,8.5v2.5c0,0.5,0.5,1,1,1   h31.5c0.6,0,1-0.5,1-1v-2.5C65.7,48.1,63.4,44.8,60.4,43.6z M48.9,46.5c-0.1-0.1-3.1-3.1-3.3-3.3l0.3-2c1,0.4,2,0.6,3.1,0.6   c1.1,0,2.1-0.2,3.1-0.6l0.3,2C52.3,43.3,49.1,46.3,48.9,46.5z M43.2,30.7c0-2.2,1.2-2.9,2.9-3.8c1-0.5,2-1.1,2.9-2.1   c0.9,1,1.9,1.5,2.9,2.1c1.7,0.9,2.9,1.6,2.9,3.8v3.8c-0.2,3-2.8,5.4-5.8,5.4c-3.1,0-5.7-2.4-5.8-5.3V30.7z"></path><path d="M46,35.3c0.1,1.6,1.4,2.8,3,2.8c1.6,0,2.9-1.3,3-2.8H46z"></path><g><path d="M33.3,28.2c1-0.3,1.9-1,2.3-2c0.2-0.4,0.3-0.9,0.3-1.4c0-0.1,0-0.3,0-0.4c-0.2-1.4-1.2-2.6-2.5-3    c0-5.6-4.6-10.1-10.2-10.1c-5.6,0-10.1,4.5-10.1,10.1c-1.5,0.4-2.5,1.8-2.5,3.4c0,1.6,1.1,3,2.6,3.4c0.3,2.7,1.6,5.1,3.7,6.8v0.7    l-0.4,1.8c-0.6-0.1-1.2,0-1.7,0.3c0,0,0,0,0,0c-0.7,0.4-2.3,1.1-4.3,1.6c-0.3,0-0.7,0.1-1,0.3c-4.8,1.5-8.2,6.3-8.2,11.5v3.4    c0,0.5,0.5,1,1,1h28.2c-0.1-0.3-0.2-0.6-0.2-1v-2.5c0-4,2-7.6,5.3-9.7v-3.1c-1.7-0.4-3-1-3.9-1.5c-0.5-0.3-1.1-0.4-1.7-0.3    l-0.4-1.8V35C31.7,33.4,33,30.9,33.3,28.2z M23.1,43.2l-4.8-4.8l0.5-1.9c0.8,1.6,2.5,2.8,4.5,2.8c2,0,3.6-1.1,4.5-2.8l0.4,1.8    L23.1,43.2z M20.7,31c0-0.1,0-0.2,0.1-0.3c0.1-0.1,0.2-0.1,0.3-0.1h4.3c0.1,0,0.2,0,0.3,0.1c0.1,0.1,0.1,0.2,0.1,0.3    c-0.1,1.3-1.2,2.4-2.5,2.4C21.9,33.3,20.8,32.3,20.7,31z M28.3,33.5v-1.3c0-2.8-2.3-5.1-5.1-5.1c-2.8,0-5.1,2.3-5.1,5.1v1.3    c-1.9-1.5-3.1-3.8-3.1-6.2v-5.7c0-4.5,3.6-8.1,8.1-8.1c4.5,0,8.2,3.7,8.2,8.1c0,0.1,0,5.7,0,5.7C31.4,29.7,30.2,32,28.3,33.5z"></path><circle cx="19.2" cy="23.9" r="1.2"></circle><path d="M27.3,25.1c0.7,0,1.2-0.6,1.2-1.2c0-0.7-0.5-1.2-1.2-1.2c-0.7,0-1.2,0.5-1.2,1.2C26.1,24.5,26.6,25.1,27.3,25.1z"></path></g><path d="M46.9,31.3c0-0.5-0.4-0.9-0.9-0.9s-0.9,0.4-0.9,0.9s0.4,0.9,0.9,0.9S46.9,31.8,46.9,31.3z"></path><path d="M52.1,30.4c-0.5,0-0.9,0.4-0.9,0.9s0.4,0.9,0.9,0.9s0.9-0.4,0.9-0.9S52.5,30.4,52.1,30.4z"></path></g></svg>