<svg height='100px' width='100px'  fill="#ffffff" xmlns="http://www.w3.org/2000/svg" xmlns:xlink="http://www.w3.org/1999/xlink" version="1.1" x="0px" y="0px" viewBox="0 0 50 50" enable-background="new 0 0 50 50" xml:space="preserve"><g><path fill-rule="evenodd" clip-rule="evenodd" d="M13.28,29.156h4.994l2.662,11.692h-3.632l-2.594-7.518H8.634V19.942h4.645V29.156   z M31.726,29.156h4.993v-9.213h4.645v13.387H35.29l-2.595,7.518h-3.631L31.726,29.156z M20.854,27.743l8.204-0.001l-2.319,13.105   h-3.565L20.854,27.743z M10.956,11.894c1.751,0,3.17,1.419,3.17,3.171c0,1.751-1.419,3.171-3.17,3.171   c-1.751,0-3.171-1.419-3.171-3.171C7.786,13.313,9.205,11.894,10.956,11.894z M24.957,9.153c1.751,0,3.17,1.419,3.17,3.171   c0,1.751-1.419,3.171-3.17,3.171c-1.751,0-3.17-1.419-3.17-3.171C21.787,10.572,23.206,9.153,24.957,9.153z M16.115,24.294h17.652   v2.364H16.115V24.294z M27.76,16.709l2.952,1.122v5.379H19.2v-5.378l2.941-1.122l2.816,3.262L27.76,16.709z M50,50V0H0v50H50z    M35.872,15.064c0-1.751,1.419-3.171,3.17-3.171c1.751,0,3.17,1.419,3.17,3.171c0,1.751-1.419,3.171-3.17,3.171   C37.291,18.235,35.872,16.816,35.872,15.064z"></path></g></svg>