<svg height='100px' width='100px'  fill="#ffffff" xmlns="http://www.w3.org/2000/svg" xmlns:xlink="http://www.w3.org/1999/xlink" version="1.1" x="0px" y="0px" viewBox="0 0 64 64" style="enable-background:new 0 0 64 64;" xml:space="preserve"><g><path d="M53,14c0-0.462-0.113-0.894-0.301-1.285l2.008-2.008l-1.414-1.414l-2.008,2.008C50.894,11.113,50.462,11,50,11   s-0.894,0.113-1.285,0.301l-3.008-3.008l-1.414,1.414l3.008,3.008C47.113,13.106,47,13.538,47,14c0,1.654,1.346,3,3,3   S53,15.654,53,14z M50,15c-0.551,0-1-0.448-1-1s0.449-1,1-1s1,0.448,1,1S50.551,15,50,15z"></path><path d="M57.872,39.679C58.609,37.196,59,34.619,59,32s-0.391-5.196-1.128-7.679C60.982,21.944,63,18.208,63,14   c0-7.168-5.832-13-13-13c-4.207,0-7.943,2.018-10.321,5.127C37.193,5.391,34.617,5,32,5C17.112,5,5,17.112,5,32   c0,2.619,0.391,5.196,1.128,7.679C3.018,42.056,1,45.792,1,50c0,7.168,5.832,13,13,13c4.208,0,7.943-2.018,10.321-5.127   C26.807,58.609,29.383,59,32,59s5.193-0.391,7.679-1.127C42.057,60.982,45.792,63,50,63c7.168,0,13-5.832,13-13   C63,45.792,60.982,42.056,57.872,39.679z M60.949,51c-0.207,2.283-1.111,4.366-2.502,6.034l-1.377-1.377l-1.414,1.414l1.377,1.377   c-1.667,1.391-3.751,2.294-6.034,2.501V59h-2v1.949c-2.283-0.207-4.366-1.111-6.034-2.501l1.377-1.377l-1.414-1.414l-1.377,1.377   c-1.391-1.667-2.295-3.751-2.502-6.034H41v-2h-1.949c0.207-2.283,1.111-4.366,2.502-6.034l1.377,1.377l1.414-1.414l-1.377-1.377   c1.667-1.391,3.751-2.294,6.034-2.501V41h2v-1.949c2.283,0.207,4.366,1.111,6.034,2.501l-1.377,1.377l1.414,1.414l1.377-1.377   c1.391,1.667,2.295,3.751,2.502,6.034H59v2H60.949z M49,23v1.949c-2.283-0.207-4.366-1.111-6.034-2.501l1.377-1.377l-1.414-1.414   l-1.377,1.377c-1.391-1.667-2.295-3.751-2.502-6.034H41v-2h-1.949c0.207-2.283,1.111-4.366,2.502-6.034l1.377,1.377l1.414-1.414   l-1.377-1.377C44.634,4.161,46.717,3.258,49,3.051V5h2V3.051c2.283,0.207,4.366,1.111,6.034,2.501l-1.377,1.377l1.414,1.414   l1.377-1.377c1.391,1.667,2.295,3.751,2.502,6.034H59v2h1.949c-0.207,2.283-1.111,4.366-2.502,6.034l-1.377-1.377l-1.414,1.414   l1.377,1.377c-1.667,1.391-3.751,2.294-6.034,2.501V23H49z M37,14c0,4.63,2.441,8.692,6.096,10.995   c-0.014,0-0.027,0.005-0.04,0.005h-0.722c-0.646,0-1.285-0.213-1.8-0.6L38.667,23c-0.859-0.645-1.925-1-3-1h-2.333   c-0.646,0-1.285-0.213-1.8-0.6L29.667,20c-0.859-0.645-1.925-1-3-1h-3.048C23.277,19,23,18.723,23,18.382   c0-0.096,0.022-0.191,0.065-0.276l0.954-1.908c0.417-0.834,1.181-1.418,2.094-1.601l0.468-0.093   c1.985-0.397,3.525-1.938,3.922-3.922l0.052-0.261c0.2-0.998,0.883-1.819,1.828-2.197l2.384-0.954   c1.275,0.141,2.533,0.377,3.768,0.711C37.558,9.706,37,11.789,37,14z M7,32c0-2.43,0.355-4.777,1.005-7h1.39   c0.67,0,1.292,0.333,1.664,0.891l0.466,0.699c0.553,0.83,1.391,1.42,2.358,1.661l1.75,0.438c0.483,0.12,0.902,0.415,1.179,0.83   l0.466,0.699C18.021,31.334,19.265,32,20.605,32h1.486c0.396,0,0.779,0.116,1.109,0.336l1.472,0.981   C24.878,33.454,25,33.682,25,33.928c0,0.28-0.156,0.532-0.405,0.657l-1.396,0.697c-1.307,0.654-2.26,1.843-2.615,3.261   l-0.058,0.232C18.605,37.654,16.38,37,14,37c-2.211,0-4.294,0.558-6.119,1.536C7.308,36.414,7,34.225,7,32z M24.949,51   c-0.207,2.283-1.111,4.366-2.502,6.034l-1.377-1.377l-1.414,1.414l1.377,1.377c-1.667,1.391-3.751,2.294-6.034,2.501V59h-2v1.949   c-2.283-0.207-4.366-1.111-6.034-2.501l1.377-1.377l-1.414-1.414l-1.377,1.377C4.161,55.366,3.258,53.283,3.051,51H5v-2H3.051   c0.207-2.283,1.111-4.366,2.502-6.034l1.377,1.377l1.414-1.414l-1.377-1.377c1.667-1.391,3.751-2.294,6.034-2.501V41h2v-1.949   c2.283,0.207,4.366,1.111,6.034,2.501l-1.377,1.377l1.414,1.414l1.377-1.377c1.391,1.667,2.295,3.751,2.502,6.034H23v2H24.949z    M25.464,56.118C26.442,54.293,27,52.211,27,50c0-4.023-1.838-7.624-4.716-10.01l0.24-0.962c0.213-0.851,0.785-1.563,1.568-1.956   l1.396-0.697C26.421,35.907,27,34.97,27,33.928c0-0.916-0.456-1.767-1.218-2.274l-1.472-0.981C23.65,30.232,22.883,30,22.092,30   h-1.486c-0.67,0-1.292-0.333-1.664-0.891l-0.466-0.699c-0.553-0.83-1.391-1.42-2.358-1.661l-1.75-0.438   c-0.483-0.12-0.902-0.415-1.179-0.83l-0.466-0.699C11.979,23.666,10.735,23,9.395,23H8.683C12.11,14.15,20.433,7.725,30.314,7.063   c-0.873,0.721-1.491,1.72-1.72,2.865l-0.052,0.261c-0.238,1.191-1.162,2.115-2.352,2.354l-0.468,0.093   c-1.524,0.305-2.796,1.277-3.492,2.667l-0.954,1.908C21.096,17.572,21,17.978,21,18.382C21,19.825,22.174,21,23.618,21h3.048   c0.646,0,1.285,0.213,1.8,0.6l1.866,1.4c0.859,0.645,1.925,1,3,1h2.333c0.646,0,1.285,0.213,1.8,0.6l1.866,1.4   c0.859,0.645,1.925,1,3,1h0.722c0.771,0,1.545-0.183,2.237-0.527l0.424-0.213C47.06,26.731,48.498,27,50,27   c2.211,0,4.294-0.558,6.119-1.536C56.692,27.586,57,29.775,57,32c0,1.099-0.088,2.188-0.229,3.267l-2.982-1.491   c-2.03-1.016-4.548-1.016-6.578,0l-1.316,0.658c-1.479,0.74-3.311,0.74-4.789,0l-2.316-1.158C38.427,33.096,38.022,33,37.618,33   C36.174,33,35,34.175,35,35.618c0,0.359,0.058,0.716,0.174,1.066c0.101,0.301-0.051,0.518-0.121,0.597   c-0.069,0.079-0.258,0.258-0.577,0.194l-2.104-0.421C32.19,37.019,32.005,37,31.82,37C30.265,37,29,38.265,29,39.819   c0,1.054,0.503,2.059,1.344,2.688l2.181,1.636C32.822,44.367,33,44.722,33,45.094c0,0.313-0.127,0.619-0.348,0.84l-0.458,0.459   C31.424,47.161,31,48.186,31,49.274c0,0.629,0.149,1.259,0.43,1.822l2.89,5.78C31.352,57.149,28.34,56.891,25.464,56.118z    M36.415,56.593l-3.195-6.391C33.076,49.915,33,49.595,33,49.274c0-0.555,0.216-1.076,0.608-1.468l0.458-0.459   C34.668,46.746,35,45.945,35,45.094c0-0.998-0.477-1.951-1.275-2.55l-2.181-1.637C31.203,40.652,31,40.246,31,39.819   c0-0.507,0.488-0.908,0.98-0.804l2.104,0.421c0.921,0.183,1.846-0.127,2.468-0.832c0.623-0.706,0.817-1.66,0.518-2.557   c-0.046-0.14-0.07-0.284-0.07-0.43c0-0.436,0.503-0.75,0.895-0.553l2.316,1.158c2.03,1.016,4.548,1.016,6.578,0l1.316-0.658   c1.479-0.74,3.311-0.74,4.789,0l3.521,1.76c-0.088,0.406-0.189,0.809-0.297,1.211C54.294,37.558,52.211,37,50,37   c-7.168,0-13,5.832-13,13c0,2.211,0.558,4.293,1.536,6.118C37.836,56.306,37.129,56.466,36.415,56.593z"></path><path d="M51.285,47.301C50.894,47.113,50.462,47,50,47s-0.894,0.113-1.285,0.301l-2.008-2.008l-1.414,1.414l2.008,2.008   C47.113,49.106,47,49.538,47,50c0,1.654,1.346,3,3,3s3-1.346,3-3c0-0.462-0.113-0.894-0.301-1.285l3.008-3.008l-1.414-1.414   L51.285,47.301z M50,51c-0.551,0-1-0.448-1-1s0.449-1,1-1s1,0.448,1,1S50.551,51,50,51z"></path><path d="M17,50c0-1.654-1.346-3-3-3c-0.462,0-0.894,0.113-1.285,0.301l-3.008-3.008l-1.414,1.414l3.008,3.008   C11.113,49.106,11,49.538,11,50c0,1.654,1.346,3,3,3c0.462,0,0.894-0.113,1.285-0.301l2.008,2.008l1.414-1.414l-2.008-2.008   C16.887,50.894,17,50.462,17,50z M14,51c-0.551,0-1-0.448-1-1s0.449-1,1-1s1,0.448,1,1S14.551,51,14,51z"></path></g></svg>