<svg height='100px' width='100px'  fill="#ffffff" xmlns="http://www.w3.org/2000/svg" xmlns:xlink="http://www.w3.org/1999/xlink" version="1.1" x="0px" y="0px" viewBox="0 0 100 100" enable-background="new 0 0 100 100" xml:space="preserve"><path d="M73.158,54.396c-2.093-0.42-3.457-2.48-3.033-4.599c0.427-2.121,2.475-3.494,4.57-3.074  c2.098,0.421,3.455,2.473,3.03,4.596C77.302,53.436,75.258,54.815,73.158,54.396"></path><path d="M98.603,80.919c-0.025-0.038-0.048-0.075-0.082-0.116c0,0-19.798-23.654-19.803-23.658c-1.36-1.465-2.624-1.787-3.677-1.787  H57.315l0.014-10.482l3.553,4.063c0,0,6.767-1.876,10.619-6.04c6.651-7.192,5.623-19.366,5.623-19.366S65.36,12.289,56.509,12.289  c-5.429,0-11.871,4.286-11.871,4.286s-2.29-1.948-4.789-1.948c-0.532,0-0.723,0-0.792,0c0,0-0.001,0-0.041,0  c-0.072,0-0.261,0-0.794,0c-2.499,0-4.79,1.948-4.79,1.948s-6.439-4.286-11.868-4.286c-8.851,0-20.616,11.245-20.616,11.245  s-1.028,12.173,5.623,19.366c3.852,4.163,10.62,6.04,10.62,6.04l3.554-4.063l-0.013,39.958h13.744V65.227l2.343,19.579h4.451  l2.328-19.581v19.608h13.679l0.033-25.383h12.323l8.614,8.44l-6.489,3.403c-1.117,0.585-1.604,1.925-1.12,3.089l3.702,8.945  c0.388,0.938,1.295,1.505,2.251,1.505c0.311,0,0.626-0.06,0.931-0.186c1.243-0.516,1.833-1.939,1.319-3.183l-2.664-6.437  l7.256-2.117l11.521,11.201c0.473,0.457,1.084,0.686,1.693,0.686c0.637,0,1.272-0.248,1.751-0.741  C99.239,83.188,99.297,81.859,98.603,80.919z M29.478,27.161c1.044,0,1.889,0.847,1.889,1.89c0,1.042-0.845,1.89-1.889,1.89  s-1.89-0.847-1.89-1.89C27.588,28.008,28.434,27.161,29.478,27.161z M33.331,65.648c-0.556,0.438-1.562-0.207-1.562-0.207  s-3.347-2.079-4.479-6.249c-0.987-3.643-0.728-13.119-0.728-13.119h4.789c0,0-0.173,11.872,0.208,14.162  c0.365,2.185,1.872,3.903,1.872,3.903S34.058,65.075,33.331,65.648z M48.595,27.161c1.045,0,1.889,0.847,1.889,1.89  c0,1.042-0.844,1.89-1.889,1.89c-1.04,0-1.888-0.847-1.888-1.89C46.707,28.008,47.555,27.161,48.595,27.161z M50.783,59.192  c-1.133,4.17-4.478,6.249-4.478,6.249s-1.004,0.646-1.561,0.207c-0.729-0.573-0.107-1.51-0.107-1.51s1.512-1.719,1.875-3.903  c0.381-2.29,0.208-14.162,0.208-14.162h4.791C51.512,46.073,51.772,55.55,50.783,59.192z"></path></svg>