<svg height='100px' width='100px'  fill="#ffffff" xmlns="http://www.w3.org/2000/svg" xmlns:xlink="http://www.w3.org/1999/xlink" version="1.1" x="0px" y="0px" viewBox="0 0 32 32" style="enable-background:new 0 0 32 32;" xml:space="preserve"><path d="M19.3365135,2.491564c-3.8916006-1.109375-7.921874-0.0273438-10.5087881,2.8271487  C6.0992093,8.330431,5.4800687,12.689806,7.1734281,16.9817982c0.5595703,1.4169922,0.40625,3.4970703,0.1992188,4.296875  c-0.7004395,2.7235107-0.0687866,4.0236206,0.4689331,4.6083984l-0.4237671,0.9418335L6.117764,27.08922  c-0.40625,0.0810547-0.6689453,0.4765625-0.5878906,0.8828125c0.0712891,0.3564453,0.3847656,0.6025391,0.734375,0.6025391  c0.0488281,0,0.0986328-0.0048828,0.1484375-0.0146484l0.821228-0.1644287l0.038147,0.8314209  c0.0185547,0.4023438,0.3496094,0.7158203,0.7480474,0.7158203c0.0117188,0,0.0234375,0,0.0351562-0.0009766  c0.4140625-0.0185547,0.734375-0.3691406,0.7148438-0.7832031l-0.0699463-1.5258789l0.4785156-1.0634766  c0.0818481,0.0090942,0.1628418,0.0219727,0.2467041,0.0219727c0.2822266,0,0.5751953-0.0517578,0.8691406-0.1572266  c1.3662109-0.4921875,2.4208984-2.0195312,2.6855469-3.8896484c0.1533203-1.0712891,0.0537109-2.7480469-0.1259766-3.7109375  c0.1904297,0.1318359,0.3886719,0.2548828,0.59375,0.3671875c2.6025381,1.4306641,5.6191397,1.5527344,8.2763662,0.3369141  c2.3251953-1.0654297,4.0507812-3.0537109,4.5029297-5.1875C27.2124901,9.705431,25.4634666,4.237658,19.3365135,2.491564z   M24.7603416,14.0394154c-0.3564453,1.6787109-1.7587891,3.2626953-3.6611328,4.1337891  c-2.2226562,1.0185547-4.7470703,0.9130859-6.92871-0.2871094c-1.0087891-0.5546875-1.8066406-1.4287109-2.3193359-2.5097656  c0-0.0019531-0.0009766-0.0039062-0.0019531-0.0068359c-0.0175781-0.0517578-0.0400391-0.1005859-0.0673828-0.1455078  c-0.2412109-0.5478516-0.4121094-1.1445312-0.5019531-1.7773438c-0.265625-1.8681641,0.2529297-3.7128906,1.3544922-4.8144531  c2.0380859-2.0380855,5.3554678-2.0361323,7.3916006,0c0.7617188,0.7617188,1.1806641,1.7734375,1.1806641,2.8505859  s-0.4189453,2.0888672-1.1806641,2.8505859c-1.1992188,1.1982422-3.1494141,1.1982422-4.3486319,0  c-0.8925781-0.8925781-0.8828125-2.3066406,0.0214844-3.2890625c0.5283194-0.5742188,1.1796865-0.2861328,1.4482412-0.0537109  c0.1767578,0.1513672,0.5419922,0.5615234,0.1191406,1.0878906c-0.2587891,0.3232422-0.2080078,0.7949219,0.1152344,1.0546875  c0.3232422,0.2587891,0.7949219,0.2089844,1.0546875-0.1152344c0.8105469-1.0087891,0.6826172-2.3105469-0.3105469-3.1650391  c-0.9121094-0.7841797-2.4580069-0.9882812-3.5302725,0.1757812c-1.4365234,1.5595703-1.4267578,3.9169922,0.0214844,5.3652344  c1.7832022,1.7832031,4.6865225,1.7832031,6.4697256,0c1.0449219-1.0449219,1.6201172-2.4335938,1.6201172-3.9111328  s-0.5751953-2.8662109-1.6201172-3.9111323c-2.6220703-2.6220703-6.8886709-2.6230469-9.5126944,0  c-1.4501953,1.4501948-2.1152344,3.7246089-1.7792969,6.085937c0.1162109,0.8144531,0.3417969,1.5830078,0.6650391,2.2851562  c0.4472656,1.3232422,0.7568359,2.3144531,0.9150391,3.1376953c0.1582031,0.8251953,0.2470703,2.3642578,0.1210938,3.2529297  c-0.0186157,0.1314697-0.0469971,0.2527466-0.0740356,0.3753662c-0.2050781-0.0921021-0.4437866-0.102478-0.6574097,0.0133057  c-0.3652344,0.1962891-0.5009766,0.6503906-0.3046875,1.015625l0.0117188,0.0214844c0,0.0009766,0,0.0009766,0.0009766,0.0019531  c0,0.0009766,0,0.0009766,0,0.0009766c0.0009766,0.0009766,0.0009766,0.0009766,0.0009766,0.0009766v0.0009766  c0,0,0.0009766,0,0.0009766,0.0009766s0,0.0009766,0.0009766,0.0009766v0.0009766  c0.0009766,0,0.0009766,0.0019531,0.0009766,0.0009766c0,0.0009766,0,0.0009766,0,0.0009766s0,0.0009766,0.0009766,0.0009766  c0,0,0,0,0,0.0009766c0.0009766,0.0009766,0.0009766,0.0009766,0.0009766,0.0009766c0,0.0009766,0,0.0009766,0,0.0009766  l0.0009766,0.0009766c0.0879517,0.1553345,0.229248,0.2480469,0.3838501,0.3085938  c-0.3220215,0.4881592-0.7125244,0.8091431-1.0772095,0.9404297c-0.2275391,0.0810547-0.546875,0.1279297-0.7949219-0.0976562  c-0.2606201-0.2374268-0.4534302-0.7827148-0.4192505-1.6583252c0.0576172,0.013855,0.1105347,0.0450439,0.1702271,0.0450439  c0.1201172,0,0.2412109-0.0283203,0.3544922-0.0898438c0.3652344-0.1962891,0.5009766-0.6503906,0.3046875-1.015625  l-0.0117188-0.0214844c0-0.0009766,0-0.0009766-0.0009766-0.0019531c0-0.0009766,0-0.0009766,0-0.0009766  c-0.0009766-0.0009766-0.0009766-0.0009766-0.0009766-0.0009766v-0.0009766c0,0-0.0009766,0-0.0009766-0.0009766  s0-0.0009766-0.0009766-0.0009766v-0.0009766c0-0.0009766-0.0009766-0.0009766-0.0009766-0.0009766  c0-0.0009766,0-0.0009766,0-0.0009766s0-0.0009766-0.0009766-0.0009766c0,0,0,0,0-0.0009766  c-0.0009766-0.0009766-0.0009766-0.0009766-0.0009766-0.0009766c0-0.0009766,0-0.0009766,0-0.0009766l-0.0009766-0.0009766  c-0.1264038-0.2227783-0.3517456-0.3440552-0.5895996-0.3648071c0.0126953-0.0524902,0.0200806-0.098938,0.0339355-0.152771  c0.2324219-0.9013672,0.4765625-3.3642578-0.2578125-5.2216797C7.0894437,12.68297,7.602139,8.9056263,9.9400301,6.3265252  c1.625-1.7939453,3.9277344-2.761719,6.3681631-2.761719c0.8632812,0,1.7441406,0.1210938,2.6181641,0.3701172  C24.1216698,5.4153924,25.6001854,10.0765247,24.7603416,14.0394154z"></path></svg>