<svg height='100px' width='100px'  fill="#ffffff" xmlns="http://www.w3.org/2000/svg" xmlns:xlink="http://www.w3.org/1999/xlink" version="1.1" x="0px" y="0px" viewBox="0 0 69.961 100" enable-background="new 0 0 69.961 100" xml:space="preserve"><g><path d="M65.28,93.858c-2.293-1.022-3.769-2.746-4.297-3.437c0.318-2.769,1.622-14.848,0.593-18.553   c-0.761-2.736-2.855-6.052-5.074-9.562c-2.775-4.394-5.924-9.374-5.734-12.574c0.361-6.121-0.45-11.623-1.541-16   c0.965,1.007,2.001,1.798,3.067,2.164c1.114,0.382,2.223,0.295,3.21-0.256c4.779-2.666,9.621-8.061,10.522-9.091   c3.647-1.743,3.831-4.001,3.601-5.209c-0.41-2.164-2.661-3.999-4.25-4.078c-1.837-0.083-3.198,0.41-4.043,1.485   c-0.934,1.188-0.916,2.692-0.786,3.626c-0.798,0.562-1.681,1.375-2.604,2.227c-0.931,0.859-2.424,2.238-3.146,2.548   c-0.312-0.669-0.624-1.368-0.941-2.078c-2.432-5.447-5.458-12.224-11.515-10.032c-1.312,0.475-2.795,0.997-4.354,1.544   c1.063-1.858,1.601-4.131,1.523-6.497C39.329,4.431,35.751,0,31.368,0l-0.207,0.003c-2.204,0.071-4.217,1.256-5.67,3.336   c-1.384,1.981-2.099,4.562-2.011,7.267c0.139,4.281,2.223,7.855,5.128,9.342c-1.986,0.749-3.829,1.481-5.323,2.156   c-2.619,1.184-7.002,3.165-5.288,11.639c0.88,4.355,0.691,5.375,0.518,5.581c0,0-0.059,0.032-0.189,0.021   c-2.001-0.01-8.155-1.736-10.644-2.484c-0.693-0.576-2.882-2.197-4.897-1.598c-0.832,0.247-1.938,0.971-2.479,3.017   c-0.651,2.462-0.252,4.456,1.095,5.471c0.582,0.438,1.279,0.655,2.048,0.655c0.786,0,1.649-0.241,2.54-0.692   c2.235,0.912,10.204,4.016,15.145,4.016c1.06,0,1.98-0.144,2.674-0.482c0.799-0.392,1.335-1.021,1.551-1.822   c0.445-1.654,0.55-3.886,0.497-6.127c1.397,4.427,2.723,9.576,2.54,12.722c-0.143,2.458-1.832,6.13-3.465,9.682   c-1.783,3.876-3.467,7.537-3.65,10.39c-0.292,4.563,3.043,15.859,3.852,18.515c-1.002,1.363-3.25,4.751-2.748,7.107   c0.177,0.835,0.67,1.485,1.425,1.885c0.508,0.267,1.083,0.399,1.7,0.399c1.264,0,2.706-0.551,4.111-1.607   c2.381-1.789,4.862-5.331,4.016-9.425c-0.207-0.998-0.526-2.379-0.883-3.921c-0.941-4.063-2.364-10.206-2.155-11.714   c0.435-3.138,5.586-11.871,9.348-13.097c0.769-0.25,1.344-0.129,1.854,0.4c7.305,7.567,11.985,13.797,10.498,30.648   c-0.129,0.481-0.398,1.932,0.456,3.535c0.933,1.748,2.847,3.021,5.688,3.784c3.482,0.935,8.212,1.884,9.109-0.653   C68.138,96.3,66.413,94.363,65.28,93.858z M25.693,10.535c-0.072-2.23,0.5-4.335,1.613-5.927c1.043-1.494,2.438-2.343,3.927-2.391   l0.135-0.002c3.128,0,5.788,3.563,5.93,7.944c0.072,2.229-0.5,4.334-1.612,5.927c-1.043,1.493-2.438,2.343-3.926,2.391   l-0.135,0.002C28.496,18.479,25.835,14.915,25.693,10.535z M59.017,96.466c-2.169-0.582-3.65-1.498-4.286-2.647   c-0.57-1.03-0.298-1.946-0.291-1.97c0.029-0.084,0.047-0.171,0.055-0.259c1.598-17.83-3.594-24.714-11.101-32.491   c-1.111-1.151-2.541-1.486-4.133-0.968c-4.85,1.58-10.327,11.081-10.857,14.897c-0.245,1.773,0.8,6.51,2.191,12.519   c0.353,1.522,0.668,2.884,0.872,3.869c0.595,2.882-1.167,5.695-3.177,7.206c-1.306,0.982-2.722,1.405-3.448,1.019   c-0.172-0.091-0.252-0.195-0.292-0.386c-0.269-1.261,1.404-4.119,2.679-5.746c0.225-0.287,0.294-0.667,0.186-1.014   c-0.042-0.135-4.223-13.587-3.923-18.261c0.156-2.441,1.831-6.083,3.451-9.604c1.799-3.91,3.498-7.604,3.665-10.48   c0.399-6.863-5.421-21.46-5.669-22.079c-0.228-0.567-0.872-0.843-1.44-0.615c-0.489,0.196-0.74,0.704-0.659,1.204l-0.021,0.003   c0.016,0.097,1.585,9.789,0.402,14.189c-0.035,0.131-0.106,0.271-0.386,0.408c-2.5,1.224-11.431-1.672-16.472-3.787l-0.007,0.018   c-0.313-0.131-0.675-0.135-0.989,0.053c-1.104,0.66-2.112,0.83-2.631,0.438C2.16,41.55,2.05,40.349,2.447,38.848   c0.153-0.58,0.445-1.304,0.966-1.46c0.882-0.261,2.389,0.755,2.981,1.288l0.184,0.166l0.237,0.072   c0.886,0.27,8.738,2.633,11.499,2.648c1.049,0.028,1.585-0.441,1.894-0.816c0.89-1.082,0.88-2.89-0.04-7.441   c-1.364-6.744,1.502-8.039,4.03-9.182c3.522-1.591,9.069-3.536,13.962-5.252c1.774-0.622,3.461-1.214,4.937-1.748   c3.82-1.387,6.032,2.794,8.737,8.852c0.36,0.805,0.713,1.595,1.067,2.346c0.273,0.578,0.744,0.958,1.324,1.07   c1.424,0.272,2.906-1.022,5.221-3.162c1.051-0.97,2.137-1.974,2.838-2.334c0.035-0.018,0.057-0.05,0.09-0.071   c0.065-0.043,0.124-0.088,0.179-0.143c0.049-0.048,0.09-0.099,0.128-0.155c0.041-0.061,0.075-0.121,0.104-0.188   c0.027-0.064,0.047-0.127,0.062-0.195c0.016-0.07,0.024-0.138,0.025-0.21c0.002-0.073-0.006-0.143-0.019-0.215   c-0.007-0.041,0.001-0.081-0.011-0.121c-0.005-0.016-0.439-1.622,0.233-2.478c0.376-0.479,1.113-0.693,2.194-0.641   c0.415,0.022,1.948,1.029,2.183,2.284c0.246,1.313-1.263,2.294-2.571,2.886c-0.007,0.003-0.011,0.009-0.018,0.013   c-0.064,0.03-0.117,0.083-0.176,0.126c-0.06,0.045-0.126,0.081-0.174,0.136c-0.006,0.005-0.013,0.007-0.018,0.013   c-0.051,0.061-5.237,6.076-10.071,8.773c-0.438,0.243-0.887,0.275-1.412,0.095c-2.32-0.796-4.903-5.028-6.454-8.081   c-0.607-1.42-1.051-2.251-1.117-2.372c-0.279-0.521-0.921-0.729-1.453-0.471c-0.532,0.256-0.77,0.885-0.539,1.43   c0.116,0.275,0.485,1.128,1.051,2.259c1.645,3.878,4.674,12.588,4.058,23.035c-0.231,3.912,2.974,8.983,6.073,13.888   c2.128,3.369,4.138,6.55,4.811,8.972c0.833,2.992-0.228,14.098-0.707,18.125c-0.03,0.255,0.029,0.513,0.168,0.729   c0.077,0.121,1.946,2.991,5.476,4.564c0.428,0.19,1.104,1.042,1.122,1.274C65.492,97.163,64.564,97.957,59.017,96.466z"></path><path d="M61.44,47.7c0.112,0.037,0.227,0.054,0.339,0.054c0.469,0,0.903-0.299,1.055-0.768c2.075-6.435-1.862-9.22-2.031-9.335   c-0.506-0.346-1.194-0.215-1.538,0.289c-0.346,0.505-0.217,1.194,0.288,1.539c0.027,0.019,2.747,1.949,1.173,6.827   C60.538,46.888,60.857,47.512,61.44,47.7z"></path><path d="M66.192,32.577c-0.328-0.515-1.017-0.666-1.528-0.337c-0.517,0.329-0.667,1.014-0.338,1.53   c0.048,0.074,4.763,7.543,3.058,12.517c-0.198,0.579,0.11,1.208,0.688,1.406c0.119,0.041,0.24,0.061,0.359,0.061   c0.46,0,0.89-0.289,1.048-0.749C71.526,41.032,66.411,32.92,66.192,32.577z"></path><path d="M17.842,67.626c0.272-0.548,0.05-1.213-0.497-1.485c-0.549-0.272-1.212-0.052-1.485,0.496   c-0.18,0.36-4.365,8.886,0.208,13.459c0.216,0.216,0.5,0.324,0.783,0.324c0.283,0,0.566-0.108,0.783-0.324   c0.433-0.433,0.433-1.134,0-1.566C14.19,75.084,17.805,67.701,17.842,67.626z"></path><path d="M10.617,66.104c-0.568-0.225-1.21,0.05-1.438,0.617c-0.098,0.244-2.372,6.054,0.038,10.872   c0.194,0.389,0.585,0.612,0.992,0.612c0.166,0,0.335-0.038,0.494-0.117c0.547-0.273,0.769-0.938,0.495-1.485   c-1.959-3.919,0.018-9.011,0.039-9.062C11.461,66.974,11.184,66.33,10.617,66.104z"></path></g></svg>