<svg height='100px' width='100px'  fill="#ffffff" xmlns="http://www.w3.org/2000/svg" data-name="Layer 1" viewBox="0 0 100 100" x="0px" y="0px"><defs><style>.cls-1{fill:#ffffff;}</style></defs><title>tag</title><path class="cls-1" d="M54,42.85a4.9,4.9,0,0,0-3-.73l-16.9.72a13,13,0,0,0-8.24,3.83L3.94,70.49s-3.33,3.62.29,6.95L24.81,96.37s3.62,3.33,6.95-.29l21.9-23.82a13,13,0,0,0,3.13-8.53L56.09,46.82a6.16,6.16,0,0,0-.52-2c-0.93,3.55-1.81,6.25-3.14,7.7a3.93,3.93,0,0,1-.88.73,3.06,3.06,0,0,1-1.26.42,4.08,4.08,0,1,1,.23-2.16c1.37-.83,2.37-4.33,3.45-8.61m-3.42,9.71v0"></path><path class="cls-1" d="M55.36,33.81c-0.66,2.32-1.21,4.53-1.71,6.54-1.26,5.05-2.34,9.42-3.89,10.34a1.13,1.13,0,0,1-.92.11,2.07,2.07,0,0,1-1.54-1.24c-0.74-1.78.39-5.11,1.38-6.8a53.6,53.6,0,0,1,6.68-9M89.91,3.15c-2-3.3-10.58.67-17.38,4.58-8,4.59-12.44,12.44-15.26,20.15,1.09-1,2.2-2,3.29-2.85,2.7-6.15,6.65-11.91,13-15.54,11-6.3,14.35-5.76,14.65-5.27,0.45,0.73-1.59,4.67-9.08,9.65L79,13.95a1,1,0,0,1-.18.16c-0.58.39-1.51,0.91-2.67,1.56a102.13,102.13,0,0,0-15.06,10L60,26.54c-1.12.95-2.23,2-3.33,3h0c-1.3,1.25-2.57,2.59-3.8,4l-0.2.23-0.76.91a51.91,51.91,0,0,0-4.67,6.63,1,1,0,0,1-.21.24l-0.11.18c-0.83,1.41-2.71,5.69-1.51,8.6a4.1,4.1,0,0,0,2.9,2.42,3.12,3.12,0,0,0,2.46-.33L51,52.3c2.13-1.5,3.17-5.7,4.6-11.45,0.78-3.13,1.65-6.62,2.8-10.15A93.4,93.4,0,0,1,77.56,17.12c1.17-.66,2.09-1.18,2.67-1.57,6.12-4.07,11.49-9.49,9.68-12.4"></path></svg>