<svg height='100px' width='100px'  fill="#ffffff" xmlns="http://www.w3.org/2000/svg" xmlns:xlink="http://www.w3.org/1999/xlink" version="1.1" x="0px" y="0px" viewBox="0 0 100 100" enable-background="new 0 0 100 100" xml:space="preserve"><path d="M67.2,61.8c-1,0-1.9-0.8-1.9-1.9s0.8-1.9,1.9-1.9c7.2,0,13.1-5.9,13.1-13.3c0-7.3-5.9-13.3-13.1-13.3c-1,0-1.9-0.8-1.9-1.9  s0.8-1.9,1.9-1.9c9.3,0,16.9,7.6,16.9,17C84,54.2,76.5,61.8,67.2,61.8z"></path><path d="M50.1,58.4c-0.4,0-0.7-0.1-1-0.3L32.7,47.6c-0.9-0.6-1.1-1.7-0.6-2.6c0.6-0.9,1.7-1.1,2.6-0.6l15.4,9.9l15.7-9.9  c0.9-0.6,2-0.3,2.6,0.6c0.6,0.9,0.3,2-0.6,2.6L51.1,58.1C50.8,58.3,50.4,58.4,50.1,58.4z"></path><path d="M50.1,72c-1,0-1.9-0.8-1.9-1.9V39.7c0-1,0.8-1.9,1.9-1.9s1.9,0.8,1.9,1.9v30.4C51.9,71.1,51.1,72,50.1,72z"></path><path d="M33.5,62c-1,0-1.9-0.8-1.9-1.9V29.7c0-1,0.8-1.9,1.9-1.9s1.9,0.8,1.9,1.9v30.4C35.4,61.1,34.6,62,33.5,62z"></path><path d="M50.1,72.2c-0.4,0-0.7-0.1-1-0.3L32.5,61.2c-0.9-0.6-1.1-1.7-0.6-2.6c0.6-0.9,1.7-1.1,2.6-0.6l15.5,10l14.9-9.5V33.1  l-13.9,8.8c-0.6,0.4-1.4,0.4-2,0L32.7,31.2c-0.9-0.6-1.1-1.7-0.6-2.6c0.6-0.9,1.7-1.1,2.6-0.6l15.4,10l15.7-10  c0.6-0.4,1.3-0.4,1.9-0.1c0.6,0.3,1,1,1,1.6v29.9c0,0.6-0.3,1.2-0.9,1.6L51.1,71.9C50.8,72.1,50.4,72.2,50.1,72.2z"></path><path d="M32.8,61.8c-9.3,0-16.9-7.6-16.9-17c0-9.4,7.6-17,16.9-17c1,0,1.9,0.8,1.9,1.9s-0.8,1.9-1.9,1.9c-7.2,0-13.1,5.9-13.1,13.3  c0,7.3,5.9,13.3,13.1,13.3c1,0,1.9,0.8,1.9,1.9S33.9,61.8,32.8,61.8z"></path></svg>