<svg height='100px' width='100px'  fill="#ffffff" xmlns="http://www.w3.org/2000/svg" xmlns:xlink="http://www.w3.org/1999/xlink" version="1.1" x="0px" y="0px" viewBox="0 0 206.896 268.471" style="enable-background:new 0 0 206.896 268.471;" xml:space="preserve"><g><path d="M148.032,101.995c5.647,0,11.074-0.932,16.151-2.626l14.747,20.459l-5.338-24.707   c15.205-8.827,25.438-25.275,25.438-44.123C199.03,22.832,176.197,0,148.032,0S97.035,22.832,97.035,50.997   S119.867,101.995,148.032,101.995z M148.193,10.447c24.024,0,43.5,19.476,43.5,43.5c0,24.024-19.476,43.5-43.5,43.5   c-24.024,0-43.5-19.476-43.5-43.5C104.693,29.923,124.169,10.447,148.193,10.447z"></path><ellipse transform="matrix(0.2268 -0.9739 0.9739 0.2268 -38.1395 150.1292)" cx="75.482" cy="99.085" rx="22.493" ry="22.495"></ellipse><path d="M44.095,211.514c0.633,0.099,1.276,0.165,1.937,0.165h45.284l4.259,45.457c0.606,6.478,6.052,11.335,12.431,11.335   c0.39,0,0.785-0.019,1.181-0.056c6.874-0.644,11.923-6.738,11.279-13.611l-5.32-56.791c-0.602-6.424-5.994-11.334-12.445-11.334   H59.305c0.016-6.852,0.823-13.879,1.906-20.587c-14.463-9.79-19.945-21.472-20.323-22.311c-2.311-5.127-0.021-11.179,5.106-13.49   c1.331-0.6,2.739-0.903,4.188-0.903c3.973,0,7.612,2.332,9.271,5.94c0.426,0.894,10.558,21.321,44.063,23.608   c0.032-0.541,0.029-1.087-0.053-1.638l-6-40.5c-0.21-1.421-0.786-2.694-1.612-3.75c-3.246,4.763-8.066,8.25-13.664,9.813   l2.655,17.921l-24.084-17.53c-0.998-0.726-2.109-1.179-3.247-1.389c-0.553-0.243-1.129-0.447-1.73-0.596   c-8.537-2.129-20.912,2.508-25.947,17.15c-6.805,20.174-8.268,33.305-5.682,55.52C26.903,208.092,35.766,211.079,44.095,211.514z"></path><path d="M111.598,179.538c-0.636,0.01-1.275,0.015-1.899,0.015c-6.507,0-12.452-0.536-17.874-1.475v5.139h89.406v84.001h10.5   v-84.001h15.166v-10h-86.029C119.361,176.868,115.792,179.471,111.598,179.538z"></path><polygon points="128.883,161.052 128.883,168.052 175.03,168.052 196.671,125.47 190.431,122.299 170.736,161.052  "></polygon><path d="M0.773,267.217h11.174c0.805-4.656,1.502-9.324,2.133-14H55v14h11v-38.666h2.334v-11H17.199   c1.146-28.777-0.975-57.651-6.395-86.061c-3.602,0.688-7.203,1.373-10.805,2.06C8.421,177.698,8.662,222.999,0.773,267.217z    M16.589,228.551H55v18.666H14.839C15.578,241.006,16.16,234.783,16.589,228.551z"></path><path d="M57.455,136.246c-1.833-3.988-6.543-5.758-10.556-3.95c-4.028,1.816-5.821,6.553-4.005,10.581   c0.642,1.424,16.125,34.476,66.805,34.476c0.613,0,1.241-0.005,1.865-0.015c4.417-0.07,7.942-3.708,7.873-8.125   c-0.07-4.417-3.667-7.924-8.125-7.873c-0.536,0.008-1.065,0.013-1.591,0.013C69.918,161.353,58.014,137.42,57.455,136.246z"></path></g></svg>