<svg height='100px' width='100px'  fill="#ffffff" xmlns:x="http://ns.adobe.com/Extensibility/1.0/" xmlns:i="http://ns.adobe.com/AdobeIllustrator/10.0/" xmlns:graph="http://ns.adobe.com/Graphs/1.0/" xmlns="http://www.w3.org/2000/svg" xmlns:xlink="http://www.w3.org/1999/xlink" version="1.1" x="0px" y="0px" viewBox="0 0 100 100" style="enable-background:new 0 0 100 100;" xml:space="preserve"><g><g i:extraneous="self"><g><circle cx="35.3" cy="31.6" r="7.6"></circle><path d="M53.4,51.2l-2.5-0.6l-0.5-4.7c-0.1-0.5-0.5-0.9-1-1l-4.9-0.6c-1.3-1.9-2.4-3.1-4.2-3.1h-9.8c-2.3,0-3.5,1.9-5.2,4.7     c-0.1,0.2-0.2,0.3-0.3,0.5l-5.2-0.6c-0.3,0-0.7,0.1-0.9,0.3c-0.2,0.2-0.4,0.6-0.3,0.9l0.6,5.9L16.5,55c-1.4,1.1-1.6,3.1-0.5,4.4     c0.6,0.8,1.5,1.2,2.5,1.2c0.5,0,1-0.2,1.4-0.4l0.7,6.9c0.1,0.5,0.5,0.9,1,1l6.2,0.7l-3.1,24.5c-0.3,2,1.2,3.8,3.2,4.1     c0.2,0,0.3,0,0.5,0c1.8,0,3.4-1.3,3.6-3.2l3.3-26.1l0.1,0l3.3,26.1c0.2,1.9,1.8,3.2,3.6,3.2c0.2,0,0.3,0,0.5,0     c2-0.2,3.4-2.1,3.2-4.1l-3.5-27.2l8.8,1.1c0.1,0,0.2,0,0.3,0c0.3,0,0.5-0.1,0.7-0.3c0.2-0.2,0.4-0.6,0.3-0.9l-0.9-8.7l0.2,0     c1.7,0.4,3.4-0.6,3.9-2.3C56.1,53.4,55.1,51.7,53.4,51.2z M22.8,66l-1.9-17.8l7.7,0.9l1.9,17.8L22.8,66z M32.8,66.7l-1.9-17.8     l7.4-2.5l1.9,17.8L32.8,66.7z M42.4,63.9L40.5,46l7.7,0.9l1.9,17.8L42.4,63.9z"></path><path d="M84.3,26.3L79,22c-0.2-0.1-0.4-0.2-0.6-0.2H66.6v-4h12.4c0.5,0,0.9-0.4,0.9-0.9V8.4c0-0.5-0.4-0.9-0.9-0.9H66.6v-4     c0-0.5-0.4-0.9-0.9-0.9h-3.5c-0.5,0-0.9,0.4-0.9,0.9v4H49.5c-0.2,0-0.4,0.1-0.6,0.2l-5.3,4.3c-0.5,0.4-0.5,1.1,0,1.5l5.3,4.3     c0.2,0.1,0.4,0.2,0.6,0.2h11.8v4H48.9c-0.5,0-0.9,0.4-0.9,0.9v8.5c0,0.5,0.4,0.9,0.9,0.9h12.4v56c0,0.5,0.4,0.9,0.9,0.9h3.5     c0.5,0,0.9-0.4,0.9-0.9v-56h11.8c0.2,0,0.4-0.1,0.6-0.2l5.3-4.3C84.8,27.4,84.8,26.7,84.3,26.3z"></path></g></g></g></svg>