<svg height='100px' width='100px'  fill="#ffffff" xmlns="http://www.w3.org/2000/svg" xmlns:xlink="http://www.w3.org/1999/xlink" version="1.1" x="0px" y="0px" viewBox="0 0 84.4 99" style="enable-background:new 0 0 84.4 99;" xml:space="preserve"><path d="M43.2,19.4c0.2,0,0.3,0.1,0.4,0.1c0.7,0,1.3-0.4,1.5-1.1s0.4-1.4,0.6-2.1c0.2-0.8-0.3-1.7-1.2-1.9c-0.8-0.2-1.7,0.3-1.9,1.2  c-0.1,0.6-0.3,1.3-0.5,1.9C41.9,18.3,42.3,19.1,43.2,19.4z"></path><path d="M34.4,30.8c-0.4,0.5-0.9,0.9-1.4,1.4c-0.6,0.6-0.6,1.6-0.1,2.2c0.3,0.3,0.7,0.5,1.1,0.5c0.4,0,0.8-0.1,1.1-0.4  c0.5-0.5,1-1,1.5-1.5c0.6-0.6,0.6-1.6-0.1-2.2C35.9,30.1,34.9,30.1,34.4,30.8z"></path><path d="M19.7,40.1c-0.6,0.2-1.2,0.4-1.9,0.6c-0.8,0.2-1.3,1.1-1.1,1.9c0.2,0.7,0.8,1.1,1.5,1.1c0.1,0,0.3,0,0.4-0.1  c0.7-0.2,1.4-0.4,2-0.6c0.8-0.3,1.2-1.2,1-2C21.4,40.3,20.5,39.9,19.7,40.1z"></path><path d="M38.1,30.3c0.5,0,0.9-0.2,1.2-0.6c0.4-0.6,0.8-1.1,1.2-1.7c0.5-0.7,0.3-1.7-0.4-2.2s-1.7-0.3-2.2,0.4  c-0.4,0.5-0.7,1.1-1.1,1.6c-0.5,0.7-0.4,1.7,0.3,2.2C37.5,30.2,37.8,30.3,38.1,30.3z"></path><path d="M40.8,21.1c-0.3,0.6-0.5,1.2-0.8,1.8c-0.4,0.8-0.1,1.7,0.7,2.1c0.2,0.1,0.5,0.2,0.7,0.2c0.6,0,1.1-0.3,1.4-0.9  c0.3-0.6,0.6-1.3,0.9-1.9c0.3-0.8,0-1.7-0.8-2.1C42,19.9,41.1,20.3,40.8,21.1z"></path><path d="M31.9,37.1c0.7-0.5,0.8-1.5,0.3-2.2s-1.5-0.8-2.2-0.3c-0.5,0.4-1,0.8-1.6,1.1c-0.7,0.5-0.9,1.5-0.4,2.2  c0.3,0.4,0.8,0.7,1.3,0.7c0.3,0,0.6-0.1,0.9-0.3C30.8,38,31.3,37.6,31.9,37.1z"></path><path d="M12.1,41.9c-0.9,0.1-1.5,0.9-1.3,1.7c0.1,0.8,0.8,1.4,1.5,1.4c0.1,0,0.1,0,0.2,0c0.7-0.1,1.4-0.2,2.1-0.3  c0.8-0.2,1.4-1,1.3-1.8c-0.2-0.8-1-1.4-1.8-1.3C13.4,41.7,12.8,41.8,12.1,41.9z"></path><path d="M25.1,37.8c-0.6,0.3-1.2,0.6-1.7,0.9c-0.8,0.4-1.1,1.3-0.8,2.1c0.3,0.6,0.8,0.9,1.4,0.9c0.2,0,0.4,0,0.7-0.1  c0.6-0.3,1.3-0.6,1.9-0.9c0.8-0.4,1-1.3,0.6-2.1C26.8,37.7,25.8,37.4,25.1,37.8z"></path><path d="M46,65.1l-3.7-0.9c-2.7-0.7-5.1-2.2-6.7-4.4l-0.7-1c-0.8-1.1-1.2-2.5-0.9-3.9c0.3-1.6,0.7-2.9,1.3-3.7  c0.8-1.1,3.3-0.4,3.9-0.2c1.1,0.4,2.3-0.1,2.7-1.2c0.4-1.1-0.1-2.3-1.2-2.7c-2.2-0.9-6.6-1.5-8.8,1.7c-0.9,1.3-1.5,3.1-1.9,5.4  c-0.4,2.5,0.2,5.1,1.7,7.1l0.7,1c2.2,2.9,5.4,5.1,9,6l3.7,0.9c0.2,0,0.3,0.1,0.5,0.1c0.9,0,1.8-0.6,2-1.6  C47.8,66.5,47.2,65.4,46,65.1z"></path><path d="M11.9,29.5c-1.1,0-2.1,0.9-2.1,2.1c0,1.2,0.9,2.1,2.1,2.1h7.5c0.3,0,0.5-0.1,0.7-0.1c0.1,0,0.1-0.1,0.2-0.1  c0.2-0.1,0.3-0.2,0.4-0.3c0.1,0,0.1-0.1,0.2-0.1c0.2-0.2,0.3-0.3,0.4-0.6l0,0l0,0c0.1-0.2,0.1-0.5,0.1-0.7c0,0,0,0,0-0.1v-7.1  c0-1.1-0.9-2.1-2.1-2.1c-1.1,0-2.1,0.9-2.1,2.1v2.1L3.5,12.8c-0.8-0.8-2.1-0.8-2.9,0s-0.8,2.1,0,2.9l13.8,13.8H11.9z"></path><path d="M28.6,17.3h-2.5c-1.1,0-2.1,0.9-2.1,2.1c0,1.1,0.9,2.1,2.1,2.1h7.5c0.3,0,0.5-0.1,0.7-0.1c0.1,0,0.1-0.1,0.2-0.1  c0.2-0.1,0.3-0.2,0.4-0.3c0.1,0,0.1-0.1,0.2-0.1c0.2-0.2,0.3-0.3,0.4-0.6l0,0l0,0c0.1-0.2,0.1-0.5,0.1-0.7c0,0,0,0,0-0.1v-7.1  c0-1.1-0.9-2.1-2.1-2.1s-2.1,0.9-2.1,2.1v2.1L17.8,0.6c-0.8-0.8-2.1-0.8-2.9,0s-0.8,2.1,0,2.9L28.6,17.3z"></path><path d="M84.3,58.4c0-0.1-0.1-0.3-0.1-0.4c0-0.1,0-0.2-0.1-0.2l-7.2-11.3c0.5-2.6,1.6-10.3-0.2-16.4c-2.2-7.4-18.1-18.7-19.9-19.9  c-0.1-0.1-0.2-0.1-0.3-0.2c-0.3-0.1-6.4-3.1-14.7-3.9C40.6,6,39.6,6.8,39.5,8c-0.1,1.1,0.7,2.2,1.9,2.3c0.7,0.1,1.4,0.2,2,0.3  c0,0.1-0.1,0.2-0.1,0.2c0,0.3-0.1,0.7-0.1,1c-0.1,0.9,0.5,1.6,1.4,1.7c0.1,0,0.1,0,0.2,0c0.8,0,1.5-0.6,1.5-1.4c0-0.3,0.1-0.7,0.1-1  c4.3,0.9,7.4,2.3,8.1,2.6c6.4,4.5,16.9,13.1,18.2,17.6c1.8,6.3,0,15.1,0,15.2c-0.1,0.5,0,1.1,0.3,1.6l6.7,10.5L76,61.9  c-0.5,0.4-0.7,1-0.7,1.6s0.3,1.2,0.8,1.6l2.5,1.9c0.2,0.2,0.5,0.3,0.7,0.3c-0.2,0.1-0.5,0.2-0.7,0.4l-1.8,1.7  c-0.5,0.5-0.7,1.1-0.6,1.8c0.1,0.7,0.5,1.2,1,1.6l1.1,0.7c0.4,0.3,0.7,0.7,0.7,1.2c0,0.3,0,0.5,0.1,0.8c-0.1,0.2-0.2,0.5-0.2,0.8  c0,0.5-0.4,1-0.9,1.2c-1.9,0.8-3.3,2.5-3.5,4.6l-0.2,2.3c-0.1,0.5-0.4,1-0.9,1.1L71,86.2c-0.1,0-0.3,0.1-0.4,0.1H60.2  c-1.8,0-3.4,0.9-4.5,2.3l-5.2,7.1c-0.7,0.9-0.5,2.2,0.5,2.9c0.4,0.3,0.8,0.4,1.2,0.4c0.6,0,1.3-0.3,1.7-0.9l5.2-7.1  c0.3-0.4,0.7-0.6,1.1-0.6h10.3c0.6,0,1.2-0.1,1.8-0.3l2.6-0.9c2-0.7,3.5-2.5,3.7-4.6l0.2-2.3c0.1-0.5,0.4-0.9,0.9-1.1  c2-0.8,3.4-2.7,3.5-4.9c0-0.3,0-0.5-0.1-0.8c0.1-0.2,0.2-0.5,0.2-0.8c0.1-1.6-0.5-3-1.6-4.1c0.8-0.8,0.8-2.1,0-2.9  c-0.3-0.3-0.7-0.5-1.1-0.6c0.4-0.1,0.8-0.3,1-0.7c0.7-0.9,0.5-2.2-0.4-2.9l-0.5-0.4l3.1-2.8c0.1-0.1,0.1-0.1,0.1-0.2  c0.1-0.1,0.2-0.2,0.2-0.3c0.1-0.1,0.1-0.2,0.2-0.4c0-0.1,0.1-0.2,0.1-0.4c0-0.1,0-0.3,0-0.4C84.4,58.6,84.4,58.5,84.3,58.4z"></path><path d="M6.4,45.1c0.2,0.2,0.5,0.3,0.8,0.3c0.4,0,0.7,0,1.1,0c0.9,0,1.5-0.7,1.5-1.6c0-0.9-0.7-1.6-1.6-1.5c-0.3,0-0.7,0-1,0  c-0.5,0-0.9,0.2-1.2,0.6c-0.3-2.3-0.4-4.5-0.2-6.6C5.9,35,5,34,3.9,33.9s-2.1,0.8-2.2,1.9C0.6,48.6,7.1,63.3,21.1,79.5  c-1.6,7.3-4,14.2-5.3,15.4c-1,0.2-1.7,1-1.7,2c0,1.1,0.9,2.1,2.1,2.1s5,0,9.2-19.7c0.1-0.6,0-1.3-0.5-1.8  C14.5,65.7,8.3,54.8,6.4,45.1z"></path></svg>