<svg height='100px' width='100px'  fill="#ffffff" xmlns="http://www.w3.org/2000/svg" xmlns:xlink="http://www.w3.org/1999/xlink" version="1.1" x="0px" y="0px" viewBox="0 0 87.6 99" style="enable-background:new 0 0 87.6 99;" xml:space="preserve"><path d="M48.2,60.7c0.6-0.9,2.6-0.3,3.1-0.1c0.9,0.3,1.8-0.1,2.1-0.9c0.3-0.9-0.1-1.8-0.9-2.1c-1.8-0.7-5.3-1.2-7.1,1.4  c-0.7,1-1.2,2.5-1.6,4.3c-0.3,2,0.2,4.1,1.4,5.7l0.6,0.8c1.8,2.4,4.3,4,7.2,4.8l2.9,0.7c0.1,0,0.3,0.1,0.4,0.1  c0.7,0,1.4-0.5,1.6-1.3c0.2-0.9-0.3-1.8-1.2-2l-2.9-0.7c-2.1-0.5-4-1.8-5.4-3.6L48,66.8c-0.7-0.9-0.9-2-0.8-3.1  C47.4,62.4,47.8,61.4,48.2,60.7z"></path><path d="M87.3,66l-5.8-9c0.4-2,1.3-8.2-0.2-13.1C79.6,38,66.9,28.9,65.4,27.9c-0.1,0-0.1-0.1-0.2-0.1c-0.2-0.1-5.1-2.5-11.8-3.1  c-0.9-0.1-1.7,0.6-1.8,1.5c-0.1,0.9,0.6,1.7,1.5,1.8c5.5,0.5,9.8,2.4,10.5,2.7c5.1,3.6,13.5,10.5,14.5,14.1c1.5,5,0,12.1,0,12.2  c-0.1,0.4,0,0.9,0.2,1.2l5.4,8.4l-2.9,2.7c-0.4,0.3-0.6,0.8-0.5,1.3c0,0.5,0.3,1,0.7,1.3l2,1.5c0.1,0.1,0.2,0.2,0.2,0.3  s0,0.2-0.1,0.3l-1.5,1.4c-0.4,0.4-0.6,0.9-0.5,1.4c0.1,0.5,0.4,1,0.8,1.2l0.9,0.5c0.3,0.2,0.6,0.6,0.5,1l0,1.2c0,0.4-0.3,0.8-0.7,1  c-1.5,0.6-2.6,2-2.8,3.7l-0.2,1.8c0,0.4-0.3,0.8-0.7,0.9l-2,0.7c-0.1,0-0.2,0.1-0.4,0.1h-8.2c-1.4,0-2.7,0.7-3.6,1.8l-3.6,5H35.5  l4.8-12.1c0.2-0.6,0.1-1.2-0.3-1.7C29.1,69.3,23.9,58.2,24.7,48.8c0.1-0.9-0.6-1.7-1.5-1.8c-0.9-0.1-1.7,0.6-1.8,1.5  c-0.8,10.1,4.3,21.8,15.4,34.8l-5.3,13.5c-0.2,0.5-0.1,1.1,0.2,1.5c0.3,0.5,0.8,0.7,1.4,0.7h28.9c0.5,0,1-0.3,1.3-0.7l4.1-5.7  c0.2-0.3,0.5-0.4,0.9-0.4h8.2c0.5,0,1-0.1,1.4-0.2l2-0.7c1.6-0.6,2.8-2,2.9-3.7l0.2-1.8c0-0.4,0.3-0.8,0.7-0.9  c1.6-0.6,2.7-2.2,2.8-3.9l0-1.2c0-1.2-0.4-2.4-1.3-3.3c0.8-0.8,1.2-1.8,1.1-2.9c-0.1-1.1-0.6-2.1-1.5-2.8l-0.4-0.3l2.5-2.2  C87.6,67.6,87.7,66.7,87.3,66z"></path><path d="M36.4,42.3c0.1,0,0.1,0,0.2,0c0.2,0,0.3,0,0.5-0.1c0.1,0,0.1,0,0.1-0.1c0.1,0,0.2-0.1,0.3-0.1c0.1,0,0.1-0.1,0.1-0.1  c0.1-0.1,0.1-0.1,0.2-0.2c0-0.1,0.1-0.1,0.1-0.2c0-0.1,0.1-0.1,0.1-0.2l11.2-24c0.1,0,0.2,0,0.3,0c3,0,5.4-2.4,5.4-5.4  c0-3-2.4-5.4-5.4-5.4c-3,0-5.4,2.4-5.4,5.4c0,1.7,0.8,3.2,2,4.2l-9,19.3l-5.7-25.2c2-0.8,3.4-2.7,3.4-5c0-3-2.4-5.4-5.4-5.4  c-3,0-5.4,2.4-5.4,5.4c0,2.5,1.7,4.6,4,5.2l5.9,25.8L11.6,18.7c0.5-0.8,0.9-1.8,0.9-2.9c0-3-2.4-5.4-5.4-5.4c-3,0-5.4,2.4-5.4,5.4  s2.4,5.4,5.4,5.4c0.7,0,1.3-0.1,1.8-0.3l22.3,17.7l-20.6-1.9c-0.7-2.2-2.7-3.9-5.1-3.9c-3,0-5.4,2.4-5.4,5.4s2.4,5.4,5.4,5.4  c2.3,0,4.3-1.5,5.1-3.6L36.4,42.3z M49.5,10c1.1,0,2.1,0.9,2.1,2.1s-0.9,2.1-2.1,2.1s-2.1-0.9-2.1-2.1S48.3,10,49.5,10z M5,15.7  c0-1.1,0.9-2.1,2.1-2.1s2.1,0.9,2.1,2.1s-0.9,2.1-2.1,2.1S5,16.9,5,15.7z M29.4,3.3c1.1,0,2.1,0.9,2.1,2.1s-0.9,2.1-2.1,2.1  s-2.1-0.9-2.1-2.1S28.2,3.3,29.4,3.3z M5.4,40.2c-1.1,0-2.1-0.9-2.1-2.1s0.9-2.1,2.1-2.1s2.1,0.9,2.1,2.1S6.5,40.2,5.4,40.2z"></path></svg>