<svg height='100px' width='100px'  fill="#ffffff" xmlns="http://www.w3.org/2000/svg" xmlns:xlink="http://www.w3.org/1999/xlink" version="1.1" x="0px" y="0px" viewBox="0 0 512 512" enable-background="new 0 0 512 512" xml:space="preserve"><g><g><path d="M379.979,185.172l71.929-71.93l-8.484-8.485l-73.084,73.085c-32.299-22.982-71.77-36.509-114.34-36.509    s-82.041,13.527-114.34,36.509l-73.084-73.085l-8.484,8.485l71.929,71.93C87.113,221.438,58.334,276.917,58.334,339h12    c0-102.377,83.289-185.667,185.666-185.667S441.666,236.623,441.666,339h12C453.666,276.917,424.887,221.438,379.979,185.172z"></path><path d="M191.715,286.896c0-3.944-3.209-7.152-7.152-7.152s-7.152,3.208-7.152,7.152c0,3.943,3.209,7.152,7.152,7.152    S191.715,290.839,191.715,286.896z"></path><path d="M334.59,286.896c0-3.944-3.209-7.152-7.152-7.152s-7.152,3.208-7.152,7.152c0,3.943,3.209,7.152,7.152,7.152    S334.59,290.839,334.59,286.896z"></path><path d="M326.647,385.661C307.009,393.185,283.239,397,256,397s-51.009-3.815-70.647-11.339    c-19.641-7.524-30.284-16.88-35.755-23.404l-9.195,7.711C150.244,381.704,181.208,409,256,409s105.756-27.296,115.598-39.032    l-9.195-7.711C356.932,368.781,346.288,378.137,326.647,385.661z"></path></g></g></svg>