<svg height='100px' width='100px'  fill="#ffffff" xmlns="http://www.w3.org/2000/svg" xmlns:xlink="http://www.w3.org/1999/xlink" version="1.1" x="0px" y="0px" viewBox="0 0 83.3 99" style="enable-background:new 0 0 83.3 99;" xml:space="preserve"><path d="M44.7,64.9L41,64c-2.7-0.7-5.1-2.3-6.8-4.5l-0.8-1c-0.8-1.1-1.2-2.5-0.9-3.9c0.3-1.6,0.7-2.9,1.3-3.7  c0.8-1.1,3.3-0.4,3.9-0.2c1.1,0.4,2.3-0.1,2.7-1.2c0.4-1.1-0.1-2.3-1.2-2.7c-2.3-0.9-6.7-1.5-8.9,1.7c-0.9,1.3-1.6,3.1-2,5.4  C28,56.4,28.6,59,30.1,61l0.7,1c2.2,3,5.5,5.1,9.1,6l3.7,0.9c0.2,0,0.3,0.1,0.5,0.1c0.9,0,1.8-0.6,2-1.6  C46.5,66.3,45.8,65.2,44.7,64.9z"></path><path d="M23.5,10.3c-1.2,0-2.1,0.9-2.1,2.1v2.1L7.5,0.6c-0.8-0.8-2.1-0.8-3,0s-0.8,2.1,0,3l13.9,13.9h-2.5c-1.2,0-2.1,0.9-2.1,2.1  c0,1.2,0.9,2.1,2.1,2.1h7.6c0.3,0,0.5-0.1,0.7-0.1c0.1,0,0.1-0.1,0.2-0.1c0.2-0.1,0.3-0.2,0.4-0.3c0.1,0,0.1-0.1,0.2-0.1  c0.2-0.2,0.3-0.3,0.4-0.6c0,0,0,0,0,0c0,0,0,0,0,0c0.1-0.2,0.1-0.5,0.1-0.7c0,0,0,0,0-0.1v-7.1C25.6,11.2,24.6,10.3,23.5,10.3z"></path><path d="M82.9,57.5l-7.2-11.4c0.5-2.6,1.6-10.3-0.2-16.5c-2.2-7.4-18.2-18.8-20-20.1c-0.1,0-0.1-0.1-0.2-0.1  c-0.4-0.2-10.9-6-25.2-3.5c-1.1,0.2-1.9,1.3-1.7,2.4c0.2,1.1,1.3,1.9,2.4,1.7c12.2-2.1,21.4,2.5,22.4,3c6.4,4.5,17,13.2,18.3,17.7  c1.9,6.3,0,15.2,0,15.3c-0.1,0.5,0,1.1,0.3,1.6l6.7,10.6l-3.7,3.3c-0.5,0.4-0.7,1-0.7,1.6c0,0.6,0.3,1.2,0.8,1.6l2.5,1.9  c0.2,0.1,0.2,0.3,0.2,0.4c0,0.1,0,0.3-0.2,0.4l-1.8,1.7c-0.5,0.5-0.7,1.1-0.6,1.8c0.1,0.7,0.5,1.2,1,1.6l1.1,0.7  c0.4,0.3,0.7,0.7,0.7,1.2L77.8,76c0,0.5-0.4,1-0.9,1.2c-1.9,0.8-3.3,2.5-3.5,4.6l-0.2,2.3c-0.1,0.5-0.4,1-0.9,1.1l-2.6,0.9  c-0.1,0-0.3,0.1-0.4,0.1H58.9c-1.8,0-3.4,0.9-4.5,2.3l-5.2,7.2c-0.7,0.9-0.5,2.2,0.5,2.9c0.4,0.3,0.8,0.4,1.2,0.4  c0.6,0,1.3-0.3,1.7-0.9l5.2-7.2c0.3-0.4,0.7-0.6,1.1-0.6h10.3c0.6,0,1.2-0.1,1.8-0.3l2.6-0.9c2-0.7,3.5-2.5,3.7-4.7l0.2-2.3  c0.1-0.5,0.4-0.9,0.9-1.1c2.1-0.8,3.4-2.7,3.5-4.9l0.1-1.5c0.1-1.6-0.5-3.1-1.6-4.1c1-0.9,1.5-2.3,1.4-3.6c-0.1-1.4-0.8-2.6-1.9-3.5  L79.5,63l3.1-2.8C83.3,59.5,83.5,58.4,82.9,57.5z"></path><path d="M8.9,23.1c0.7-0.9,0.5-2.2-0.5-2.9c-0.9-0.7-2.2-0.5-2.9,0.5c-6.3,8.6-12.7,27.6,14,58.7c-1.6,7.3-4,14.3-5.3,15.5  c-1,0.2-1.7,1-1.7,2.1c0,1.2,0.9,2.1,2.1,2.1c1.3,0,5.1,0,9.2-19.8c0.1-0.6,0-1.3-0.5-1.8C-1,49.5,2.1,32.5,8.9,23.1z"></path></svg>