<svg height='100px' width='100px'  fill="#ffffff" xmlns="http://www.w3.org/2000/svg" xmlns:xlink="http://www.w3.org/1999/xlink" version="1.0" x="0px" y="0px" viewBox="0 0 100 100" enable-background="new 0 0 100 100" xml:space="preserve"><g><g><path d="M74.6252441,24.5004272c2.2655029-1.7379761,4.7982788-3.6240845,6.4120483-6.019043    c0.6317749-0.937561,0.9388428-1.852356,0.1830444-2.6239014c-0.1074829-0.1097412-0.2365112-0.2166138-0.3891602-0.3202515    c-1.203186-0.8165894-2.9024658-1.1229248-4.3279419-1.2525635c-2.100769-0.190979-4.223877,0.2929688-6.0371094,1.3701782    c-4.2747192,2.5396118-19.4497681,11.8609009-19.4497681,11.8609009L25.5648804,17.737793l-5.5245972,3.3152466    l18.4137573,14.4251099l-12.4483643,7.7049561l-10.8503418-5.8522949l-2.6245117,1.5917969L22.8741455,51.651001    c0,0,13.8840942-3.6704712,17.3115234-5.8488159c3.4274292-2.1784058,32.0834961-19.5682373,32.0834961-19.5682373    C73.0701294,25.6784058,73.8519897,25.0935669,74.6252441,24.5004272z"></path><polygon points="57.1630859,49.1953125 54.4599609,43.0498047 51.7138672,44.2578125 55.4736328,52.8056641     60.6621094,51.3071289 62.2128906,59.230957 65.1572266,58.6547852 62.9765625,47.5161133   "></polygon><polygon points="72.6044922,51.2587891 75.5351562,50.6201172 72.8569336,38.3354492 67.1630859,41.6176758     64.5825195,36.4316406 61.8969727,37.7685547 65.8984375,45.809082 70.800293,42.9838867   "></polygon><polygon points="49.609375,64.3154297 52.5585938,63.7646484 50.746582,54.0673828 45.2753906,56.1884766 43.4516602,50.1274414     40.5786133,50.9916992 43.3369141,60.1572266 48.4614258,58.1708984   "></polygon><path d="M67.944519,62.0543213v28h20v-28H67.944519z M75.944519,78.0543213h-4v-4h4V78.0543213z M75.944519,70.2943115h-4v-4h4    V70.2943115z M83.944519,78.0543213h-4v-4h4V78.0543213z M83.944519,70.2943115h-4v-4h4V70.2943115z"></path><path d="M19.944519,90.0543213h20v-28h-20V90.0543213z M31.944519,66.2943115h4v4h-4V66.2943115z M31.944519,74.0543213h4v4h-4    V74.0543213z M23.944519,66.2943115h4v4h-4V66.2943115z M23.944519,74.0543213h4v4h-4V74.0543213z"></path><path d="M44.4336548,90.0543213h20v-21h-20V90.0543213z M56.4336548,74.0543213h4v4h-4V74.0543213z M48.4336548,74.0543213h4v4h-4    V74.0543213z"></path></g></g></svg>