<svg height='100px' width='100px'  fill="#ffffff" xmlns="http://www.w3.org/2000/svg" xmlns:xlink="http://www.w3.org/1999/xlink" version="1.1" x="0px" y="0px" viewBox="0 0 92.7 99" style="enable-background:new 0 0 92.7 99;" xml:space="preserve"><path d="M52.5,84.4c-0.7,0-1.3-0.4-1.5-1.1c-0.1-0.4-0.2-0.7-0.3-1.1c-0.2-0.8,0.3-1.7,1.1-1.9c0.9-0.2,1.7,0.3,1.9,1.1  c0.1,0.3,0.2,0.6,0.3,0.9c0.3,0.8-0.2,1.7-1,2C52.8,84.3,52.6,84.4,52.5,84.4z"></path><path d="M51.6,79.3c-0.9,0-1.6-0.7-1.6-1.5l0-0.4c0-0.6,0-1.2,0.1-1.9c0.1-0.9,0.8-1.5,1.7-1.4c0.9,0.1,1.5,0.9,1.4,1.7  c0,0.5-0.1,1-0.1,1.5l0,0.3C53.2,78.6,52.5,79.3,51.6,79.3C51.6,79.3,51.6,79.3,51.6,79.3z M52.6,73.3c-0.2,0-0.4,0-0.5-0.1  c-0.8-0.3-1.2-1.2-1-2c0.3-0.7,0.5-1.4,0.9-2.1c0.4-0.8,1.3-1.1,2.1-0.7c0.8,0.4,1.1,1.3,0.7,2.1c-0.3,0.6-0.5,1.1-0.7,1.7  C53.8,72.9,53.2,73.3,52.6,73.3z M55.6,68c-0.4,0-0.7-0.1-1-0.4c-0.7-0.6-0.8-1.6-0.2-2.2c0.5-0.6,1-1.1,1.5-1.6  c0.6-0.6,1.6-0.6,2.2,0.1c0.6,0.6,0.6,1.6-0.1,2.2c-0.5,0.4-0.9,0.9-1.3,1.4C56.5,67.8,56.1,68,55.6,68z M60.3,64.1  c-0.5,0-1.1-0.3-1.4-0.8c-0.5-0.7-0.2-1.7,0.5-2.2c0.6-0.4,1.3-0.7,2-1c0.8-0.4,1.7,0,2.1,0.8c0.4,0.8,0,1.7-0.8,2.1  c-0.6,0.3-1.1,0.6-1.7,0.9C60.8,64,60.5,64.1,60.3,64.1z M65.9,61.8c-0.7,0-1.4-0.5-1.5-1.2c-0.2-0.8,0.3-1.7,1.2-1.9  c0.7-0.2,1.4-0.3,2.2-0.4c0.9-0.1,1.7,0.5,1.8,1.4c0.1,0.9-0.5,1.7-1.4,1.8c-0.6,0.1-1.2,0.2-1.9,0.3C66.1,61.7,66,61.8,65.9,61.8z"></path><path d="M73.1,61.4c-0.1,0-0.1,0-0.2,0c-0.3,0-0.6-0.1-1-0.1c-0.9-0.1-1.5-0.8-1.4-1.7c0.1-0.9,0.8-1.5,1.7-1.4  c0.4,0,0.7,0.1,1.1,0.1c0.9,0.1,1.5,0.9,1.4,1.8C74.5,60.8,73.9,61.4,73.1,61.4z"></path><path d="M44.1,62.7c-0.2,0-0.3,0-0.5-0.1l-3.7-0.9c-3.6-0.9-6.9-3.1-9.1-6l-0.8-1c-1.6-2-2.2-4.7-1.8-7.2c0.4-2.3,1.1-4.1,2-5.4  c2.2-3.2,6.7-2.6,9-1.7c1.1,0.4,1.6,1.6,1.2,2.7c-0.4,1.1-1.6,1.6-2.7,1.2l0,0c-0.6-0.2-3.2-0.9-4,0.2c-0.5,0.8-1,2.1-1.3,3.8  c-0.2,1.4,0.1,2.8,1,3.9l0.8,1c1.7,2.2,4.1,3.8,6.8,4.5l3.7,0.9c1.1,0.3,1.8,1.4,1.5,2.6C45.9,62.1,45.1,62.7,44.1,62.7z"></path><path d="M90.6,86.6H83c-1.2,0-2.1-0.9-2.1-2.1s0.9-2.1,2.1-2.1h2.5l-14-14c-0.8-0.8-0.8-2.2,0-3c0.8-0.8,2.2-0.8,3,0L92.1,83  c0.6,0.6,0.8,1.5,0.5,2.3C92.2,86.1,91.5,86.6,90.6,86.6z"></path><path d="M90.6,86.6c-1.2,0-2.1-0.9-2.1-2.1v-7.2c0-1.2,0.9-2.1,2.1-2.1s2.1,0.9,2.1,2.1v7.2C92.7,85.7,91.8,86.6,90.6,86.6z"></path><path d="M78.2,99h-7.6c-1.2,0-2.1-0.9-2.1-2.1s0.9-2.1,2.1-2.1h2.5l-14-14c-0.8-0.8-0.8-2.2,0-3c0.8-0.8,2.2-0.8,3,0l17.5,17.5  c0.6,0.6,0.8,1.5,0.5,2.3C79.9,98.5,79.1,99,78.2,99z"></path><path d="M78.2,99c-1.2,0-2.1-0.9-2.1-2.1v-7.2c0-1.2,0.9-2.1,2.1-2.1s2.1,0.9,2.1,2.1v7.2C80.3,98.1,79.4,99,78.2,99z"></path><path d="M51.4,92.9c-0.5,0-1-0.2-1.4-0.5c-0.9-0.8-1-2.1-0.2-3l2.3-2.7c0.8-0.9,2.1-1,3-0.2c0.9,0.8,1,2.1,0.2,3L53,92.2  C52.6,92.7,52,92.9,51.4,92.9z"></path><path d="M14.8,92.9c-1.2,0-2.1-0.9-2.1-2.1c0-1,0.7-1.9,1.7-2.1c1.3-1.2,3.7-8.2,5.3-15.6C-0.7,49.4-1.7,32.8,1.2,23.1  c3.1-10.8,12.4-19.1,25.5-23c1.1-0.3,2.3,0.3,2.6,1.4s-0.3,2.3-1.4,2.6C22.3,5.7,9.1,11,5.2,24.2c-3.7,12.7,2.7,28.9,18.4,47  c0.4,0.5,0.6,1.2,0.5,1.8C19.9,92.9,16.1,92.9,14.8,92.9z"></path><path d="M79.3,60.9c-0.4,0-0.9-0.1-1.3-0.4l-2.5-1.9c-0.5-0.4-0.8-1-0.8-1.6c0-0.6,0.2-1.2,0.7-1.7l3.7-3.4l-6.8-10.7  c-0.3-0.5-0.4-1-0.3-1.6c0-0.1,1.9-9.1,0-15.4c-1.3-4.6-12.1-13.4-18.6-17.9c-1-0.7-1.2-2-0.5-2.9c0.7-1,2-1.2,2.9-0.5  c1.8,1.3,18,12.7,20.2,20.2c1.8,6.2,0.7,14,0.2,16.6l7.3,11.5c0.5,0.9,0.4,2-0.4,2.7l-3.1,2.8l0.5,0.4c0.9,0.7,1.1,2,0.4,2.9  C80.6,60.6,80,60.9,79.3,60.9z"></path></svg>