<svg height='100px' width='100px'  fill="#ffffff" xmlns="http://www.w3.org/2000/svg" viewBox="0 0 512 512" x="0px" y="0px"><g><path d="M184,140a12,12,0,1,0-12,12A12.013,12.013,0,0,0,184,140Z"></path><path d="M244,152a12,12,0,1,0-12-12A12.013,12.013,0,0,0,244,152Z"></path><path d="M208,200a24.028,24.028,0,0,0,24-24H216a8,8,0,0,1-16,0H184A24.028,24.028,0,0,0,208,200Z"></path><path d="M134.588,392a22.412,22.412,0,0,0-22.557,24.7A25.682,25.682,0,0,0,137.412,440a22.412,22.412,0,0,0,22.557-24.7A25.682,25.682,0,0,0,134.588,392Zm7.8,29.934a6.635,6.635,0,0,1-4.98,2.066,9.819,9.819,0,0,1-9.443-8.7,6.748,6.748,0,0,1,1.639-5.231,6.635,6.635,0,0,1,4.98-2.066,9.819,9.819,0,0,1,9.443,8.7A6.748,6.748,0,0,1,142.392,421.934Z"></path><path d="M496,440a56,56,0,0,0-56-56h-7.675A8.215,8.215,0,0,1,424,376.2a7.979,7.979,0,0,1,8-8.2h23.454c13.427,0,24.769-10.987,24.543-24.411A24.029,24.029,0,0,0,456,320H432a56.562,56.562,0,0,0-8.337.623,53.106,53.106,0,0,0-5.291-29.766L416,286.111V256a7.957,7.957,0,0,0-7.846-8A41.245,41.245,0,0,0,370.5,272H349.5a41.247,41.247,0,0,0-37.658-24A7.957,7.957,0,0,0,304,256v18.734A47.867,47.867,0,0,0,288,272H248V237.285A79.4,79.4,0,0,0,286.4,184h.95c17.6,0,32.386-13.931,32.643-31.525a32.009,32.009,0,0,0-16-28.17V109.258a47.995,47.995,0,1,0-46.09-82.622A87.463,87.463,0,0,0,216,16H200a88,88,0,0,0-88,88v20.305a32.009,32.009,0,0,0-16,28.17C96.26,170.069,111.05,184,128.646,184h.95A79.4,79.4,0,0,0,168,237.286V272H123.8a47.946,47.946,0,0,0-47.7,42.7L73.73,336H38.246a22.244,22.244,0,0,0-21.581,27.642l28.42,120.044A16,16,0,0,0,60.654,496H440a56.172,56.172,0,0,0,9.32-.779c.029,0,.057-.012.086-.016l.068-.014A55.784,55.784,0,0,0,496,440Zm-27.714-28.28A40.019,40.019,0,0,1,456,476.683v-18.8c.333-.3.665-.6.987-.918a24.009,24.009,0,0,0-9.527-39.775A70.487,70.487,0,0,0,434.594,400H440A39.709,39.709,0,0,1,468.286,411.72Zm-49.849-73.353A39.782,39.782,0,0,1,432,336h24a8,8,0,0,1,0,16H432a23.976,23.976,0,0,0-23.09,17.437l-4.5-13.49A53.627,53.627,0,0,0,418.437,338.367ZM320,288V265.292A25.269,25.269,0,0,1,336,281.3l.41,1.231A8,8,0,0,0,344,288h32a8,8,0,0,0,7.59-5.472L384,281.3a25.273,25.273,0,0,1,16-16.007V288a7.987,7.987,0,0,0,.845,3.577l3.217,6.436A37.3,37.3,0,0,1,370.7,352h-21.39a37.305,37.305,0,0,1-33.367-53.988l3.217-6.435A7.987,7.987,0,0,0,320,288ZM267.6,480a22.18,22.18,0,0,0,.353-11.072L266.862,464h50.911a35.669,35.669,0,0,0-5.609,16Zm33.945-188.973A53.248,53.248,0,0,0,320,359.191V448H290.054A69.953,69.953,0,0,0,288,365.176V288A31.756,31.756,0,0,1,301.549,291.027ZM272,288v80a8,8,0,0,0,1.883,5.156,54.021,54.021,0,0,1-.009,69.7A8.007,8.007,0,0,0,272,448h-8.694l-20.365-91.64a25.852,25.852,0,0,0-13.12-17.313,50.747,50.747,0,0,0,8.543-5.217,49.965,49.965,0,0,0,18.118-26.4L262.034,288Zm-88-16V244.338a80.487,80.487,0,0,0,48,0V272a16.011,16.011,0,0,0,13.457,15.778l-4.36,15.257A34.429,34.429,0,0,1,208,328a34.566,34.566,0,0,1-33.1-24.968l-4.359-15.254A16.011,16.011,0,0,0,184,272ZM288,168V136a16,16,0,0,1,0,32Zm0-136a32,32,0,0,1,15.2,60.159A87.984,87.984,0,0,0,272.074,36.23,31.719,31.719,0,0,1,288,32ZM128,104a72.081,72.081,0,0,1,72-72h16a72.081,72.081,0,0,1,72,72v16h-3.056L255.155,60.422A8,8,0,0,0,243,57.753c-.627.5-63.214,50.264-108.759,60.482q-3.232.728-6.244,1.157Zm-16,48a16.019,16.019,0,0,1,16-16v32A16.019,16.019,0,0,1,112,152Zm32,16V132.244c38.386-10.838,83.322-42.578,101.186-55.983L272,129.889V168a64,64,0,1,1-128,0Zm9.966,120,5.552,19.427A50.451,50.451,0,0,0,180.846,336H144V288ZM92,316.464A31.962,31.962,0,0,1,123.8,288H128v48H89.829ZM70.054,480a9.985,9.985,0,0,1-9.7-7.575L32.186,359.756a6.171,6.171,0,0,1-.186-1.51A6.253,6.253,0,0,1,38.246,352H217.561a9.94,9.94,0,0,1,9.761,7.831L252.338,472.4a6.246,6.246,0,0,1-6.1,7.6ZM400,479.982V416H384v63.986l-23.7.006a19.152,19.152,0,0,1,5.356-10.335A8,8,0,0,0,368,464V416H352v44.925A34.98,34.98,0,0,0,344.157,480l-15.866,0a19.472,19.472,0,0,1,5.366-10.343A8,8,0,0,0,336,464V366.319A53.225,53.225,0,0,0,349.305,368H370.7a52.99,52.99,0,0,0,19.618-3.757l10.1,30.287a8,8,0,0,0,4.619,4.9,55.44,55.44,0,0,1,25.4,20.449,56.339,56.339,0,0,1,4.334,7.644A55.183,55.183,0,0,1,440,451.08v28.892Z"></path><rect x="328" y="304" width="16" height="16"></rect><rect x="376" y="304" width="16" height="16"></rect></g></svg>