<svg height='100px' width='100px'  fill="#ffffff" xmlns="http://www.w3.org/2000/svg" xmlns:xlink="http://www.w3.org/1999/xlink" version="1.1" x="0px" y="0px" viewBox="-17.5 -17.5 100 100" enable-background="new -17.5 -17.5 100 100" xml:space="preserve"><path d="M40.059,54.266c-1.415,0-2.566,1.15-2.566,2.564s1.151,2.564,2.566,2.564c1.414,0,2.564-1.15,2.564-2.564  S41.473,54.266,40.059,54.266z"></path><circle cx="55.174" cy="41.847" r="2.565"></circle><circle cx="24.942" cy="27.527" r="2.565"></circle><path d="M40.059,39.281c-1.415,0-2.566,1.15-2.566,2.565s1.151,2.565,2.566,2.565c1.414,0,2.564-1.15,2.564-2.565  S41.473,39.281,40.059,39.281z"></path><circle cx="40.059" cy="27.527" r="2.565"></circle><circle cx="24.942" cy="41.847" r="2.565"></circle><path d="M40.059,36.408c-2.999,0-5.439,2.439-5.439,5.438c0,2.998,2.44,5.438,5.439,5.438c2.998,0,5.438-2.439,5.438-5.438  C45.496,38.848,43.057,36.408,40.059,36.408z M40.059,45.912c-2.242,0-4.066-1.824-4.066-4.065s1.824-4.065,4.066-4.065  c2.241,0,4.064,1.824,4.064,4.065S42.3,45.912,40.059,45.912z"></path><path d="M9.827,54.266c-1.415,0-2.565,1.15-2.565,2.564s1.15,2.564,2.565,2.564c1.414,0,2.564-1.15,2.564-2.564  S11.241,54.266,9.827,54.266z"></path><circle cx="-5.289" cy="27.527" r="2.565"></circle><circle cx="-5.289" cy="41.847" r="2.565"></circle><path d="M9.827,24.962c-1.415,0-2.565,1.15-2.565,2.565s1.15,2.565,2.565,2.565c1.414,0,2.564-1.15,2.564-2.565  S11.241,24.962,9.827,24.962z"></path><circle cx="24.942" cy="56.83" r="2.564"></circle><path d="M9.827,39.281c-1.415,0-2.565,1.15-2.565,2.565s1.15,2.565,2.565,2.565c1.414,0,2.564-1.15,2.564-2.565  S11.241,39.281,9.827,39.281z"></path><circle cx="-5.289" cy="56.83" r="2.564"></circle><circle cx="55.174" cy="27.527" r="2.565"></circle><path d="M33.25-0.118v-5.084c0-0.414-0.335-0.75-0.749-0.75s-0.75,0.336-0.75,0.75v5.084H33.25z"></path><path d="M47.039-0.118v-5.084c0-0.414-0.336-0.75-0.75-0.75s-0.75,0.336-0.75,0.75v5.084H47.039z"></path><path d="M79.041,13.404h-93.082v57.548h93.082V13.404z M40.059,23.462c2.241,0,4.064,1.824,4.064,4.065s-1.823,4.065-4.064,4.065  c-2.242,0-4.066-1.824-4.066-4.065S37.816,23.462,40.059,23.462z M-5.289,60.895c-2.241,0-4.064-1.823-4.064-4.064  s1.823-4.064,4.064-4.064s4.064,1.823,4.064,4.064S-3.048,60.895-5.289,60.895z M-5.289,45.912c-2.241,0-4.064-1.824-4.064-4.065  s1.823-4.065,4.064-4.065s4.064,1.824,4.064,4.065S-3.048,45.912-5.289,45.912z M-5.289,31.592c-2.241,0-4.064-1.824-4.064-4.065  s1.823-4.065,4.064-4.065s4.064,1.824,4.064,4.065S-3.048,31.592-5.289,31.592z M9.827,60.895c-2.241,0-4.065-1.823-4.065-4.064  s1.824-4.064,4.065-4.064s4.064,1.823,4.064,4.064S12.068,60.895,9.827,60.895z M9.827,45.912c-2.241,0-4.065-1.824-4.065-4.065  s1.824-4.065,4.065-4.065s4.064,1.824,4.064,4.065S12.068,45.912,9.827,45.912z M9.827,31.592c-2.241,0-4.065-1.824-4.065-4.065  s1.824-4.065,4.065-4.065s4.064,1.824,4.064,4.065S12.068,31.592,9.827,31.592z M24.942,60.895c-2.241,0-4.064-1.823-4.064-4.064  s1.823-4.064,4.064-4.064s4.064,1.823,4.064,4.064S27.184,60.895,24.942,60.895z M24.942,45.912c-2.241,0-4.064-1.824-4.064-4.065  s1.823-4.065,4.064-4.065s4.064,1.824,4.064,4.065S27.184,45.912,24.942,45.912z M24.942,31.592c-2.241,0-4.064-1.824-4.064-4.065  s1.823-4.065,4.064-4.065s4.064,1.824,4.064,4.065S27.184,31.592,24.942,31.592z M40.059,60.895c-2.242,0-4.066-1.823-4.066-4.064  s1.824-4.064,4.066-4.064c2.241,0,4.064,1.823,4.064,4.064S42.3,60.895,40.059,60.895z M40.059,48.784  c-3.826,0-6.939-3.112-6.939-6.938c0-3.826,3.113-6.938,6.939-6.938c3.825,0,6.938,3.112,6.938,6.938  C46.996,45.672,43.884,48.784,40.059,48.784z M55.174,45.912c-2.241,0-4.064-1.824-4.064-4.065s1.823-4.065,4.064-4.065  s4.064,1.824,4.064,4.065S57.415,45.912,55.174,45.912z M55.174,31.592c-2.241,0-4.064-1.824-4.064-4.065s1.823-4.065,4.064-4.065  s4.064,1.824,4.064,4.065S57.415,31.592,55.174,31.592z M70.289,45.912c-2.241,0-4.064-1.824-4.064-4.065s1.823-4.065,4.064-4.065  s4.064,1.824,4.064,4.065S72.53,45.912,70.289,45.912z M70.289,31.592c-2.241,0-4.064-1.824-4.064-4.065s1.823-4.065,4.064-4.065  s4.064,1.824,4.064,4.065S72.53,31.592,70.289,31.592z"></path><path d="M74.619-0.118v-5.084c0-0.414-0.336-0.75-0.75-0.75s-0.75,0.336-0.75,0.75v5.084H74.619z"></path><path d="M-8.119-0.118v-5.084c0-0.414-0.336-0.75-0.75-0.75s-0.75,0.336-0.75,0.75v5.084H-8.119z"></path><path d="M19.461-0.118v-5.084c0-0.414-0.336-0.75-0.75-0.75s-0.75,0.336-0.75,0.75v5.084H19.461z"></path><path d="M5.671-0.118v-5.084c0-0.414-0.336-0.75-0.75-0.75s-0.75,0.336-0.75,0.75v5.084H5.671z"></path><path d="M60.83-0.118v-5.084c0-0.414-0.336-0.75-0.75-0.75s-0.75,0.336-0.75,0.75v5.084H60.83z"></path><circle cx="70.289" cy="27.527" r="2.565"></circle><rect x="-14.041" y="1.382" width="93.082" height="10.522"></rect><circle cx="70.289" cy="41.847" r="2.565"></circle></svg>