<svg height='100px' width='100px'  fill="#ffffff" xmlns="http://www.w3.org/2000/svg" viewBox="0 0 128 128" x="0px" y="0px"><title>healthcare, medical, hospital, people, advice, informative, talking</title><g><path d="M71.069,19.659a.924.924,0,0,1,0,1.847.924.924,0,1,1,0-1.847Z"></path><path d="M65.71,20.449a1.308,1.308,0,1,1-1.313,1.3A1.31,1.31,0,0,1,65.71,20.449Z"></path><circle cx="59.401" cy="20.951" r="1.932"></circle><rect x="48.991" y="56.799" width="2.347" height="3.937" rx="1.174" ry="1.174"></rect><rect x="79.608" y="55.817" width="2.357" height="3.362" rx="1.178" ry="1.178"></rect><path d="M28.5,123.693a1,1,0,0,1-.977-.793c-1.891-8.931-.341-18.884,3.605-23.153a6.272,6.272,0,0,1,5.542-2.195,1,1,0,0,1,.862,1.122,1.013,1.013,0,0,1-1.121.862,4.278,4.278,0,0,0-3.814,1.569c-3.488,3.772-4.858,13.164-3.117,21.381a1,1,0,0,1-.772,1.185A.98.98,0,0,1,28.5,123.693Z"></path><path d="M47.357,123.779a1,1,0,0,1-.958-.716c-.146-.489-.34-1.384-.61-2.623-1.018-4.663-3.133-14.366-6.433-18.871a1,1,0,1,1,1.613-1.182c3.551,4.846,5.647,14.462,6.774,19.627.251,1.152.449,2.061.573,2.479a1,1,0,0,1-.673,1.244A1.011,1.011,0,0,1,47.357,123.779Z"></path><path d="M76.412,92c-1.171-3.049-3.079-5.167-5.236-5.812a4.587,4.587,0,0,0-4.068.685,9.165,9.165,0,0,0-2.14,3.05,5.128,5.128,0,0,0-1.637-2.18A2.709,2.709,0,0,0,61.08,87.3c-1.854.464-1.835,2.4-1.826,3.451l.035,2.669c.029,2.354.059,4.789.1,5.983.012.4-.241.739-.935,1.512-.031-.019-.067-.027-.1-.043a.986.986,0,0,0-.217-.093.892.892,0,0,0-.09,0,.993.993,0,0,0-.293-.007c-.014,0-.027.013-.041.016a.987.987,0,0,0-.326.125,36.481,36.481,0,0,0-4.336,3.129,1,1,0,0,0,1.328,1.5,32.888,32.888,0,0,1,3.279-2.417,22.778,22.778,0,0,0,5.982,5.827c.137.086.289.163.434.244a39.375,39.375,0,0,1-5.8,5.727,1,1,0,0,0,1.192,1.606,41.786,41.786,0,0,0,6.954-7.041l0,0,.01-.012c.008-.009.009-.022.016-.032a.973.973,0,0,0,.129-.216c.007-.018,0-.036.01-.054a.971.971,0,0,0,.038-.206.983.983,0,0,0,.015-.179,1.082,1.082,0,0,0-.04-.186.951.951,0,0,0-.057-.181.969.969,0,0,0-.1-.15.959.959,0,0,0-.133-.159c-.014-.012-.02-.03-.035-.042a1.032,1.032,0,0,0-.128-.066,1.007,1.007,0,0,0-.121-.079c-.041-.017-.074-.041-.115-.058a41.694,41.694,0,0,1,4.314-2.837c.671-.4,1.2-.717,1.506-.937C77.789,99.764,77.619,95.129,76.412,92ZM70.57,102.462c-.238.172-.761.484-1.366.846a36.155,36.155,0,0,0-5.15,3.506,21.571,21.571,0,0,1-4.341-4.3l.039-.043c.938-1.033,1.68-1.848,1.641-3.136-.046-1.176-.076-3.6-.1-5.939l-.035-2.668c-.011-1.2.091-1.432.306-1.485a.709.709,0,0,1,.624.14,5.607,5.607,0,0,1,1.56,3.664,1.008,1.008,0,0,0,.079.288c.007.016.019.03.027.046a1,1,0,0,0,.167.237c.023.024.047.046.072.069a1.027,1.027,0,0,0,.26.163c.012.006.021.017.033.022h.011l.013.007a5.282,5.282,0,0,1,1.97,1.64,1,1,0,1,0,1.635-1.152A7.615,7.615,0,0,0,66,92.484c.671-1.595,1.649-3.529,2.278-3.985a2.591,2.591,0,0,1,2.325-.391c1.557.466,2.994,2.147,3.942,4.615C75.951,96.362,74.652,99.546,70.57,102.462Z"></path><path d="M90.031,123.7a1,1,0,0,1-.978-1.216c.36-1.63.712-3.387,1.075-5.2,1.9-9.458,4.048-20.176,9.165-22.932a6.025,6.025,0,0,1,5.332-.137,1,1,0,0,1-.75,1.854,4.07,4.07,0,0,0-3.634.044c-4.289,2.31-6.431,12.986-8.152,21.564-.365,1.823-.72,3.593-1.083,5.235A1,1,0,0,1,90.031,123.7Z"></path><path d="M101.764,123.7a1.02,1.02,0,0,1-.135-.009,1,1,0,0,1-.858-1.125,38.189,38.189,0,0,1,.967-3.77c1.468-5.188,4.2-14.844,3.06-20.341a1,1,0,1,1,1.958-.406c1.241,5.976-1.472,15.563-3.093,21.291-.449,1.585-.836,2.954-.909,3.493A1,1,0,0,1,101.764,123.7Z"></path><path d="M39.575,64.474a1,1,0,0,1-.94-.66h0s-.19-.461-.511-.461a1,1,0,0,1,0-2,2.641,2.641,0,0,1,2.392,1.78,1,1,0,0,1-.941,1.341Z"></path><path d="M54.01,70.815h-.016a19.151,19.151,0,0,1-3.141-.351,1,1,0,0,1,.4-1.96,17.134,17.134,0,0,0,2.774.311,1,1,0,0,1-.014,2Z"></path><path d="M79.184,68.728a5.251,5.251,0,0,1-.523-.137A1,1,0,1,1,79.3,66.7a5.033,5.033,0,0,0,2.165.133,1,1,0,1,1,.354,1.968A6.955,6.955,0,0,1,79.184,68.728Z"></path><path d="M52.83,73.641a3.348,3.348,0,0,1-2.556-1.36,1,1,0,0,1,1.555-1.259c.744.918,1.3.632,1.7.424a1.382,1.382,0,0,1,.426-.16,1.014,1.014,0,0,1,1.178.985,1,1,0,0,1-.681.949A3.585,3.585,0,0,1,52.83,73.641Zm1.3-1.37h0Z"></path><path d="M58.008,38.755a.961.961,0,0,1-.4-.1,1.11,1.11,0,0,1-.641-.812h0a9.874,9.874,0,0,1,.589-3.3A13.45,13.45,0,0,1,46.977,21.4V19.724A13.428,13.428,0,0,1,60.305,6.286c3.076-.01,6.143-.01,9.22,0A13.447,13.447,0,0,1,82.863,19.722c.011.561.011,1.129,0,1.7a13.436,13.436,0,0,1-13.34,13.429H64.271C59.847,38.152,58.6,38.755,58.008,38.755ZM64.915,8.278q-2.3,0-4.6.008A11.426,11.426,0,0,0,48.977,19.724V21.4a11.437,11.437,0,0,0,10.011,11.36,1,1,0,0,1,.825,1.316c-.217.636-.416,1.3-.569,1.881,1.128-.743,2.714-1.873,4.094-2.908a1,1,0,0,1,.6-.2h5.583A11.435,11.435,0,0,0,80.863,21.4c.011-.561.011-1.1,0-1.655A11.447,11.447,0,0,0,69.519,8.286Q67.214,8.279,64.915,8.278Z"></path><path d="M126.25,63c.029-4.9-2.106-6.5-4.171-8.055a10.649,10.649,0,0,1-3.359-3.531c-.321-.592-.665-1.388-1.062-2.31-2.658-6.167-8.184-19-29.445-15.989-6.582.934-12.9,5.367-15.209,9.114a9.495,9.495,0,0,0-.143,7.784,6.024,6.024,0,0,0,3.95,3.468c.115.6.242,1.071.35,1.47a2.985,2.985,0,0,1-.033,2.379,7.874,7.874,0,0,1-1.855,2.838,3.578,3.578,0,0,0-1.286,2.547,3.652,3.652,0,0,0,1.9,2.938l.093.069c.553.405,2.021,1.482,2.015,2.2-.019,2.293-.054,6.562,2.914,8.3,1.7.979,3.642.8,5.353.644a7.217,7.217,0,0,1,3.584.212c.856.412,3.1,4.737,1.55,7.964v0h0a69.52,69.52,0,0,1-5.356,8.126,69.977,69.977,0,0,0-5.858,8.976c-1.462,3.144-2.037,5.265-1.356,8.823.364,1.861,2.556,4.893,3.5,5.986.541.676,1.415,4.543,1.123,5.451a1,1,0,1,0,1.9.613c.514-1.6-.56-6.258-1.508-7.364a16.594,16.594,0,0,1-3.053-5.066c-.584-3.053-.123-4.741,1.206-7.6a69.443,69.443,0,0,1,5.67-8.653,81.728,81.728,0,0,0,5.221-7.822c.017,0,.032,0,.049,0,3.395,0,9.066-2.566,11.2-3.593,6.478,8.946,7.7,22.168,3.6,39.344l-.051.212a1,1,0,0,0,.741,1.2.975.975,0,0,0,.232.028,1,1,0,0,0,.972-.768l.05-.212c4.339-18.156,2.869-32.15-4.362-41.6-.111-.211-.781-1.5-1.5-3.24.731-.033,1.508-.082,2.386-.154C115.717,76.912,126.214,69.2,126.25,63ZM86.074,74.865c-1.55.143-3.016.279-4.166-.384-1.81-1.056-1.939-3.934-1.917-6.547.015-1.738-1.767-3.045-2.829-3.824l-.093-.068c-.749-.551-1.077-.845-1.082-1.337,0-.346.182-.57.746-1.171A9.828,9.828,0,0,0,79,58.044a4.885,4.885,0,0,0,.095-3.616c-.049-.183-.1-.381-.153-.589,3.894.515,6.562,1.774,8.107,3.859,1.663,2.242,2.053,5.444,1.192,9.787-.548,2.767-.091,5.045,1.359,6.771a7.18,7.18,0,0,0,1.018.971A8.883,8.883,0,0,0,86.074,74.865Zm7.618,9.6a10.368,10.368,0,0,0-2.221-8.624c2.275,1.393,5.654,2.1,10.1,2.1l.1,0c.529,1.345,1.064,2.5,1.431,3.255C100.712,82.326,96.38,84.157,93.692,84.463Zm8.832-8.538h0c-5.723.117-9.661-.895-11.393-2.956-1.055-1.257-1.358-2.923-.928-5.1.976-4.928.47-8.646-1.547-11.367s-5.4-4.274-10.359-4.768c-.138-.018-.277-.034-.433-.065a4.085,4.085,0,0,1-3.175-2.483,7.6,7.6,0,0,1,.023-5.915c2.02-3.281,7.865-7.342,13.786-8.182a41.254,41.254,0,0,1,5.784-.432c14.975,0,19.173,9.734,21.543,15.233.417.966.777,1.8,1.14,2.471a12.455,12.455,0,0,0,3.916,4.177c1.972,1.482,3.4,2.553,3.373,6.444-.027,4.68-9.217,11.977-18.224,12.749C104.679,75.847,103.566,75.907,102.524,75.925Z"></path><path d="M42.13,87.453a36.717,36.717,0,0,0-3.442-3.465,13,13,0,0,1,2.545-3.976c.58-.547,2.551-.481,4.287-.425,2.621.087,5.59.184,7.493-1.308,1.515-1.185,2.207-3.161,2.113-6.025-.009-.6-.052-1.23-.134-2A1.091,1.091,0,0,1,55,69.925a3.35,3.35,0,0,1,1.084-1.94,4.681,4.681,0,0,0,1.825-3.39,4.094,4.094,0,0,0-1.9-3.1,5.063,5.063,0,0,1-1.894-2.45,10.515,10.515,0,0,1-.306-3.293,19.578,19.578,0,0,0-1.772-9.081,12.352,12.352,0,0,0,.448-5.8c-.827-4.637-5.363-9.322-13.636-9.334-6.209,0-10.786,2.9-15.211,5.706a47.655,47.655,0,0,1-8.033,4.388C5.664,45.547,1.278,53.82,2.083,59.973c1.373,10.584,9.446,14.6,14.541,14.717.553.011,1.106.034,1.662.056.8.033,1.612.066,2.438.066.7,0,1.406-.034,2.122-.1.528.434,1.05.848,1.558,1.247a24.531,24.531,0,0,1,3.422,3.049,31.121,31.121,0,0,0-5.208,6.682c-.013.021-.024.043-.037.064l0,.008A65.956,65.956,0,0,0,14.418,111c-.346,4.823-.152,11.41-.128,11.756a1,1,0,0,0,1,.928c.022,0,.045,0,.067,0a1,1,0,0,0,.932-1.062c-.025-.405-.2-6.893.128-11.479a64.925,64.925,0,0,1,7.609-23.871c8.844.824,18.117,8.106,24.445,14.214,4.116,8.489,6.635,16.817,6.422,21.251a1,1,0,0,0,.951,1.047h.049a1,1,0,0,0,1-.952c.278-5.793-3.278-15.36-6.7-22.38A61.655,61.655,0,0,0,42.13,87.453Zm9.679-31.705a12.138,12.138,0,0,0,.407,3.931,6.98,6.98,0,0,0,2.518,3.361c.8.659,1.152.979,1.18,1.638A2.891,2.891,0,0,1,54.752,66.5a5.289,5.289,0,0,0-1.728,3.144,2.922,2.922,0,0,0-.02.837c.075.7.114,1.273.123,1.826.073,2.228-.355,3.626-1.347,4.4-1.332,1.044-3.916.959-6.195.883-2.435-.08-4.54-.15-5.727.972a14.159,14.159,0,0,0-2.774,4.116,45.323,45.323,0,0,0-6.373-3.934c.5-.649,1.323-1.761,2.229-3.062.55-.78,1.12-1.62,1.66-2.46a24.879,24.879,0,0,0,2.68-4.993,5.526,5.526,0,0,0,1.751.293,1,1,0,0,0,0-2,3.516,3.516,0,0,1-2.818-1.407,3.424,3.424,0,0,1-.719-2.12,3.528,3.528,0,0,1,5.362-3.023h0l.012,0a.986.986,0,0,0,.354.128.944.944,0,0,0,.168-.005,1.03,1.03,0,0,0,.215-.009,1.011,1.011,0,0,0,.333-.15c.007,0,.014,0,.02-.009h0l0,0A29.886,29.886,0,0,0,50.971,49.42,18.354,18.354,0,0,1,51.809,55.748ZM23.059,72.687a29.567,29.567,0,0,1-4.691.061c-.57-.023-1.138-.046-1.7-.057-3.046-.07-11.247-2.538-12.6-12.977-.7-5.383,3.284-12.681,12.27-16.214a49.27,49.27,0,0,0,8.372-4.559c4.378-2.775,8.513-5.4,14.14-5.4,7.115.011,10.987,3.867,11.669,7.688a10.552,10.552,0,0,1-.491,5.222c-1.474,4.51-5.366,8.927-8.743,11.488a5.522,5.522,0,0,0-7.789,5.05,5.427,5.427,0,0,0,.7,2.669c-.261.321-.519.632-.77.922C29.174,71.448,25.657,72.4,23.059,72.687Zm2.58,1.7-.159-.125c3.422-.871,6.412-2.883,9.45-6.363.183-.211.368-.432.555-.657a19.379,19.379,0,0,1-2.565,4.9c-1.407,2.184-2.983,4.319-3.774,5.357A27.815,27.815,0,0,0,25.639,74.384Zm-.452,10.994A27.673,27.673,0,0,1,29.362,80.3a40.873,40.873,0,0,1,7.492,4.743,33.337,33.337,0,0,1,3.775,3.735,47.2,47.2,0,0,1,5.134,7.547C39.861,91.281,32.487,86.412,25.187,85.378Z"></path><path d="M51.531,65.888c-.68,0-1.8-.331-2.772-2.151a13.792,13.792,0,0,1-.889-9.422c.682-2.172,1.867-2.6,2.513-2.659,2.352-.223,3.909,3.24,4.242,6.775a12.533,12.533,0,0,1-.388,4.789c-.682,2.172-1.867,2.6-2.512,2.659C51.665,65.885,51.6,65.888,51.531,65.888Zm-.943-12.242H50.57c-.132.013-.5.339-.793,1.268a11.861,11.861,0,0,0,.744,7.876c.461.858.891,1.114,1.016,1.1s.5-.339.793-1.268a10.7,10.7,0,0,0,.3-4C52.324,55.334,51.062,53.646,50.588,53.646Z"></path></g></svg>