<svg height='100px' width='100px'  fill="#ffffff" xmlns="http://www.w3.org/2000/svg" xmlns:xlink="http://www.w3.org/1999/xlink" viewBox="0 0 64 64" version="1.1" x="0px" y="0px"><title>037 nerd glasses expression face girl emoticon woman</title><desc>Created with Sketch.</desc><g stroke="none" stroke-width="1" fill="none" fill-rule="evenodd"><g transform="translate(-568.000000, -326.000000)"><g transform="translate(88.000000, 86.000000)" fill="#ffffff" fill-rule="nonzero"><path d="M501.508563,301.606638 C491.442957,300.753511 485.411479,298.504065 482.407,294.774331 C480.663919,292.610485 479.946126,290.000927 480.003133,286.756088 C480.044655,284.392683 480.317506,282.709672 481.332269,277.633392 C482.094835,273.818713 482.427244,271.761272 482.570068,269.451222 C483.733857,250.627955 492.895283,240 511.999982,240 C531.104682,240 540.266108,250.627955 541.429897,269.451222 C541.572721,271.761272 541.90513,273.818713 542.667695,277.633392 C543.682459,282.709672 543.95531,284.392683 543.996832,286.756088 C544.053839,290.000927 543.336046,292.610485 541.592965,294.774331 C538.58849,298.50406 532.557025,300.753505 522.491445,301.606634 C519.301098,303.142782 515.746806,304 512,304 C508.253197,304 504.698907,303.142783 501.508563,301.606638 Z M533.028129,289.059566 C530.774514,291.686522 528.431805,293 526,293 C531.554037,290.500785 533.39497,283.254013 531.522799,271.259686 C526.44142,268.589148 523.371692,264.835919 522.313613,260 C520.107218,265.103841 516.539761,268.770508 511.61124,271 C513.870413,267.666667 514.674522,265 514.023565,263 C511.639061,267.666667 506.963913,271 499.998121,273 C501.665333,270.333333 502.498939,267.919164 502.498939,265.757493 C500.610587,268.794888 497.198153,271.12266 492.261636,272.74081 C490.76564,283.852326 492.678428,290.60539 498,293 C495.568195,293 493.225486,291.686522 490.971871,289.059566 C495.05807,296.774298 502.943182,302 512,302 C521.056818,302 528.94193,296.774298 533.028129,289.059566 Z"></path></g><g transform="translate(104.000000, 122.000000)" fill="#ffffff" fill-rule="nonzero"><path d="M482.020906,244.356929 C482.435915,242.967213 483.865717,242 485.5,242 C487.134283,242 488.564085,242.967213 488.979094,244.356929 C489.124032,244.842275 488.538365,245.210701 488.163613,244.869924 C487.48151,244.24966 486.527051,243.888467 485.5,243.888467 C484.472949,243.888467 483.51849,244.24966 482.836387,244.869924 C482.461635,245.210701 481.875968,244.842275 482.020906,244.356929 Z"></path><path d="M503.020906,244.356929 C503.435915,242.967213 504.865717,242 506.5,242 C508.134283,242 509.564085,242.967213 509.979094,244.356929 C510.124032,244.842275 509.538365,245.210701 509.163613,244.869924 C508.48151,244.24966 507.527051,243.888467 506.5,243.888467 C505.472949,243.888467 504.51849,244.24966 503.836387,244.869924 C503.461635,245.210701 502.875968,244.842275 503.020906,244.356929 Z"></path><path d="M490.920142,254.829498 C492.362446,255.545214 494.132757,255.941352 496,255.941352 C497.867243,255.941352 499.637554,255.545214 501.079858,254.829498 C501.574551,254.584017 502.043421,255.203597 501.672759,255.612977 C500.316527,257.110875 498.240754,258 496,258 C493.759246,258 491.683473,257.110875 490.327241,255.612977 C489.956579,255.203597 490.425449,254.584017 490.920142,254.829498 Z"></path><path d="M493.837534,238.598484 L496,238.598484 L498.162466,238.598484 C507.389818,235.41074 513.926345,237.975582 513.926345,237.975582 C513.926345,237.975582 517,237.812247 517,239.519121 C517,241.269477 515.454038,240.580798 514.787628,242.439485 C514.121217,244.298172 514.856768,251.000006 506.159751,251 C498.493035,251.000007 497.542236,241.750152 496.647099,241.750152 L496,241.750152 L495.352901,241.750152 C494.457764,241.750152 493.420549,251.000007 485.753833,251 C477.056815,251.000006 477.878783,244.298172 477.212372,242.439485 C476.545962,240.580798 475,241.269477 475,239.519121 C475,237.812247 478.073655,237.975582 478.073655,237.975582 C478.073655,237.975582 484.610182,235.41074 493.837534,238.598484 Z M485.320201,249.506313 C492.927834,249.506313 493.518176,242.214583 493.518176,240.954558 C493.518176,239.694534 490.100946,238.673082 485.885579,238.673082 C481.670211,238.673082 478.252981,239.694534 478.252981,240.954558 C478.252981,242.214583 477.712568,249.506313 485.320201,249.506313 Z M506.679799,249.517302 C514.12877,249.517302 513.747019,242.214583 513.747019,240.954558 C513.747019,239.694534 510.329789,238.673082 506.114421,238.673082 C501.899054,238.673082 498.481824,239.694534 498.481824,240.954558 C498.481824,242.214583 499.230828,249.517302 506.679799,249.517302 Z"></path></g></g></g></svg>