<svg height='100px' width='100px'  fill="#ffffff" xmlns="http://www.w3.org/2000/svg" xmlns:xlink="http://www.w3.org/1999/xlink" version="1.1" x="0px" y="0px" viewBox="0 0 100 100" style="enable-background:new 0 0 100 100;" xml:space="preserve"><path d="M88.234375,72.4951172c-2.0585938-2.0585938-5.4101562-2.0585938-7.46875,0  c-2.059082,2.0595703-2.059082,5.4091797,0,7.46875c1.0292969,1.0292969,2.3818359,1.5449219,3.734375,1.5449219  s2.7050781-0.515625,3.734375-1.5449219C90.293457,77.9042969,90.293457,74.5546875,88.234375,72.4951172z M86.8203125,78.5498047  c-1.2392578,1.2402344-3.4013672,1.2402344-4.640625,0c-0.6196289-0.6201172-0.9609375-1.4433594-0.9609375-2.3203125  s0.3413086-1.7001953,0.9609375-2.3203125S83.6235352,72.9482422,84.5,72.9482422s1.7006836,0.3408203,2.3203125,0.9609375  s0.9609375,1.4433594,0.9609375,2.3203125S87.4399414,77.9296875,86.8203125,78.5498047z"></path><path d="M75.1943359,88.4638672c2.0444336-2.0439453,2.0444336-5.3710938,0-7.4169922  c-2.0449219-2.0449219-5.371582-2.0449219-7.4174805,0c-2.0439453,2.0458984-2.0439453,5.3730469,0.0004883,7.4169922  c1.0224609,1.0224609,2.3652344,1.5332031,3.7084961,1.5332031S74.171875,89.4863281,75.1943359,88.4638672z M69.1914062,87.0498047  c-1.2646484-1.2646484-1.2646484-3.3232422,0-4.5888672c0.6328125-0.6318359,1.4633789-0.9482422,2.2944336-0.9482422  s1.6616211,0.3164062,2.2939453,0.9482422c1.2651367,1.265625,1.2651367,3.3242188,0.0004883,4.5888672  C72.5146484,88.3134766,70.4560547,88.3134766,69.1914062,87.0498047z"></path><path d="M52.2060547,38.0273438c-0.9418945,0.9414062-1.4609375,2.1943359-1.4609375,3.5263672  s0.519043,2.5849609,1.4609375,3.5263672c0.9418945,0.9423828,2.1948242,1.4609375,3.5268555,1.4609375  s2.5844727-0.5185547,3.5263672-1.4609375c0.9418945-0.9414062,1.4609375-2.1943359,1.4609375-3.5263672  s-0.519043-2.5849609-1.4609375-3.5263672c-0.9418945-0.9423828-2.1943359-1.4609375-3.5263672-1.4609375  S53.1479492,37.0849609,52.2060547,38.0273438z M58.7202148,41.5537109c0,0.7978516-0.3110352,1.5478516-0.875,2.1123047  c-1.1289062,1.1289062-3.0961914,1.1289062-4.2250977,0c-0.5639648-0.5644531-0.875-1.3144531-0.875-2.1123047  s0.3110352-1.5478516,0.875-2.1123047c0.5644531-0.5644531,1.3149414-0.875,2.112793-0.875s1.5478516,0.3105469,2.1123047,0.875  C58.4091797,40.0058594,58.7202148,40.7558594,58.7202148,41.5537109z"></path><path d="M17.3178711,21.8398438c1.387207,0,2.7749023-0.5283203,3.8310547-1.5849609  c1.0234375-1.0224609,1.5869141-2.3837891,1.5869141-3.8310547s-0.5634766-2.8076172-1.5869141-3.8310547  c-2.1123047-2.1113281-5.550293-2.1103516-7.6625977,0c-1.0234375,1.0234375-1.5869141,2.3837891-1.5869141,3.8310547  s0.5634766,2.8085938,1.5869141,3.8310547C14.5424805,21.3115234,15.9301758,21.8398438,17.3178711,21.8398438z   M14.9003906,14.0068359c0.6665039-0.6660156,1.5419922-0.9990234,2.4174805-0.9990234  c0.875,0,1.7504883,0.3330078,2.4169922,0.9990234c0.6455078,0.6455078,1.0009766,1.5039062,1.0009766,2.4169922  s-0.3554688,1.7714844-1.0009766,2.4169922c-1.3339844,1.3320312-3.5024414,1.3310547-4.8344727,0  c-0.6455078-0.6455078-1.0009766-1.5039062-1.0009766-2.4169922S14.2548828,14.6523438,14.9003906,14.0068359z"></path><path d="M10.1225586,71.7265625l2.5629883,4.6894531l-2.3867188,4.78125  c-0.1699219,0.3398438-0.1323242,0.7470703,0.0976562,1.0507812c0.2294922,0.3027344,0.6098633,0.4482422,0.9853516,0.3779297  L16.5986328,81.625l3.7788086,3.7558594c0.1904297,0.1894531,0.4453125,0.2910156,0.7050781,0.2910156  c0.109375,0,0.2192383-0.0175781,0.3256836-0.0546875c0.3603516-0.1240234,0.6191406-0.4423828,0.6665039-0.8203125  l0.6660156-5.3076172l4.7216797-2.4570312c0.3369141-0.1748047,0.5454102-0.5253906,0.5385742-0.9052734  c-0.0073242-0.3798828-0.2290039-0.7226562-0.5722656-0.8857422l-4.809082-2.2753906L21.7563477,67.6875  c-0.0615234-0.3769531-0.331543-0.6855469-0.6967773-0.7958984c-0.3647461-0.1123047-0.7617188-0.0039062-1.0209961,0.2744141  l-3.6362305,3.8974609l-5.2509766-0.8046875c-0.3754883-0.0576172-0.7514648,0.1025391-0.9702148,0.4140625  C9.9628906,70.984375,9.9399414,71.3925781,10.1225586,71.7265625z M16.621582,73.1201172  c0.324707,0.0507812,0.6567383-0.0644531,0.8823242-0.3056641l2.6074219-2.7949219l0.6191406,3.7871094  c0.0527344,0.3242188,0.262207,0.6025391,0.559082,0.7431641L24.7524414,76.1875l-3.3999023,1.7695312  c-0.2915039,0.1513672-0.4897461,0.4365234-0.5307617,0.7617188L20.34375,82.5273438l-2.7094727-2.6933594  c-0.1889648-0.1884766-0.4433594-0.2910156-0.7050781-0.2910156c-0.0625,0-0.1254883,0.0058594-0.1884766,0.0175781  l-3.7490234,0.7197266l1.7163086-3.4394531c0.1464844-0.2929688,0.1401367-0.6386719-0.0170898-0.9257812l-1.84375-3.3730469  L16.621582,73.1201172z"></path><path d="M87.0043945,18.3925781l-4.809082-2.2763672l-0.8632812-5.2773438  c-0.0615234-0.3769531-0.331543-0.6855469-0.6967773-0.7958984c-0.3618164-0.1113281-0.7602539-0.0039062-1.0209961,0.2744141  l-3.6367188,3.8964844l-5.2504883-0.8046875c-0.3759766-0.0556641-0.7514648,0.1025391-0.9702148,0.4140625  c-0.2182617,0.3115234-0.2412109,0.7197266-0.0585938,1.0537109l2.5629883,4.6894531l-2.3867188,4.7822266  c-0.1699219,0.3398438-0.1323242,0.7470703,0.0976562,1.0507812c0.2299805,0.3027344,0.6118164,0.4482422,0.9853516,0.3779297  l5.2172852-1.0019531L79.953125,28.53125c0.1904297,0.1894531,0.4453125,0.2910156,0.7050781,0.2910156  c0.109375,0,0.2192383-0.0175781,0.3256836-0.0546875c0.3603516-0.1240234,0.6191406-0.4423828,0.6665039-0.8203125  l0.6660156-5.3076172l4.7216797-2.4550781c0.3369141-0.1757812,0.5454102-0.5263672,0.5385742-0.90625  C87.5693359,18.8984375,87.3476562,18.5556641,87.0043945,18.3925781z M80.9282227,21.1064453  c-0.2915039,0.1523438-0.4897461,0.4375-0.5307617,0.7626953l-0.4780273,3.8085938l-2.7094727-2.6933594  c-0.1889648-0.1884766-0.4433594-0.2910156-0.7050781-0.2910156c-0.0625,0-0.1259766,0.0058594-0.1884766,0.0175781  l-3.7490234,0.7207031l1.7163086-3.4404297c0.1464844-0.2929688,0.1401367-0.6386719-0.0170898-0.9257812l-1.84375-3.3730469  l3.7739258,0.578125c0.3266602,0.0517578,0.6572266-0.0644531,0.8823242-0.3056641l2.6079102-2.7939453l0.6191406,3.7861328  c0.0527344,0.3242188,0.2617188,0.6025391,0.559082,0.7431641l3.4628906,1.6386719L80.9282227,21.1064453z"></path><path d="M89.6352539,47.4316406c-0.4257812-0.3505859-1.0566406-0.2900391-1.4072266,0.1367188L58.6025391,83.5634766  c-2.0200195,2.4599609-4.8769531,3.9853516-8.0449219,4.296875c-3.1665039,0.3115234-6.2666016-0.6308594-8.7260742-2.6503906  c-5.0776367-4.1699219-5.815918-11.6933594-1.6455078-16.7714844l13.40625-16.3242188  c0.3505859-0.4267578,0.2885742-1.0566406-0.1381836-1.4072266c-0.4262695-0.3505859-1.0576172-0.2880859-1.4077148,0.1376953  l-13.40625,16.3242188c-4.8701172,5.9296875-4.0078125,14.7167969,1.921875,19.5859375  c2.5126953,2.0644531,5.5966797,3.1640625,8.8061523,3.1640625c0.4594727,0,0.921875-0.0224609,1.3847656-0.0683594  c3.699707-0.3632812,7.0361328-2.1455078,9.3945312-5.0166016l29.6245117-35.9941406  C90.1230469,48.4130859,90.0620117,47.7832031,89.6352539,47.4316406z"></path><path d="M55.1538086,68.8232422c-3.3427734-2.7460938-8.2924805-2.2578125-11.0361328,1.0830078  s-2.2578125,8.2910156,1.0830078,11.0351562c1.456543,1.1962891,3.2177734,1.7783203,4.9692383,1.7783203  c2.2675781,0,4.5185547-0.9765625,6.0668945-2.8613281c1.3291016-1.6181641,1.9482422-3.6572266,1.7436523-5.7421875  C57.7758789,72.0322266,56.7719727,70.1523438,55.1538086,68.8232422z M54.690918,78.5888672  c-2.0439453,2.4892578-5.7314453,2.8515625-8.2207031,0.8076172c-2.4887695-2.0449219-2.8505859-5.7324219-0.8066406-8.2207031  c1.1533203-1.4042969,2.8295898-2.1318359,4.519043-2.1318359c1.3046875,0,2.6171875,0.4335938,3.7016602,1.3242188  c1.2055664,0.9902344,1.9536133,2.390625,2.105957,3.9433594S55.6811523,77.3837891,54.690918,78.5888672z"></path><path d="M89.6347656,37.1191406c-0.4262695-0.3515625-1.0566406-0.2880859-1.4077148,0.1376953L63.9824219,66.7773438  c-0.3505859,0.4267578-0.2885742,1.0566406,0.1381836,1.4072266c0.1860352,0.1533203,0.4106445,0.2275391,0.6342773,0.2275391  c0.2890625,0,0.5756836-0.125,0.7734375-0.3652344l24.2446289-29.5205078  C90.1235352,38.0996094,90.0615234,37.4697266,89.6347656,37.1191406z"></path><path d="M71.7773438,46.1035156l-12.3198242,15c-0.3505859,0.4267578-0.2885742,1.0566406,0.1381836,1.4072266  c0.1860352,0.1533203,0.4106445,0.2275391,0.6342773,0.2275391c0.2890625,0,0.5756836-0.125,0.7734375-0.3652344l12.3198242-15  c0.3505859-0.4267578,0.2885742-1.0566406-0.1381836-1.4072266C72.7587891,45.6142578,72.128418,45.6777344,71.7773438,46.1035156z"></path><path d="M71.5668945,35.8085938L52.2480469,59.3310547c-0.3505859,0.4267578-0.2885742,1.0566406,0.1381836,1.4072266  c0.1860352,0.1533203,0.4106445,0.2275391,0.6342773,0.2275391c0.2890625,0,0.5756836-0.125,0.7734375-0.3652344  L73.112793,37.078125c0.3505859-0.4267578,0.2885742-1.0566406-0.1381836-1.4072266  C72.5483398,35.3183594,71.9169922,35.3828125,71.5668945,35.8085938z"></path><path d="M15.0698242,56.1162109c2.5063477,2.0644531,5.5825195,3.1650391,8.7841797,3.1650391  c0.456543,0,0.9165039-0.0224609,1.3769531-0.0683594c3.6914062-0.3613281,7.0205078-2.1435547,9.3735352-5.0166016  l22.6269531-27.5722656c0.3505859-0.4277344,0.2885742-1.0576172-0.1386719-1.4082031  c-0.4262695-0.3496094-1.0566406-0.2861328-1.4072266,0.1386719L33.0581055,52.9277344  c-2.0146484,2.4599609-4.8637695,3.9853516-8.0224609,4.2949219c-3.1601562,0.3125-6.2441406-0.6328125-8.6943359-2.6494141  c-5.0634766-4.1708984-5.7993164-11.6953125-1.6411133-16.7734375l13.3681641-16.3232422  c0.3500977-0.4277344,0.2875977-1.0576172-0.1396484-1.4072266c-0.4277344-0.3505859-1.0585938-0.2880859-1.4072266,0.1396484  L13.152832,36.5322266C8.2978516,42.4619141,9.1577148,51.2470703,15.0698242,56.1162109z"></path><path d="M23.8657227,36.109375c-2.168457,0.2128906-4.1245117,1.2597656-5.5073242,2.9482422  c-2.8520508,3.4824219-2.3466797,8.6425781,1.1259766,11.5019531c1.472168,1.2128906,3.2797852,1.859375,5.1611328,1.859375  c0.2680664,0,0.5380859-0.0126953,0.8085938-0.0390625c2.1689453-0.2128906,4.125-1.2597656,5.5073242-2.9482422  c2.8520508-3.4824219,2.347168-8.6416016-1.1254883-11.5019531C28.1533203,36.5439453,26.0356445,35.8984375,23.8657227,36.109375z   M29.4145508,48.1640625c-1.0439453,1.2744141-2.5195312,2.0644531-4.1552734,2.2246094  c-1.6367188,0.1669922-3.234375-0.3261719-4.503418-1.3720703c-2.6240234-2.1611328-3.0053711-6.0605469-0.8505859-8.6914062  c1.0439453-1.2744141,2.5200195-2.0644531,4.1557617-2.2246094c1.6352539-0.1621094,3.2338867,0.3261719,4.503418,1.3720703  C31.1879883,41.6337891,31.5693359,45.5332031,29.4145508,48.1640625z"></path><path d="M39.1953125,37.7744141c0.2895508,0,0.5766602-0.125,0.7739258-0.3662109l21.1074219-25.7744141  c0.3500977-0.4277344,0.2875977-1.0576172-0.1396484-1.4072266c-0.4282227-0.3505859-1.059082-0.2880859-1.4072266,0.1396484  L38.4223633,36.140625c-0.3500977,0.4277344-0.2875977,1.0576172,0.1396484,1.4072266  C38.7480469,37.7001953,38.972168,37.7744141,39.1953125,37.7744141z"></path><path d="M47.6025391,15.3271484c-0.4282227-0.3496094-1.0581055-0.2871094-1.4072266,0.1396484l-12.2841797,15  c-0.3500977,0.4277344-0.2875977,1.0576172,0.1396484,1.4072266c0.1860352,0.1523438,0.4101562,0.2265625,0.6333008,0.2265625  c0.2895508,0,0.5766602-0.125,0.7739258-0.3662109l12.2841797-15  C48.0922852,16.3066406,48.0297852,15.6767578,47.6025391,15.3271484z"></path><path d="M26.8618164,30.1015625c0.1860352,0.1523438,0.4101562,0.2265625,0.6333008,0.2265625  c0.2895508,0,0.5766602-0.125,0.7739258-0.3662109l13.6826172-16.7080078  c0.3500977-0.4277344,0.2875977-1.0576172-0.1396484-1.4072266c-0.4277344-0.3505859-1.0585938-0.2880859-1.4072266,0.1396484  L26.722168,28.6943359C26.3720703,29.1220703,26.4345703,29.7519531,26.8618164,30.1015625z"></path></svg>