<svg height='100px' width='100px'  fill="#ffffff" xmlns="http://www.w3.org/2000/svg" xmlns:xlink="http://www.w3.org/1999/xlink" version="1.1" x="0px" y="0px" viewBox="0 0 99 82.1" style="enable-background:new 0 0 99 82.1;" xml:space="preserve"><g><path d="M97.6,36.9H66.1c-0.1-0.6-0.2-1.1-0.4-1.7c-0.7-2.3-3.4-5.2-6.2-7.7l6.3-21.2l6.1,20.2c0.2,0.5,0.6,0.9,1.1,1   c0.5,0.1,1.1-0.1,1.4-0.6l4.1-5.9l4.6,9.6c0.3,0.7,1.2,1,1.9,0.7c0.7-0.3,1-1.2,0.7-1.9L80,17.6c-0.2-0.5-0.7-0.8-1.2-0.8   c-0.5-0.1-1,0.2-1.3,0.6l-3.8,5.5L67.1,1c-0.2-0.6-0.7-1-1.4-1c0,0,0,0,0,0c-0.6,0-1.2,0.4-1.4,1l-7.3,24.5   c-0.2-0.2-0.4-0.3-0.6-0.5l-1.9-10.1c-0.1-0.6-0.7-1.1-1.3-1.1c-0.6,0-1.2,0.4-1.4,1l-1.8,6c-1.8-0.7-4.9-1.6-8.5-1.9   c-0.8-0.1-1.5,0.5-1.5,1.3c-0.1,0.8,0.5,1.5,1.3,1.5c3.5,0.3,6.4,1.2,8,1.8l-1.8,6.1c-0.2,0.7,0.2,1.5,1,1.8c0.8,0.2,1.5-0.2,1.8-1   l1.6-5.4c0.7,0.5,1.4,1,2.1,1.6l1.2,6.1c0.1,0.6,0.7,1.1,1.3,1.1c0,0,0,0,0.1,0c0.6,0,1.2-0.4,1.4-1l0.7-2.3c2.2,2.1,4,4.1,4.4,5.5   c0.1,0.3,0.2,0.6,0.2,0.9H49c-0.8,0-1.4,0.6-1.4,1.4c0,0.8,0.6,1.4,1.4,1.4h14.5c0.1,3.4-0.6,6.6-0.6,6.7c-0.1,0.4,0,0.7,0.2,1.1   l4.6,7.2l-2.5,2.3c-0.3,0.3-0.5,0.7-0.5,1.1c0,0.4,0.2,0.8,0.6,1.1l1.7,1.3c0.1,0.1,0.1,0.2,0.1,0.3s0,0.2-0.1,0.3L65.8,62   c-0.3,0.3-0.5,0.7-0.4,1.2c0.1,0.4,0.3,0.8,0.7,1.1l0.8,0.4c0.3,0.2,0.5,0.5,0.5,0.8l0,1c0,0.4-0.2,0.7-0.6,0.8   c-1.3,0.5-2.2,1.7-2.4,3.1L64.1,72c0,0.4-0.3,0.7-0.6,0.8l-1.8,0.6c-0.1,0-0.2,0.1-0.3,0.1h-7c-1.2,0-2.3,0.6-3,1.6l-3.1,4.3H26.6   L30.7,69c0.2-0.5,0.1-1.1-0.2-1.5c-9.5-10.9-13.8-20.5-13-28.6c0.1-0.8-0.5-1.5-1.3-1.6c-0.8-0.1-1.5,0.5-1.6,1.3   c-1,8.8,3.4,18.9,13.1,30.1l-4.5,11.5c-0.2,0.4-0.1,0.9,0.1,1.3c0.3,0.4,0.7,0.6,1.2,0.6h24.6c0.5,0,0.9-0.2,1.1-0.6l3.5-4.9   c0.2-0.2,0.4-0.4,0.7-0.4h7c0.4,0,0.8-0.1,1.2-0.2l1.7-0.6c1.4-0.5,2.3-1.7,2.5-3.2l0.2-1.5c0-0.3,0.3-0.6,0.6-0.8   c1.4-0.5,2.3-1.9,2.4-3.3l0-1c0-1.1-0.4-2.1-1.1-2.8c0.7-0.6,1-1.5,0.9-2.4c-0.1-0.9-0.5-1.8-1.3-2.4l-0.3-0.3l2.1-1.9   c0.5-0.5,0.6-1.2,0.2-1.8l-4.9-7.7c0.2-1.1,0.6-3.8,0.5-6.7h31.3c0.8,0,1.4-0.6,1.4-1.4C99,37.5,98.4,36.9,97.6,36.9z M52.7,22.1   l0.3-0.9l0.2,1.2C53,22.3,52.9,22.2,52.7,22.1z"></path><path d="M37.5,49.6c0.5-0.7,2.2-0.3,2.7-0.1c0.7,0.3,1.5-0.1,1.8-0.8c0.3-0.7-0.1-1.5-0.8-1.8c-1.5-0.6-4.5-1-6,1.2   c-0.6,0.9-1.1,2.1-1.3,3.6c-0.3,1.7,0.1,3.5,1.2,4.8l0.5,0.7c1.5,2,3.7,3.4,6.1,4.1l2.5,0.6c0.1,0,0.2,0,0.3,0   c0.6,0,1.2-0.4,1.4-1.1c0.2-0.8-0.3-1.5-1-1.7l-2.5-0.6c-1.8-0.5-3.4-1.5-4.6-3l-0.5-0.7c-0.6-0.8-0.8-1.7-0.6-2.6   C36.8,51,37.1,50.1,37.5,49.6z"></path><path d="M13.8,18.1c0.9,0.5,2.1,0.8,3.4,0.8c1.9,0,3.9-0.6,5.4-2.2c2-2,2.7-4.6,1.8-6.9c-0.6-1.4-2-2.4-3.6-2.4l-0.7,0   c-1.9,0-3.5,1.4-3.8,3.3l-0.5,3.1c-0.1,0.8,0.4,1.5,1.2,1.6c0.8,0.1,1.5-0.4,1.6-1.2l0.5-3.1c0.1-0.5,0.5-0.9,1-0.9l0.7,0   c0,0,0,0,0,0c0.4,0,0.8,0.3,1,0.6c0.5,1.2,0.1,2.6-1.1,3.8c-1.5,1.5-4,1.7-5.5,0.9c-0.2-0.1-0.4-0.4-0.5-0.6c-0.2-0.8-1-1.2-1.7-1   c-0.8,0.2-1.2,1-1,1.7C12.2,16.7,12.9,17.6,13.8,18.1z"></path><path d="M23.3,17.1L23,19.2c-0.1,0.7,0,1.3,0.2,1.9l0.5,1.3c-0.9,0-1.8-0.2-2.5-0.6c-0.1-0.1-0.2-0.2-0.3-0.5   c-0.3-0.7-1.1-1.1-1.8-0.8c-0.7,0.3-1.1,1.1-0.8,1.8c0.3,0.8,0.8,1.4,1.4,1.8c1.3,0.9,3.2,1.2,5.1,1l2.8,7.1   c0.2,0.6,0.8,0.9,1.3,0.9c0.2,0,0.4,0,0.5-0.1c0.7-0.3,1.1-1.1,0.8-1.8l-2.8-7c0.5-0.3,1-0.7,1.5-1.1c2.2-2.2,2.8-4.9,1.5-7.3   c-0.6-1.2-1.8-1.9-3.2-2C25.4,13.6,23.6,15.1,23.3,17.1z M28.1,17.1c0.6,1.3,0.3,2.7-1,4c-0.2,0.2-0.3,0.3-0.5,0.5l-0.6-1.4   c-0.1-0.2-0.1-0.3-0.1-0.5l0.3-2.1c0.1-0.5,0.5-0.9,1-0.9c0,0,0,0,0.1,0C27.6,16.6,27.9,16.8,28.1,17.1z"></path><path d="M23.4,36.2c0.4,0,0.8-0.2,1.1-0.5c0.5-0.6,0.4-1.5-0.2-2C17.7,28.3,8.7,27,0.8,30.5c-0.7,0.3-1,1.2-0.7,1.9   c0.3,0.7,1.2,1,1.9,0.7c6.8-3,14.7-2,20.5,2.8C22.7,36.1,23.1,36.2,23.4,36.2z"></path><path d="M15.1,27.2c0.3,0.2,0.5,0.3,0.8,0.3c0.4,0,0.9-0.2,1.1-0.6c0.5-0.6,0.3-1.5-0.3-2l-3.5-2.6c-0.6-0.5-1.5-0.3-2,0.3   c-0.5,0.6-0.3,1.5,0.3,2L15.1,27.2z"></path><path d="M38.7,24.8c0.3,0,0.6-0.1,0.9-0.3c0.6-0.5,0.7-1.4,0.2-2C35.1,16.7,34,8.8,37,2c0.3-0.7,0-1.5-0.7-1.9   c-0.7-0.3-1.5,0-1.9,0.7c-3.5,7.8-2.2,16.8,3.2,23.4C37.9,24.6,38.3,24.8,38.7,24.8z"></path><path d="M35,28.4c0.2,0,0.4,0,0.6-0.1c0.7-0.3,1-1.2,0.7-1.9l-0.7-1.5c-0.3-0.7-1.2-1-1.9-0.7c-0.7,0.3-1,1.2-0.7,1.9l0.7,1.5   C33.9,28.1,34.4,28.4,35,28.4z"></path><path d="M7.2,19.6c0.2,0.5,0.8,0.8,1.3,0.8c0.2,0,0.4,0,0.6-0.1c0.7-0.3,1-1.2,0.7-1.9L9,16.9c-0.3-0.7-1.2-1-1.9-0.7   c-0.7,0.3-1,1.2-0.7,1.9L7.2,19.6z"></path><circle cx="5" cy="24.8" r="1.4"></circle><circle cx="28.4" cy="7.4" r="1.4"></circle></g></svg>