<svg height='100px' width='100px'  fill="#ffffff" xmlns="http://www.w3.org/2000/svg" xmlns:xlink="http://www.w3.org/1999/xlink" version="1.1" x="0px" y="0px" viewBox="0 0 99 86.6" style="enable-background:new 0 0 99 86.6;" xml:space="preserve"><g><path d="M68.1,55.9l-2.9-0.7c-2.1-0.5-4.1-1.8-5.4-3.6l-0.6-0.8c-0.7-0.9-1-2-0.8-3.1c0.2-1.3,0.6-2.4,1-3c0.6-0.9,2.6-0.3,3.2-0.1   c0.9,0.3,1.8-0.1,2.2-1c0.3-0.9-0.1-1.8-0.9-2.2c-1.8-0.7-5.3-1.2-7.1,1.4c-0.7,1-1.2,2.5-1.6,4.3c-0.4,2,0.2,4.1,1.4,5.7l0.6,0.8   c1.8,2.4,4.4,4.1,7.3,4.8l2.9,0.7c0.1,0,0.3,0.1,0.4,0.1c0.7,0,1.4-0.5,1.6-1.3C69.6,57,69,56.1,68.1,55.9z"></path><path d="M33.7,51.8c-0.4-0.8-1.4-1.2-2.2-0.8l-13,6.1c-0.8,0.4-1.2,1.4-0.8,2.2c0.3,0.6,0.9,1,1.5,1c0.2,0,0.5-0.1,0.7-0.2l13-6.1   C33.7,53.6,34.1,52.6,33.7,51.8z"></path><path d="M98.7,50l-5.8-9.1c0.4-2.1,1.3-8.3-0.2-13.2c-1.7-5.9-14.6-15-16-16c-0.1,0-0.1-0.1-0.2-0.1c-0.5-0.2-11.5-5.5-23-2.1   c-3.8,1.1-7.3,2.8-10.3,4.9c0,0,0,0-0.1,0l-3.6,0.3l-0.3-3.6c0-0.4-0.2-0.8-0.6-1.1c-0.3-0.3-0.8-0.4-1.2-0.4l-3.6,0.3l-0.3-3.6   c-0.1-0.9-0.9-1.6-1.8-1.5l-3.6,0.3l-0.3-3.6c0-0.4-0.2-0.8-0.6-1.1C27,0.1,26.6,0,26.1,0l-5.2,0.5c-0.9,0.1-1.6,0.9-1.5,1.8   l0.2,2.3c0.5,6,3.3,11.4,7.9,15.3l6.6,5.6c-1.1,2.7-1.7,5.7-1.8,8.8h-6.1l-4.5-4.5c-0.4-0.4-1-0.6-1.5-0.5c-0.5,0.1-1,0.5-1.2,1   l-1.4,3.4l-4-4c-0.4-0.4-1-0.6-1.5-0.5c-0.5,0.1-1,0.5-1.2,1l-1.3,3.1L6,29.7c-0.4-0.4-1-0.6-1.5-0.5c-0.5,0.1-1,0.5-1.2,1   l-3.1,7.7c-0.3,0.9,0.1,1.8,0.9,2.2c0.2,0.1,0.4,0.1,0.6,0.1c0.7,0,1.3-0.4,1.5-1l2.2-5.4l2.9,2.9l-0.5,1.2   c-0.3,0.9,0.1,1.8,0.9,2.2c0.2,0.1,0.4,0.1,0.6,0.1c0.7,0,1.3-0.4,1.5-1l2.2-5.4l3.2,3.2c0,0,0,0,0,0l-0.4,0.9   c-0.3,0.9,0.1,1.8,0.9,2.2c0.2,0.1,0.4,0.1,0.6,0.1c0.7,0,1.3-0.4,1.5-1l2.2-5.4l3.2,3.2c0.3,0.3,0.7,0.5,1.2,0.5h6.9   c0.2,2.1,0.7,4.2,1.3,6.4l-15.5,7.4c-0.1,0-0.2,0.1-0.3,0.2l-8.4,6.4C9.2,58.1,9,58.5,9,59c0,0.5,0.1,0.9,0.4,1.3   c0.2,0.2,4.1,4.5,10,4.5c1.5,0,3.1-0.3,4.9-1c7.4-3,15.4-7.2,15.6-7.4c1.2,2,2.7,4,4.2,6.1L29.4,72.7c-0.8,0.5-0.9,1.6-0.4,2.3   c0.3,0.5,0.8,0.7,1.4,0.7c0,0,0,0,0.1,0c0,0,0,0,0,0c2.1,0,3.7,1.7,3.7,3.8c0,1-0.4,1.9-1.1,2.6c-0.7,0.7-1.7,1.1-2.7,1.1   c-1,0-1.9-0.4-2.6-1.1c-0.7-0.7-1.1-1.7-1.1-2.7c0-0.9-0.7-1.7-1.6-1.7c0,0,0,0,0,0c-0.9,0-1.7,0.7-1.7,1.6c0,1.9,0.7,3.7,2,5   c1.3,1.4,3.1,2.1,5,2.1c0,0,0.1,0,0.1,0c1.8,0,3.6-0.7,4.9-2c1.4-1.3,2.1-3.1,2.1-5c0-2.6-1.3-4.8-3.4-6.1l12-8.4   c0.6,0.7,1.2,1.5,1.9,2.2l-5.4,13.5c-0.2,0.5-0.1,1.1,0.2,1.6c0.3,0.5,0.8,0.7,1.4,0.7h29c0.5,0,1-0.3,1.4-0.7l4.1-5.7   c0.2-0.3,0.5-0.5,0.9-0.5h8.3c0.5,0,1-0.1,1.5-0.2l2.1-0.7c1.6-0.6,2.8-2,3-3.7l0.2-1.8c0-0.4,0.3-0.8,0.7-0.9   c1.6-0.6,2.7-2.2,2.8-4l0-1.2c0-1.3-0.4-2.4-1.3-3.3c0.8-0.8,1.2-1.8,1.1-2.9c-0.1-1.1-0.6-2.1-1.5-2.8L96,54.4l2.5-2.3   C99.1,51.6,99.2,50.7,98.7,50z M22.9,4.3l-0.1-0.6l1.9-0.2l0.3,3.6c0.1,0.9,0.9,1.6,1.8,1.5l3.6-0.3l0.3,3.6   c0.1,0.9,0.9,1.6,1.8,1.5l3.6-0.3l0.3,3.6c0,0.4,0.2,0.8,0.6,1.1c0.3,0.3,0.8,0.4,1.2,0.4l0.7-0.1c-1.3,1.3-2.3,2.8-3.3,4.3l-6-5.1   C25.7,14,23.3,9.4,22.9,4.3z M22.9,60.7c-4.3,1.8-7.8-0.1-9.7-1.4l6.7-5.1L35,47.1c0.8,2.1,1.9,4.3,3.1,6.5   C37,54.1,29.7,58,22.9,60.7z M92.2,53.3c-0.4,0.3-0.6,0.8-0.5,1.3c0,0.5,0.3,1,0.7,1.3l2,1.5c0.1,0.1,0.2,0.2,0.2,0.3   c0,0.1,0,0.2-0.1,0.3l-1.5,1.4c-0.4,0.4-0.6,0.9-0.5,1.4c0.1,0.5,0.4,1,0.8,1.3l0.9,0.5c0.4,0.2,0.6,0.6,0.5,1l0,1.2   c0,0.4-0.3,0.8-0.7,1c-1.6,0.6-2.6,2-2.8,3.7L91,71.3c0,0.4-0.3,0.8-0.7,0.9l-2.1,0.7c-0.1,0-0.2,0.1-0.4,0.1h-8.3   c-1.4,0-2.8,0.7-3.6,1.8l-3.6,5H46.6l4.8-12.2c0.2-0.6,0.1-1.2-0.3-1.7C41.1,54.4,35.9,44,35.7,35c-0.1-3.7,0.7-7.1,2.4-10.2   c1.5-2.8,3.7-5.2,6.4-7.3c2.8-2.1,6.3-3.8,10-4.9C64.2,9.8,73.8,14,75,14.5c5.1,3.6,13.6,10.6,14.6,14.2c1.5,5,0,12.2,0,12.2   c-0.1,0.4,0,0.9,0.2,1.2l5.4,8.5L92.2,53.3z"></path></g></svg>