<svg height='100px' width='100px'  fill="#ffffff" xmlns="http://www.w3.org/2000/svg" xmlns:xlink="http://www.w3.org/1999/xlink" version="1.1" x="0px" y="0px" viewBox="0 0 50.4 50.4" enable-background="new 0 0 50.4 50.4" xml:space="preserve"><g><path d="M7.403,39.769l-2.772-8.997c-0.153-0.377-0.24-0.886-0.157-1.265c0.208-0.956,0.891-1.569,2.036-1.371   c0.763,0.132,1.293,0.714,1.579,1.594l2.836,9.011c0.579,1.936,1.893,3.083,3.929,3.434c0.509,0.088,1.073,0.102,1.696,0.033   l5.155-0.615c0.27-0.039,0.512-0.044,0.725-0.008c1.228,0.213,1.74,0.914,1.535,2.104c-0.156,0.891-0.787,1.392-1.898,1.506   l-5.344,0.582c-0.893,0.106-1.746,0.088-2.55-0.049C10.691,45.124,8.436,43.143,7.403,39.769z"></path><path d="M39.934,17.492c-0.226,0-0.452-0.077-0.637-0.229l-3.466-2.876c-0.425-0.352-0.483-0.98-0.132-1.404   c0.353-0.425,0.981-0.482,1.404-0.13l2.807,2.328l4.209-3.751c0.409-0.366,1.042-0.331,1.408,0.081   c0.367,0.411,0.331,1.042-0.081,1.408l-4.85,4.322C40.409,17.408,40.171,17.492,39.934,17.492L39.934,17.492z"></path><circle cx="4.266" cy="20.84" r="4.265"></circle><path d="M50.359,15.279c0-5.712-4.647-10.359-10.361-10.359c-5.711,0-10.358,4.647-10.358,10.359c0,2.614,0.981,4.998,2.585,6.824   L19.831,33.098l-2.871-8.785c-0.418-1.379-1.28-2.184-2.597-2.413c-1.017-0.177-1.981,0.029-2.89,0.613   c-0.909,0.584-1.45,1.384-1.625,2.397c-0.095,0.553-0.039,1.153,0.166,1.8l3.355,10.543c0.482,1.487,1.439,2.357,2.87,2.607   c0.339,0.057,0.705,0.069,1.101,0.038l9.589-1.207l-1.555,8.962c-0.265,1.539,0.342,2.433,1.828,2.689   c1.485,0.258,2.356-0.355,2.614-1.841l1.15-6.64c0.856,0.618,2.307,1.402,4.327,1.553l0.257,6.965h0.932l-0.258-6.941   c2.218-0.104,3.945-1.387,4.803-2.187L43,50.38h0.952l-4.511-20.855c0.007-0.01,0.024-0.044,0.027-0.048l-0.043-0.022l-0.849-3.926   c0.466,0.066,0.938,0.111,1.421,0.111C45.712,25.64,50.359,20.992,50.359,15.279z M30.383,24.981l2.486-2.206   c0.352,0.335,0.727,0.646,1.124,0.93l-1.43,2.727c-0.446,0.219-1.078,0.385-1.673,0C30.14,25.944,30.259,25.301,30.383,24.981z    M31.359,33.988c-0.35-0.48-0.739-0.817-1.164-1.03l1.461-2.789c0.507,0.873,1.506,1.99,3.233,2.324l0.183,4.956   c-1.516,0.026-2.597-0.633-3.155-1.074l0.016-0.091C32.071,35.477,31.878,34.713,31.359,33.988z M32.188,29.153l2.408-4.596   l0.259,6.991C33.148,31.126,32.422,29.756,32.188,29.153z M27.424,27.605l1.986-1.761c0.092,0.479,0.362,0.97,0.974,1.367   c0.438,0.284,0.876,0.389,1.287,0.389c0.101,0,0.197-0.013,0.293-0.023l-1.244,2.376l-0.009-0.026   c-0.017,0.003-1.738,0.554-2.627-0.332C27.272,28.783,27.395,27.782,27.424,27.605z M29.009,32.651l-8.268,0.886l5.757-5.109   c0.071,0.528,0.3,1.197,0.93,1.826c0.612,0.613,1.424,0.777,2.12,0.777c0.229,0,0.438-0.021,0.631-0.046l-0.84,1.604l0.332,0.174   c-0.047-0.01-0.091-0.031-0.138-0.039C29.359,32.692,29.185,32.669,29.009,32.651z M31.146,40.823l0.594-3.425   c0.717,0.482,1.807,1.002,3.231,1.002c0.045,0,0.091-0.007,0.137-0.008l0.15,4.089C33.173,42.296,31.773,41.346,31.146,40.823z    M35.529,24.611c0.652,0.312,1.34,0.559,2.057,0.732l0.87,4.025c-0.512,0.823-1.597,2.16-2.667,2.279L35.529,24.611z    M40.794,40.177c-0.462,0.496-2.254,2.218-4.604,2.332l-0.157-4.234c1.732-0.359,3.139-1.66,3.825-2.425L40.794,40.177z    M38.725,30.612l0.882,4.072c-0.188,0.247-1.718,2.16-3.607,2.644l-0.175-4.747C37.047,32.482,38.075,31.467,38.725,30.612z    M31.634,15.279c0-4.613,3.753-8.365,8.364-8.365c4.613,0,8.367,3.752,8.367,8.365c0,4.612-3.754,8.366-8.367,8.366   C35.387,23.646,31.634,19.892,31.634,15.279z"></path></g></svg>