<svg height='100px' width='100px'  fill="#ffffff" xmlns="http://www.w3.org/2000/svg" data-name="Layer 1" viewBox="0 0 91.92 82.44" x="0px" y="0px"><path d="M14.22,52.79a6.58,6.58,0,0,0,1-.08l29-4.31a6.66,6.66,0,0,0,5.6-7.56L46.27,17.09a6.66,6.66,0,0,0-7.56-5.6l-29,4.31a6.67,6.67,0,0,0-5.61,7.56L7.64,47.11A6.67,6.67,0,0,0,14.22,52.79ZM10,17.78l29-4.31a4,4,0,0,1,.68-.05,4.65,4.65,0,0,1,4.6,4l3.53,23.75a4.66,4.66,0,0,1-3.91,5.29l-29,4.31a4.67,4.67,0,0,1-5.29-3.92L6.09,23.07A4.66,4.66,0,0,1,10,17.78Z" transform="translate(-4.04 -8.78)"></path><path d="M53,44.79a6.64,6.64,0,0,0,2.67,4.34,6.56,6.56,0,0,0,3.9,1.27,6.35,6.35,0,0,0,1-.08l28.95-4.6a6.66,6.66,0,0,0,5.52-7.61L91.33,14.39a6.69,6.69,0,0,0-7.62-5.53l-28.95,4.6a6.69,6.69,0,0,0-5.53,7.62ZM52,17.31a4.62,4.62,0,0,1,3-1.87l29-4.6a4.49,4.49,0,0,1,.73-.06,4.63,4.63,0,0,1,2.73.9,4.57,4.57,0,0,1,1.86,3l3.77,23.71a4.66,4.66,0,0,1-3.87,5.33L60.3,48.35a4.66,4.66,0,0,1-3.46-.84,4.59,4.59,0,0,1-1.86-3L51.21,20.76A4.57,4.57,0,0,1,52,17.31Z" transform="translate(-4.04 -8.78)"></path><path d="M47.21,55.75a6.66,6.66,0,0,0-7.52-5.66l-29,4.11A6.67,6.67,0,0,0,5,61.72L8.37,85.5A6.69,6.69,0,0,0,15,91.22a5.82,5.82,0,0,0,.93-.07l29-4.1a6.67,6.67,0,0,0,5.66-7.52Zm.49,27.5a4.65,4.65,0,0,1-3.06,1.82h0l-29,4.1a4.58,4.58,0,0,1-3.44-.89,4.65,4.65,0,0,1-1.82-3.06L7,61.44a4.66,4.66,0,0,1,4-5.26l29-4.1a3.67,3.67,0,0,1,.66,0,4.65,4.65,0,0,1,4.6,4L48.6,79.81A4.62,4.62,0,0,1,47.7,83.25Z" transform="translate(-4.04 -8.78)"></path><path d="M95.87,77.17,91.94,53.48A6.67,6.67,0,0,0,84.28,48l-28.92,4.8a6.68,6.68,0,0,0-5.47,7.65l3.93,23.69a6.67,6.67,0,0,0,6.56,5.57,6.89,6.89,0,0,0,1.1-.09l28.92-4.8a6.68,6.68,0,0,0,5.47-7.66ZM93.08,81a4.59,4.59,0,0,1-3,1.88l-28.92,4.8a4.65,4.65,0,0,1-5.36-3.83L51.86,60.14a4.67,4.67,0,0,1,3.83-5.36L84.61,50a5,5,0,0,1,.77-.06A4.65,4.65,0,0,1,90,53.81L93.9,77.5A4.63,4.63,0,0,1,93.08,81Z" transform="translate(-4.04 -8.78)"></path><path d="M79.24,54.48a1,1,0,0,0-.93-.35L64,56.51a1,1,0,0,0-.78.64L58.07,70.77a1,1,0,0,0,.16,1L67.47,83a1,1,0,0,0,.78.37h.16L82.76,81a1,1,0,0,0,.77-.63l5.12-13.62a1,1,0,0,0-.17-1Zm2.62,24.61L68.65,81.28,60.14,70.93l4.71-12.54L78.06,56.2l8.51,10.35Z" transform="translate(-4.04 -8.78)"></path><path d="M76.85,58,66.58,59.71a1,1,0,0,0-.77.63l-3.66,9.75a1,1,0,0,0,.16,1l6.61,8a1,1,0,0,0,.78.36h.16l10.28-1.71a1,1,0,0,0,.77-.63l3.66-9.76a1,1,0,0,0-.16-1l-6.62-8.05A1,1,0,0,0,76.85,58Zm2.39,17.89L70.1,77.41l-5.88-7.16,3.26-8.67,9.13-1.51,5.89,7.15Z" transform="translate(-4.04 -8.78)"></path><path d="M27.94,65.33a.48.48,0,0,0-.51-.28.5.5,0,0,0-.43.4l-.71,4-4,.54a.5.5,0,0,0-.43.41.51.51,0,0,0,.26.53l3.53,1.89L25,76.71a.5.5,0,0,0,.25.53.53.53,0,0,0,.24.06.52.52,0,0,0,.35-.14l2.89-2.77,3.53,1.89a.5.5,0,0,0,.68-.66L31.18,72l2.89-2.77a.5.5,0,0,0-.42-.85l-4,.54Zm2.28,6.21a.52.52,0,0,0-.1.58l1.23,2.55-2.49-1.34a.5.5,0,0,0-.58.08l-2.05,2,.51-2.78a.51.51,0,0,0-.26-.53L24,70.72l2.8-.38a.51.51,0,0,0,.42-.41l.5-2.78,1.23,2.54a.52.52,0,0,0,.52.28l2.81-.39Z" transform="translate(-4.04 -8.78)"></path><path d="M42.77,63.55,31.92,65l-4.76-9.86a1,1,0,0,0-1.89.26L23.34,66.22,12.49,67.71a1,1,0,0,0-.34,1.87l9.65,5.17L19.87,85.53a1,1,0,0,0,1,1.17,1,1,0,0,0,.69-.28l7.9-7.58L39.09,84a1,1,0,0,0,1.38-1.32L35.7,72.84l7.9-7.58a1,1,0,0,0-.83-1.71Zm-9,8.35a1,1,0,0,0-.21,1.16l3.75,7.74-7.58-4.06a1,1,0,0,0-1.17.16l-6.2,5.95,1.52-8.46a1,1,0,0,0-.51-1.06l-7.58-4.06,8.52-1.17a1,1,0,0,0,.85-.81l1.52-8.46,3.74,7.74a1,1,0,0,0,1,.55L40,66Z" transform="translate(-4.04 -8.78)"></path><path d="M80,34.69l-7.76-9.54a1,1,0,0,0-1.72.31l-4,11.64a1,1,0,0,0,.19,1,1,1,0,0,0,.76.34h.18l11.75-2.1a1,1,0,0,0,.76-.64A1,1,0,0,0,80,34.69ZM69,36.14l2.86-8.33,5.55,6.83Z" transform="translate(-4.04 -8.78)"></path><path d="M61.11,44.5l.18,0,25.83-4.62a1,1,0,0,0,.76-.64,1,1,0,0,0-.16-1l-17.06-21a1,1,0,0,0-1.72.31L60.16,43.17a1,1,0,0,0,.19,1A1,1,0,0,0,61.11,44.5Zm9.14-24.57L85.09,38.19l-22.48,4Z" transform="translate(-4.04 -8.78)"></path><path d="M27,44.51A12.41,12.41,0,1,0,14.55,32.1,12.42,12.42,0,0,0,27,44.51Zm0-22.82A10.41,10.41,0,1,1,16.55,32.1,10.42,10.42,0,0,1,27,21.69Z" transform="translate(-4.04 -8.78)"></path><path d="M27,39.58a7.48,7.48,0,1,0-7.48-7.48A7.49,7.49,0,0,0,27,39.58Zm0-12.95a5.48,5.48,0,1,1-5.48,5.47A5.47,5.47,0,0,1,27,26.63Z" transform="translate(-4.04 -8.78)"></path><path d="M13,20a.5.5,0,1,0,.09-1,5.23,5.23,0,0,0-4.45,2,5,5,0,0,0-.76,4,.5.5,0,0,0,.49.39l.11,0a.49.49,0,0,0,.37-.6,4.09,4.09,0,0,1,.6-3.17A4.29,4.29,0,0,1,13,20Z" transform="translate(-4.04 -8.78)"></path><path d="M13.89,57.9a.5.5,0,0,0-.6-.38,6.07,6.07,0,0,0-3.55,2.37,6.48,6.48,0,0,0-.5,5.85.5.5,0,0,0,.46.3.48.48,0,0,0,.2,0,.5.5,0,0,0,.26-.65,5.39,5.39,0,0,1,.4-4.89,5,5,0,0,1,3-2A.5.5,0,0,0,13.89,57.9Z" transform="translate(-4.04 -8.78)"></path><path d="M80.55,14.36a4.32,4.32,0,0,1,6.51,3.57.49.49,0,0,0,.5.47h0a.49.49,0,0,0,.47-.52,5.31,5.31,0,0,0-8-4.41.5.5,0,0,0,.46.89Z" transform="translate(-4.04 -8.78)"></path><path d="M82.68,51.94a.49.49,0,0,0-.38.59.52.52,0,0,0,.6.39A4.41,4.41,0,0,1,86.7,54a4.3,4.3,0,0,1,1.21,3.18.49.49,0,0,0,.47.53h0a.5.5,0,0,0,.5-.47,5.26,5.26,0,0,0-1.52-4A5.4,5.4,0,0,0,82.68,51.94Z" transform="translate(-4.04 -8.78)"></path></svg>