<svg height='100px' width='100px'  fill="#ffffff" xmlns="http://www.w3.org/2000/svg" xmlns:xlink="http://www.w3.org/1999/xlink" version="1.1" x="0px" y="0px" viewBox="0 0 100 100" enable-background="new 0 0 100 100" xml:space="preserve"><g><path d="M53.0439453,10.1658936c-1.9238281-0.2207031-4.1728516-0.2197266-6.0791016-0.0009766   C32.7636719,11.6668701,22.03125,23.4300537,22,37.5794678c0,3.746582,0.7567749,7.4805908,2.1838989,10.8187256   c-0.0072021,0.1537476,0.0083618,0.3076782,0.0709839,0.4503174c0.7392578,1.6801758,1.6123047,3.0561523,2.4257813,4.2602539   l4.1416016,6.4365234c0.005188,0.0079346,0.0126953,0.0135498,0.0180664,0.0213013s0.0075684,0.0169678,0.0131836,0.0245972   l4.383667,5.9785156c0.0078125,0.0114746,0.0113525,0.0249023,0.0196533,0.0361328l9.4556274,12.7544556   C39.9165649,79.0425415,35,80.826416,35,83.9993896c0,3.8974609,7.7285156,6,15,6s15-2.1025391,15-6   c0-3.1715698-4.9057007-4.951416-9.7123413-5.6333008l9.4545288-12.7680664   c0.0011597-0.0015869,0.0015869-0.003418,0.0027466-0.0050049c0.0005493-0.0007935,0.0015869-0.0010376,0.0021362-0.0018311   l4.3994141-6c0.0049438-0.0067749,0.006897-0.0148315,0.0116577-0.0217285   c0.0046387-0.0066528,0.0111694-0.0115356,0.015686-0.0183105l0.0037231-0.0056763l0.0001831-0.0001831l0.0022583-0.003418   l3.0934448-4.6811523l1.0253906-1.8447266c0.7900391-1.171875,1.6982422-2.5976563,2.4462891-4.2988281   c0.0623169-0.1419678,0.0779419-0.295105,0.071106-0.4481812C77.2629395,44.8907471,78,41.2952881,78,37.5267334   C77.96875,23.4300537,67.2363281,11.6668701,53.0439453,10.1658936z M29.4492188,53.7767334l-1.0898438-1.7548828   c-0.6976318-1.0339966-1.3919067-2.3214111-2.0684814-3.8083496C26.9689941,46.3017578,28.8323975,44.9993896,31,44.9993896   h5.3603516c0.6621094,0,1.5634766,0.1669922,2.1103516,0.9785156l1.5556641,2.2211914   c0.5009766,0.7563477,1.3476563,1.2080078,2.2636719,1.2080078c0.7373047,0,1.4365234-0.2851563,1.9736328-0.8085938   l0.6933594-0.6875c0.453125-0.453125,1.2412109-0.453125,1.6914063,0.0083008   c0.4726563,0.4785156,0.4726563,1.2202148,0.0009766,1.6855469l-2.4726563,2.4238281   c-0.6386719,0.6318359-1.5048828,0.9794922-2.4375,0.9794922c-1.0996094,0-2.1025391-0.4755859-2.7519531-1.3046875   c-0.0908203-0.1162109-0.2060547-0.2109375-0.3378906-0.2773438l-0.2001953-0.1005859   c-0.3105469-0.15625-0.6777344-0.1396484-0.9746094,0.0419922C37.1796875,51.5501709,37,51.8724365,37,52.2191162v5.7802734   h-4.7978516L29.4492188,53.7767334z M63,83.9993896c0,1.6308594-5.0644531,4-13,4s-13-2.3691406-13-4   c0-1.3813477,3.4133301-3.1807251,8.9708862-3.7854614c0.0137939,0.0321655,0.0282593,0.0640259,0.0437622,0.083313   l2.5349731,3.2868652l0.663269,0.8776855C49.4023438,84.7039795,49.6933594,84.9993896,50,84.9993896   c0.0019531,0,0.0039063,0,0.0058594,0c0.0009766,0,0.0019531,0,0.0029297,0c0.0169678,0,0.03302-0.0100098,0.0498657-0.0118408   c0.2893677-0.0317993,0.5586548-0.3037109,0.7352905-0.5355225l3.1298828-4.2436523   C59.5458984,80.8001709,63,82.6077881,63,83.9993896z M52.6298828,78.4818115l-2.6445313,3.5390625l-2.3583984-2.9951172   l-0.3056641-0.5175781c-0.0175781-0.0302734-0.0371094-0.0595703-0.0585938-0.0878906L38.046875,65.9993896h23.8994141   L52.6298828,78.4818115z M63.4335938,63.9993896H36.5664063l-2.9326172-4H38h24h4.3662109L63.4335938,63.9993896z    M71.5898438,51.8450928l-1.0273666,1.9130859l-2.7646255,4.2412109H63v-5.7802734   c0-0.3466797-0.1796875-0.6689453-0.4746094-0.8515625c-0.296875-0.1826172-0.6650391-0.1982422-0.9746094-0.0419922   l-0.2001953,0.1005859c-0.1318359,0.0664063-0.2470703,0.1611328-0.3378906,0.2773438   c-0.6494141,0.8291016-1.6523438,1.3046875-2.7519531,1.3046875c-0.9326172,0-1.7988281-0.3476563-2.4404297-0.9824219   l-2.4667969-2.4179688C53.1269531,49.3841553,53.0019531,49.0838623,53,48.762085   c-0.0009766-0.3237305,0.1230469-0.6293945,0.3544922-0.8632813c0.4501953-0.4584961,1.2177734-0.4916992,1.7099609-0.0014648   l0.6777344,0.6381836c0.5126953,0.4995117,1.1904297,0.7749023,1.9082031,0.7749023   c0.9365234,0,1.8056641-0.4672852,2.2910156-1.203125l1.5976563-2.1445313   c0.5371094-0.7963867,1.4384766-0.9633789,2.1005859-0.9633789H69c2.2148438,0,4.0401001,1.2231445,4.7070313,3.0820923   C73.1164551,49.3572388,72.4217529,50.6020508,71.5898438,51.8450928z M74.6581421,45.6987305   C73.3967285,44.031189,71.3580933,42.9993896,69,42.9993896h-5.3603516c-1.6220703,0-2.9570313,0.6557617-3.7314453,1.8066406   l-1.6025391,2.1508789c-0.1464844,0.2211914-0.3916016,0.3535156-0.6552734,0.3535156   c-0.1367188,0-0.3359375-0.0361328-0.5244141-0.2192383l-0.6689453-0.6293945   c-1.2109375-1.2094727-3.3349609-1.1865234-4.5283203,0.034668C51.3261719,47.1063232,50.9960938,47.9139404,51,48.7713623   c0.0039063,0.8569336,0.3408203,1.6591797,0.9501953,2.262207l2.4667969,2.4169922   c1.015625,1.0048828,2.3808594,1.5576172,3.84375,1.5576172c0.9853516,0,1.9238281-0.2480469,2.7392578-0.7080078v3.6992188H39   v-3.6992188c0.8154297,0.4599609,1.7539063,0.7080078,2.7392578,0.7080078c1.4628906,0,2.828125-0.5527344,3.8408203-1.5546875   l2.4726563-2.4228516c1.25-1.2353516,1.2587891-3.2617188,0.0224609-4.5131836   c-1.1972656-1.2250977-3.3203125-1.2329102-4.5292969-0.0239258l-0.6845703,0.6782227   c-0.1552734,0.1518555-0.3583984,0.2353516-0.5712891,0.2353516c-0.1171875,0-0.4091797-0.0302734-0.6103516-0.3339844   l-1.5605469-2.2275391c-0.8017578-1.1904297-2.1367188-1.8461914-3.7587891-1.8461914H31   c-2.3181763,0-4.3820801,1.0906372-5.6588745,2.8110352C24.4649658,43.2012329,24,40.3880615,24,37.5316162   c0.0292969-13.0737305,9.9921875-23.9833984,23.1845703-25.378418c1.7734375-0.2041016,3.8486328-0.2050781,5.6396484,0.0009766   C66.0078125,13.5482178,75.9707031,24.4578857,76,37.5794678C76,40.3779907,75.5440063,43.0994873,74.6581421,45.6987305z"></path><path d="M66.2382813,27.449585c-3.2763672,0-5.9414063,2.6655273-5.9414063,5.9418945   c0,3.2231445,1.8349609,6.6484375,5.2353516,6.6484375c3.2929688,0,6.6484375-3.3554688,6.6484375-6.6484375   C72.1806641,30.1151123,69.5146484,27.449585,66.2382813,27.449585z M65.5322266,38.039917   c-2.0253906,0-3.2353516-2.3632813-3.2353516-4.6484375c0-2.1733398,1.7685547-3.9418945,3.9414063-3.9418945   c2.1738281,0,3.9423828,1.7685547,3.9423828,3.9418945C70.1806641,35.5638428,67.7041016,38.039917,65.5322266,38.039917z"></path><path d="M33.7617188,27.449585c-3.2763672,0-5.9423828,2.6655273-5.9423828,5.9418945   c0,3.2929688,3.3554688,6.6484375,6.6484375,6.6484375c3.4003906,0,5.2353516-3.425293,5.2353516-6.6484375   C39.703125,30.1151123,37.0380859,27.449585,33.7617188,27.449585z M34.4677734,38.039917   c-2.171875,0-4.6484375-2.4760742-4.6484375-4.6484375c0-2.1733398,1.7685547-3.9418945,3.9423828-3.9418945   c2.1728516,0,3.9414063,1.7685547,3.9414063,3.9418945C37.703125,35.6766357,36.4931641,38.039917,34.4677734,38.039917z"></path><path d="M58,23.0150146V20.449585c0-2.0634766-1.6074219-3.4501953-4-3.4501953h-8c-2.3925781,0-4,1.3867188-4,3.4501953v2.5654297   c0,1.5083008-0.2412109,2.9975586-0.7226563,4.440918c-0.2402344,0.7207031-0.1269531,1.4824219,0.3105469,2.090332   c0.7138672,0.9892578,2.1621094,1.2729492,3.1923828,0.5849609l0.2783203-0.1855469   c2.9355469-1.9580078,6.9472656-1.9580078,9.8828125,0l0.2783203,0.1855469   c0.3896484,0.2597656,0.8359375,0.3969727,1.2900391,0.3969727c0.7480469,0,1.4589844-0.3671875,1.9023438-0.9819336   c0.4375-0.6079102,0.5507813-1.3696289,0.3056641-2.1040039C58.2412109,26.0125732,58,24.5233154,58,23.0150146z    M56.7890625,28.3768311c-0.1035156,0.1450195-0.2910156,0.203125-0.4599609,0.090332l-0.2783203-0.1855469   C54.2529297,27.0828857,52.1611328,26.449585,50,26.449585s-4.2529297,0.6333008-6.0507813,1.8320313l-0.2783203,0.1855469   c-0.1679688,0.1118164-0.3554688,0.0546875-0.4599609-0.090332c-0.0810547-0.112793-0.0595703-0.21875-0.0322266-0.3017578   C43.7236328,26.4407959,44,24.7386475,44,23.0150146V20.449585c0-1.2617188,1.2529297-1.4501953,2-1.4501953h8   c0.7470703,0,2,0.1884766,2,1.4501953v2.5654297c0,1.7236328,0.2763672,3.4257813,0.8261719,5.0727539   C56.8486328,28.1580811,56.8701172,28.2640381,56.7890625,28.3768311z"></path><path d="M45.2900391,21.7391357C45.0996094,21.9290771,45,22.1893311,45,22.4490967   c0,0.2602539,0.109375,0.5200195,0.2900391,0.7099609C45.4794922,23.3392334,45.7402344,23.4490967,46,23.4490967   s0.5195313-0.1098633,0.7099609-0.2900391C46.8896484,22.9691162,47,22.7093506,47,22.4490967   c0-0.2597656-0.1103516-0.5200195-0.2900391-0.7099609C46.3398438,21.3690186,45.6699219,21.3592529,45.2900391,21.7391357z"></path><circle cx="50" cy="21.9993896" r="1"></circle><path d="M53.2900391,21.7391357C53.109375,21.9290771,53,22.1790771,53,22.4490967   c0,0.2602539,0.109375,0.5200195,0.2900391,0.7099609C53.4794922,23.3392334,53.7402344,23.4490967,54,23.4490967   s0.5195313-0.1098633,0.7099609-0.2900391C54.8896484,22.9691162,55,22.7093506,55,22.4490967   c0-0.2597656-0.1103516-0.5200195-0.2900391-0.7099609C54.3300781,21.3690186,53.6601563,21.3792725,53.2900391,21.7391357z"></path></g></svg>