<svg height='100px' width='100px'  fill="#ffffff" xmlns="http://www.w3.org/2000/svg" data-name="Layer 1" viewBox="0 0 64 64" x="0px" y="0px"><title>x</title><path d="M21.12,22.77H19.91a5.6,5.6,0,0,1-11.07,0H7.64a6.8,6.8,0,0,0-6.8,6.8v6.64a3,3,0,0,0,3,3h21a3,3,0,0,0,3-3V29.57A6.81,6.81,0,0,0,21.12,22.77Z"></path><path d="M22.08,10.18c-.2,0-.39,0-.57,0a3.81,3.81,0,0,0-.78.08l-.24,0a4.93,4.93,0,0,1,0,.55v2.73a6.1,6.1,0,0,1-5.09,6l-.14,0a5.17,5.17,0,0,1-.91.07,6.14,6.14,0,0,1-6.14-6.13V10.82c0-.14,0-.29,0-.44a.85.85,0,0,0-.08.22,2.17,2.17,0,0,1-1,1.16,1.44,1.44,0,0,1-.33.16,1.89,1.89,0,0,1-.7.13v1.5a8.2,8.2,0,0,0,8.19,8.18,7.82,7.82,0,0,0,1.21-.09l.14,0a8.14,8.14,0,0,0,6.83-8.07V10.82c0-.2,0-.4,0-.61A3.44,3.44,0,0,1,22.08,10.18Z"></path><path d="M15,15.33a1.17,1.17,0,0,1-.81.29,1.24,1.24,0,0,1-.8-.29,1.07,1.07,0,0,0-.81-.21,1.1,1.1,0,0,0-.72.42,1.12,1.12,0,0,0-.21.81,1,1,0,0,0,.43.72,3.37,3.37,0,0,0,2.07.74h.1a3.41,3.41,0,0,0,2.07-.74,1.1,1.1,0,0,0,.21-1.53A1.1,1.1,0,0,0,15,15.33Z"></path><path d="M12.52,12.71v-.18a1.09,1.09,0,1,0-2.18,0v.18a1.09,1.09,0,0,0,2.18,0Z"></path><path d="M17.32,11.43a1.09,1.09,0,0,0-1.09,1.1v.18a1.1,1.1,0,0,0,2.19,0v-.18A1.1,1.1,0,0,0,17.32,11.43Z"></path><path d="M22.1,3.53a.45.45,0,0,0-.75,0l-.53.82C20.4,1.47,17.26.88,16.18.77a.46.46,0,0,0-.48.31L15.43,2a10.34,10.34,0,0,0-1-.4,11.56,11.56,0,0,0-1.69-.38l-.65-.09A12.36,12.36,0,0,0,9.45,1a.39.39,0,0,0-.25.67l1,1s-4.95.54-3.28,3.49c0,0-2,1-.73,1.81,0,0-.13.31-.27.71-.06.15-.11.31-.16.47a3.53,3.53,0,0,0-.18.92.17.17,0,0,0,0,.07s0,.05,0,.07a.37.37,0,0,0,.05.11.86.86,0,0,0,.07.1.39.39,0,0,0,.1.08l.06,0s0,0,.08,0a.44.44,0,0,0,.23,0l.09,0,.09,0a.53.53,0,0,0,.15-.11.31.31,0,0,0,.09-.11.54.54,0,0,0,.07-.13,4.07,4.07,0,0,1,.3-.68,1,1,0,0,1,.12-.19L7.19,9l.08-.1.12-.15.13-.15a1.52,1.52,0,0,1,.22-.22A4.9,4.9,0,0,1,8.34,8a4.81,4.81,0,0,1,5.33.3,8.65,8.65,0,0,0,3.85.77,12.91,12.91,0,0,0,2.79-.32,5.7,5.7,0,0,1,1.89-.07,1.35,1.35,0,0,0,.35,0l0,0s.07-.1.11-.18l.1-.18a3.92,3.92,0,0,0,.09-3.41A8.62,8.62,0,0,0,22.1,3.53Z"></path><path d="M59.21,36.72c1.43-7.85-3.3-11.39-7.29-12.21a7.65,7.65,0,0,0-.92-.15h0c-.3,0-.59-.05-.88-.05s-.57,0-.87.05h0a8,8,0,0,0-.92.15c-4,.82-8.71,4.36-7.28,12.21,0,0-6.89,3.61-2.49,8,4.06,4.07,4.3-.6,4.07-5.68A7.35,7.35,0,0,0,43,40a8,8,0,0,0,14.22,0c.16-.32.29-.63.41-.93-.24,5.08,0,9.75,4.07,5.68C66.09,40.33,59.2,36.72,59.21,36.72Zm-3.23,0a5.84,5.84,0,0,1-4.87,5.78l-.13,0a4.79,4.79,0,0,1-.87.07,5.88,5.88,0,0,1-5.74-4.62,6.38,6.38,0,0,1-.13-1.25V34.53c.25-.1.5-.2.76-.32a11.63,11.63,0,0,0,2.54-1.55,8.33,8.33,0,0,0,2.57-3.38A10,10,0,0,0,56,34.53Z"></path><path d="M47.74,38.62a1,1,0,0,0-.2.78,1,1,0,0,0,.4.69,3.3,3.3,0,0,0,2,.7H50a3.3,3.3,0,0,0,2-.7,1,1,0,0,0,.21-1.47,1.05,1.05,0,0,0-1.47-.2,1.2,1.2,0,0,1-1.54,0,1,1,0,0,0-.78-.2A1,1,0,0,0,47.74,38.62Z"></path><path d="M47.29,37a1,1,0,0,0,1-1.05v-.18a1,1,0,0,0-2.09,0v.18A1,1,0,0,0,47.29,37Z"></path><path d="M52.93,37a1,1,0,0,0,1-1.05v-.18a1,1,0,0,0-2.09,0v.18A1,1,0,0,0,52.93,37Z"></path><path d="M63.1,60.06l-1.65-7.39a7.81,7.81,0,0,0-7.61-6.1c-.41,2.73-.89,4.82-3.73,4.82s-3.33-2.09-3.74-4.82h0a7.79,7.79,0,0,0-7.6,6.1l-1.66,7.39a2.61,2.61,0,0,0,2.54,3.17H60.56A2.6,2.6,0,0,0,63.1,60.06Z"></path><path d="M8.72,61.94H22.26a6.13,6.13,0,0,0,6-4.92l4.15-1.84a3.29,3.29,0,0,0,0-6.18l-4.15-1.84a6.13,6.13,0,0,0-6-4.92H8.72a6.14,6.14,0,0,0-6.14,6.14V55.8A6.14,6.14,0,0,0,8.72,61.94ZM5.58,48.38a3.15,3.15,0,0,1,3.14-3.14H22.26a3.07,3.07,0,0,1,2.15.86,3.11,3.11,0,0,1,1,2.28v.95l3,1.07,3,1.43a.28.28,0,0,1,0,.52l-3,1.43-3,1.07v.95a3.17,3.17,0,0,1-1,2.28,3.13,3.13,0,0,1-2.16.86H8.72A3.15,3.15,0,0,1,5.58,55.8Z"></path><path d="M55.28,2.06H41.74a6.13,6.13,0,0,0-6,4.92L31.58,8.82a3.29,3.29,0,0,0,0,6.18l4.15,1.84a6.13,6.13,0,0,0,6,4.92H55.28a6.14,6.14,0,0,0,6.14-6.14V8.2A6.14,6.14,0,0,0,55.28,2.06Zm3.14,13.56a3.15,3.15,0,0,1-3.14,3.14H41.74a3.07,3.07,0,0,1-2.15-.86,3.11,3.11,0,0,1-1-2.28v-.95l-3-1.07-3-1.43a.28.28,0,0,1,0-.52l3-1.43,3-1.07v-1a3.17,3.17,0,0,1,1-2.28,3.13,3.13,0,0,1,2.16-.86H55.28A3.15,3.15,0,0,1,58.42,8.2Z"></path><path d="M51.24,8.07A3.26,3.26,0,0,0,48.3,6.46h0l-.22,0-.53.07a3.25,3.25,0,0,0-1.66.84,1.32,1.32,0,0,0-.06,1.8,1.09,1.09,0,0,0,1.57,0l.08-.06a1.45,1.45,0,0,1,1-.28c.42,0,.54.25.59.4s.06.33-.24.6l-.27.21-.12.09a2.58,2.58,0,0,0-1,2.78c.21.74.61.85.84.85h0c.27,0,.64-.14.82-.83a1.86,1.86,0,0,1,.64-1c.15-.12.3-.24.46-.35l.44-.33A2.46,2.46,0,0,0,51.24,8.07Z"></path><path d="M48.45,14.7h0a1.34,1.34,0,0,0-1,.36,1.28,1.28,0,0,0-.37,1,1.38,1.38,0,0,0,.38,1,1.3,1.3,0,0,0,.94.39A1.32,1.32,0,0,0,49.78,16,1.25,1.25,0,0,0,48.45,14.7Z"></path><path d="M20.92,48.11a1.42,1.42,0,0,0-2.06,0l-3.39,3.36L14,53l-1.91-1.89A1.46,1.46,0,0,0,10,53.12l3,3a1.44,1.44,0,0,0,2.07,0l.44-.44,5.45-5.46A1.42,1.42,0,0,0,20.92,48.11Z"></path></svg>