<svg height='100px' width='100px'  fill="#ffffff" xmlns="http://www.w3.org/2000/svg" xmlns:xlink="http://www.w3.org/1999/xlink" version="1.1" x="0px" y="0px" viewBox="0 0 99 96.9" style="enable-background:new 0 0 99 96.9;" xml:space="preserve"><path d="M45.9,61.6l-3.8-1c-2.8-0.7-5.3-2.3-7-4.6l-0.8-1c-0.9-1.2-1.2-2.6-1-4c0.3-1.7,0.8-3,1.3-3.9c0.8-1.1,3.4-0.4,4.1-0.2  c1.1,0.4,2.4-0.1,2.8-1.2c0.4-1.1-0.1-2.4-1.2-2.8c-2.3-0.9-6.9-1.6-9.2,1.8c-0.9,1.3-1.6,3.2-2,5.6c-0.5,2.6,0.2,5.3,1.8,7.4l0.8,1  c2.3,3.1,5.7,5.3,9.4,6.2l3.8,1c0.2,0,0.4,0.1,0.5,0.1c1,0,1.8-0.7,2.1-1.6C47.8,63.1,47.1,61.9,45.9,61.6z"></path><path d="M99,78.7c0-0.2-0.1-0.4-0.1-0.6c0,0,0,0,0,0c0,0,0,0,0,0c-0.1-0.2-0.2-0.3-0.3-0.5c0,0-0.1-0.1-0.1-0.1c0,0-0.1-0.1-0.1-0.1  l-5.2-5.2c-0.8-0.8-2.2-0.8-3.1,0s-0.8,2.2,0,3.1l1.5,1.5H71.3c-1.2,0-2.2,1-2.2,2.2s1,2.2,2.2,2.2h20.3l-1.8,1.8  c-0.8,0.8-0.8,2.2,0,3.1c0.4,0.4,1,0.6,1.5,0.6c0.6,0,1.1-0.2,1.5-0.6l5.5-5.5c0.1-0.1,0.2-0.3,0.3-0.5c0,0,0-0.1,0.1-0.1  c0.1-0.2,0.1-0.3,0.2-0.5c0,0,0,0,0,0c0-0.2,0-0.4,0-0.6C99,78.8,99,78.7,99,78.7z"></path><path d="M28.6,5.6C41.2,1.9,53.7,7.4,55.1,8c6.7,4.7,17.6,13.7,18.9,18.3c1.9,6.5,0,15.7,0,15.8c-0.1,0.6,0,1.1,0.3,1.6l7,11  l-3.8,3.5c-0.5,0.4-0.7,1.1-0.7,1.7c0,0.6,0.3,1.2,0.9,1.6l2.6,2c0.2,0.1,0.2,0.3,0.2,0.4c0,0.1,0,0.3-0.2,0.4  c-0.2,0.2-0.3,0.4-0.5,0.6c0,0-0.4,0.6-1.2,0.9c-1.1,0.3-2.7-0.1-4.5-1.3c-1-0.6-2.3-0.3-3,0.7c-0.6,1-0.3,2.3,0.7,3  c3,1.9,5.7,2.5,8,1.8c2.1-0.6,3.2-2,3.7-2.7c0.9-1,1.3-2.2,1.3-3.5c-0.1-1.4-0.8-2.7-1.9-3.6l-0.5-0.4l3.2-2.9  c0.8-0.7,0.9-1.9,0.4-2.8l-7.5-11.8c0.5-2.7,1.7-10.7-0.2-17.1C75.9,17.5,59.3,5.7,57.5,4.4c-0.1-0.1-0.2-0.1-0.3-0.2  c-0.6-0.3-14.8-7.1-29.8-2.7C14,5.4,4.4,14,1.2,25.1c-2.9,10-1.9,27,19.1,51.5c-1.7,7.6-4.1,14.8-5.5,16c-1,0.2-1.8,1.1-1.8,2.1  c0,1.2,1,2.2,2.2,2.2c1.3,0,5.3,0,9.6-20.5c0.1-0.7,0-1.4-0.5-1.9C8.1,56,1.6,39.3,5.4,26.3C9.3,12.7,22.9,7.3,28.6,5.6z"></path><path d="M72.4,87.2c-1-0.6-2.4-0.3-3,0.7l-1.8,3c-0.3,0.1-0.7,0.3-1,0.4l-6.8-3.1c-0.3-0.1-0.6-0.2-0.9-0.2c-1.8,0-3.4,0.8-4.5,2.2  l-3.1,3c-0.9,0.8-0.9,2.2-0.1,3.1c0.4,0.4,1,0.7,1.6,0.7c0.5,0,1.1-0.2,1.5-0.6l3.2-3.1c0.1-0.1,0.2-0.2,0.2-0.3  c0.2-0.3,0.5-0.5,0.8-0.5l7,3.2c0.3,0.1,0.6,0.2,0.9,0.2c0.6,0,1.3-0.2,2.9-0.9l0.4-0.2c0.5-0.2,0.9-0.5,1.1-0.9l2.2-3.6  C73.8,89.1,73.4,87.8,72.4,87.2z"></path></svg>