<svg height='100px' width='100px'  fill="#ffffff" xmlns="http://www.w3.org/2000/svg" xmlns:xlink="http://www.w3.org/1999/xlink" version="1.1" x="0px" y="0px" viewBox="0 0 100 100" enable-background="new 0 0 100 100" xml:space="preserve"><path d="M55.346,77.805c-2.263-1.071-13.214-6.124-13.214-6.124v-5.156c0,0,1.208-1.143,1.637-3.018  c0.429-1.857,0.885-3.582,0.885-3.582s0.714,1.616,1.795,0.064c0.016-0.024,0.019-0.035,0.05-0.104  c0.445-0.932,3.949-9.684,0.825-9.766c-0.241-0.006-0.598,0.097-0.598,0.097s0.227-0.793,0.325-1.728  c0.235-2.262,0.303-4.405,0.323-6.167c0.057-5.06-4.572-9.2-6.626-10.459c-3.525-2.162-7.181-1.903-7.181-1.903  s-3.514-0.011-7.18,1.902c-4.231,2.208-2.323,4.829-2.323,4.829s-4.529-0.518-4.303,5.63c0.065,1.763,0.086,3.905,0.324,6.167  c0.097,0.935,0.324,1.729,0.324,1.729s-0.359-0.103-0.599-0.097c-3.122,0.082,0.38,8.834,0.824,9.766  c0.033,0.065,0.035,0.078,0.051,0.104c1.082,1.552,1.795-0.066,1.795-0.066s0.458,1.727,0.885,3.582  c0.433,1.877,1.639,3.019,1.639,3.019v5.157c0,0-10.956,5.053-13.218,6.124c-6.301,2.982-6.723,8.461-6.723,8.461  s-0.135,1.791-0.011,3.749h28.516h28.515c0.126-1.958-0.011-3.749-0.011-3.749S61.646,80.787,55.346,77.805z"></path><path d="M73.103,9.985c-12.068,0-21.893,9.821-21.893,21.892c0,5.436,2.011,10.641,5.665,14.677l-2.336,7.764l-0.733,2.577  l8.689-5.876c3.237,1.802,6.902,2.753,10.608,2.753C85.176,53.772,95,43.949,95,31.877C95,19.807,85.176,9.985,73.103,9.985z   M72.957,41.473c0,1.142-1.323,0.04-1.323,0.04l-7.193-5.338h-2.256c-0.965,0-1.747-0.789-1.747-1.763v-4.954  c0-0.974,0.782-1.763,1.747-1.763h2.256l7.351-5.484c0,0,1.166-0.88,1.166,0.019V41.473z M83.735,35.178  c0.378,0.378,0.378,0.991,0,1.368c-0.379,0.378-0.991,0.378-1.369,0l-2.834-2.834l-2.835,2.834c-0.377,0.378-0.99,0.378-1.367,0  c-0.379-0.378-0.379-0.99,0-1.368l2.834-2.834L75.33,29.51c-0.379-0.378-0.379-0.991,0-1.369c0.377-0.377,0.99-0.377,1.367,0  l2.835,2.834l2.834-2.834c0.378-0.378,0.99-0.378,1.369,0c0.378,0.378,0.378,0.991,0,1.368L80.9,32.344L83.735,35.178z"></path></svg>