<svg height='100px' width='100px'  fill="#ffffff" xmlns="http://www.w3.org/2000/svg" xmlns:xlink="http://www.w3.org/1999/xlink" version="1.1" x="0px" y="0px" viewBox="0 0 100 100" enable-background="new 0 0 100 100" xml:space="preserve"><path fill="none" d="M58.04,60.161c-3.285-0.082-6.088,0.25-6.833,1.477l2.224-4.63c-3.014,2.922-6.628,4.63-10.517,4.63  c-3.889,0-7.503-1.708-10.518-4.63l2.225,4.63c-0.745-1.227-3.546-1.559-6.833-1.477c0.523,3.148,4.23,5.791,9.34,6.95l5.787,9.405  l5.789-9.405C53.813,65.952,57.518,63.31,58.04,60.161z"></path><path fill="none" d="M68.711,62.981l1.438-1.438c-1.453-0.258-4.021-0.681-6.821-0.993C65.23,61.15,67.035,61.97,68.711,62.981z"></path><path d="M56.594,90.854c-1.743,0-3.383-0.678-4.619-1.911c-2.543-2.543-2.543-6.683,0-9.226l16.736-16.735  c-1.676-1.012-3.48-1.831-5.384-2.431c2.8,0.313,5.368,0.735,6.821,0.993l0.34-0.34c-7.647-5.358-7.446-21.051-7.446-21.051  c0.105-2.308,0.085-4.426-0.022-6.405h-3.391c-0.004,0.233-0.008,0.461-0.011,0.678c-0.025,1.331-0.053,2.326-0.086,2.549  c-0.325,4.333-1.429,8.326-3.098,11.676c-3.041,6.094-7.962,10.054-13.521,10.056c-5.557-0.002-10.479-3.962-13.519-10.056  c-1.672-3.35-2.775-7.343-3.099-11.676c-0.032-0.223-0.06-1.219-0.084-2.549c-0.003-0.217-0.007-0.445-0.011-0.678h-3.392  c-0.108,1.979-0.128,4.097-0.023,6.405c0,0,0.223,16.908-8.346,21.618c0,0,3.767-0.74,8.061-1.221  C12.359,63.744,5.002,73.22,5,84.414c0,13.822,11.204,11.381,25.028,11.381h12.886h12.887c13.822,0,25.026,2.441,25.026-11.381  c0-4.357-1.126-8.447-3.086-12.015l-16.537,16.54C59.975,90.173,58.337,90.854,56.594,90.854z M42.914,76.517l-5.787-9.405  c-5.11-1.159-8.817-3.802-9.34-6.95c3.288-0.082,6.088,0.25,6.833,1.477l-2.225-4.63c3.015,2.922,6.629,4.63,10.518,4.63  c3.889,0,7.503-1.708,10.517-4.63l-2.224,4.63c0.745-1.227,3.548-1.559,6.833-1.477c-0.522,3.148-4.228,5.791-9.338,6.95  L42.914,76.517z"></path><path d="M22.615,30.854h0.435h3.112h2.795h27.914h2.795h3.11h0.436c1.581,0,2.863-1.283,2.863-2.864c0-1.58-1.282-2.863-2.863-2.863  h-0.78c0-7.608-4.355-14.193-10.706-17.415l-0.571,3.239l-1.046,5.933c-0.127,0.726-0.757,1.237-1.471,1.237  c-0.086,0-0.173-0.008-0.261-0.024c-0.038-0.006-0.072-0.022-0.107-0.03c-0.752-0.191-1.243-0.926-1.106-1.704l0.019-0.104  l1.13-6.415l0.698-3.958c-0.694-1.109-1.923-1.847-3.328-1.847h-5.54c-1.402,0-2.631,0.738-3.325,1.847l0.698,3.958l1.13,6.415  l0.019,0.104c0.137,0.778-0.354,1.512-1.106,1.704c-0.036,0.008-0.07,0.024-0.108,0.03c-0.087,0.016-0.175,0.024-0.26,0.024  c-0.714,0-1.346-0.511-1.473-1.237l-1.045-5.933l-0.57-3.237c-6.353,3.219-10.707,9.804-10.707,17.413h-0.78  c-1.582,0-2.864,1.283-2.864,2.863C19.751,29.571,21.033,30.854,22.615,30.854z"></path><path d="M87.935,60.162h-4.176L80.75,57.16l-0.001-4.186l5.037-5.036l-2.027-2.024c-2.619,0.103-5.208,1.154-7.206,3.156  c-3.097,3.091-3.916,7.591-2.477,11.435L53.419,81.161c-1.745,1.745-1.752,4.585,0,6.337c0.877,0.874,2.026,1.313,3.175,1.313  c1.145,0,2.29-0.437,3.163-1.313l20.655-20.659c1.221,0.457,2.508,0.686,3.794,0.686c2.763,0,5.525-1.053,7.638-3.159  c2.003-2.007,3.055-4.59,3.156-7.212l-2.025-2.028L87.935,60.162z M58.119,85.857c-0.425,0.424-0.979,0.635-1.532,0.635  s-1.107-0.211-1.531-0.633c-0.838-0.845-0.843-2.217-0.002-3.064c0.424-0.422,0.977-0.633,1.529-0.633  c0.556,0,1.11,0.213,1.533,0.64C58.963,83.645,58.962,85.015,58.119,85.857z"></path></svg>