<svg height='100px' width='100px'  fill="#ffffff" xmlns:x="http://ns.adobe.com/Extensibility/1.0/" xmlns:i="http://ns.adobe.com/AdobeIllustrator/10.0/" xmlns:graph="http://ns.adobe.com/Graphs/1.0/" xmlns="http://www.w3.org/2000/svg" xmlns:xlink="http://www.w3.org/1999/xlink" version="1.1" x="0px" y="0px" viewBox="0 0 100 100" enable-background="new 0 0 100 100" xml:space="preserve"><g><g i:extraneous="self"><g><path d="M65.779,42.675c0.728-0.691,0.757-1.841,0.066-2.568c-0.691-0.728-1.841-0.757-2.568-0.066l-0.864,0.821l-4.751,4.513     l-3.318,6.402l-9.168-2.15l-0.126-7.21l-2.249-6.155l-0.409-1.12c-0.344-0.943-1.388-1.427-2.33-1.083     c-0.942,0.344-1.427,1.387-1.083,2.33l0.524,1.433L19.445,72.709l14.161,3.321L30.81,87.951     c-0.229,0.977,0.377,1.954,1.354,2.183c0.977,0.229,1.954-0.377,2.183-1.354l2.796-11.921l2.381-10.153l4.376,1.026     l-2.381,10.153l-2.796,11.921c-0.229,0.977,0.377,1.954,1.354,2.183s1.954-0.377,2.183-1.354l2.796-11.921l2.381-10.153     l4.376,1.026l-2.381,10.153l-2.796,11.921c-0.229,0.977,0.377,1.954,1.354,2.183s1.954-0.377,2.183-1.354l2.796-11.921     l14.161,3.321l-2.457-40.166L65.779,42.675z M37.259,62.443l6.877-9.329l9.589,2.249l2.013,11.413L37.259,62.443z"></path><path d="M45.519,24.093c2.999,0.703,6.384-1.442,7.101-4.501c0.207-0.882,0.403-1.707,0.56-2.368l8.391,1.968l-0.579,2.471     c-0.705,3.005,1.448,6.398,4.516,7.117c0.977,0.229,1.954-0.377,2.183-1.354c0.229-0.977-0.377-1.954-1.354-2.183     c-1.198-0.281-2.034-1.788-1.808-2.751l0.932-3.974c1-4.262-1.655-8.543-5.917-9.542s-8.542,1.655-9.539,5.905     c0,0-0.431,1.786-0.923,3.881c-0.258,1.1-1.689,2.038-2.735,1.793c-0.977-0.229-1.954,0.377-2.183,1.354     S44.542,23.864,45.519,24.093z M58.716,12.514c1.877,0.44,3.179,2.054,3.312,3.882l-8.004-1.877     C54.955,12.94,56.839,12.074,58.716,12.514z"></path><path d="M88.398,11.819c-0.731-0.687-1.881-0.651-2.568,0.079c-4.883,5.194-8.465,9.228-11.08,12.173     c-5.599,6.305-6.903,7.634-8.363,7.471L42.964,26.05c-1.987-0.466-3.635-0.017-5.51,1.501c-1.609,1.303-3.527,3.463-6.705,7.041     c-2.601,2.929-6.163,6.94-11.011,12.097c-0.687,0.731-0.652,1.881,0.079,2.568c0.241,0.226,0.527,0.375,0.828,0.445     c0.611,0.143,1.279-0.034,1.74-0.524c4.883-5.194,8.465-9.228,11.08-12.173c6.474-7.291,7.184-7.766,8.668-7.418l22.888,5.368     c0.074,0.028,0.15,0.053,0.23,0.072c0.159,0.037,0.314,0.066,0.469,0.092l0.256,0.06c0.241,0.056,0.482,0.062,0.711,0.024     c1.389-0.001,2.668-0.538,4.073-1.677c1.609-1.303,3.527-3.463,6.705-7.041c2.601-2.929,6.163-6.94,11.011-12.097     C89.165,13.656,89.129,12.506,88.398,11.819z"></path><polygon points="54.409,38.251 53.551,34.555 51.139,37.485 47.359,37.159 49.4,40.357 47.921,43.852 51.594,42.9 54.461,45.385      54.69,41.598 57.94,39.64    "></polygon></g></g></g></svg>