<svg xmlns="http://www.w3.org/2000/svg" width="1440" height="900"><path d="M880,572L607,676L918,794Z" fill="#e7f4e4" stroke="#e7f4e4" stroke-width="1.51"/><path d="M880,572L624,506L607,676Z" fill="#f6fad2" stroke="#f6fad2" stroke-width="1.51"/><path d="M611,1090L938,935L918,794Z" fill="#c4ddda" stroke="#c4ddda" stroke-width="1.51"/><path d="M607,676L488,942L918,794Z" fill="#ddebd2" stroke="#ddebd2" stroke-width="1.51"/><path d="M624,506L485,663L607,676Z" fill="#f4f1ca" stroke="#f4f1ca" stroke-width="1.51"/><path d="M485,663L488,942L607,676Z" fill="#e4e5c5" stroke="#e4e5c5" stroke-width="1.51"/><path d="M485,663L274,796L488,942Z" fill="#e0d9b9" stroke="#e0d9b9" stroke-width="1.51"/><path d="M624,506L396,530L485,663Z" fill="#f8eebc" stroke="#f8eebc" stroke-width="1.51"/><path d="M488,942L611,1090L918,794Z" fill="#cbdcca" stroke="#cbdcca" stroke-width="1.51"/><path d="M611,1090L693,1155L938,935Z" fill="#bad0ca" stroke="#bad0ca" stroke-width="1.51"/><path d="M938,935L1246,668L918,794Z" fill="#c4e5f0" stroke="#c4e5f0" stroke-width="1.51"/><path d="M918,794L1246,668L880,572Z" fill="#d7eef5" stroke="#d7eef5" stroke-width="1.51"/><path d="M1338,946L1246,668L938,935Z" fill="#afdae9" stroke="#afdae9" stroke-width="1.51"/><path d="M880,572L820,198L624,506Z" fill="#fcfbc3" stroke="#fcfbc3" stroke-width="1.51"/><path d="M1246,668L1231,505L880,572Z" fill="#d6edeb" stroke="#d6edeb" stroke-width="1.51"/><path d="M396,530L274,796L485,663Z" fill="#f2dfbb" stroke="#f2dfbb" stroke-width="1.51"/><path d="M132,1289L552,1379L611,1090Z" fill="#ad9f9f" stroke="#ad9f9f" stroke-width="1.51"/><path d="M1204,182L820,198L880,572Z" fill="#f2eecc" stroke="#f2eecc" stroke-width="1.51"/><path d="M624,506L354,201L396,530Z" fill="#ffeba1" stroke="#ffeba1" stroke-width="1.51"/><path d="M1236,1313L1338,946L938,935Z" fill="#91c0dc" stroke="#91c0dc" stroke-width="1.51"/><path d="M1246,668L1555,460L1231,505Z" fill="#c3dddc" stroke="#c3dddc" stroke-width="1.51"/><path d="M1338,946L1424,779L1246,668Z" fill="#a4d1e5" stroke="#a4d1e5" stroke-width="1.51"/><path d="M820,198L354,201L624,506Z" fill="#ffeba1" stroke="#ffeba1" stroke-width="1.51"/><path d="M396,530L85,443L274,796Z" fill="#f9d5a7" stroke="#f9d5a7" stroke-width="1.51"/><path d="M820,198L679,-184L354,201Z" fill="#ffd187" stroke="#ffd187" stroke-width="1.51"/><path d="M1204,182L954,68L820,198Z" fill="#f3dab6" stroke="#f3dab6" stroke-width="1.51"/><path d="M1204,182L880,572L1231,505Z" fill="#e4efd5" stroke="#e4efd5" stroke-width="1.51"/><path d="M1555,460L1204,182L1231,505Z" fill="#cedcc7" stroke="#cedcc7" stroke-width="1.51"/><path d="M354,201L268,245L396,530Z" fill="#ffd98c" stroke="#ffd98c" stroke-width="1.51"/><path d="M693,1155L1066,1364L938,935Z" fill="#a5bed4" stroke="#a5bed4" stroke-width="1.51"/><path d="M611,1090L552,1379L693,1155Z" fill="#aeb3b3" stroke="#aeb3b3" stroke-width="1.51"/><path d="M141,1044L611,1090L488,942Z" fill="#c5c1ad" stroke="#c5c1ad" stroke-width="1.51"/><path d="M274,796L141,1044L488,942Z" fill="#d3c1a8" stroke="#d3c1a8" stroke-width="1.51"/><path d="M-202,813L141,1044L274,796Z" fill="#daad98" stroke="#daad98" stroke-width="1.51"/><path d="M552,1379L1066,1364L693,1155Z" fill="#a4a8bb" stroke="#a4a8bb" stroke-width="1.51"/><path d="M954,68L679,-184L820,198Z" fill="#fdcf98" stroke="#fdcf98" stroke-width="1.51"/><path d="M1204,182L1000,12L954,68Z" fill="#eecfad" stroke="#eecfad" stroke-width="1.51"/><path d="M268,245L85,443L396,530Z" fill="#ffd68d" stroke="#ffd68d" stroke-width="1.51"/><path d="M1338,946L1551,927L1424,779Z" fill="#8dc0dc" stroke="#8dc0dc" stroke-width="1.51"/><path d="M1066,1364L1236,1313L938,935Z" fill="#8dafd4" stroke="#8dafd4" stroke-width="1.51"/><path d="M1433,1346L1551,927L1338,946Z" fill="#72a8cf" stroke="#72a8cf" stroke-width="1.51"/><path d="M1424,779L1555,460L1246,668Z" fill="#b3d5e7" stroke="#b3d5e7" stroke-width="1.51"/><path d="M1204,182L1203,-93L1000,12Z" fill="#e7c4a5" stroke="#e7c4a5" stroke-width="1.51"/><path d="M1827,691L1555,460L1424,779Z" fill="#a0bfdd" stroke="#a0bfdd" stroke-width="1.51"/><path d="M-148,1065L132,1289L141,1044Z" fill="#bd8988" stroke="#bd8988" stroke-width="1.51"/><path d="M141,1044L132,1289L611,1090Z" fill="#baa49a" stroke="#baa49a" stroke-width="1.51"/><path d="M1000,12L679,-184L954,68Z" fill="#fac399" stroke="#fac399" stroke-width="1.51"/><path d="M354,201L240,-61L268,245Z" fill="#febd6f" stroke="#febd6f" stroke-width="1.51"/><path d="M1649,0L1203,-93L1204,182Z" fill="#d3b39d" stroke="#d3b39d" stroke-width="1.51"/><path d="M1000,12L924,-258L679,-184Z" fill="#fab38e" stroke="#fab38e" stroke-width="1.51"/><path d="M85,443L-114,505L274,796Z" fill="#fac19a" stroke="#fac19a" stroke-width="1.51"/><path d="M-234,278L-114,505L85,443Z" fill="#fdaf76" stroke="#fdaf76" stroke-width="1.51"/><path d="M-234,278L85,443L268,245Z" fill="#ffb674" stroke="#ffb674" stroke-width="1.51"/><path d="M1066,1364L1433,1346L1236,1313Z" fill="#748fc4" stroke="#748fc4" stroke-width="1.51"/><path d="M1236,1313L1433,1346L1338,946Z" fill="#709fcb" stroke="#709fcb" stroke-width="1.51"/><path d="M369,-214L240,-61L354,201Z" fill="#fdaa63" stroke="#fdaa63" stroke-width="1.51"/><path d="M1555,460L1627,288L1204,182Z" fill="#c2cbb9" stroke="#c2cbb9" stroke-width="1.51"/><path d="M1783,420L1627,288L1555,460Z" fill="#b1b9b8" stroke="#b1b9b8" stroke-width="1.51"/><path d="M679,-184L369,-214L354,201Z" fill="#fdb26d" stroke="#fdb26d" stroke-width="1.51"/><path d="M1203,-93L924,-258L1000,12Z" fill="#f0b19b" stroke="#f0b19b" stroke-width="1.51"/><path d="M-114,505L-202,813L274,796Z" fill="#f0b099" stroke="#f0b099" stroke-width="1.51"/><path d="M-202,813L-148,1065L141,1044Z" fill="#cd938a" stroke="#cd938a" stroke-width="1.51"/><path d="M507,-331L369,-214L679,-184Z" fill="#f69d63" stroke="#f69d63" stroke-width="1.51"/><path d="M1827,691L1783,420L1555,460Z" fill="#a4b4c5" stroke="#a4b4c5" stroke-width="1.51"/><path d="M1627,288L1649,0L1204,182Z" fill="#c3b6a5" stroke="#c3b6a5" stroke-width="1.51"/><path d="M1827,691L1424,779L1551,927Z" fill="#8ab5d7" stroke="#8ab5d7" stroke-width="1.51"/><path d="M1815,903L1827,691L1551,927Z" fill="#7aa3ce" stroke="#7aa3ce" stroke-width="1.51"/><path d="M924,-258L803,-350L679,-184Z" fill="#f5a57d" stroke="#f5a57d" stroke-width="1.51"/><path d="M1397,-257L803,-350L924,-258Z" fill="#e79a8c" stroke="#e79a8c" stroke-width="1.51"/><path d="M1739,1173L1815,903L1551,927Z" fill="#6495c6" stroke="#6495c6" stroke-width="1.51"/><path d="M803,-350L507,-331L679,-184Z" fill="#f6a16d" stroke="#f6a16d" stroke-width="1.51"/><path d="M1433,1346L1739,1173L1551,927Z" fill="#5d8fc2" stroke="#5d8fc2" stroke-width="1.51"/><path d="M-202,813L-304,786L-148,1065Z" fill="#d28e85" stroke="#d28e85" stroke-width="1.51"/><path d="M-352,557L-304,786L-202,813Z" fill="#e29488" stroke="#e29488" stroke-width="1.51"/><path d="M-352,557L-202,813L-114,505Z" fill="#ef9f8b" stroke="#ef9f8b" stroke-width="1.51"/><path d="M-138,-71L-234,278L268,245Z" fill="#fa9a5b" stroke="#fa9a5b" stroke-width="1.51"/><path d="M-138,-71L268,245L240,-61Z" fill="#fb9e59" stroke="#fb9e59" stroke-width="1.51"/><path d="M-138,-71L240,-61L150,-442Z" fill="#f27445" stroke="#f27445" stroke-width="1.51"/><path d="M-373,1197L-226,1212L-148,1065Z" fill="#b06873" stroke="#b06873" stroke-width="1.51"/><path d="M-148,1065L-226,1212L132,1289Z" fill="#b4737c" stroke="#b4737c" stroke-width="1.51"/><path d="M1203,-93L1397,-257L924,-258Z" fill="#e09f8f" stroke="#e09f8f" stroke-width="1.51"/><path d="M1823,267L1649,0L1627,288Z" fill="#b2a19d" stroke="#b2a19d" stroke-width="1.51"/><path d="M-234,278L-352,557L-114,505Z" fill="#f6a371" stroke="#f6a371" stroke-width="1.51"/><path d="M-481,996L-373,1197L-148,1065Z" fill="#b16d75" stroke="#b16d75" stroke-width="1.51"/><path d="M2011,276L1823,267L1783,420Z" fill="#a797a4" stroke="#a797a4" stroke-width="1.51"/><path d="M1783,420L1823,267L1627,288Z" fill="#acaaab" stroke="#acaaab" stroke-width="1.51"/><path d="M1649,0L1397,-257L1203,-93Z" fill="#cd978d" stroke="#cd978d" stroke-width="1.51"/><path d="M150,-442L240,-61L369,-214Z" fill="#f3844c" stroke="#f3844c" stroke-width="1.51"/><path d="M-234,278L-457,43L-352,557Z" fill="#ea8f5d" stroke="#ea8f5d" stroke-width="1.51"/><path d="M-481,996L-148,1065L-304,786Z" fill="#c4807d" stroke="#c4807d" stroke-width="1.51"/><path d="M-226,1212L-373,1197L132,1289Z" fill="#ac6574" stroke="#ac6574" stroke-width="1.51"/><path d="M132,1289L-373,1197L552,1379Z" fill="#af7782" stroke="#af7782" stroke-width="1.51"/><path d="M-352,557L-481,996L-304,786Z" fill="#d18b84" stroke="#d18b84" stroke-width="1.51"/><path d="M507,-331L150,-442L369,-214Z" fill="#ee824d" stroke="#ee824d" stroke-width="1.51"/><path d="M803,-350L150,-442L507,-331Z" fill="#ea8d5a" stroke="#ea8d5a" stroke-width="1.51"/><path d="M1649,0L1677,-329L1397,-257Z" fill="#bc7c7f" stroke="#bc7c7f" stroke-width="1.51"/><path d="M1823,267L1908,-154L1649,0Z" fill="#af8287" stroke="#af8287" stroke-width="1.51"/><path d="M2167,429L2011,276L1783,420Z" fill="#a38fa5" stroke="#a38fa5" stroke-width="1.51"/><path d="M2167,429L1783,420L1827,691Z" fill="#9e98b8" stroke="#9e98b8" stroke-width="1.51"/><path d="M2109,842L1827,691L1815,903Z" fill="#798cc3" stroke="#798cc3" stroke-width="1.51"/><path d="M2143,917L2109,842L1815,903Z" fill="#6c7ebc" stroke="#6c7ebc" stroke-width="1.51"/><path d="M1908,-154L1677,-329L1649,0Z" fill="#b06b79" stroke="#b06b79" stroke-width="1.51"/><path d="M1397,-257L1677,-329L803,-350Z" fill="#cf8a82" stroke="#cf8a82" stroke-width="1.51"/><path d="M803,-350L1918,-420L150,-442Z" fill="#e19488" stroke="#e19488" stroke-width="1.51"/><path d="M2109,842L2167,429L1827,691Z" fill="#8d8fc6" stroke="#8d8fc6" stroke-width="1.51"/><path d="M2082,1218L2143,917L1815,903Z" fill="#5a72b4" stroke="#5a72b4" stroke-width="1.51"/><path d="M-352,557L-457,43L-481,996Z" fill="#e09379" stroke="#e09379" stroke-width="1.51"/><path d="M-138,-71L-457,43L-234,278Z" fill="#ec7845" stroke="#ec7845" stroke-width="1.51"/><path d="M-406,-441L-376,-84L-138,-71Z" fill="#de4530" stroke="#de4530" stroke-width="1.51"/><path d="M-376,-84L-457,43L-138,-71Z" fill="#e4603b" stroke="#e4603b" stroke-width="1.51"/><path d="M1739,1173L2082,1218L1815,903Z" fill="#5272b4" stroke="#5272b4" stroke-width="1.51"/><path d="M1433,1346L2082,1218L1739,1173Z" fill="#446db1" stroke="#446db1" stroke-width="1.51"/><path d="M2143,917L2167,429L2109,842Z" fill="#838ac3" stroke="#838ac3" stroke-width="1.51"/><path d="M2011,276L1908,-154L1823,267Z" fill="#a87d8b" stroke="#a87d8b" stroke-width="1.51"/><path d="M2144,14L1908,-154L2011,276Z" fill="#a66a7f" stroke="#a66a7f" stroke-width="1.51"/><path d="M150,-442L-120,-497L-138,-71Z" fill="#e44f34" stroke="#e44f34" stroke-width="1.51"/><path d="M-376,-84L-406,-441L-457,43Z" fill="#d54432" stroke="#d54432" stroke-width="1.51"/><path d="M1918,-420L-120,-497L150,-442Z" fill="#e29168" stroke="#e29168" stroke-width="1.51"/><path d="M2167,429L2144,14L2011,276Z" fill="#a48495" stroke="#a48495" stroke-width="1.51"/><path d="M1908,-154L1918,-420L1677,-329Z" fill="#a34d69" stroke="#a34d69" stroke-width="1.51"/><path d="M2050,-302L1918,-420L1908,-154Z" fill="#9b3963" stroke="#9b3963" stroke-width="1.51"/><path d="M1677,-329L1918,-420L803,-350Z" fill="#b87679" stroke="#b87679" stroke-width="1.51"/><path d="M2144,14L2050,-302L1908,-154Z" fill="#a44c6e" stroke="#a44c6e" stroke-width="1.51"/><path d="M-120,-497L-406,-441L-138,-71Z" fill="#d9372a" stroke="#d9372a" stroke-width="1.51"/></svg>