<svg xmlns="http://www.w3.org/2000/svg" width="1440" height="140"><path d="M969,268L1187,161L1191,-4Z" fill="#fa5e2d" stroke="#fa5e2d" stroke-width="1.51"/><path d="M1191,-4L888,-144L969,268Z" fill="#fd7735" stroke="#fd7735" stroke-width="1.51"/><path d="M1191,-4L1105,-360L888,-144Z" fill="#ff8e43" stroke="#ff8e43" stroke-width="1.51"/><path d="M888,-144L567,127L969,268Z" fill="#fd8338" stroke="#fd8338" stroke-width="1.51"/><path d="M513,-130L567,127L888,-144Z" fill="#fe9f43" stroke="#fe9f43" stroke-width="1.51"/><path d="M1191,-4L1492,-58L1105,-360Z" fill="#f8813b" stroke="#f8813b" stroke-width="1.51"/><path d="M1187,161L1492,-58L1191,-4Z" fill="#f4692f" stroke="#f4692f" stroke-width="1.51"/><path d="M634,-470L513,-130L888,-144Z" fill="#ffb559" stroke="#ffb559" stroke-width="1.51"/><path d="M1187,161L1555,172L1492,-58Z" fill="#ee5a2b" stroke="#ee5a2b" stroke-width="1.51"/><path d="M1630,458L1555,172L1187,161Z" fill="#e83123" stroke="#e83123" stroke-width="1.51"/><path d="M969,268L1108,624L1187,161Z" fill="#f23c24" stroke="#f23c24" stroke-width="1.51"/><path d="M861,639L1108,624L969,268Z" fill="#e23c29" stroke="#e23c29" stroke-width="1.51"/><path d="M478,534L861,639L969,268Z" fill="#e7562d" stroke="#e7562d" stroke-width="1.51"/><path d="M1105,-360L779,-483L888,-144Z" fill="#ffa85c" stroke="#ffa85c" stroke-width="1.51"/><path d="M779,-483L634,-470L888,-144Z" fill="#ffb766" stroke="#ffb766" stroke-width="1.51"/><path d="M567,127L478,534L969,268Z" fill="#f86b30" stroke="#f86b30" stroke-width="1.51"/><path d="M217,189L478,534L567,127Z" fill="#fb7e37" stroke="#fb7e37" stroke-width="1.51"/><path d="M1108,624L1630,458L1187,161Z" fill="#e3201f" stroke="#e3201f" stroke-width="1.51"/><path d="M1492,-58L1598,-383L1105,-360Z" fill="#f58a48" stroke="#f58a48" stroke-width="1.51"/><path d="M1105,-360L1598,-383L779,-483Z" fill="#ff9e5f" stroke="#ff9e5f" stroke-width="1.51"/><path d="M1877,-83L1598,-383L1492,-58Z" fill="#e47841" stroke="#e47841" stroke-width="1.51"/><path d="M1877,-83L1492,-58L1555,172Z" fill="#e26033" stroke="#e26033" stroke-width="1.51"/><path d="M185,-16L567,127L513,-130Z" fill="#fea747" stroke="#fea747" stroke-width="1.51"/><path d="M185,-16L217,189L567,127Z" fill="#fea046" stroke="#fea046" stroke-width="1.51"/><path d="M268,-460L185,-16L513,-130Z" fill="#ffc45f" stroke="#ffc45f" stroke-width="1.51"/><path d="M1630,458L1845,221L1555,172Z" fill="#d92826" stroke="#d92826" stroke-width="1.51"/><path d="M1845,221L1877,-83L1555,172Z" fill="#d74f2f" stroke="#d74f2f" stroke-width="1.51"/><path d="M634,-470L268,-460L513,-130Z" fill="#ffc76c" stroke="#ffc76c" stroke-width="1.51"/><path d="M779,-483L268,-460L634,-470Z" fill="#ffc979" stroke="#ffc979" stroke-width="1.51"/><path d="M217,189L185,594L478,534Z" fill="#ef793a" stroke="#ef793a" stroke-width="1.51"/><path d="M478,534L185,594L861,639Z" fill="#d96336" stroke="#d96336" stroke-width="1.51"/><path d="M-120,330L185,594L217,189Z" fill="#f88b46" stroke="#f88b46" stroke-width="1.51"/><path d="M1877,-83L1920,-339L1598,-383Z" fill="#d87f4d" stroke="#d87f4d" stroke-width="1.51"/><path d="M2278,-121L1920,-339L1877,-83Z" fill="#c06d44" stroke="#c06d44" stroke-width="1.51"/><path d="M1845,221L2089,138L1877,-83Z" fill="#c54d31" stroke="#c54d31" stroke-width="1.51"/><path d="M1630,458L1879,598L1845,221Z" fill="#c40b23" stroke="#c40b23" stroke-width="1.51"/><path d="M1108,624L1879,598L1630,458Z" fill="#c50724" stroke="#c50724" stroke-width="1.51"/><path d="M2278,611L1879,598L1108,624Z" fill="#ad0026" stroke="#ad0026" stroke-width="1.51"/><path d="M1879,598L2089,138L1845,221Z" fill="#be1e26" stroke="#be1e26" stroke-width="1.51"/><path d="M-160,-151L-120,330L185,-16Z" fill="#ffb960" stroke="#ffb960" stroke-width="1.51"/><path d="M185,-16L-120,330L217,189Z" fill="#ffa351" stroke="#ffa351" stroke-width="1.51"/><path d="M-123,-342L-160,-151L185,-16Z" fill="#ffd272" stroke="#ffd272" stroke-width="1.51"/><path d="M268,-460L-123,-342L185,-16Z" fill="#fed776" stroke="#fed776" stroke-width="1.51"/><path d="M2278,611L2278,-121L2089,138Z" fill="#bc312b" stroke="#bc312b" stroke-width="1.51"/><path d="M2089,138L2278,-121L1877,-83Z" fill="#be5a37" stroke="#be5a37" stroke-width="1.51"/><path d="M-120,330L-191,544L185,594Z" fill="#ec8850" stroke="#ec8850" stroke-width="1.51"/><path d="M-382,581L-191,544L-120,330Z" fill="#ee8f5c" stroke="#ee8f5c" stroke-width="1.51"/><path d="M-160,-151L-327,-68L-120,330Z" fill="#ffc06c" stroke="#ffc06c" stroke-width="1.51"/><path d="M-395,-436L-327,-68L-160,-151Z" fill="#ffdf89" stroke="#ffdf89" stroke-width="1.51"/><path d="M2278,-121L2269,-477L1920,-339Z" fill="#c27a53" stroke="#c27a53" stroke-width="1.51"/><path d="M1920,-339L2269,-477L1598,-383Z" fill="#cc825d" stroke="#cc825d" stroke-width="1.51"/><path d="M1598,-383L2269,-477L779,-483Z" fill="#ef9161" stroke="#ef9161" stroke-width="1.51"/><path d="M1879,598L2278,611L2089,138Z" fill="#aa0724" stroke="#aa0724" stroke-width="1.51"/><path d="M861,639L2278,611L1108,624Z" fill="#c00b23" stroke="#c00b23" stroke-width="1.51"/><path d="M-327,-68L-398,164L-120,330Z" fill="#ffb36b" stroke="#ffb36b" stroke-width="1.51"/><path d="M-398,164L-382,581L-120,330Z" fill="#fd9960" stroke="#fd9960" stroke-width="1.51"/><path d="M-191,544L-382,581L185,594Z" fill="#e18657" stroke="#e18657" stroke-width="1.51"/><path d="M185,594L-382,581L861,639Z" fill="#d87543" stroke="#d87543" stroke-width="1.51"/><path d="M-327,-68L-395,-436L-398,164Z" fill="#ffd581" stroke="#ffd581" stroke-width="1.51"/><path d="M-123,-342L-395,-436L-160,-151Z" fill="#ffe590" stroke="#ffe590" stroke-width="1.51"/><path d="M268,-460L-395,-436L-123,-342Z" fill="#ffe795" stroke="#ffe795" stroke-width="1.51"/><path d="M779,-483L-395,-436L268,-460Z" fill="#ffdc87" stroke="#ffdc87" stroke-width="1.51"/></svg>