<svg xmlns="http://www.w3.org/2000/svg" width="1440" height="140"><path d="M945,0L936,209L1082,134Z" fill="#4996c3" stroke="#4996c3" stroke-width="1.51"/><path d="M1082,134L1139,-58L945,0Z" fill="#649cc8" stroke="#649cc8" stroke-width="1.51"/><path d="M945,0L729,206L936,209Z" fill="#4f98c5" stroke="#4f98c5" stroke-width="1.51"/><path d="M1082,134L1270,26L1139,-58Z" fill="#5c94c4" stroke="#5c94c4" stroke-width="1.51"/><path d="M1139,-58L1080,-189L945,0Z" fill="#81a7cf" stroke="#81a7cf" stroke-width="1.51"/><path d="M945,0L678,-30L729,206Z" fill="#71a7cd" stroke="#71a7cd" stroke-width="1.51"/><path d="M1278,-205L1080,-189L1139,-58Z" fill="#8aa8cf" stroke="#8aa8cf" stroke-width="1.51"/><path d="M936,209L1119,385L1082,134Z" fill="#227eb8" stroke="#227eb8" stroke-width="1.51"/><path d="M1082,134L1286,165L1270,26Z" fill="#4089bd" stroke="#4089bd" stroke-width="1.51"/><path d="M865,400L1119,385L936,209Z" fill="#2377aa" stroke="#2377aa" stroke-width="1.51"/><path d="M716,326L865,400L936,209Z" fill="#3a7fb2" stroke="#3a7fb2" stroke-width="1.51"/><path d="M1119,385L1286,165L1082,134Z" fill="#1b79b5" stroke="#1b79b5" stroke-width="1.51"/><path d="M732,-202L678,-30L945,0Z" fill="#95b5d6" stroke="#95b5d6" stroke-width="1.51"/><path d="M729,206L716,326L936,209Z" fill="#458abf" stroke="#458abf" stroke-width="1.51"/><path d="M559,122L716,326L729,206Z" fill="#5895c4" stroke="#5895c4" stroke-width="1.51"/><path d="M1080,-189L949,-269L945,0Z" fill="#92b3d5" stroke="#92b3d5" stroke-width="1.51"/><path d="M1119,385L1229,390L1286,165Z" fill="#096ba6" stroke="#096ba6" stroke-width="1.51"/><path d="M865,400L1229,390L1119,385Z" fill="#186797" stroke="#186797" stroke-width="1.51"/><path d="M949,-269L732,-202L945,0Z" fill="#9cbad9" stroke="#9cbad9" stroke-width="1.51"/><path d="M549,-81L559,122L678,-30Z" fill="#93b5d6" stroke="#93b5d6" stroke-width="1.51"/><path d="M678,-30L559,122L729,206Z" fill="#72a7ce" stroke="#72a7ce" stroke-width="1.51"/><path d="M1080,-189L1278,-205L949,-269Z" fill="#97b3d6" stroke="#97b3d6" stroke-width="1.51"/><path d="M1270,26L1278,-205L1139,-58Z" fill="#799cc9" stroke="#799cc9" stroke-width="1.51"/><path d="M1425,-192L1278,-205L1270,26Z" fill="#819bc5" stroke="#819bc5" stroke-width="1.51"/><path d="M553,-179L549,-81L678,-30Z" fill="#abc0dd" stroke="#abc0dd" stroke-width="1.51"/><path d="M1456,113L1435,14L1270,26Z" fill="#5087b6" stroke="#5087b6" stroke-width="1.51"/><path d="M1456,113L1270,26L1286,165Z" fill="#3f83b6" stroke="#3f83b6" stroke-width="1.51"/><path d="M1524,295L1456,113L1286,165Z" fill="#1c73a9" stroke="#1c73a9" stroke-width="1.51"/><path d="M559,122L588,403L716,326Z" fill="#578dbd" stroke="#578dbd" stroke-width="1.51"/><path d="M716,326L588,403L865,400Z" fill="#447ba6" stroke="#447ba6" stroke-width="1.51"/><path d="M732,-202L553,-179L678,-30Z" fill="#adc2de" stroke="#adc2de" stroke-width="1.51"/><path d="M332,-214L553,-179L732,-202Z" fill="#c1cde4" stroke="#c1cde4" stroke-width="1.51"/><path d="M1278,-205L1614,-264L949,-269Z" fill="#93aacf" stroke="#93aacf" stroke-width="1.51"/><path d="M1435,14L1425,-192L1270,26Z" fill="#6d92bd" stroke="#6d92bd" stroke-width="1.51"/><path d="M1650,-28L1425,-192L1435,14Z" fill="#6e8eb5" stroke="#6e8eb5" stroke-width="1.51"/><path d="M1456,113L1650,-28L1435,14Z" fill="#5382ae" stroke="#5382ae" stroke-width="1.51"/><path d="M1229,390L1524,295L1286,165Z" fill="#0568a3" stroke="#0568a3" stroke-width="1.51"/><path d="M332,-214L314,3L549,-81Z" fill="#bcc7e1" stroke="#bcc7e1" stroke-width="1.51"/><path d="M549,-81L314,3L559,122Z" fill="#9bb8d8" stroke="#9bb8d8" stroke-width="1.51"/><path d="M559,122L300,306L588,403Z" fill="#6792c1" stroke="#6792c1" stroke-width="1.51"/><path d="M314,3L304,195L559,122Z" fill="#8bb0d4" stroke="#8bb0d4" stroke-width="1.51"/><path d="M1524,295L1658,136L1456,113Z" fill="#1d6e9f" stroke="#1d6e9f" stroke-width="1.51"/><path d="M1658,136L1650,-28L1456,113Z" fill="#4379a3" stroke="#4379a3" stroke-width="1.51"/><path d="M304,195L300,306L559,122Z" fill="#77a1cc" stroke="#77a1cc" stroke-width="1.51"/><path d="M1801,376L1655,305L1524,295Z" fill="#045280" stroke="#045280" stroke-width="1.51"/><path d="M1524,295L1655,305L1658,136Z" fill="#095f92" stroke="#095f92" stroke-width="1.51"/><path d="M949,-269L332,-214L732,-202Z" fill="#b8cbe3" stroke="#b8cbe3" stroke-width="1.51"/><path d="M553,-179L332,-214L549,-81Z" fill="#c0cbe3" stroke="#c0cbe3" stroke-width="1.51"/><path d="M1425,-192L1614,-264L1278,-205Z" fill="#8ca1c3" stroke="#8ca1c3" stroke-width="1.51"/><path d="M1650,-28L1614,-264L1425,-192Z" fill="#7e93b4" stroke="#7e93b4" stroke-width="1.51"/><path d="M332,-214L180,-42L314,3Z" fill="#c3cbe2" stroke="#c3cbe2" stroke-width="1.51"/><path d="M314,3L109,119L304,195Z" fill="#98b6d7" stroke="#98b6d7" stroke-width="1.51"/><path d="M304,195L160,332L300,306Z" fill="#7c9ac6" stroke="#7c9ac6" stroke-width="1.51"/><path d="M109,119L160,332L304,195Z" fill="#87a7cf" stroke="#87a7cf" stroke-width="1.51"/><path d="M300,306L160,332L588,403Z" fill="#6f8eb7" stroke="#6f8eb7" stroke-width="1.51"/><path d="M180,-42L109,119L314,3Z" fill="#afc1de" stroke="#afc1de" stroke-width="1.51"/><path d="M1650,-28L1890,-195L1614,-264Z" fill="#7787a2" stroke="#7787a2" stroke-width="1.51"/><path d="M1658,136L1903,-37L1650,-28Z" fill="#4d7496" stroke="#4d7496" stroke-width="1.51"/><path d="M1655,305L1857,202L1658,136Z" fill="#125c89" stroke="#125c89" stroke-width="1.51"/><path d="M1229,390L1801,376L1524,295Z" fill="#04588a" stroke="#04588a" stroke-width="1.51"/><path d="M865,400L1801,376L1229,390Z" fill="#045b8f" stroke="#045b8f" stroke-width="1.51"/><path d="M-62,-73L26,179L109,119Z" fill="#adc4de" stroke="#adc4de" stroke-width="1.51"/><path d="M332,-214L176,-254L180,-42Z" fill="#d6d6e9" stroke="#d6d6e9" stroke-width="1.51"/><path d="M949,-269L176,-254L332,-214Z" fill="#cbd4e8" stroke="#cbd4e8" stroke-width="1.51"/><path d="M1801,376L1857,202L1655,305Z" fill="#034f7c" stroke="#034f7c" stroke-width="1.51"/><path d="M1857,202L1903,-37L1658,136Z" fill="#366a8f" stroke="#366a8f" stroke-width="1.51"/><path d="M109,119L26,179L160,332Z" fill="#8eacd2" stroke="#8eacd2" stroke-width="1.51"/><path d="M-62,-73L109,119L180,-42Z" fill="#bccae2" stroke="#bccae2" stroke-width="1.51"/><path d="M1903,-37L1890,-195L1650,-28Z" fill="#687d9a" stroke="#687d9a" stroke-width="1.51"/><path d="M-52,-187L-62,-73L180,-42Z" fill="#d7d7e9" stroke="#d7d7e9" stroke-width="1.51"/><path d="M176,-254L-52,-187L180,-42Z" fill="#dcdaeb" stroke="#dcdaeb" stroke-width="1.51"/><path d="M26,179L-68,363L160,332Z" fill="#89a1c8" stroke="#89a1c8" stroke-width="1.51"/><path d="M160,332L-68,363L588,403Z" fill="#778fb4" stroke="#778fb4" stroke-width="1.51"/><path d="M-158,131L-68,363L26,179Z" fill="#95b0d4" stroke="#95b0d4" stroke-width="1.51"/><path d="M-248,20L-158,131L-62,-73Z" fill="#c1cfe6" stroke="#c1cfe6" stroke-width="1.51"/><path d="M-62,-73L-158,131L26,179Z" fill="#b1c7e0" stroke="#b1c7e0" stroke-width="1.51"/><path d="M-259,-172L-248,20L-62,-73Z" fill="#dadbec" stroke="#dadbec" stroke-width="1.51"/><path d="M-158,131L-243,301L-68,363Z" fill="#94abd2" stroke="#94abd2" stroke-width="1.51"/><path d="M-248,20L-243,301L-158,131Z" fill="#a5c1dd" stroke="#a5c1dd" stroke-width="1.51"/><path d="M-248,20L-259,-172L-243,301Z" fill="#bfcfe6" stroke="#bfcfe6" stroke-width="1.51"/><path d="M-52,-187L-259,-172L-62,-73Z" fill="#e4e1ee" stroke="#e4e1ee" stroke-width="1.51"/><path d="M176,-254L-259,-172L-52,-187Z" fill="#eae5f1" stroke="#eae5f1" stroke-width="1.51"/></svg>