<svg xmlns="http://www.w3.org/2000/svg" width="1440" height="900"><path d="M728,425L709,174L533,403Z" fill="#fbeddb" stroke="#fbeddb" stroke-width="1.51"/><path d="M709,174L381,118L533,403Z" fill="#fee0b9" stroke="#fee0b9" stroke-width="1.51"/><path d="M728,425L965,83L709,174Z" fill="#f8e3ce" stroke="#f8e3ce" stroke-width="1.51"/><path d="M752,730L938,500L728,425Z" fill="#e9eaf2" stroke="#e9eaf2" stroke-width="1.51"/><path d="M709,174L751,-49L381,118Z" fill="#ffd4a2" stroke="#ffd4a2" stroke-width="1.51"/><path d="M965,83L751,-49L709,174Z" fill="#fad3ac" stroke="#fad3ac" stroke-width="1.51"/><path d="M938,500L965,83L728,425Z" fill="#f0e6e0" stroke="#f0e6e0" stroke-width="1.51"/><path d="M533,403L752,730L728,425Z" fill="#f3efef" stroke="#f3efef" stroke-width="1.51"/><path d="M533,403L389,695L752,730Z" fill="#eee3dd" stroke="#eee3dd" stroke-width="1.51"/><path d="M217,499L389,695L533,403Z" fill="#f7ddc4" stroke="#f7ddc4" stroke-width="1.51"/><path d="M381,118L217,499L533,403Z" fill="#feddb4" stroke="#feddb4" stroke-width="1.51"/><path d="M751,-49L473,-159L381,118Z" fill="#fac183" stroke="#fac183" stroke-width="1.51"/><path d="M381,118L116,265L217,499Z" fill="#ffcf95" stroke="#ffcf95" stroke-width="1.51"/><path d="M473,-159L245,-30L381,118Z" fill="#f9b66a" stroke="#f9b66a" stroke-width="1.51"/><path d="M245,-30L116,265L381,118Z" fill="#febf72" stroke="#febf72" stroke-width="1.51"/><path d="M752,730L1028,740L938,500Z" fill="#dadbec" stroke="#dadbec" stroke-width="1.51"/><path d="M938,500L1222,248L965,83Z" fill="#e6d6d0" stroke="#e6d6d0" stroke-width="1.51"/><path d="M1236,510L1222,248L938,500Z" fill="#dcd6e4" stroke="#dcd6e4" stroke-width="1.51"/><path d="M751,-49L731,-290L473,-159Z" fill="#f0b47f" stroke="#f0b47f" stroke-width="1.51"/><path d="M965,-283L731,-290L751,-49Z" fill="#e6ad84" stroke="#e6ad84" stroke-width="1.51"/><path d="M1030,-160L751,-49L965,83Z" fill="#eebc95" stroke="#eebc95" stroke-width="1.51"/><path d="M1269,-23L1030,-160L965,83Z" fill="#e3af91" stroke="#e3af91" stroke-width="1.51"/><path d="M1028,740L1236,510L938,500Z" fill="#d4d5e8" stroke="#d4d5e8" stroke-width="1.51"/><path d="M217,499L102,639L389,695Z" fill="#f3ccaa" stroke="#f3ccaa" stroke-width="1.51"/><path d="M-120,458L102,639L217,499Z" fill="#f3bf94" stroke="#f3bf94" stroke-width="1.51"/><path d="M389,695L450,926L752,730Z" fill="#dececf" stroke="#dececf" stroke-width="1.51"/><path d="M752,730L751,1009L1028,740Z" fill="#cdcae2" stroke="#cdcae2" stroke-width="1.51"/><path d="M207,1034L450,926L389,695Z" fill="#d5b3ab" stroke="#d5b3ab" stroke-width="1.51"/><path d="M473,-159L366,-293L245,-30Z" fill="#eea455" stroke="#eea455" stroke-width="1.51"/><path d="M731,-290L366,-293L473,-159Z" fill="#e5a56b" stroke="#e5a56b" stroke-width="1.51"/><path d="M1030,-160L965,-283L751,-49Z" fill="#e5ac84" stroke="#e5ac84" stroke-width="1.51"/><path d="M1222,248L1269,-23L965,83Z" fill="#e2baa7" stroke="#e2baa7" stroke-width="1.51"/><path d="M1030,-160L1314,-367L965,-283Z" fill="#cc9078" stroke="#cc9078" stroke-width="1.51"/><path d="M1587,176L1269,-23L1222,248Z" fill="#cea6a0" stroke="#cea6a0" stroke-width="1.51"/><path d="M450,926L751,1009L752,730Z" fill="#cfc5d6" stroke="#cfc5d6" stroke-width="1.51"/><path d="M102,639L207,1034L389,695Z" fill="#e2b7a0" stroke="#e2b7a0" stroke-width="1.51"/><path d="M116,265L-120,458L217,499Z" fill="#f9c38f" stroke="#f9c38f" stroke-width="1.51"/><path d="M-179,173L-120,458L116,265Z" fill="#f0af70" stroke="#f0af70" stroke-width="1.51"/><path d="M-179,173L116,265L-105,-135Z" fill="#ed9d46" stroke="#ed9d46" stroke-width="1.51"/><path d="M1236,510L1528,390L1222,248Z" fill="#cbbed0" stroke="#cbbed0" stroke-width="1.51"/><path d="M1028,740L1325,690L1236,510Z" fill="#c6c3df" stroke="#c6c3df" stroke-width="1.51"/><path d="M1207,911L1325,690L1028,740Z" fill="#bab4d7" stroke="#bab4d7" stroke-width="1.51"/><path d="M366,-293L225,-395L245,-30Z" fill="#e39444" stroke="#e39444" stroke-width="1.51"/><path d="M731,-290L225,-395L366,-293Z" fill="#db985c" stroke="#db985c" stroke-width="1.51"/><path d="M1314,-367L225,-395L731,-290Z" fill="#d8a17e" stroke="#d8a17e" stroke-width="1.51"/><path d="M751,1009L986,1046L1028,740Z" fill="#bbb6d5" stroke="#bbb6d5" stroke-width="1.51"/><path d="M-120,458L-37,761L102,639Z" fill="#e9af86" stroke="#e9af86" stroke-width="1.51"/><path d="M986,1046L1207,911L1028,740Z" fill="#b4aed2" stroke="#b4aed2" stroke-width="1.51"/><path d="M-105,-135L116,265L245,-30Z" fill="#f3a449" stroke="#f3a449" stroke-width="1.51"/><path d="M511,1290L806,1264L751,1009Z" fill="#ab90be" stroke="#ab90be" stroke-width="1.51"/><path d="M751,1009L806,1264L986,1046Z" fill="#ab9bc7" stroke="#ab9bc7" stroke-width="1.51"/><path d="M-37,761L207,1034L102,639Z" fill="#dba58b" stroke="#dba58b" stroke-width="1.51"/><path d="M225,-395L-105,-135L245,-30Z" fill="#e18a2d" stroke="#e18a2d" stroke-width="1.51"/><path d="M1325,690L1528,390L1236,510Z" fill="#beb8d6" stroke="#beb8d6" stroke-width="1.51"/><path d="M1494,815L1528,390L1325,690Z" fill="#aea7cd" stroke="#aea7cd" stroke-width="1.51"/><path d="M965,-283L1314,-367L731,-290Z" fill="#ce957a" stroke="#ce957a" stroke-width="1.51"/><path d="M1269,-23L1314,-367L1030,-160Z" fill="#ce9178" stroke="#ce9178" stroke-width="1.51"/><path d="M1549,-33L1314,-367L1269,-23Z" fill="#c1816f" stroke="#c1816f" stroke-width="1.51"/><path d="M1528,390L1587,176L1222,248Z" fill="#c2aab5" stroke="#c2aab5" stroke-width="1.51"/><path d="M-402,-33L-315,229L-179,173Z" fill="#d78b44" stroke="#d78b44" stroke-width="1.51"/><path d="M-179,173L-315,229L-120,458Z" fill="#e3a168" stroke="#e3a168" stroke-width="1.51"/><path d="M-120,458L-311,637L-37,761Z" fill="#dca380" stroke="#dca380" stroke-width="1.51"/><path d="M1587,176L1549,-33L1269,-23Z" fill="#c38f86" stroke="#c38f86" stroke-width="1.51"/><path d="M511,1290L751,1009L450,926Z" fill="#b9a2ba" stroke="#b9a2ba" stroke-width="1.51"/><path d="M986,1046L1261,1309L1207,911Z" fill="#9787bc" stroke="#9787bc" stroke-width="1.51"/><path d="M1528,390L1812,218L1587,176Z" fill="#b28aa6" stroke="#b28aa6" stroke-width="1.51"/><path d="M1207,911L1494,815L1325,690Z" fill="#a89fca" stroke="#a89fca" stroke-width="1.51"/><path d="M1523,927L1494,815L1207,911Z" fill="#978dbe" stroke="#978dbe" stroke-width="1.51"/><path d="M207,1034L511,1290L450,926Z" fill="#bc95a0" stroke="#bc95a0" stroke-width="1.51"/><path d="M-37,761L-87,1068L207,1034Z" fill="#c68977" stroke="#c68977" stroke-width="1.51"/><path d="M-315,229L-339,539L-120,458Z" fill="#dfa47a" stroke="#dfa47a" stroke-width="1.51"/><path d="M-339,539L-311,637L-120,458Z" fill="#d9a07e" stroke="#d9a07e" stroke-width="1.51"/><path d="M207,1034L90,1301L511,1290Z" fill="#b07282" stroke="#b07282" stroke-width="1.51"/><path d="M806,1264L906,1305L986,1046Z" fill="#9d84bc" stroke="#9d84bc" stroke-width="1.51"/><path d="M511,1290L906,1305L806,1264Z" fill="#9d83b2" stroke="#9d83b2" stroke-width="1.51"/><path d="M-338,981L-87,1068L-37,761Z" fill="#ba7b6c" stroke="#ba7b6c" stroke-width="1.51"/><path d="M225,-395L-170,-399L-105,-135Z" fill="#ca6e0d" stroke="#ca6e0d" stroke-width="1.51"/><path d="M-105,-135L-402,-33L-179,173Z" fill="#d7822c" stroke="#d7822c" stroke-width="1.51"/><path d="M1811,448L1812,218L1528,390Z" fill="#a984ae" stroke="#a984ae" stroke-width="1.51"/><path d="M1446,1191L1523,927L1207,911Z" fill="#897cb2" stroke="#897cb2" stroke-width="1.51"/><path d="M-342,-288L-402,-33L-105,-135Z" fill="#c4690c" stroke="#c4690c" stroke-width="1.51"/><path d="M-315,229L-402,-33L-339,539Z" fill="#d2945d" stroke="#d2945d" stroke-width="1.51"/><path d="M1829,-172L1571,-347L1549,-33Z" fill="#a3545c" stroke="#a3545c" stroke-width="1.51"/><path d="M1549,-33L1571,-347L1314,-367Z" fill="#ab6963" stroke="#ab6963" stroke-width="1.51"/><path d="M-87,1068L90,1301L207,1034Z" fill="#b26c6e" stroke="#b26c6e" stroke-width="1.51"/><path d="M511,1290L-124,1327L906,1305Z" fill="#a2738b" stroke="#a2738b" stroke-width="1.51"/><path d="M-170,-399L-342,-288L-105,-135Z" fill="#bd6109" stroke="#bd6109" stroke-width="1.51"/><path d="M1587,176L1812,218L1549,-33Z" fill="#b47b8a" stroke="#b47b8a" stroke-width="1.51"/><path d="M1811,448L1528,390L1795,760Z" fill="#a085bc" stroke="#a085bc" stroke-width="1.51"/><path d="M1795,760L1528,390L1494,815Z" fill="#9f8dc0" stroke="#9f8dc0" stroke-width="1.51"/><path d="M906,1305L1261,1309L986,1046Z" fill="#9176b4" stroke="#9176b4" stroke-width="1.51"/><path d="M-124,1327L1261,1309L906,1305Z" fill="#9d7fa9" stroke="#9d7fa9" stroke-width="1.51"/><path d="M-311,637L-338,981L-37,761Z" fill="#c58974" stroke="#c58974" stroke-width="1.51"/><path d="M-87,1068L-124,1327L90,1301Z" fill="#a04e59" stroke="#a04e59" stroke-width="1.51"/><path d="M-339,539L-338,981L-311,637Z" fill="#c28a76" stroke="#c28a76" stroke-width="1.51"/><path d="M-415,1267L-338,981L-339,539Z" fill="#a66d66" stroke="#a66d66" stroke-width="1.51"/><path d="M1261,1309L1446,1191L1207,911Z" fill="#836ead" stroke="#836ead" stroke-width="1.51"/><path d="M1523,927L1795,760L1494,815Z" fill="#8d78b4" stroke="#8d78b4" stroke-width="1.51"/><path d="M1892,965L1795,760L1523,927Z" fill="#7b5fa4" stroke="#7b5fa4" stroke-width="1.51"/><path d="M90,1301L-124,1327L511,1290Z" fill="#a15c64" stroke="#a15c64" stroke-width="1.51"/><path d="M-415,1267L-124,1327L-87,1068Z" fill="#934154" stroke="#934154" stroke-width="1.51"/><path d="M1812,218L1829,-172L1549,-33Z" fill="#a9616e" stroke="#a9616e" stroke-width="1.51"/><path d="M1892,965L1829,-172L1812,218Z" fill="#9d799b" stroke="#9d799b" stroke-width="1.51"/><path d="M1829,-172L1843,-425L1571,-347Z" fill="#8a394d" stroke="#8a394d" stroke-width="1.51"/><path d="M1571,-347L1843,-425L1314,-367Z" fill="#924e58" stroke="#924e58" stroke-width="1.51"/><path d="M1314,-367L1843,-425L225,-395Z" fill="#b98272" stroke="#b98272" stroke-width="1.51"/><path d="M225,-395L1843,-425L-170,-399Z" fill="#d19a73" stroke="#d19a73" stroke-width="1.51"/><path d="M1892,965L1843,-425L1829,-172Z" fill="#a06673" stroke="#a06673" stroke-width="1.51"/><path d="M1811,448L1892,965L1812,218Z" fill="#947aaa" stroke="#947aaa" stroke-width="1.51"/><path d="M1795,760L1892,965L1811,448Z" fill="#856aa3" stroke="#856aa3" stroke-width="1.51"/><path d="M1820,1213L1892,965L1523,927Z" fill="#674994" stroke="#674994" stroke-width="1.51"/><path d="M1820,1213L1523,927L1446,1191Z" fill="#6b4e9a" stroke="#6b4e9a" stroke-width="1.51"/><path d="M-338,981L-415,1267L-87,1068Z" fill="#9a545a" stroke="#9a545a" stroke-width="1.51"/><path d="M-402,-33L-415,1267L-339,539Z" fill="#c6947a" stroke="#c6947a" stroke-width="1.51"/><path d="M1261,1309L1820,1213L1446,1191Z" fill="#654493" stroke="#654493" stroke-width="1.51"/></svg>