<svg xmlns="http://www.w3.org/2000/svg" width="1440" height="140"><path d="M541,246L283,282L601,598Z" fill="#67af66" stroke="#67af66" stroke-width="1.51"/><path d="M283,282L188,577L601,598Z" fill="#69a865" stroke="#69a865" stroke-width="1.51"/><path d="M601,598L845,284L541,246Z" fill="#57a960" stroke="#57a960" stroke-width="1.51"/><path d="M601,598L874,606L845,284Z" fill="#449957" stroke="#449957" stroke-width="1.51"/><path d="M283,282L-43,284L188,577Z" fill="#7fb871" stroke="#7fb871" stroke-width="1.51"/><path d="M305,-143L-43,284L283,282Z" fill="#98d284" stroke="#98d284" stroke-width="1.51"/><path d="M188,577L-109,605L601,598Z" fill="#6ca164" stroke="#6ca164" stroke-width="1.51"/><path d="M601,598L-109,605L874,606Z" fill="#5a985c" stroke="#5a985c" stroke-width="1.51"/><path d="M-43,284L-109,605L188,577Z" fill="#7fb170" stroke="#7fb170" stroke-width="1.51"/><path d="M541,246L305,-143L283,282Z" fill="#8ccd7f" stroke="#8ccd7f" stroke-width="1.51"/><path d="M921,-51L562,-144L541,246Z" fill="#85cb7e" stroke="#85cb7e" stroke-width="1.51"/><path d="M562,-144L305,-143L541,246Z" fill="#9bd586" stroke="#9bd586" stroke-width="1.51"/><path d="M845,284L921,-51L541,246Z" fill="#66bc6f" stroke="#66bc6f" stroke-width="1.51"/><path d="M1261,181L921,-51L845,284Z" fill="#55b466" stroke="#55b466" stroke-width="1.51"/><path d="M874,606L1255,495L845,284Z" fill="#32934f" stroke="#32934f" stroke-width="1.51"/><path d="M581,-373L246,-361L305,-143Z" fill="#c9e99c" stroke="#c9e99c" stroke-width="1.51"/><path d="M305,-143L-140,-155L-43,284Z" fill="#b8e194" stroke="#b8e194" stroke-width="1.51"/><path d="M581,-373L305,-143L562,-144Z" fill="#b9e293" stroke="#b9e293" stroke-width="1.51"/><path d="M921,-51L581,-373L562,-144Z" fill="#a4d98b" stroke="#a4d98b" stroke-width="1.51"/><path d="M-43,284L-442,200L-109,605Z" fill="#93c27d" stroke="#93c27d" stroke-width="1.51"/><path d="M-22,-379L-140,-155L305,-143Z" fill="#d7efa2" stroke="#d7efa2" stroke-width="1.51"/><path d="M921,-51L876,-469L581,-373Z" fill="#a9da8e" stroke="#a9da8e" stroke-width="1.51"/><path d="M1255,495L1261,181L845,284Z" fill="#369b52" stroke="#369b52" stroke-width="1.51"/><path d="M1261,181L1153,-99L921,-51Z" fill="#66b86c" stroke="#66b86c" stroke-width="1.51"/><path d="M-416,-42L-442,200L-43,284Z" fill="#afdb95" stroke="#afdb95" stroke-width="1.51"/><path d="M-442,200L-471,584L-109,605Z" fill="#8eb97f" stroke="#8eb97f" stroke-width="1.51"/><path d="M876,-469L-22,-379L246,-361Z" fill="#d3eda4" stroke="#d3eda4" stroke-width="1.51"/><path d="M246,-361L-22,-379L305,-143Z" fill="#d7efa3" stroke="#d7efa3" stroke-width="1.51"/><path d="M-140,-155L-416,-42L-43,284Z" fill="#bde39a" stroke="#bde39a" stroke-width="1.51"/><path d="M-449,-446L-416,-42L-140,-155Z" fill="#e5f5b2" stroke="#e5f5b2" stroke-width="1.51"/><path d="M581,-373L876,-469L246,-361Z" fill="#c4e69d" stroke="#c4e69d" stroke-width="1.51"/><path d="M1153,-99L876,-469L921,-51Z" fill="#90ce7f" stroke="#90ce7f" stroke-width="1.51"/><path d="M1153,-99L1221,-475L876,-469Z" fill="#99cf83" stroke="#99cf83" stroke-width="1.51"/><path d="M1261,181L1468,-99L1153,-99Z" fill="#61ae65" stroke="#61ae65" stroke-width="1.51"/><path d="M1255,495L1516,298L1261,181Z" fill="#2b8d49" stroke="#2b8d49" stroke-width="1.51"/><path d="M1255,495L1573,617L1516,298Z" fill="#18793e" stroke="#18793e" stroke-width="1.51"/><path d="M874,606L1573,617L1255,495Z" fill="#1b7b41" stroke="#1b7b41" stroke-width="1.51"/><path d="M-109,605L1573,617L874,606Z" fill="#3e8c52" stroke="#3e8c52" stroke-width="1.51"/><path d="M1516,298L1468,-99L1261,181Z" fill="#449d58" stroke="#449d58" stroke-width="1.51"/><path d="M1779,295L1468,-99L1516,298Z" fill="#379251" stroke="#379251" stroke-width="1.51"/><path d="M1468,-99L1221,-475L1153,-99Z" fill="#83bd73" stroke="#83bd73" stroke-width="1.51"/><path d="M-22,-379L-449,-446L-140,-155Z" fill="#edf9b1" stroke="#edf9b1" stroke-width="1.51"/><path d="M-416,-42L-449,-446L-442,200Z" fill="#d6eeb1" stroke="#d6eeb1" stroke-width="1.51"/><path d="M-442,200L-449,-446L-471,584Z" fill="#b5dfa3" stroke="#b5dfa3" stroke-width="1.51"/><path d="M876,-469L-449,-446L-22,-379Z" fill="#e5f5af" stroke="#e5f5af" stroke-width="1.51"/><path d="M1221,-475L-449,-446L876,-469Z" fill="#c8e8a5" stroke="#c8e8a5" stroke-width="1.51"/><path d="M1573,617L1779,295L1516,298Z" fill="#16773d" stroke="#16773d" stroke-width="1.51"/><path d="M1468,-99L1494,-471L1221,-475Z" fill="#8bbb77" stroke="#8bbb77" stroke-width="1.51"/><path d="M1863,-354L1494,-471L1468,-99Z" fill="#80af70" stroke="#80af70" stroke-width="1.51"/><path d="M1573,617L1868,516L1779,295Z" fill="#096b38" stroke="#096b38" stroke-width="1.51"/><path d="M1779,295L1864,-51L1468,-99Z" fill="#489658" stroke="#489658" stroke-width="1.51"/><path d="M1868,516L1864,-51L1779,295Z" fill="#217d44" stroke="#217d44" stroke-width="1.51"/><path d="M1864,-51L1863,-354L1468,-99Z" fill="#6ba264" stroke="#6ba264" stroke-width="1.51"/><path d="M1868,516L1863,-354L1864,-51Z" fill="#478d54" stroke="#478d54" stroke-width="1.51"/></svg>