<svg xmlns="http://www.w3.org/2000/svg" width="1440" height="140"><path d="M799,-46L594,-51L541,159Z" fill="#fdfdfd" stroke="#fdfdfd" stroke-width="1.51"/><path d="M541,159L851,253L799,-46Z" fill="#fcfcfc" stroke="#fcfcfc" stroke-width="1.51"/><path d="M523,525L865,443L851,253Z" fill="#f2f2f2" stroke="#f2f2f2" stroke-width="1.51"/><path d="M851,253L1132,160L799,-46Z" fill="#f7f7f7" stroke="#f7f7f7" stroke-width="1.51"/><path d="M865,443L1132,160L851,253Z" fill="#eeeeee" stroke="#eeeeee" stroke-width="1.51"/><path d="M799,-46L530,-437L594,-51Z" fill="#fafafa" stroke="#fafafa" stroke-width="1.51"/><path d="M1132,160L1134,-80L799,-46Z" fill="#f6f6f6" stroke="#f6f6f6" stroke-width="1.51"/><path d="M541,159L523,525L851,253Z" fill="#f2f2f2" stroke="#f2f2f2" stroke-width="1.51"/><path d="M594,-51L219,-37L541,159Z" fill="#fbfbfb" stroke="#fbfbfb" stroke-width="1.51"/><path d="M541,159L219,258L523,525Z" fill="#f0f0f0" stroke="#f0f0f0" stroke-width="1.51"/><path d="M530,-437L219,-37L594,-51Z" fill="#f8f8f8" stroke="#f8f8f8" stroke-width="1.51"/><path d="M1134,-80L927,-360L799,-46Z" fill="#f5f5f5" stroke="#f5f5f5" stroke-width="1.51"/><path d="M219,-37L219,258L541,159Z" fill="#f8f8f8" stroke="#f8f8f8" stroke-width="1.51"/><path d="M927,-360L530,-437L799,-46Z" fill="#fafafa" stroke="#fafafa" stroke-width="1.51"/><path d="M927,-360L1080,-405L530,-437Z" fill="#fafafa" stroke="#fafafa" stroke-width="1.51"/><path d="M1134,-80L1080,-405L927,-360Z" fill="#f3f3f3" stroke="#f3f3f3" stroke-width="1.51"/><path d="M219,258L288,563L523,525Z" fill="#f1f1f1" stroke="#f1f1f1" stroke-width="1.51"/><path d="M1132,160L1443,-15L1134,-80Z" fill="#f1f1f1" stroke="#f1f1f1" stroke-width="1.51"/><path d="M865,443L1167,502L1132,160Z" fill="#e8e8e8" stroke="#e8e8e8" stroke-width="1.51"/><path d="M523,525L1167,502L865,443Z" fill="#f2f2f2" stroke="#f2f2f2" stroke-width="1.51"/><path d="M288,563L1167,502L523,525Z" fill="#f7f7f7" stroke="#f7f7f7" stroke-width="1.51"/><path d="M219,-37L60,283L219,258Z" fill="#f5f5f5" stroke="#f5f5f5" stroke-width="1.51"/><path d="M219,258L60,283L288,563Z" fill="#ececec" stroke="#ececec" stroke-width="1.51"/><path d="M219,-37L-57,-151L60,283Z" fill="#fafafa" stroke="#fafafa" stroke-width="1.51"/><path d="M530,-437L269,-437L219,-37Z" fill="#f8f8f8" stroke="#f8f8f8" stroke-width="1.51"/><path d="M1134,-80L1479,-297L1080,-405Z" fill="#ededed" stroke="#ededed" stroke-width="1.51"/><path d="M1517,264L1443,-15L1132,160Z" fill="#eeeeee" stroke="#eeeeee" stroke-width="1.51"/><path d="M269,-437L67,-356L219,-37Z" fill="#f6f6f6" stroke="#f6f6f6" stroke-width="1.51"/><path d="M1167,502L1386,449L1132,160Z" fill="#e4e4e4" stroke="#e4e4e4" stroke-width="1.51"/><path d="M67,-356L-57,-151L219,-37Z" fill="#f6f6f6" stroke="#f6f6f6" stroke-width="1.51"/><path d="M1386,449L1517,264L1132,160Z" fill="#e6e6e6" stroke="#e6e6e6" stroke-width="1.51"/><path d="M60,283L-32,552L288,563Z" fill="#f0f0f0" stroke="#f0f0f0" stroke-width="1.51"/><path d="M-333,252L-32,552L60,283Z" fill="#ededed" stroke="#ededed" stroke-width="1.51"/><path d="M1443,-15L1479,-297L1134,-80Z" fill="#eeeeee" stroke="#eeeeee" stroke-width="1.51"/><path d="M1690,-381L1479,-297L1800,-44Z" fill="#f3f3f3" stroke="#f3f3f3" stroke-width="1.51"/><path d="M-57,-151L-304,-33L60,283Z" fill="#fbfbfb" stroke="#fbfbfb" stroke-width="1.51"/><path d="M-229,-316L-304,-33L-57,-151Z" fill="#f9f9f9" stroke="#f9f9f9" stroke-width="1.51"/><path d="M67,-356L-229,-316L-57,-151Z" fill="#f8f8f8" stroke="#f8f8f8" stroke-width="1.51"/><path d="M269,-437L-229,-316L67,-356Z" fill="#f8f8f8" stroke="#f8f8f8" stroke-width="1.51"/><path d="M-304,-33L-333,252L60,283Z" fill="#f8f8f8" stroke="#f8f8f8" stroke-width="1.51"/><path d="M1517,264L1800,-44L1443,-15Z" fill="#f6f6f6" stroke="#f6f6f6" stroke-width="1.51"/><path d="M1791,538L1777,248L1517,264Z" fill="#ebebeb" stroke="#ebebeb" stroke-width="1.51"/><path d="M1479,-297L1690,-381L1080,-405Z" fill="#f0f0f0" stroke="#f0f0f0" stroke-width="1.51"/><path d="M1080,-405L1690,-381L530,-437Z" fill="#f4f4f4" stroke="#f4f4f4" stroke-width="1.51"/><path d="M1800,-44L1479,-297L1443,-15Z" fill="#f3f3f3" stroke="#f3f3f3" stroke-width="1.51"/><path d="M1777,248L1800,-44L1517,264Z" fill="#f4f4f4" stroke="#f4f4f4" stroke-width="1.51"/><path d="M-333,252L-321,571L-32,552Z" fill="#f3f3f3" stroke="#f3f3f3" stroke-width="1.51"/><path d="M-32,552L-321,571L288,563Z" fill="#f6f6f6" stroke="#f6f6f6" stroke-width="1.51"/><path d="M1777,248L1791,538L1800,-44Z" fill="#f2f2f2" stroke="#f2f2f2" stroke-width="1.51"/><path d="M1386,449L1791,538L1517,264Z" fill="#eaeaea" stroke="#eaeaea" stroke-width="1.51"/><path d="M1167,502L1791,538L1386,449Z" fill="#ebebeb" stroke="#ebebeb" stroke-width="1.51"/><path d="M288,563L1791,538L1167,502Z" fill="#efefef" stroke="#efefef" stroke-width="1.51"/></svg>