<svg xmlns="http://www.w3.org/2000/svg" width="1440" height="120"><path d="M724,191L446,200L717,463Z" fill="#7a09e1" stroke="#7a09e1" stroke-width="1.51"/><path d="M446,200L438,480L717,463Z" fill="#7416d9" stroke="#7416d9" stroke-width="1.51"/><path d="M724,191L451,-74L446,200Z" fill="#8510f3" stroke="#8510f3" stroke-width="1.51"/><path d="M446,200L164,466L438,480Z" fill="#6c16d3" stroke="#6c16d3" stroke-width="1.51"/><path d="M724,191L728,-88L451,-74Z" fill="#8711f8" stroke="#8711f8" stroke-width="1.51"/><path d="M717,463L1003,202L724,191Z" fill="#7a07df" stroke="#7a07df" stroke-width="1.51"/><path d="M993,-75L728,-88L724,191Z" fill="#8810f6" stroke="#8810f6" stroke-width="1.51"/><path d="M717,463L1000,466L1003,202Z" fill="#7613d6" stroke="#7613d6" stroke-width="1.51"/><path d="M438,480L1000,466L717,463Z" fill="#8328e1" stroke="#8328e1" stroke-width="1.51"/><path d="M181,-80L162,196L446,200Z" fill="#7810e9" stroke="#7810e9" stroke-width="1.51"/><path d="M162,196L164,466L446,200Z" fill="#680bd4" stroke="#680bd4" stroke-width="1.51"/><path d="M1003,202L993,-75L724,191Z" fill="#850def" stroke="#850def" stroke-width="1.51"/><path d="M438,-344L181,-80L451,-74Z" fill="#6812e0" stroke="#6812e0" stroke-width="1.51"/><path d="M451,-74L181,-80L446,200Z" fill="#7b12ef" stroke="#7b12ef" stroke-width="1.51"/><path d="M1003,202L1258,201L993,-75Z" fill="#7f0ae6" stroke="#7f0ae6" stroke-width="1.51"/><path d="M1000,466L1258,201L1003,202Z" fill="#7004d1" stroke="#7004d1" stroke-width="1.51"/><path d="M728,-88L438,-344L451,-74Z" fill="#7012e6" stroke="#7012e6" stroke-width="1.51"/><path d="M721,-360L438,-344L728,-88Z" fill="#7413ea" stroke="#7413ea" stroke-width="1.51"/><path d="M1000,466L1262,474L1258,201Z" fill="#6d11c8" stroke="#6d11c8" stroke-width="1.51"/><path d="M438,480L1262,474L1000,466Z" fill="#7c26d8" stroke="#7c26d8" stroke-width="1.51"/><path d="M1004,-341L728,-88L993,-75Z" fill="#710fe3" stroke="#710fe3" stroke-width="1.51"/><path d="M1004,-341L721,-360L728,-88Z" fill="#7412e8" stroke="#7412e8" stroke-width="1.51"/><path d="M-97,-75L-97,187L162,196Z" fill="#7512e8" stroke="#7512e8" stroke-width="1.51"/><path d="M162,196L-97,187L164,466Z" fill="#630cd0" stroke="#630cd0" stroke-width="1.51"/><path d="M-97,-75L162,196L181,-80Z" fill="#7012e6" stroke="#7012e6" stroke-width="1.51"/><path d="M-97,187L-113,473L164,466Z" fill="#6515ce" stroke="#6515ce" stroke-width="1.51"/><path d="M164,466L-113,473L438,480Z" fill="#6a25ce" stroke="#6a25ce" stroke-width="1.51"/><path d="M1278,-72L1004,-341L993,-75Z" fill="#6b0dda" stroke="#6b0dda" stroke-width="1.51"/><path d="M-385,197L-382,460L-113,473Z" fill="#6f18d8" stroke="#6f18d8" stroke-width="1.51"/><path d="M-97,-342L-97,-75L181,-80Z" fill="#6013db" stroke="#6013db" stroke-width="1.51"/><path d="M1258,201L1278,-72L993,-75Z" fill="#7b0ae3" stroke="#7b0ae3" stroke-width="1.51"/><path d="M1540,190L1278,-72L1258,201Z" fill="#760ad9" stroke="#760ad9" stroke-width="1.51"/><path d="M721,-360L172,-353L438,-344Z" fill="#7215ea" stroke="#7215ea" stroke-width="1.51"/><path d="M438,-344L172,-353L181,-80Z" fill="#6213dd" stroke="#6213dd" stroke-width="1.51"/><path d="M1278,-72L1269,-345L1004,-341Z" fill="#670dd4" stroke="#670dd4" stroke-width="1.51"/><path d="M1004,-341L1269,-345L721,-360Z" fill="#7511e5" stroke="#7511e5" stroke-width="1.51"/><path d="M172,-353L-97,-342L181,-80Z" fill="#5b13d8" stroke="#5b13d8" stroke-width="1.51"/><path d="M-385,197L-113,473L-97,187Z" fill="#6d0ed9" stroke="#6d0ed9" stroke-width="1.51"/><path d="M1278,-72L1535,-349L1269,-345Z" fill="#620ecc" stroke="#620ecc" stroke-width="1.51"/><path d="M1262,474L1540,190L1258,201Z" fill="#6804c4" stroke="#6804c4" stroke-width="1.51"/><path d="M1262,474L1551,481L1540,190Z" fill="#6b1ac1" stroke="#6b1ac1" stroke-width="1.51"/><path d="M438,480L1551,481L1262,474Z" fill="#7625ce" stroke="#7625ce" stroke-width="1.51"/><path d="M-385,197L-97,187L-372,-87Z" fill="#7f15f2" stroke="#7f15f2" stroke-width="1.51"/><path d="M-372,-87L-97,187L-97,-75Z" fill="#7915ef" stroke="#7915ef" stroke-width="1.51"/><path d="M1540,190L1535,-72L1278,-72Z" fill="#7917dc" stroke="#7917dc" stroke-width="1.51"/><path d="M1535,-349L1535,-72L1809,-81Z" fill="#6b24cf" stroke="#6b24cf" stroke-width="1.51"/><path d="M-97,-342L-372,-87L-97,-75Z" fill="#6615e1" stroke="#6615e1" stroke-width="1.51"/><path d="M1535,-72L1535,-349L1278,-72Z" fill="#6716ce" stroke="#6716ce" stroke-width="1.51"/><path d="M1269,-345L1535,-349L721,-360Z" fill="#6e0fdc" stroke="#6e0fdc" stroke-width="1.51"/><path d="M1809,-81L1535,-72L1540,190Z" fill="#7d26dd" stroke="#7d26dd" stroke-width="1.51"/><path d="M-97,-342L-368,-362L-372,-87Z" fill="#6917e5" stroke="#6917e5" stroke-width="1.51"/><path d="M-372,-87L-368,-362L-385,197Z" fill="#7617ee" stroke="#7617ee" stroke-width="1.51"/><path d="M172,-353L-368,-362L-97,-342Z" fill="#6917e5" stroke="#6917e5" stroke-width="1.51"/><path d="M721,-360L-368,-362L172,-353Z" fill="#6616e1" stroke="#6616e1" stroke-width="1.51"/><path d="M1551,481L1819,207L1540,190Z" fill="#7021c6" stroke="#7021c6" stroke-width="1.51"/><path d="M1551,481L1825,471L1819,207Z" fill="#732dc3" stroke="#732dc3" stroke-width="1.51"/><path d="M1819,207L1809,-81L1540,190Z" fill="#812cdc" stroke="#812cdc" stroke-width="1.51"/><path d="M1819,207L1806,-353L1809,-81Z" fill="#7a31d8" stroke="#7a31d8" stroke-width="1.51"/><path d="M1809,-81L1806,-353L1535,-349Z" fill="#6d2ad0" stroke="#6d2ad0" stroke-width="1.51"/><path d="M1535,-349L1806,-353L721,-360Z" fill="#6a0fd4" stroke="#6a0fd4" stroke-width="1.51"/></svg>